<?xml version="1.0" encoding="utf-8"?>
<!-- Generator: Adobe Illustrator 18.0.0, SVG Export Plug-In . SVG Version: 6.00 Build 0)  -->
<!DOCTYPE svg PUBLIC "-//W3C//DTD SVG 1.1//EN" "http://www.w3.org/Graphics/SVG/1.1/DTD/svg11.dtd">
<svg version="1.1" id="Layer_1" xmlns="http://www.w3.org/2000/svg" xmlns:xlink="http://www.w3.org/1999/xlink" x="0px" y="0px"
	 viewBox="0 0 75 75" enable-background="new 0 0 75 75" xml:space="preserve">
<g>
	<path fill="#FFFFFF" d="M70.3,15.3C63.6,5.7,54.6,2.5,51.1,1.5c-1.2-0.3-2.5,0.4-2.8,1.6C47,8,42.6,11.4,37.5,11.4
		c-5.1,0-9.5-3.4-10.8-8.3c-0.3-1.2-1.6-2-2.8-1.6C21.9,2,18,3.4,13.7,6.4c-0.5,0.3-0.6,1-0.3,1.5c0.3,0.5,1,0.6,1.5,0.3
		c4-2.8,7.7-4.1,9.6-4.6c0.1,0,0.2,0,0.2,0.1c1.5,5.8,6.8,9.9,12.8,9.9c6,0,11.3-4.1,12.8-9.9c0-0.1,0.1-0.2,0.2-0.1
		c3.2,0.9,11.3,3.9,17.6,12.3l-8.3,10.2c0,0-3.1-1.6-3.1-1.6c-0.8-0.4-1.8,0.4-1.5,1.3c0,0.1,3.7,12.1,3.6,28.7
		c0,0.6,0.5,1.1,1.1,1.1c0.6,0,1.1-0.5,1.1-1.1c0-12.6-2-22.7-3.1-27c0,0,5.2,2.6,5.2,2.6c1.7,0.9,3.8,0.5,5-1l4.4-5.4c0,0,0,0,0,0
		c1-1.2,1.1-2.9,0.4-4.3C72.1,17.9,71.2,16.6,70.3,15.3z M70.8,22.3l-4.4,5.4c0,0,0,0,0,0c-0.5,0.7-1.5,0.9-2.3,0.5c0,0,0,0,0,0
		L61.8,27l7.6-9.4c0.6,0.9,1.1,1.8,1.6,2.7C71.3,21,71.2,21.7,70.8,22.3z"/>
	<path fill="#FFFFFF" d="M11.6,10.7c0.4-0.4,0.5-1.1,0.1-1.5c-0.4-0.4-1.1-0.5-1.5-0.1c-2.1,1.8-3.9,3.9-5.5,6.2
		c-0.9,1.3-1.8,2.6-2.5,4.1c-0.7,1.4-0.6,3,0.4,4.3c0,0,0,0,0,0c0,0,4.4,5.4,4.4,5.4c1.2,1.5,3.3,1.9,5,1l5.2-2.6
		c-0.5,2.1-1.3,5.5-1.9,9.8c-1,6.9-1.9,17.6-0.5,29.6c0.1,1.3,0.3,2.5,0.5,3.7c0.3,1.7,1.7,2.9,3.4,2.9h8.5c1.6,0,3-1.1,3.4-2.7
		c0.3-1.3,0.6-2.6,1-3.8c0.9-2.9,3-7.9,5.9-7.9c3,0,5,4.9,5.9,7.9c0.4,1.2,0.7,2.5,1,3.8c0.4,1.6,1.7,2.7,3.4,2.7h8.5
		c1.7,0,3.2-1.2,3.4-2.9c0.6-4,1-8,1.1-12c0-0.6-0.4-1.1-1-1.1c-0.6,0-1.1,0.4-1.1,1c-0.1,2.4-0.3,4.8-0.5,7.1h-13
		c-2-5.7-4.6-8.6-7.7-8.6c-3.2,0-5.7,2.9-7.7,8.6h-13c-2.4-22.2,2.9-39.8,3-40c0.3-0.9-0.7-1.7-1.5-1.3l-3.1,1.6L6.9,15.8
		C8.3,14,9.9,12.2,11.6,10.7z M58,67.9c-0.1,0.8-0.2,1.7-0.3,2.5c-0.1,0.7-0.7,1.1-1.3,1.1h-8.5c-0.6,0-1.2-0.4-1.3-1.1
		c-0.2-0.9-0.4-1.7-0.6-2.6H58z M29.1,67.9c-0.2,0.8-0.5,1.7-0.6,2.6c-0.1,0.6-0.7,1.1-1.3,1.1h-8.5c-0.7,0-1.2-0.5-1.3-1.1
		c-0.1-0.8-0.2-1.6-0.3-2.5H29.1z M13.2,27l-2.3,1.1c0,0,0,0,0,0c-0.8,0.4-1.7,0.2-2.3-0.5c0,0,0,0,0,0l-4.4-5.4
		c-0.4-0.6-0.5-1.3-0.2-2c0.5-0.9,1-1.8,1.6-2.7L13.2,27z"/>
</g>
</svg>
