<?xml version="1.0" encoding="utf-8"?>
<!-- Generator: Adobe Illustrator 18.0.0, SVG Export Plug-In . SVG Version: 6.00 Build 0)  -->
<!DOCTYPE svg PUBLIC "-//W3C//DTD SVG 1.1//EN" "http://www.w3.org/Graphics/SVG/1.1/DTD/svg11.dtd">
<svg version="1.1" id="Layer_1" xmlns="http://www.w3.org/2000/svg" xmlns:xlink="http://www.w3.org/1999/xlink" x="0px" y="0px"
	 viewBox="0 0 75 75" enable-background="new 0 0 75 75" xml:space="preserve">
<path fill="#FFFFFF" d="M69,5.9H6L1.5,69.1h31.8l4.2-20l4.2,20h31.8L69,5.9z M67.5,31.6l-0.5,0c-3.6-0.3-6.4-3.3-6.4-6.9v-6.9h5.9
	L67.5,31.6z M9.1,9.2h56.8l0.4,5.2H8.7L9.1,9.2z M8.5,17.8h5.9v6.9c0,3.6-2.8,6.6-6.4,6.9l-0.5,0L8.5,17.8z M30.6,65.8H5.1l0.4-5.2
	h26.2L30.6,65.8z M39.9,44.4h-4.9l-2.7,12.8H5.7l1.6-22.3l0.4,0c5.6-0.1,10.1-4.7,10.1-10.2v-6.9h16.8l-6.9,12.1l2.9,1.7l6.9-12
	l6.9,12l2.9-1.7l-6.9-12.1h16.8v6.9c0,5.6,4.5,10.1,10.1,10.2l0.4,0l1.6,22.3H42.6L39.9,44.4z M43.3,60.6h26.2l0.4,5.2H44.4
	L43.3,60.6z"/>
</svg>
