<?xml version="1.0" encoding="utf-8"?>
<!-- Generator: Adobe Illustrator 18.0.0, SVG Export Plug-In . SVG Version: 6.00 Build 0)  -->
<!DOCTYPE svg PUBLIC "-//W3C//DTD SVG 1.1//EN" "http://www.w3.org/Graphics/SVG/1.1/DTD/svg11.dtd">
<svg version="1.1" id="Layer_1" xmlns="http://www.w3.org/2000/svg" xmlns:xlink="http://www.w3.org/1999/xlink" x="0px" y="0px"
	 viewBox="0 0 75 75" enable-background="new 0 0 75 75" xml:space="preserve">
<g>
	<path fill="#FFFFFF" d="M58.1,15.8V8.4c0-0.9-0.7-1.6-1.6-1.6H18.6c-0.9,0-1.6,0.7-1.6,1.6l0,7.6L1.4,55.9c-0.3,0.7,0,1.5,0.6,2
		c0.2,0.2,6.2,4,15.7,7c0.3,0.2,0.5,0.2,0.6,0.3c0.1,0,0.2,0,0.2,0l0.2,0c1.8,0.6,3.7,1,5.5,1.4c4.3,0.9,8.6,1.5,12.9,1.6l0.3,0
		l0.2,0l1.1,0c12.3,0,23.8-3.5,34.1-10.4c0.6-0.4,0.9-1.2,0.6-1.9L58.1,15.8z M20.2,10.1h34.6v4.6H20.2V10.1z M69.6,56.1
		c-3.6,2.2-7.3,4.1-11.2,5.5l-0.8,0.3L50,28.8c-0.2-0.9-1.1-1.4-2-1.2c-0.9,0.2-1.4,1.1-1.2,1.9l7.7,33.3L53.8,63
		c-4.5,1.2-9.2,1.8-13.9,1.9l-0.7,0V30.1c0-0.9-0.7-1.6-1.6-1.6c-0.9,0-1.6,0.7-1.6,1.6v34.7l-0.8,0c-4.5-0.3-9.2-1.1-13.8-2.3
		l-0.7-0.2l7.5-32.7c0.1-0.4,0-0.9-0.2-1.2c-0.2-0.4-0.6-0.6-1-0.7c-0.9-0.2-1.7,0.3-1.9,1.2l-7.5,32.5L16.8,61
		c-5.4-1.8-9.4-3.9-11.3-5L5,55.8l14.7-37.9h35.6l14.7,37.9L69.6,56.1z"/>
</g>
<g>
	<path fill="#FFFFFF" d="M71.4,15.7H3.7L1.5,31.9L2.8,32c0,0,3.8,0.5,8.8,3.9c8.4,5.8,13.8,15.5,16.9,22.5l0.4,0.8h17.3l0.4-0.8
		c3.1-7.1,8.6-16.7,16.9-22.5c5-3.5,8.7-3.9,8.7-3.9l1.4-0.1L71.4,15.7z M6,18.4h63l0.5,3.8h-64L6,18.4z M70.3,29.7
		c-1.8,0.5-4.7,1.6-8.2,3.9c-8.7,6-14.4,15.7-17.6,22.9l-0.1,0.2H30.6l-0.1-0.2c-3.3-7.1-9-16.9-17.6-22.9c-3.4-2.4-6.3-3.4-8.2-3.9
		l-0.2-0.1l0.6-4.8h64.7l0.6,4.8L70.3,29.7z"/>
</g>
</svg>
