<?xml version="1.0" encoding="utf-8"?>
<!-- Generator: Adobe Illustrator 18.0.0, SVG Export Plug-In . SVG Version: 6.00 Build 0)  -->
<!DOCTYPE svg PUBLIC "-//W3C//DTD SVG 1.1//EN" "http://www.w3.org/Graphics/SVG/1.1/DTD/svg11.dtd">
<svg version="1.1" id="Layer_1" xmlns="http://www.w3.org/2000/svg" xmlns:xlink="http://www.w3.org/1999/xlink" x="0px" y="0px"
	 viewBox="0 0 75 75" enable-background="new 0 0 75 75" xml:space="preserve">
<g>
	<path fill="#FFFFFF" d="M58.1,15.8V8.4c0-0.9-0.7-1.6-1.6-1.6H18.6c-0.9,0-1.6,0.7-1.6,1.6l0,7.6L1.4,55.9c-0.3,0.7,0,1.5,0.6,2
		c0.2,0.2,6.2,4,15.7,7c0.3,0.2,0.5,0.2,0.6,0.3c0.1,0,0.2,0,0.2,0l0.2,0c1.8,0.6,3.7,1,5.5,1.4c4.3,0.9,8.6,1.5,12.9,1.6l0.3,0
		l0.2,0l1.1,0c12.3,0,23.8-3.5,34.1-10.4c0.6-0.4,0.9-1.2,0.6-1.9L58.1,15.8z M20.2,10.1h34.6v4.6H20.2V10.1z M69.6,56.1
		c-3.6,2.2-7.3,4.1-11.2,5.5l-0.8,0.3L50,28.8c-0.2-0.9-1.1-1.4-2-1.2c-0.9,0.2-1.4,1.1-1.2,1.9l7.7,33.3L53.8,63
		c-4.5,1.2-9.2,1.8-13.9,1.9l-0.7,0V30.1c0-0.9-0.7-1.6-1.6-1.6c-0.9,0-1.6,0.7-1.6,1.6v34.7l-0.8,0c-4.5-0.3-9.2-1.1-13.8-2.3
		l-0.7-0.2l7.5-32.7c0.1-0.4,0-0.9-0.2-1.2c-0.2-0.4-0.6-0.6-1-0.7c-0.9-0.2-1.7,0.3-1.9,1.2l-7.5,32.5L16.8,61
		c-5.4-1.8-9.4-3.9-11.3-5L5,55.8l14.7-37.9h35.6l14.7,37.9L69.6,56.1z"/>
</g>
<path fill="#FFFFFF" d="M69.9,15.9l0-0.2V7.5c0-1-0.8-1.8-1.8-1.8H6.9c-1,0-1.8,0.8-1.8,1.8v8.7L3.9,30c0,0.1,0,0.2,0,0.3l-2.8,32
	c-0.1,0.9,0.5,1.7,1.4,1.9l25.8,4.9c0.9,0.2,1.7-0.4,2-1.2l7.1-22.4l7.1,22.3c0.3,0.8,1.1,1.4,2,1.2l25.8-4.8c0.9-0.2,1.5-1,1.4-1.9
	l-4-46.2C69.9,16.1,69.9,16,69.9,15.9z M67.5,28.5l-1-0.2c-4.7-1-8.3-4.7-9.4-9.3l-0.2-0.9h9.7L67.5,28.5z M8.6,9.3h57.7v5.3H8.6
	V9.3z M8.5,18.1h9.3L17.6,19c-1,4.5-4.5,8.1-9,9.2l-1,0.3L8.5,18.1z M47.5,65.3l-8.3-26.1C39,38.5,38.3,38,37.5,38
	c-0.8,0-1.4,0.5-1.7,1.2l-8.3,26.2L4.8,61.1L7.3,32l0.6-0.1c6.8-1,12.3-6.4,13.4-13.2l0.1-0.6h14.4v2.6c0,1,0.8,1.8,1.8,1.8
	c1,0,1.8-0.8,1.8-1.8v-2.6h14.1l0.1,0.6c1.1,7,6.7,12.4,13.7,13.3l0.6,0.1l2.5,29L47.5,65.3z"/>
</svg>
