<?xml version="1.0" encoding="utf-8"?>
<!-- Generator: Adobe Illustrator 18.0.0, SVG Export Plug-In . SVG Version: 6.00 Build 0)  -->
<!DOCTYPE svg PUBLIC "-//W3C//DTD SVG 1.1//EN" "http://www.w3.org/Graphics/SVG/1.1/DTD/svg11.dtd">
<svg version="1.1" id="Layer_1" xmlns="http://www.w3.org/2000/svg" xmlns:xlink="http://www.w3.org/1999/xlink" x="0px" y="0px"
	 viewBox="0 0 75 75" enable-background="new 0 0 75 75" xml:space="preserve">
<path fill="#FFFFFF" d="M32.4,39h-7.8V3.8h4.8c0.6,3.9,4,6.9,8.1,6.9s7.5-3,8.1-6.9h4.8v19.6c0,0.7,0.6,1.3,1.3,1.3
	c0.7,0,1.3-0.6,1.3-1.3V20l2.7,1.4c0.2,0.1,0.4,0.1,0.6,0.1c0.4,0,0.8-0.2,1-0.5l6.1-8.7c0.4-0.5,0.3-1.3-0.2-1.7L52.5,1.6
	c-0.2-0.2-0.5-0.3-0.8-0.3H23.3c-0.3,0-0.6,0.1-0.8,0.3l-10.7,8.9c-0.5,0.4-0.6,1.2-0.2,1.7l6.1,8.7c0.2,0.3,0.6,0.5,1,0.5
	c0.2,0,0.4,0,0.6-0.1L22,20v20.3c0,0.7,0.6,1.3,1.3,1.3h9.1c0.7,0,1.3-0.6,1.3-1.3C33.7,39.5,33.1,39,32.4,39z M55.9,18.6L53,17.1
	V5.3l7.7,6.4L55.9,18.6z M37.5,8.2c-2.7,0-4.9-1.9-5.5-4.3H43C42.4,6.3,40.2,8.2,37.5,8.2z M19.1,18.6l-4.8-6.8L22,5.3v11.8
	L19.1,18.6z"/>
<path fill="#FFFFFF" d="M62.2,26.2H36.5c-0.7,0-1.3,0.6-1.3,1.3v45c0,0.7,0.6,1.3,1.3,1.3h9.8c0.7,0,1.2-0.5,1.3-1.2l1.7-31.1
	l1.7,31.1c0,0.7,0.6,1.2,1.3,1.2h9.8c0.7,0,1.3-0.6,1.3-1.3v-45C63.5,26.7,62.9,26.2,62.2,26.2z M60.9,31.6h-4v-2.9h4V31.6z
	 M44.4,31.6v-2.9h10v2.9H44.4z M41.8,28.7v2.9h-4v-2.9H41.8z M53.6,71.2l-1.7-31.2c0-0.7-0.6-1.2-1.3-1.2h-2.4
	c-0.7,0-1.2,0.5-1.3,1.2l-1.7,31.2h-7.3v-37h23.1v37H53.6z"/>
</svg>
