<?xml version="1.0" encoding="utf-8"?>
<!-- Generator: Adobe Illustrator 18.0.0, SVG Export Plug-In . SVG Version: 6.00 Build 0)  -->
<!DOCTYPE svg PUBLIC "-//W3C//DTD SVG 1.1//EN" "http://www.w3.org/Graphics/SVG/1.1/DTD/svg11.dtd">
<svg version="1.1" id="Layer_1" xmlns="http://www.w3.org/2000/svg" xmlns:xlink="http://www.w3.org/1999/xlink" x="0px" y="0px"
	 viewBox="0 0 75 75" enable-background="new 0 0 75 75" xml:space="preserve">
<g>
	<path fill="#FFFFFF" d="M58.1,15.8V8.4c0-0.9-0.7-1.6-1.6-1.6H18.6c-0.9,0-1.6,0.7-1.6,1.6l0,7.6L1.4,55.9c-0.3,0.7,0,1.5,0.6,2
		c0.2,0.2,6.2,4,15.7,7c0.3,0.2,0.5,0.2,0.6,0.3c0.1,0,0.2,0,0.2,0l0.2,0c1.8,0.6,3.7,1,5.5,1.4c4.3,0.9,8.6,1.5,12.9,1.6l0.3,0
		l0.2,0l1.1,0c12.3,0,23.8-3.5,34.1-10.4c0.6-0.4,0.9-1.2,0.6-1.9L58.1,15.8z M20.2,10.1h34.6v4.6H20.2V10.1z M69.6,56.1
		c-3.6,2.2-7.3,4.1-11.2,5.5l-0.8,0.3L50,28.8c-0.2-0.9-1.1-1.4-2-1.2c-0.9,0.2-1.4,1.1-1.2,1.9l7.7,33.3L53.8,63
		c-4.5,1.2-9.2,1.8-13.9,1.9l-0.7,0V30.1c0-0.9-0.7-1.6-1.6-1.6c-0.9,0-1.6,0.7-1.6,1.6v34.7l-0.8,0c-4.5-0.3-9.2-1.1-13.8-2.3
		l-0.7-0.2l7.5-32.7c0.1-0.4,0-0.9-0.2-1.2c-0.2-0.4-0.6-0.6-1-0.7c-0.9-0.2-1.7,0.3-1.9,1.2l-7.5,32.5L16.8,61
		c-5.4-1.8-9.4-3.9-11.3-5L5,55.8l14.7-37.9h35.6l14.7,37.9L69.6,56.1z"/>
</g>
<path fill="#FFFFFF" d="M2.3,69.2c0.7,0.7,1.5,1.1,2.5,1.1h4.6c1.9,0,3.4-1.5,3.6-3.3c0.1-1.3,0.3-3.5,0.5-5.9
	c0.6-5.6,1.6-12.6,3.3-17.8L17,60.9l0,4c0,3,2.4,5.4,5.4,5.4h30.2c3,0,5.4-2.4,5.4-5.4l0-4l0.1-17.7c1.7,5.2,2.7,12.2,3.3,17.8
	c0.3,2.5,0.4,4.6,0.5,5.9c0.1,1.9,1.7,3.3,3.6,3.3h4.6c2,0,3.6-1.7,3.6-3.6c0-0.8-0.1-4.7-0.1-5.8c-0.4-12.5-1.5-23-3.5-31.3
	c-0.1-0.6-0.7-0.9-1.3-0.8c-0.6,0.1-0.9,0.7-0.8,1.3c1.9,7.9,3,17.9,3.4,29.8h-8c-0.8-7.4-2.4-16.9-5.3-22.1C58,37.5,58,37,58,36.8
	c-0.4-2.7-0.5-5.5-0.1-8.2c0.6-4.2,2.4-8.3,5.2-11.4c0,0,0,0,0,0c0.8,1.2,2.4,3.8,3.9,9c0.2,0.6,0.8,0.9,1.3,0.7
	c0.6-0.2,0.9-0.8,0.7-1.3c-1-3.4-2.2-6.3-3.5-8.4c-0.5-0.8-1-1.7-1.7-2.3c-3.6-3.7-10.1-4.6-12.2-4.8c-0.7-1.2-1.6-2.2-2.9-3
	c-1.7-1.1-3.4-1.5-3.8-1.6c-0.5-0.1-2.6-0.7-7.5-0.7c-2.3,0-4.2,0.1-5.8,0.3c-0.9,0.1-1.4,0.2-1.7,0.3c-0.4,0.1-2.1,0.5-3.8,1.6
	c-1.2,0.8-2.2,1.8-2.9,3c-2,0.2-8.6,1.1-12.2,4.8c-0.6,0.5-6.7,6.8-9,32.7c-0.1,0.6,0.4,1.1,1,1.2c0.6,0.1,1.1-0.4,1.2-1
	c1.2-13.3,3.4-21.1,5-25.4c1.1-2.8,2-4.4,2.7-5.2c0,0,0,0,0,0c0,0,0,0,0.1,0.1c2,2.3,6.9,9,5,20.1c0,0-0.1,0.4-0.1,0.5
	c-2.9,5.1-4.5,14.6-5.3,22.1h-8c0.1-2.7,0.2-5.4,0.4-8c0-0.6-0.4-1.1-1-1.1c-0.6,0-1.1,0.4-1.1,1c-0.2,2.9-0.3,6-0.4,9.1
	c0,1.2-0.1,5.1-0.1,5.8C1.2,67.7,1.7,68.6,2.3,69.2z M71.6,66.7c0,0.8-0.7,1.5-1.5,1.5h-4.6c-0.8,0-1.4-0.6-1.5-1.4
	c0-0.4-0.1-0.8-0.1-1.3h7.6C71.6,65.9,71.6,66.3,71.6,66.7z M71.6,62c0,0.5,0,0.9,0,1.4h-7.8c0-0.4-0.1-0.9-0.1-1.4H71.6z
	 M32.5,68.2H22.4c-1.8,0-3.3-1.5-3.3-3.3l0-2.9h13.4V68.2z M40.4,68.2h-5.8V62h5.8V68.2z M40.4,59.9h-5.8c0,0,0-39,0-39
	c0.3,0,0.6,0,0.9,0c1,0,1.7-0.1,2-0.1c0,0,0,0,0,0c0.1,0,1.4,0.1,1.8,0.1c0.4,0,0.7,0,1.1,0V59.9z M55.9,64.9c0,1.8-1.5,3.3-3.3,3.3
	H42.5V62h13.4L55.9,64.9z M52.8,14.7c0.1-0.8,0-1.7-0.2-2.5c0,0,0,0,0,0c2.2,0.3,6.3,1.2,9,3.4c-0.9,0.9-2.3,2.7-3.5,5.2
	c-2.5,5.1-3.1,11-2.2,16.5c0.1,0.3,0.1,0.6,0.2,0.9l-0.2,21.6H42.5V20.8c1.1-0.1,2.1-0.2,3.1-0.3C50.1,19.7,52.6,17.7,52.8,14.7z
	 M45.8,14.5c1-1.9,1.3-4,0.8-6.1c0-0.1,0-0.2-0.1-0.3c1.6,0.7,3.6,2.1,4.1,4.9c0.1,0.7,0.2,1.6,0,2.3c-0.3,0.8-1,1.8-3.2,2.5
	c-1.4,0.5-3,0.7-4.5,0.8c-0.4,0-0.8,0-1.2,0.1c0,0,0,0,0,0c0.3-0.2,0.6-0.4,0.9-0.6C43.9,17.1,45,15.9,45.8,14.5z M30.3,10.3
	c0-0.6,0.1-1.3,0.3-1.9c0-0.1,0.3-1,0.4-1.1c0.8-0.2,2.8-0.5,6.5-0.5c3.7,0,5.7,0.3,6.5,0.5c0.4,1,0.7,2.2,0.7,3.3
	c-0.1,3.9-3.9,6.6-7.2,7.9c-0.6-0.2-1.9-0.8-3.2-1.7c0,0,0,0,0,0C32.1,15.3,30.2,13.1,30.3,10.3z M24.3,14c0.1-2.7,1.8-4.8,4.2-5.9
	c0,0.1-0.1,0.2-0.1,0.3c0,0,0,0,0,0c-0.6,2.7,0.1,5.5,1.9,7.6c0.9,1.1,2,1.9,3,2.6c0,0,0,0,0,0c0,0-0.1,0-0.1,0
	C30.3,18.6,24.1,18.1,24.3,14z M17.4,21.8c-0.3-0.7-3.7-6.6-4-6.3c2.7-2.2,6.8-3.1,9-3.4c0,0,0,0,0,0c-0.5,2.1-0.2,4.5,1.5,6
	c1.4,1.2,3.2,1.8,4.9,2.1c1.1,0.2,2.3,0.4,3.7,0.4v39.1H19.1l-0.2-21.6c0-0.1,0-0.2,0.1-0.3C20,32.5,19.6,26.9,17.4,21.8z M3.4,62
	h7.9c0,0.5-0.1,0.9-0.1,1.4H3.4C3.4,62.9,3.4,62.4,3.4,62z M3.4,65.5H11c0,0.5-0.1,1-0.1,1.3c-0.1,0.8-0.7,1.4-1.5,1.4
	c0,0-4.6,0-4.6,0c-0.8,0-1.5-0.7-1.5-1.5C3.4,66.3,3.4,65.9,3.4,65.5z"/>
</svg>
