<?xml version="1.0" encoding="utf-8"?>
<!-- Generator: Adobe Illustrator 18.0.0, SVG Export Plug-In . SVG Version: 6.00 Build 0)  -->
<!DOCTYPE svg PUBLIC "-//W3C//DTD SVG 1.1//EN" "http://www.w3.org/Graphics/SVG/1.1/DTD/svg11.dtd">
<svg version="1.1" id="Layer_1" xmlns="http://www.w3.org/2000/svg" xmlns:xlink="http://www.w3.org/1999/xlink" x="0px" y="0px"
	 viewBox="0 0 73 73" enable-background="new 0 0 73 73" xml:space="preserve">
<path fill="#FFFFFF" d="M71,51.7c-0.2-4-2.2-7-5.7-8.7c-2.6-1.3-5.4-2.5-8.2-3.3c-5.8-1.7-11.6-3-17.4-4.5c-0.9-0.2-1.1-0.6-1.1-1.5
	c0-9.7,0-19.4,0-29.1c0-2.3-0.6-2.9-2.9-2.9c-10.3,0-20.6,0-30.9,0c-2.1,0-2.9,0.9-2.9,2.9c0,14.4,0,28.9,0,43.3c0,4.9,0,9.9,0,14.8
	c0.1,4.8,3.4,8.2,8.2,8.4h12.8H54c2.7,0,5.3-0.3,7.9-1c5.3-1.5,8.6-4.8,9.1-10.3C71.3,57.2,71.2,54.4,71,51.7z M62.9,65.4
	C60.7,66.5,58.4,67,56,67c-6.4,0.1-12.8,0.1-19.2,0.2c-8.7,0-17.5,0-26.2,0c-2.4,0-4-1.1-4.5-3.1C6,63.7,6,63.4,6,63
	c0-5.9,0-11.9,0-17.8l0,0l0-0.1c0-0.5,0-1,0-1.5c0,0,0-0.1,0-0.1l0-7.3C6,26.1,6,16.1,6,6c9.5,0,18.9,0,28.5,0c0,0.4,0,0.8,0,1.2
	c0,9.5,0,19,0,28.5c0,2,0.4,2.5,2.3,3c5.7,1.4,11.5,2.8,17.2,4.3c2.7,0.7,5.3,1.6,7.9,2.7c2.8,1.2,4.7,3.2,5,6.1h0
	c0,0,1.1,7.8-0.4,9.4C66,63,64.7,64.6,62.9,65.4z"/>
</svg>
