<?xml version="1.0" encoding="utf-8"?>
<!-- Generator: Adobe Illustrator 18.0.0, SVG Export Plug-In . SVG Version: 6.00 Build 0)  -->
<!DOCTYPE svg PUBLIC "-//W3C//DTD SVG 1.1//EN" "http://www.w3.org/Graphics/SVG/1.1/DTD/svg11.dtd">
<svg version="1.1" id="Layer_1" xmlns="http://www.w3.org/2000/svg" xmlns:xlink="http://www.w3.org/1999/xlink" x="0px" y="0px"
	 viewBox="0 0 75 75" enable-background="new 0 0 75 75" xml:space="preserve">
<path fill="#FFFFFF" d="M3,68.6c0.6,0.6,1.5,1.1,2.5,1.1H10c1.8,0,3.4-1.4,3.5-3.3c0.1-1.3,0.3-3.4,0.5-5.8
	c0.6-5.5,1.6-12.3,3.2-17.5l0.1,17.4l0,3.9c0,2.9,2.4,5.3,5.3,5.3h29.6c2.9,0,5.3-2.4,5.3-5.3l0-3.9l0.1-17.4
	c1.7,5.1,2.7,12,3.2,17.5c0.3,2.4,0.4,4.5,0.5,5.8c0.1,1.8,1.7,3.3,3.5,3.3h4.5c1.9,0,3.5-1.6,3.5-3.5c0-0.7-0.1-4.6-0.1-5.7
	c-0.3-12.3-1.5-22.6-3.4-30.7c-0.1-0.6-0.7-0.9-1.3-0.8c-0.6,0.1-0.9,0.7-0.8,1.3c1.8,7.7,2.9,17.6,3.3,29.2H63
	c-0.8-7.3-2.4-16.6-5.2-21.7c-0.1-0.2-0.1-0.7-0.2-1c-0.4-2.7-0.5-5.4-0.1-8.1c0.6-4.1,2.3-8.1,5.1-11.2c0,0,0,0,0,0
	c0.8,1.1,2.3,3.7,3.9,8.8c0.2,0.6,0.7,0.9,1.3,0.7c0.6-0.2,0.9-0.7,0.7-1.3c-1-3.4-2.2-6.2-3.4-8.3c-0.5-0.8-1-1.7-1.7-2.3
	c-3.5-3.6-9.9-4.5-11.9-4.7c-0.7-1.1-1.6-2.1-2.8-2.9C47,6.4,45.3,6.1,44.9,6c-0.5-0.1-2.5-0.7-7.4-0.7c-2.2,0-4.2,0.1-5.7,0.3
	c-0.9,0.1-1.4,0.2-1.7,0.3c-0.4,0.1-2.1,0.4-3.8,1.6c-1.2,0.8-2.2,1.8-2.8,2.9c-2,0.2-8.4,1.1-11.9,4.7C11,15.7,5,21.9,2.8,47.3
	c-0.1,0.6,0.4,1.1,0.9,1.1c0.6,0.1,1.1-0.4,1.1-0.9C6,34.4,8.2,26.7,9.8,22.6c1.1-2.7,2-4.3,2.6-5.1c0,0,0,0,0,0c0,0,0,0,0.1,0.1
	c2,2.2,6.7,8.9,4.9,19.7c0,0-0.1,0.4-0.1,0.5c-2.9,5-4.4,14.3-5.2,21.6H4.2c0.1-2.7,0.2-5.3,0.4-7.8c0-0.6-0.4-1.1-1-1.1
	c-0.6,0-1.1,0.4-1.1,1c-0.2,2.8-0.3,5.9-0.4,9c0,1.1-0.1,5-0.1,5.7C1.9,67.1,2.3,68,3,68.6z M71,66.2c0,0.8-0.6,1.4-1.4,1.4H65
	c-0.8,0-1.4-0.6-1.4-1.3c0-0.4-0.1-0.8-0.1-1.3H71C71,65.4,71,65.8,71,66.2z M70.9,61.5c0,0.4,0,0.9,0,1.4h-7.6
	c0-0.4-0.1-0.9-0.1-1.4H70.9z M32.6,67.6h-9.9c-1.8,0-3.2-1.4-3.2-3.2l0-2.9h13.1V67.6z M40.3,67.6h-5.7v-6.1h5.7V67.6z M40.3,59.4
	h-5.7c0,0,0-38.3,0-38.3c0.3,0,0.6,0,0.9,0c1,0,1.7-0.1,1.9-0.1c0,0,0,0,0,0c0.1,0,1.4,0.1,1.8,0.1c0.3,0,0.7,0,1.1,0V59.4z
	 M55.5,64.4c0,1.8-1.5,3.2-3.2,3.2h-9.9v-6.1h13.1L55.5,64.4z M52.5,15.2c0.1-0.8,0-1.7-0.2-2.5c0,0,0,0,0,0
	c2.2,0.3,6.2,1.2,8.8,3.3c-0.9,0.9-2.2,2.6-3.5,5.1c-2.5,5-3.1,10.8-2.2,16.2c0,0.3,0.1,0.6,0.2,0.9l-0.2,21.2H42.4V21.1
	c1.1-0.1,2.1-0.2,3-0.3C49.9,20,52.4,18.1,52.5,15.2z M45.7,14.9c1-1.8,1.3-4,0.8-6c0-0.1,0-0.2-0.1-0.3c1.5,0.7,3.5,2.1,4,4.8
	c0.1,0.7,0.2,1.6,0,2.3c-0.3,0.8-1,1.8-3.1,2.5c-1.4,0.5-2.9,0.7-4.4,0.8c-0.4,0-0.8,0-1.2,0.1c0,0,0,0,0,0c0.3-0.2,0.6-0.4,0.9-0.6
	C43.8,17.5,44.9,16.3,45.7,14.9z M30.4,10.8c0-0.6,0.1-1.2,0.3-1.8c0-0.1,0.3-1,0.4-1.1c0.8-0.2,2.7-0.5,6.4-0.5
	c3.7,0,5.6,0.3,6.4,0.5c0.4,1,0.7,2.1,0.7,3.2c-0.1,3.9-3.8,6.5-7.1,7.8c-0.6-0.2-1.8-0.8-3.1-1.7c0,0,0,0,0,0
	C32.2,15.7,30.3,13.5,30.4,10.8z M24.5,14.4c0.1-2.6,1.7-4.7,4.1-5.8c0,0.1-0.1,0.2-0.1,0.3c0,0,0,0,0,0c-0.6,2.7,0.1,5.4,1.9,7.5
	c0.9,1,1.9,1.9,2.9,2.6c0,0,0,0,0,0c0,0-0.1,0-0.1,0C30.4,18.9,24.3,18.5,24.5,14.4z M17.8,22.1c-0.3-0.7-3.6-6.4-3.9-6.2
	c2.6-2.1,6.6-3,8.8-3.3c0,0,0,0,0,0c-0.5,2.1-0.2,4.4,1.5,5.9c1.3,1.2,3.1,1.7,4.8,2.1c1.1,0.2,2.3,0.4,3.6,0.4v38.3H19.5l-0.2-21.2
	c0-0.1,0-0.2,0.1-0.3C20.3,32.6,19.9,27.1,17.8,22.1z M4.1,61.5h7.7c0,0.5-0.1,0.9-0.1,1.4H4.1C4.1,62.4,4.1,62,4.1,61.5z M4,65h7.5
	c0,0.5-0.1,0.9-0.1,1.3c-0.1,0.7-0.7,1.3-1.4,1.3c0,0-4.5,0-4.5,0C4.7,67.6,4,67,4,66.2C4,65.8,4,65.4,4,65z"/>
</svg>
