<?xml version="1.0" encoding="utf-8"?>
<!-- Generator: Adobe Illustrator 18.0.0, SVG Export Plug-In . SVG Version: 6.00 Build 0)  -->
<!DOCTYPE svg PUBLIC "-//W3C//DTD SVG 1.1//EN" "http://www.w3.org/Graphics/SVG/1.1/DTD/svg11.dtd">
<svg version="1.1" id="Layer_1" xmlns="http://www.w3.org/2000/svg" xmlns:xlink="http://www.w3.org/1999/xlink" x="0px" y="0px"
	 viewBox="0 0 75 75" enable-background="new 0 0 75 75" xml:space="preserve">
<g>
	<path fill="#FFFFFF" d="M55.1,9.5H50V2H25v7.4h-5.2c-8.6,0-15.6,7-15.6,15.6v42.2h10.4V73h45.7v-5.6h10.4V25.1
		C70.7,16.5,63.7,9.5,55.1,9.5z M28.9,5.9h17.2v3.6H28.9V5.9z M14.7,63.5H8.1v-5.1h6.6V63.5z M66.9,63.5h-6.6v-5.1h6.6V63.5z
		 M66.9,54.6h-6.6V28.7h-3.8v40.4h-38V28.7h-3.8v25.9H8.1V25.1c0-6.5,5.3-11.8,11.8-11.8h35.2c6.5,0,11.8,5.3,11.8,11.8V54.6z"/>
</g>
</svg>
