<?xml version="1.0" encoding="utf-8"?>
<!-- Generator: Adobe Illustrator 18.0.0, SVG Export Plug-In . SVG Version: 6.00 Build 0)  -->
<!DOCTYPE svg PUBLIC "-//W3C//DTD SVG 1.1//EN" "http://www.w3.org/Graphics/SVG/1.1/DTD/svg11.dtd">
<svg version="1.1" id="Layer_1" xmlns="http://www.w3.org/2000/svg" xmlns:xlink="http://www.w3.org/1999/xlink" x="0px" y="0px"
	 viewBox="0 0 35 35" enable-background="new 0 0 35 35" xml:space="preserve">
<g id="XMLID_1_">
	<g>
		<path id="XMLID_125_" fill="#181B48" stroke="#181B48" stroke-width="0.3984" stroke-miterlimit="10" d="M17.4,18.9
			c4.6,0,8.4-3.8,8.4-8.4c0-2.2-0.9-4.4-2.5-5.9c-1.6-1.6-3.7-2.5-6-2.5C12.8,2.1,9,5.8,9,10.4C9,15.1,12.8,18.9,17.4,18.9z
			 M17.4,3.2c4,0,7.2,3.2,7.2,7.2s-3.2,7.2-7.2,7.2s-7.2-3.2-7.2-7.2S13.5,3.2,17.4,3.2z"/>
		<path id="XMLID_122_" fill="#181B48" stroke="#181B48" stroke-width="0.3984" stroke-miterlimit="10" d="M23,21.6H12
			c-5.9,0-10.7,4.8-10.7,10.7c0,0.3,0.3,0.6,0.6,0.6h31.3c0.3,0,0.6-0.3,0.6-0.6C33.8,26.4,28.9,21.6,23,21.6z M32.6,31.8H2.4
			l0.1-0.7c0.6-4.7,4.7-8.3,9.4-8.3H23c2.3,0,4.6,0.8,6.3,2.4c1.7,1.5,2.8,3.6,3.1,5.9L32.6,31.8z"/>
	</g>
</g>
</svg>
