<?xml version="1.0" encoding="utf-8"?>
<!-- Generator: Adobe Illustrator 18.0.0, SVG Export Plug-In . SVG Version: 6.00 Build 0)  -->
<!DOCTYPE svg PUBLIC "-//W3C//DTD SVG 1.1//EN" "http://www.w3.org/Graphics/SVG/1.1/DTD/svg11.dtd">
<svg version="1.1" id="Layer_1" xmlns="http://www.w3.org/2000/svg" xmlns:xlink="http://www.w3.org/1999/xlink" x="0px" y="0px"
	 viewBox="0 0 226.8 226.8" enable-background="new 0 0 226.8 226.8" xml:space="preserve">
<g id="XMLID_119_">
	<g id="XMLID_121_">
		<path id="XMLID_122_" fill="#181B48" stroke="#FFFFFF" stroke-width="5" stroke-miterlimit="10" d="M59.8,168.9c-2.2,0-4-1.8-4-4
			c-0.1-1.2-0.1-2.4,0-3.6l6.7-84c0.4-5,4.6-8.9,9.6-8.9h14V67c0-15.4,12.6-28,28-28l0.3,0c15.3,0.1,27.7,12.9,27.7,28.4v1.1h14
			c5,0,9.2,3.9,9.6,8.9l6.7,84v3.6c0,2.2-1.8,4-4,4H59.8z M72,75.4c-1.3,0-2.5,1-2.6,2.4L62.8,162h102.5l-6.7-84.2
			c-0.1-1.3-1.2-2.4-2.6-2.4h-14v11.6c0,1.9-1.6,3.5-3.5,3.5c-1.9,0-3.5-1.6-3.5-3.5V75.4H93.1v11.6c0,1.9-1.6,3.5-3.5,3.5
			c-1.9,0-3.5-1.6-3.5-3.5V75.4H72z M114,46c-11.6,0-21,9.4-21,21v1.4H135V67C135,55.4,125.6,46,114,46z"/>
	</g>
</g>
<g id="XMLID_2_">
	<path id="XMLID_118_" fill="#181B48" d="M107,138.5c-0.2,0-0.5-0.1-0.6-0.3L94.8,126c-0.3-0.3-0.3-0.9,0-1.2c0.3-0.3,0.9-0.3,1.2,0
		l10.9,11.4l24.9-30.4c0.3-0.4,0.9-0.4,1.2-0.1c0.4,0.3,0.4,0.9,0.1,1.2l-25.6,31.2C107.5,138.4,107.3,138.5,107,138.5
		C107,138.5,107,138.5,107,138.5L107,138.5z"/>
</g>
<g>
	<g>
		<path fill="#171A47" d="M113.4,224.8C51.9,224.8,2,174.8,2,113.4C2,51.9,51.9,2,113.4,2c61.4,0,111.4,50,111.4,111.4
			C224.8,174.8,174.8,224.8,113.4,224.8z M113.4,4C53.1,4,4,53.1,4,113.4c0,60.3,49.1,109.4,109.4,109.4s109.4-49.1,109.4-109.4
			C222.8,53.1,173.7,4,113.4,4z"/>
	</g>
</g>
</svg>
