<?xml version="1.0" encoding="utf-8"?>
<!-- Generator: Adobe Illustrator 18.0.0, SVG Export Plug-In . SVG Version: 6.00 Build 0)  -->
<!DOCTYPE svg PUBLIC "-//W3C//DTD SVG 1.1//EN" "http://www.w3.org/Graphics/SVG/1.1/DTD/svg11.dtd">
<svg version="1.1" id="Layer_1" xmlns="http://www.w3.org/2000/svg" xmlns:xlink="http://www.w3.org/1999/xlink" x="0px" y="0px"
	 viewBox="0 0 60 60" enable-background="new 0 0 60 60" xml:space="preserve">
<g>
	<g>
		<path fill="#FFFFFF" d="M58.5,34.8l-2-16.8c-0.1-0.5-0.4-0.8-0.9-0.8H37.5c0.6-1.3,0.4-2.9-0.6-3.9c-1.3-1.3-3.5-1.3-4.8,0
			c-0.6,0.6-1.4,2.5-2,4.1c-0.6-1.6-1.4-3.4-2-4.1c-1.3-1.3-3.5-1.3-4.8,0c-1.1,1.1-1.3,2.7-0.6,3.9H4.4c-0.5,0-0.9,0.4-0.9,0.8
			l-2,16.8c0,0.3,0.1,0.5,0.2,0.7c0.1,0.1,0.2,0.1,0.3,0.2l0,0l21.2,11.1c1.1,0.5,2.3,0.8,3.5,0.8h6.6c1.2,0,2.4-0.3,3.5-0.8
			L58,35.8l0,0c0.1,0,0.2-0.1,0.3-0.2C58.5,35.4,58.6,35.1,58.5,34.8z M33.4,14.6c0.3-0.3,0.7-0.5,1.1-0.5s0.8,0.2,1.1,0.5
			c0.6,0.6,0.6,1.6,0,2.2c-0.4,0.4-2.1,1.1-4,1.8C32.2,16.7,33,15,33.4,14.6z M35.2,19.1h19.6l0.2,2.1H31.6
			c-0.2-0.2-0.4-0.3-0.5-0.4C32.2,20.3,33.9,19.7,35.2,19.1z M24.5,14.6c0.3-0.3,0.7-0.5,1.1-0.5c0.4,0,0.8,0.2,1.1,0.5
			c0.4,0.4,1.1,2.1,1.8,4c-1.9-0.7-3.6-1.5-4-1.8C23.9,16.2,23.9,15.2,24.5,14.6z M5.2,19.1h19.6c1.3,0.6,3,1.3,4.2,1.7
			c-0.2,0.1-0.3,0.3-0.5,0.4H4.9L5.2,19.1z M6.7,36.1c1.2,0.1,1.5,0.4,3,0.7c3.9,0.9,9.1,3,12.7,7.7L6.7,36.1z M37.6,44.4
			c2.9-3.7,7.2-6.3,12.7-7.7c1.5-0.4,1.8-0.6,3-0.7L37.6,44.4z M49.9,35c-6.4,1.6-11.5,4.8-14.6,9.5c-0.6,0.9-1.5,1.4-2.5,1.4h-5.4
			c-1,0-1.9-0.5-2.5-1.4c-3.2-4.7-8.2-8-14.6-9.5c-3.3-0.8-5.2-1-6.7-1l1.3-11h22.2c-0.5,0.8-0.8,1.8-0.8,3c0,0.5,0.4,0.9,0.9,0.9
			c0.5,0,0.9-0.4,0.9-0.9c0-1.3,0.6-2.3,1.2-3h1.7c0.6,0.7,1.2,1.7,1.2,3c0,0.5,0.4,0.9,0.9,0.9c0.5,0,0.9-0.4,0.9-0.9
			c0-1.2-0.3-2.2-0.8-3h22.2l1.3,11C55.1,34,53.2,34.2,49.9,35z"/>
	</g>
</g>
</svg>
