<?xml version="1.0" encoding="utf-8"?>
<!-- Generator: Adobe Illustrator 18.0.0, SVG Export Plug-In . SVG Version: 6.00 Build 0)  -->
<!DOCTYPE svg PUBLIC "-//W3C//DTD SVG 1.1//EN" "http://www.w3.org/Graphics/SVG/1.1/DTD/svg11.dtd">
<svg version="1.1" id="Layer_1" xmlns="http://www.w3.org/2000/svg" xmlns:xlink="http://www.w3.org/1999/xlink" x="0px" y="0px"
	 viewBox="0 0 75 75" enable-background="new 0 0 75 75" xml:space="preserve">
<g id="XMLID_98_">
	
		<path id="XMLID_99_" fill="#FFFFFF" stroke="#FFFFFF" stroke-width="0.4902" stroke-linecap="round" stroke-linejoin="round" stroke-miterlimit="10" d="
		M72.8,22.5C72.8,22.5,72.7,22.5,72.8,22.5L58,9.4c-0.1-0.1-0.3-0.2-0.5-0.3L46.9,5.3c-0.7-0.3-1.5,0.1-1.8,0.8
		C45,6.2,45,6.4,45,6.5c0,0.3-0.5,7.4-7.6,7.5c-7.1-0.1-7.6-7.2-7.6-7.5c0-0.8-0.7-1.4-1.5-1.3c-0.1,0-0.3,0-0.4,0.1L17.4,9.1
		c-0.2,0.1-0.3,0.2-0.5,0.3l-14.6,13c-0.6,0.5-0.6,1.4,0,2c0,0,0,0,0,0.1l11.6,11.8v32.2c0,0.8,0.6,1.4,1.4,1.4h44.4
		c0.8,0,1.4-0.6,1.4-1.4V36.2l11.6-11.8C73.3,23.9,73.3,23,72.8,22.5z M61,32.2v-6.5c0-0.8-0.6-1.4-1.4-1.4c-0.8,0-1.4,0.6-1.4,1.4
		V67H16.7V25.8c0-0.8-0.6-1.4-1.4-1.4c-0.8,0-1.4,0.6-1.4,1.4v6.5l-8.6-8.7l13.3-11.9l8.8-3.2c1.1,5.6,6.5,9.2,12.1,8.2
		c4.1-0.8,7.4-4,8.2-8.2l8.8,3.2l13.3,11.9L61,32.2z"/>
</g>
</svg>
