<?xml version="1.0" encoding="utf-8"?>
<!-- Generator: Adobe Illustrator 18.0.0, SVG Export Plug-In . SVG Version: 6.00 Build 0)  -->
<!DOCTYPE svg PUBLIC "-//W3C//DTD SVG 1.1//EN" "http://www.w3.org/Graphics/SVG/1.1/DTD/svg11.dtd">
<svg version="1.1" id="Layer_1" xmlns="http://www.w3.org/2000/svg" xmlns:xlink="http://www.w3.org/1999/xlink" x="0px" y="0px"
	 viewBox="0 0 75 75" enable-background="new 0 0 75 75" xml:space="preserve">
<path fill="#FFFFFF" d="M67.5,17.8c-0.4-4.3-3-8.1-6.9-10c-0.1,0-0.5-0.2-2.9-1.1L46.3,2.1c-0.1,0-0.4-0.1-1.4-0.1H30.1
	c-0.1,0-0.1,0-0.2,0c-0.8,0-1.1,0-1.2,0.1L16.9,6.8c-2.1,0.8-2.5,1-2.5,1c-3.9,1.9-6.5,5.7-6.9,10c0,0.2-2.5,36.7-2.6,37
	c-0.1,1.5,0.7,3,2,3.7l0.1,0.1v4.9c0,0.6,0.5,1.1,1.1,1.1h7.4l0,0.2c0.4,2.4,0.8,4.8,1.2,7l0,0.2C17,72.6,17.4,73,18,73H57
	c0.5,0,1-0.4,1.1-0.9c0,0,0.9-4.8,1.3-7.2l0-0.2h7.4c0.6,0,1.1-0.5,1.1-1.1v-4.9l0.1-0.1c1.3-0.7,2.1-2.2,2-3.7
	C70.1,54.4,67.5,17.9,67.5,17.8z M29.5,4.4L29.5,4.4c0.2-0.1,0.5-0.1,0.7-0.1h14.6c0.2,0,0.4,0,0.6,0.1c0.7,0.3,1.3,1.1,1,2.1l0,0.1
	c-0.6,1.7-2.9,7.6-8.7,11.9l-0.2,0.1l-0.2-0.1c-1.9-1.4-3.6-3-5-4.9c-2.3-3-3.2-5.7-3.6-6.7c-0.1-0.2-0.1-0.3-0.1-0.4
	C28.3,5.6,28.8,4.7,29.5,4.4z M7.6,56.2c-0.3-0.3-0.5-0.8-0.4-1.3l2.6-37c0-0.5,0.1-1,0.2-1.5l0.1-0.6l0.4,0.5
	c3.9,4.9,3.7,9.9,3.6,11.8c0,0.2,0,0.5,0,0.6l0,0.1c-0.6,8.9-0.4,18.4,0.5,27.6l0,0.3H8.8C8.3,56.8,7.9,56.6,7.6,56.2z M9.3,62.3V59
	h5.5l0,0.2c0.1,0.9,0.2,1.9,0.3,2.8l0,0.3H9.3z M17.9,65.1l0-0.2c-2.6-16.8-1.9-29.1-1.7-34.3c0.1-1.2,0.1-2.2,0.1-2.4l0,0l0,0
	c0.3-5.3-1.5-10.4-5-14.3l-0.1-0.2l0.1-0.2c1-1.6,2.4-2.9,4.1-3.7l0,0l5.6-2.2l0.1,0.3c0.1,0.4,0.2,0.8,0.3,1.1
	c3.6,10.8,11.2,15.6,14.1,17.4c0.5,0.3,0.8,0.5,1,0.7l0.1,0.1v37.9H17.9z M56.7,67.7c-0.2,0.9-0.3,1.9-0.5,2.8l0,0.2H18.9l0-0.2
	c-0.2-0.9-0.4-1.9-0.5-2.8l-0.1-0.3h38.5L56.7,67.7z M58.8,28.1L58.8,28.1L58.8,28.1c0,0.2,0,1,0.1,1.9c0.2,5,0.9,18.2-1.7,34.9
	l0,0.2H38.6V27.2l0.1-0.1c0.7-0.4,1.2-0.8,1.6-1.1c0.9-0.6,1.4-1,2.1-1.4c0.5-0.4,0.6-1.1,0.2-1.6c-0.4-0.5-1.1-0.6-1.6-0.2
	c-0.6,0.5-1.1,0.8-2,1.3c-0.4,0.3-0.9,0.6-1.5,1l-0.2,0.1l-0.2-0.1c-0.1-0.1-0.4-0.3-0.8-0.5c-2.7-1.7-9.8-6.3-13.2-16.3
	C23.2,7.9,23.1,7.5,23,7l0-0.2l3.3-1.3l0,0.4c0,0.6,0.2,1.2,0.2,1.4c1.8,5.5,5.5,10.3,10.4,13.6c0.4,0.2,0.9,0.2,1.2,0
	c4.8-3.2,8.5-8,10.3-13.5c0,0,0,0,0-0.1c0.1-0.2,0.2-0.6,0.2-1.4l0-0.4L52,6.8L52,7c-0.1,0.4-0.2,0.9-0.3,1.3
	c-0.8,2.4-1.9,4.6-3.2,6.7c-0.3,0.5-0.2,1.2,0.3,1.5c0.3,0.2,0.6,0.2,0.8,0.2c0.3-0.1,0.5-0.2,0.7-0.5c1.4-2.3,2.6-4.7,3.5-7.2
	c0.1-0.3,0.2-0.7,0.3-1l0.1-0.3l5.6,2.2c1.7,0.8,3.1,2.1,4.1,3.7l0.1,0.2l-0.1,0.2C60.2,17.7,58.4,22.8,58.8,28.1z M65.7,62.3h-5.9
	l0-0.3c0.1-0.9,0.2-1.9,0.3-2.8l0-0.2h5.5V62.3z M67.4,56.2c-0.3,0.3-0.8,0.5-1.2,0.5h-5.8l0-0.3c0.9-9.2,1.1-18.8,0.5-27.6l0,0l0,0
	c0-0.1,0-0.3,0-0.6c-0.1-1.9-0.3-6.8,3.6-11.7l0.4-0.5l0.1,0.6c0.1,0.5,0.2,1,0.2,1.5l2.6,37C67.9,55.4,67.7,55.9,67.4,56.2z"/>
</svg>
