<?xml version="1.0" encoding="utf-8"?>
<!-- Generator: Adobe Illustrator 18.0.0, SVG Export Plug-In . SVG Version: 6.00 Build 0)  -->
<!DOCTYPE svg PUBLIC "-//W3C//DTD SVG 1.1//EN" "http://www.w3.org/Graphics/SVG/1.1/DTD/svg11.dtd">
<svg version="1.1" id="Layer_1" xmlns="http://www.w3.org/2000/svg" xmlns:xlink="http://www.w3.org/1999/xlink" x="0px" y="0px"
	 viewBox="0 0 75 75" enable-background="new 0 0 75 75" xml:space="preserve">
<path fill="#FFFFFF" d="M67.8,37.1c-4.7-2.3-9.4-4.5-14.1-6.7c-5.2-2.5-10.4-5-15.6-7.5c-1.4-0.7-2.5-0.5-3.7,0.5
	C33.1,24.5,32,25.3,31,26c-4,2.4-7.8,3.1-11.6,2.2c-2.1-0.5-4.1-1.5-6.6-3.2c-1.7-1.3-3.5-1.9-5.2-1.9c-0.4,0-0.7,0-1.1,0.1
	c-3,0.5-5.1,3-5.2,6.4C1.3,34.4,1.3,39.3,1.3,44c0,1.4,0,2.8,0,4.2c0,1.7,0.8,3.1,2.2,3.7c0.7,0.4,1.7,0.6,2.8,0.6
	c7.9,0,16,0,23.7,0l12.6,0c7.9,0,15.9,0,23.8,0c0.4,0,1,0,1.5-0.1c3.3-0.3,5.8-3,5.7-6.3C73.6,42,71.6,39,67.8,37.1z M55.2,34.2
	l0.1,0c0,0,0.1,0,0.1,0c0.1,0,0.2,0,0.3,0l2.9,1.4c2.9,1.4,5.8,2.8,8.7,4.2c1.5,0.7,2.7,2.2,3.2,3.7l0.1,0.3H49.9L55.2,34.2z
	 M53,32.9l-0.1,0.2c-0.5,0.9-1,1.7-1.4,2.6c-1.2,2.1-2.3,4.2-3.4,6.3c-0.7,1.3-1.5,1.9-2.7,1.9c-0.2,0-0.4,0-0.6,0
	c-0.7-0.1-1.5-0.1-2.2,0c-0.4,0-0.8,0-1.2,0h-0.5L49,30.9L53,32.9z M4.9,27c0.9-1.2,2-1.6,3.2-1.2l0.1,0c1.1,0.4,2.3,0.8,3.3,1.4
	c2.1,1.4,4.7,2.9,7.8,3.6c3.7,0.8,7.4,0.2,11.2-1.7c1.3-0.6,2.4-1.5,3.6-2.3c0.6-0.4,1.2-0.9,1.9-1.3c0.1,0,0.7-0.4,1.1-0.3
	c2.5,1.2,5,2.3,7.6,3.6l2,1l-0.3,0.5c-0.1,0.2-0.2,0.3-0.3,0.5l-1.2,2c-2.2,3.4-4.3,6.9-6.5,10.3c-0.2,0.4-0.7,0.7-1.1,0.7
	c-2.9,0-5.7,0-8.6,0c-1.7,0-3.4,0-5,0l-2.6,0c-0.1,0-0.1,0-0.2,0l-0.3-0.1l0-0.2c-0.3-4-2.1-7.2-5.4-9.5c-3.2-2.2-6.9-3.2-10.9-2.9
	l-0.2,0l0-0.2C3.7,29.4,4.1,28.1,4.9,27z M17.8,43.6l0,0.3H3.9v-10l0.2,0c3.3-0.6,7.6,0.7,10.4,3C16.7,38.7,17.9,41,17.8,43.6z
	 M68,49.9c-0.3,0-0.6,0-0.8,0c-0.1,0-0.2,0-0.3,0l-0.3,0l-60,0c-1.1,0-1.9-0.1-2.4-0.6c-0.5-0.5-0.5-1.4-0.4-2.6l0-0.2h67l0,0.2
	C71.1,48.1,69.6,49.7,68,49.9z"/>
</svg>
