<?xml version="1.0" encoding="utf-8"?>
<!-- Generator: Adobe Illustrator 18.0.0, SVG Export Plug-In . SVG Version: 6.00 Build 0)  -->
<!DOCTYPE svg PUBLIC "-//W3C//DTD SVG 1.1//EN" "http://www.w3.org/Graphics/SVG/1.1/DTD/svg11.dtd">
<svg version="1.1" id="Layer_1" xmlns="http://www.w3.org/2000/svg" xmlns:xlink="http://www.w3.org/1999/xlink" x="0px" y="0px"
	 viewBox="0 0 75 75" enable-background="new 0 0 75 75" xml:space="preserve">
<g>
	<g>
		<path fill="#FFFFFF" d="M54.2,9.3H20.8c-0.6,0-1.1-0.5-1.1-1.1V2.4c0-0.6,0.5-1.1,1.1-1.1h33.3c0.6,0,1.1,0.5,1.1,1.1v5.7
			C55.3,8.8,54.8,9.3,54.2,9.3z M22,7h31V3.6H22V7z"/>
		<path fill="#FFFFFF" d="M54.2,73.7H42.7c-0.6,0-1.1-0.5-1.1-1.1l-2.8-47.2h-2.2l-2.8,47.2c0,0.6-0.5,1.1-1.1,1.1H20.8
			c-0.6,0-1.1-0.5-1.1-1.1V8.2c0-0.6,0.5-1.1,1.1-1.1h33.3c0.6,0,1.1,0.5,1.1,1.1v64.4C55.3,73.2,54.8,73.7,54.2,73.7z M43.7,71.4
			H53V9.3H22v62.1h9.5l2.8-47.2c0-0.6,0.5-1.1,1.1-1.1h4.4c0.6,0,1.1,0.5,1.1,1.1L43.7,71.4z"/>
		<path fill="#FFFFFF" d="M50.7,18.5c-0.3,0-0.6-0.1-0.8-0.3l-5.7-5.7c-0.4-0.4-0.4-1.2,0-1.6c0.4-0.4,1.2-0.4,1.6,0l5.7,5.7
			c0.4,0.4,0.4,1.2,0,1.6C51.3,18.4,51,18.5,50.7,18.5z"/>
		<path fill="#FFFFFF" d="M24.5,18.5c-0.3,0-0.6-0.1-0.8-0.3c-0.4-0.4-0.4-1.2,0-1.6l5.7-5.7c0.4-0.4,1.2-0.4,1.6,0
			c0.4,0.4,0.4,1.2,0,1.6l-5.7,5.7C25.1,18.4,24.8,18.5,24.5,18.5z"/>
		<path fill="#FFFFFF" d="M38.1,25.4c-0.6,0-1.1-0.5-1.1-1.1V8.2c0-0.6,0.5-1.1,1.1-1.1c0.6,0,1.1,0.5,1.1,1.1v16.1
			C39.2,24.9,38.7,25.4,38.1,25.4z"/>
	</g>
</g>
</svg>
