<?xml version="1.0" encoding="utf-8"?>
<!-- Generator: Adobe Illustrator 18.0.0, SVG Export Plug-In . SVG Version: 6.00 Build 0)  -->
<!DOCTYPE svg PUBLIC "-//W3C//DTD SVG 1.1//EN" "http://www.w3.org/Graphics/SVG/1.1/DTD/svg11.dtd">
<svg version="1.1" id="Layer_1" xmlns="http://www.w3.org/2000/svg" xmlns:xlink="http://www.w3.org/1999/xlink" x="0px" y="0px"
	 viewBox="0 0 75 75" enable-background="new 0 0 75 75" xml:space="preserve">
<path fill="#FFFFFF" d="M41.1,4.9L4.9,41.1c-4.8,4.9-4.8,12.8,0,17.6l11.7,11.7c3.6,3.6,9.2,4.3,13.6,1.7c0.3-0.2,0.4-0.4,0.5-0.7
	c0-0.3-0.1-0.6-0.3-0.8L14.1,54.4l3.2-3.2L31.1,65c1.4,1.4,3.6,1.4,5,0c1.4-1.4,1.4-3.6,0-5L22.2,46.2l2.3-2.3l13.8,13.8
	c1.4,1.4,3.6,1.4,5,0c1.4-1.4,1.4-3.6,0-5L29.5,39l2.3-2.3l13.8,13.8c1.4,1.4,3.6,1.4,5,0c1.4-1.4,1.4-3.6,0-5L36.7,31.8l2.3-2.3
	l13.8,13.8c1.4,1.4,3.6,1.4,5,0c1.4-1.4,1.4-3.6,0-5L44,24.5l2.3-2.3L60,36c1.4,1.4,3.6,1.4,5,0c1.4-1.4,1.4-3.6,0-5L51.2,17.3
	l3.2-3.2l16.3,16.3c0.2,0.2,0.5,0.3,0.8,0.3c0.3,0,0.5-0.2,0.7-0.5c2.6-4.4,1.9-10-1.7-13.6L58.7,4.9C53.9,0.1,46,0.1,41.1,4.9z
	 M34.7,61.4c0.6,0.6,0.6,1.7,0,2.3c-0.6,0.6-1.7,0.6-2.3,0L18.6,49.9l2.3-2.3L34.7,61.4z M41.9,54.1c0.6,0.6,0.6,1.7,0,2.3
	c-0.6,0.6-1.7,0.6-2.3,0L25.9,42.6l2.3-2.3L41.9,54.1z M49.2,46.9c0.6,0.6,0.6,1.7,0,2.3c-0.6,0.6-1.7,0.6-2.3,0L33.1,35.4l2.3-2.3
	L49.2,46.9z M56.4,39.7c0.6,0.6,0.6,1.7,0,2.3c-0.6,0.6-1.7,0.6-2.3,0L40.3,28.1l2.3-2.3L56.4,39.7z M63.7,32.4
	c0.6,0.6,0.6,1.7,0,2.3c-0.6,0.6-1.7,0.6-2.3,0L47.6,20.9l2.3-2.3L63.7,32.4z M69.1,18c2.5,2.5,3.4,6.3,2.2,9.7l-0.2,0.5l-16-16
	c-0.4-0.4-1-0.4-1.3,0L12.1,53.7c-0.4,0.4-0.4,1,0,1.3l16,16l-0.5,0.2c-3.4,1.2-7.2,0.3-9.7-2.2L6.3,57.4c-4.1-4.1-4.1-10.8,0-14.9
	L42.5,6.3c4.1-4.1,10.8-4.1,14.9,0L69.1,18z"/>
</svg>
