<?xml version="1.0" encoding="utf-8"?>
<!-- Generator: Adobe Illustrator 18.0.0, SVG Export Plug-In . SVG Version: 6.00 Build 0)  -->
<!DOCTYPE svg PUBLIC "-//W3C//DTD SVG 1.1//EN" "http://www.w3.org/Graphics/SVG/1.1/DTD/svg11.dtd">
<svg version="1.1" id="Layer_1" xmlns="http://www.w3.org/2000/svg" xmlns:xlink="http://www.w3.org/1999/xlink" x="0px" y="0px"
	 viewBox="0 0 75 75" enable-background="new 0 0 75 75" xml:space="preserve">
<g>
	<g>
		<path fill="#FFFFFF" d="M36.6,58.1c0.2,0.3,0.4,0.4,0.7,0.4c0,0,0,0,0,0c0,0,0,0,0,0c0,0,0,0,0,0c0,0,0,0,0,0c0,0,0,0,0,0
			c0,0,0,0,0,0c0,0,0,0,0,0c0,0,0,0,0,0c0,0,0,0,0,0c0,0,0,0,0,0c0,0,0,0,0,0c0,0,0,0,0,0c0,0,0,0,0,0c0,0,0,0,0,0c0,0,0,0,0,0
			c0,0,0,0,0,0c0.3,0,0.6-0.2,0.7-0.4c0-0.1,4.9-7.2,9.1-16.2c0.6-1.2,1.1-2.4,1.6-3.5l1.9-5c2.9-8.2,3.6-15,2-20.1
			c-0.6-2-4.9-4.4-6.2-5.1c0,0-0.1,0-0.1-0.1c0,0,0,0,0,0c0,0,0,0,0,0c0,0,0,0,0,0c0,0,0,0,0,0c0,0,0,0,0,0c0,0,0,0,0,0c0,0,0,0,0,0
			c0,0,0,0,0,0c0,0,0,0,0,0c0,0-0.1,0-0.2,0c-0.8-1-1.2-2.2-1.2-3.5c0-1.5-1.2-2.7-2.7-2.7h-10c-1.5,0-2.7,1.2-2.7,2.7
			c0,1.3-0.4,2.5-1.2,3.5c0,0-0.1,0-0.1,0c0,0,0,0,0,0c0,0,0,0,0,0c0,0,0,0,0,0c0,0,0,0,0,0c0,0,0,0,0,0c0,0,0,0,0,0c0,0,0,0,0,0
			c0,0,0,0,0,0c0,0,0,0,0,0h0c0,0,0,0,0,0c0,0,0,0,0,0c0,0,0,0,0,0c0,0,0,0,0,0c0,0,0,0,0,0c0,0,0,0,0,0c0,0,0,0,0,0c0,0,0,0,0,0
			c0,0,0,0,0,0c0,0-0.1,0-0.1,0c-1.3,0.7-5.6,3-6.2,5.1c-2,6.8-0.2,16.5,5.6,28.7C31.7,50.9,36.6,58,36.6,58.1z M45.5,10.7
			c0.1,1.4,0.2,2.8,0.2,4.2c-0.5-0.6-1.1-0.7-1.5-0.7c-1.5,0-4,0.7-5.8,1.9c-0.1,0-0.2,0-0.3,0h-1.2c-0.1,0-0.2,0-0.3,0
			c-1.7-1.2-4.3-1.9-5.8-1.9c-0.4,0-1,0.1-1.5,0.7c0-1.4,0.1-2.8,0.2-4.2l7.5,4c0.2,0.1,0.3,0.1,0.5,0.1c0.2,0,0.3,0,0.5-0.1
			L45.5,10.7z M34.7,20.8c-1.3,0.7-2.9,1.1-3.9,1.2c-0.2-0.2-0.6-1.2-0.6-2.9c0-1.7,0.4-2.7,0.6-2.9c1,0,2.6,0.5,3.9,1.2
			c-0.2,0.3-0.3,0.7-0.3,1.1v1.2C34.4,20.1,34.5,20.5,34.7,20.8z M36.9,20.1c-0.2,0-0.4-0.2-0.4-0.4v-1.2c0-0.2,0.2-0.4,0.4-0.4h1.2
			c0.2,0,0.4,0.2,0.4,0.4v1.2c0,0.2-0.2,0.4-0.4,0.4H36.9z M40.3,17.4c1.3-0.7,2.9-1.1,3.9-1.2c0.2,0.2,0.6,1.2,0.6,2.9
			c0,1.7-0.4,2.7-0.6,2.9c-1,0-2.6-0.5-3.9-1.2c0.2-0.3,0.3-0.7,0.3-1.1v-1.2C40.6,18.1,40.5,17.7,40.3,17.4z M30.8,24.1
			c1.5,0,4-0.7,5.8-1.9c0.1,0,0.2,0,0.3,0h1.2c0.1,0,0.2,0,0.3,0c1.7,1.2,4.3,1.9,5.8,1.9c0.3,0,0.7-0.1,1.1-0.3
			c-0.7,6.1-2,12.1-3.3,16.8c-1.6,6.1-3.4,11.2-4.5,14c-1.1-2.9-2.9-8-4.5-14c-1.3-4.8-2.6-10.7-3.3-16.8
			C30.1,24,30.5,24.1,30.8,24.1z M51.1,13.8c2.9,9.8-3.9,24.8-9.1,34.3c0.7-2.1,1.4-4.4,2-7c3.2-11.8,4.4-22,3.6-30.2
			C49.4,12,50.9,13.2,51.1,13.8z M31.9,4.6c0-0.3,0.3-0.6,0.6-0.6h10c0.3,0,0.6,0.3,0.6,0.6c0,1.6,0.5,3.1,1.4,4.3l-7,3.7l-7-3.7
			C31.4,7.6,31.9,6.1,31.9,4.6z M23.9,13.8c0.2-0.6,1.7-1.8,3.5-2.8c-0.8,8.2,0.4,18.3,3.6,30.2c0.7,2.5,1.4,4.9,2,7
			C27.8,38.6,21,23.6,23.9,13.8z"/>
		<path fill="#FFFFFF" d="M71.2,32.3c-1.2-8.1-5.1-16-5.5-16.7c-0.1-0.2-0.3-0.4-0.6-0.5L55.7,12c-0.5-0.2-1.1,0.1-1.3,0.7
			c-0.2,0.5,0.1,1.1,0.7,1.3l8.5,2.8c-0.5,1.9-1.7,6.2-3,11.3c-2.3,9.1-3.6,16.2-3.9,21c-0.3,3.8,1.3,13.8,2.7,21.9H15.6
			c1.4-8.1,3-18.1,2.7-21.9c-0.7-10.2-5.7-27.9-6.9-32.3L20,14c0.5-0.2,0.8-0.8,0.7-1.3c-0.2-0.5-0.8-0.8-1.3-0.7l-9.5,3.2
			c-0.3,0.1-0.5,0.3-0.6,0.5c0,0,0,0,0,0C9,16,4.9,24,3.8,32.3C1.8,46.2,2.3,60,2.6,69.1l0.1,1.4c0.1,1.5,1.2,2.6,2.7,2.6h64.2
			c1.5,0,2.6-1.1,2.7-2.6l0.1-1.4C72.7,60,73.2,46.2,71.2,32.3z M15.1,61.6l0-1.1c0,0,0,0,0-0.1c-0.3-3.8-0.2-7.8,0.5-12.7
			c0.1-0.9,0.2-1.8,0.3-2.7c0.2,1.5,0.4,3,0.5,4.3C16.4,51.2,16,55.5,15.1,61.6z M5.4,71c-0.3,0-0.6-0.3-0.6-0.6L4.7,69
			C4.4,60,3.9,46.3,5.8,32.6c0.8-5.3,2.8-10.5,4.1-13.5c1.1,3.8,3,11.2,4.5,18.4c-0.3,1.9-0.5,3.8-0.6,5.7c-0.1,1.4-0.2,2.8-0.4,4.2
			c-0.6,5-0.8,9.2-0.5,13.1L13.3,71H5.4z M58.7,49.2c0.1-1.3,0.3-2.7,0.5-4.2c0.1,0.9,0.2,1.8,0.3,2.7c0.6,4.9,0.8,8.9,0.5,12.7
			c0,0,0,0,0,0.1l0,1.1C59,55.5,58.6,51.2,58.7,49.2z M70.3,69l-0.1,1.4c0,0.3-0.3,0.6-0.6,0.6h-7.9L62,60.6
			c0.3-3.9,0.2-8.1-0.5-13.1c-0.2-1.4-0.3-2.8-0.4-4.2c-0.1-1.8-0.3-3.8-0.6-5.7c1.5-7.2,3.5-14.5,4.5-18.4c1.3,3,3.3,8.3,4.1,13.5
			C71.1,46.3,70.6,60,70.3,69z"/>
	</g>
</g>
</svg>
