<?xml version="1.0" encoding="utf-8"?>
<!-- Generator: Adobe Illustrator 18.0.0, SVG Export Plug-In . SVG Version: 6.00 Build 0)  -->
<!DOCTYPE svg PUBLIC "-//W3C//DTD SVG 1.1//EN" "http://www.w3.org/Graphics/SVG/1.1/DTD/svg11.dtd">
<svg version="1.1" id="Layer_1" xmlns="http://www.w3.org/2000/svg" xmlns:xlink="http://www.w3.org/1999/xlink" x="0px" y="0px"
	 viewBox="0 0 75 75" enable-background="new 0 0 75 75" xml:space="preserve">
<path fill="#FFFFFF" d="M69.5,24.3l0-8.7c0-0.7-0.6-1.4-1.4-1.4H6.9c-0.7,0-1.4,0.6-1.4,1.4v8.6L1.3,59.2c0,0.4,0.1,0.8,0.3,1.1
	c0.3,0.3,0.6,0.5,1,0.5h28.9c0.6,0,1.2-0.4,1.3-1.1l2.7-12.3l7-1.5c0.3-0.1,0.5-0.2,0.7-0.4c5.2-5.6,8.1-12.3,8.5-19.5l0-0.2h15.1
	L70.8,58H44.5l-1.8-8.1c-0.1-0.6-0.7-1.1-1.3-1.1c-0.1,0-0.2,0-0.3,0c-0.7,0.2-1.2,0.9-1,1.6l2,9.1c0.1,0.6,0.7,1.1,1.3,1.1h28.9
	c0.4,0,0.8-0.2,1-0.5c0.3-0.3,0.4-0.7,0.3-1.1L69.5,24.3z M49,26c-0.4,6.3-2.9,12.2-7.4,17.2l-0.1,0.1l-0.1,0l-7.3,1.6
	c-0.5,0.1-0.9,0.5-1,1l-2.6,12H4.2l0-0.3l3.9-32h15.6l0,0.2c0.3,6,2.5,11.8,6.3,16.8c0.2,0.3,0.5,0.5,0.9,0.5c0.4,0.1,0.7,0,1-0.3
	c0.6-0.5,0.7-1.3,0.3-1.9c-3.4-4.5-5.4-9.8-5.7-15.2l0-0.3h22.6L49,26z M66.7,23H8.3v-6h58.5V23z"/>
</svg>
