<?xml version="1.0" encoding="utf-8"?>
<!-- Generator: Adobe Illustrator 18.0.0, SVG Export Plug-In . SVG Version: 6.00 Build 0)  -->
<!DOCTYPE svg PUBLIC "-//W3C//DTD SVG 1.1//EN" "http://www.w3.org/Graphics/SVG/1.1/DTD/svg11.dtd">
<svg version="1.1" id="Layer_1" xmlns="http://www.w3.org/2000/svg" xmlns:xlink="http://www.w3.org/1999/xlink" x="0px" y="0px"
	 viewBox="0 0 75 75" enable-background="new 0 0 75 75" xml:space="preserve">
<path fill="#FFFFFF" d="M36.6,36.9V28c0-0.8-0.7-1.5-1.5-1.5c-0.8,0-1.5,0.7-1.5,1.5v9.5c0,0.4,0.2,0.8,0.4,1l7.9,7.9
	c0.5,0.5,1.5,0.5,2,0c0.6-0.6,0.6-1.5,0-2.1L36.6,36.9z"/>
<path fill="#FFFFFF" d="M62,42.4h-3.7l0.2-1.9c0.1-1.1,0.2-2.1,0.2-2.9s-0.1-1.8-0.2-2.9l-0.2-1.9H62c0.8,0,1.5-0.7,1.5-1.5
	s-0.7-1.5-1.5-1.5h-4.6L57,28.7c-1.1-2.7-2.7-5.2-4.8-7.4l-0.4-0.4L49.2,2.6c-0.1-0.7-0.7-1.2-1.4-1.2H22.5c-0.7,0-1.3,0.5-1.4,1.2
	l-2.6,18.4l-0.4,0.4c-4.2,4.4-6.5,10.2-6.5,16.2c0,6,2.3,11.8,6.5,16.2l0.4,0.4l2.6,18.4c0.1,0.7,0.7,1.2,1.4,1.2h25.3
	c0.7,0,1.3-0.5,1.4-1.2l2.6-18.4l0.4-0.4c2.1-2.2,3.7-4.6,4.8-7.4l0.4-1.1H62c0.8,0,1.5-0.7,1.5-1.5C63.4,43,62.8,42.4,62,42.4z
	 M23.8,4.2h22.7l1.9,13.6l-2.9-1.4c-6.6-3.3-14.2-3.3-20.8,0l-2.9,1.4L23.8,4.2z M46.5,70.8H23.8l-1.9-13.6l2.9,1.4
	c6.6,3.3,14.2,3.3,20.8,0l2.9-1.4L46.5,70.8z M35.1,58.1c-11.4,0-20.6-9.3-20.6-20.6s9.3-20.6,20.6-20.6s20.6,9.3,20.6,20.6
	S46.5,58.1,35.1,58.1z"/>
</svg>
