<?xml version="1.0" encoding="utf-8"?>
<!-- Generator: Adobe Illustrator 18.0.0, SVG Export Plug-In . SVG Version: 6.00 Build 0)  -->
<!DOCTYPE svg PUBLIC "-//W3C//DTD SVG 1.1//EN" "http://www.w3.org/Graphics/SVG/1.1/DTD/svg11.dtd">
<svg version="1.1" id="Layer_1" xmlns="http://www.w3.org/2000/svg" xmlns:xlink="http://www.w3.org/1999/xlink" x="0px" y="0px"
	 viewBox="0 0 75 75" enable-background="new 0 0 75 75" xml:space="preserve">
<g>
	<g>
		<path fill="#FFFFFF" d="M69.3,56.2l-1.1-39.5c-0.1-3.5-2.4-6.6-5.6-7.8L50.5,4.7l-2.2-3.4c-0.2-0.3-0.5-0.5-0.8-0.5
			c-0.1,0-0.1,0-0.2,0v0H27.7v0c-0.1,0-0.1,0-0.2,0c-0.3,0-0.6,0.2-0.8,0.5l-2.2,3.4L12.4,9c-3.3,1.2-5.5,4.3-5.6,7.8L5.7,56.2
			c0,1,0.6,1.9,1.5,2.3L7,62.3c-0.1,1,0.6,2,1.5,2.4l7,2.7c0,1,0.8,1.9,1.8,2.2l17.5,4.7c0.1,0,0.2,0,0.3,0c0.2,0,0.4-0.1,0.6-0.2
			c0.3-0.2,0.5-0.5,0.5-0.8l1.3-9.8l1.3,9.8c0,0.3,0.2,0.6,0.5,0.8c0.3,0.2,0.6,0.2,0.9,0.2l17.5-4.7c1-0.3,1.7-1.2,1.8-2.2l7-2.7
			c1-0.4,1.6-1.3,1.5-2.4l-0.2-3.8C68.7,58.1,69.3,57.2,69.3,56.2z M48.4,5.6l-5,8c0,0,0,0-0.1,0c0,0-0.1,0-0.1,0l-4-3.2l7.8-6.8
			L48.4,5.6z M27.9,3.7l7.8,6.8l-4,3.2c0,0,0,0-0.1,0c0,0,0,0-0.1,0l-5-8L27.9,3.7z M15.5,64.8l-6.2-2.4c0,0-0.1,0,0-0.1l0.2-3.1
			l6.1,2.3V64.8z M36.4,54.6L36.4,54.6l-2.3,17l-16.2-4.3c0,0-0.1,0-0.1-0.1V22.8c0-0.6-0.5-1.1-1.1-1.1s-1.1,0.5-1.1,1.1v36.3
			l-7.4-2.8c0,0-0.1,0,0-0.1l1.1-39.5c0.1-2.5,1.7-4.8,4.1-5.7L24.8,7l4.9,7.9c0.4,0.6,0.9,1,1.6,1.1c0.1,0,0.3,0,0.4,0
			c0.5,0,1.1-0.2,1.5-0.5l3.2-2.5L36.4,54.6L36.4,54.6z M37.5,9l-6.7-5.9h13.5L37.5,9z M65.7,62.5l-6.2,2.4l0-3.3l6-2.3L65.7,62.5
			C65.7,62.4,65.7,62.5,65.7,62.5z M66.9,56.3l-7.4,2.8l0-36.3c0-0.6-0.5-1.1-1.1-1.2c0,0,0,0,0,0c-0.6,0-1.1,0.5-1.1,1.1l0,44.4
			c0,0,0,0.1-0.1,0.1l-16.2,4.3l-2.3-17V12.9l3.2,2.5c0.4,0.3,0.9,0.5,1.5,0.5c0.1,0,0.3,0,0.4,0c0.7-0.1,1.3-0.5,1.6-1.1L50.2,7
			l11.5,4.1c2.4,0.9,4,3.1,4.1,5.7L66.9,56.3C67,56.3,67,56.3,66.9,56.3z"/>
	</g>
</g>
</svg>
