<?xml version="1.0" encoding="utf-8"?>
<!-- Generator: Adobe Illustrator 18.0.0, SVG Export Plug-In . SVG Version: 6.00 Build 0)  -->
<!DOCTYPE svg PUBLIC "-//W3C//DTD SVG 1.1//EN" "http://www.w3.org/Graphics/SVG/1.1/DTD/svg11.dtd">
<svg version="1.1" id="Layer_1" xmlns="http://www.w3.org/2000/svg" xmlns:xlink="http://www.w3.org/1999/xlink" x="0px" y="0px"
	 viewBox="0 0 75 75" enable-background="new 0 0 75 75" xml:space="preserve">
<path fill="#FFFFFF" d="M61.8,23.4h8c2.1,0,3.9-1.7,3.9-3.9V5.2c0-2.1-1.7-3.9-3.9-3.9H39.9c-0.9,0-1.7,0.3-2.4,0.8
	c-0.7-0.5-1.5-0.8-2.4-0.8H5.2c-2.1,0-3.9,1.7-3.9,3.9v14.3c0,2.1,1.7,3.9,3.9,3.9h8c1,1.2,2.3,2.2,3.8,2.8c-4.7,0.4-9.4,1.3-14,2.7
	l-0.1,0c-0.2,0.1-0.4,0.1-0.6,0.2l-0.1,0c-0.1,0-0.1,0.1-0.1,0.1c-0.1,0.1-0.2,0.1-0.3,0.2c-0.1,0.1-0.1,0.2-0.1,0.2
	c-0.1,0.1-0.1,0.2-0.2,0.3c0,0.1-0.1,0.2-0.1,0.3c0,0.1,0,0.1,0,0.2v41.6c0,0.8,0.7,1.5,1.5,1.5h69.3c0.8,0,1.5-0.7,1.5-1.5V30.6
	l0,0c0-0.1,0-0.1,0-0.1c0-0.1,0-0.2-0.1-0.4c0-0.1-0.1-0.2-0.1-0.2c0-0.1-0.1-0.2-0.2-0.3c-0.1-0.1-0.2-0.2-0.3-0.2
	c0,0-0.1-0.1-0.1-0.1l-0.1,0h0c-0.2-0.1-0.4-0.2-0.6-0.2L72,29c-4.5-1.4-9.2-2.3-13.9-2.7C59.5,25.6,60.8,24.7,61.8,23.4z
	 M11.5,20.5H5.2c-0.5,0-0.9-0.4-0.9-0.9V5.2c0-0.5,0.4-0.9,0.9-0.9h29.9c0.5,0,0.9,0.4,0.9,0.9v14.3c0,0.5-0.4,0.9-0.9,0.9H30
	c0.8-2.3,0.8-4.9-0.2-7.1c-1-2.4-2.9-4.3-5.4-5.3c-2.4-1-5.1-1-7.5,0c-2.4,1-4.3,2.9-5.3,5.4C10.7,15.7,10.7,18.2,11.5,20.5z
	 M70.7,19.6c0,0.5-0.4,0.9-0.9,0.9h-6.3c1.8-4.9-0.7-10.4-5.6-12.4c-5-2-10.8,0.4-12.8,5.4c-0.9,2.2-1,4.7-0.1,7h-5.1
	c-0.5,0-0.9-0.4-0.9-0.9V5.2c0-0.5,0.4-0.9,0.9-0.9h29.9c0.5,0,0.9,0.4,0.9,0.9V19.6z M49.1,25.6c-3.8-0.2-7.7-0.3-11.6-0.3
	c-3.9,0-7.8,0.1-11.6,0.3c0.9-0.6,1.8-1.3,2.5-2.1h6.8c0.9,0,1.7-0.3,2.4-0.8c0.7,0.5,1.5,0.8,2.4,0.8h6.8
	C47.4,24.3,48.2,25,49.1,25.6z M20.8,10.3c3.8,0,6.9,3.1,6.9,6.9c0,3.8-3.1,6.9-6.9,6.9c-3.8,0-6.9-3.1-6.9-6.9
	C13.9,13.4,17,10.3,20.8,10.3z M59.9,21.1L59.9,21.1c-1.3,1.9-3.4,3-5.6,3c0,0,0,0,0,0h0c0,0,0,0,0,0c-2.2,0-4.3-1.1-5.6-2.9
	l-0.1-0.1c-0.8-1.2-1.2-2.5-1.2-3.9c0-3.8,3.1-6.9,6.9-6.9c3.8,0,6.9,3.1,6.9,6.9C61.1,18.6,60.7,20,59.9,21.1z M4.3,42.4
	c3.4-1.2,9.6-2.2,17.1-2.8c5.1-0.4,10.5-0.6,16.1-0.6c5.7,0,11.1,0.2,16.1,0.6c7.5,0.6,13.7,1.6,17.1,2.8v28.3H4.3V42.4z M21.2,36.6
	c-5.7,0.3-11.4,1.2-16.9,2.7v-7.7c5.9-2.1,18.9-3.4,33.2-3.4c14.3,0,27.3,1.3,33.2,3.4v7.7c-5.5-1.5-11.2-2.4-16.9-2.7
	C48.7,36.2,43.2,36,37.5,36S26.3,36.2,21.2,36.6z"/>
</svg>
