<?xml version="1.0" encoding="utf-8"?>
<!-- Generator: Adobe Illustrator 18.0.0, SVG Export Plug-In . SVG Version: 6.00 Build 0)  -->
<!DOCTYPE svg PUBLIC "-//W3C//DTD SVG 1.1//EN" "http://www.w3.org/Graphics/SVG/1.1/DTD/svg11.dtd">
<svg version="1.1" id="Layer_1" xmlns="http://www.w3.org/2000/svg" xmlns:xlink="http://www.w3.org/1999/xlink" x="0px" y="0px"
	 viewBox="0 0 75 75" enable-background="new 0 0 75 75" xml:space="preserve">
<g id="rjJ4mH_1_">
	<g>
		<path fill="#FFFFFF" d="M37.6,9.3c7.6,0,15.1,0,22.7,0c3.3,0,5.8,1.2,7.6,3.9c1.6,2.4,3.3,4.8,5,7.2c0.7,0.9,1,1.9,1,3.1
			c0,10.7,0,21.4,0,32.1c0,1.2-0.3,2.2-1.3,2.8c-1.1,0.6-2.1,0.4-3.2-0.2c-0.4-0.2-0.8-0.5-1.1-0.7c-2.3-1.5-4.6-1.5-6.9-0.1
			c-1.7,1-3.5,1.8-5.5,1.8c-1.9,0-3.7-0.5-5.2-1.5c-1.7-1.1-3.6-1.5-5.5-1c-0.7,0.2-1.5,0.5-2.1,0.9c-3.6,2.1-7.1,2.2-10.6,0
			c-2.5-1.5-5-1.5-7.5,0c-3.5,2.2-7.1,2.2-10.6,0c-2.5-1.5-5.1-1.6-7.5,0.2c-0.4,0.3-0.8,0.5-1.1,0.7c-2.1,1.1-4.1-0.1-4.2-2.5
			c0-8.2,0-16.4,0-24.6c0-2.6,0-5.2,0-7.7c0-1.2,0.3-2.2,1-3.1c1.8-2.5,3.6-5.1,5.4-7.6c1.6-2.3,3.8-3.4,6.6-3.4
			C21.9,9.3,29.7,9.3,37.6,9.3C37.6,9.3,37.6,9.3,37.6,9.3z M71.1,56c0-10.3,0-20.4,0-30.6c-22.4,0-44.8,0-67.1,0
			C4,35.7,4,45.8,4,56c0.4-0.3,0.8-0.6,1.1-0.8c0.9-0.5,1.7-1,2.6-1.3c2.8-0.8,5.5-0.3,8,1.3c2.4,1.5,4.9,1.5,7.3,0
			c3.6-2.2,7.2-2.2,10.8,0c2.5,1.5,5,1.5,7.5,0c3.5-2.2,7.1-2.1,10.6,0c0.7,0.4,1.4,0.7,2.1,0.9c2.1,0.5,4-0.1,5.8-1.2
			c3.5-2,7.1-2,10.4,0.5C70.5,55.7,70.8,55.8,71.1,56z M71.1,22.7c-0.1-0.3-0.2-0.4-0.3-0.6c-1.9-2.8-3.9-5.6-5.8-8.3
			C64,12.5,62.8,12,61.2,12c-15.7,0-31.5,0-47.2,0c-1.8,0-3.2,0.7-4.2,2.2c-1.8,2.6-3.6,5.1-5.4,7.7c-0.1,0.2-0.3,0.5-0.5,0.8
			C26.3,22.7,48.6,22.7,71.1,22.7z"/>
		<path fill="#FFFFFF" d="M59,63c1.4,0,2.7,0,4.1,0c0-1.3,0-2.5,0-3.7c0-1,0.5-1.7,1.4-1.6c0.8,0,1.3,0.6,1.3,1.6c0,1.6,0,3.2,0,4.9
			c0,1-0.5,1.5-1.6,1.5c-2.1,0-4.2,0-6.3,0c-1,0-1.5-0.5-1.5-1.5c0-0.8,0-1.6,0-2.4c0-0.9,0.6-1.4,1.3-1.4c0.8,0,1.3,0.6,1.3,1.4
			C59,62.2,59,62.6,59,63z"/>
		<path fill="#FFFFFF" d="M11.9,63c1.4,0,2.7,0,4.1,0c0-0.5,0-0.9,0-1.4c0.1-0.7,0.6-1.3,1.3-1.3c0.7,0,1.3,0.5,1.4,1.3
			c0,0.9,0,1.8,0,2.7c0,0.8-0.6,1.3-1.4,1.4c-2.2,0-4.4,0-6.5,0c-0.9,0-1.4-0.5-1.4-1.4c0-1.7,0-3.5,0-5.2c0-0.9,0.6-1.4,1.3-1.4
			c0.8,0,1.3,0.6,1.3,1.4C12,60.4,11.9,61.7,11.9,63z"/>
	</g>
</g>
</svg>
