<?xml version="1.0" encoding="utf-8"?>
<!-- Generator: Adobe Illustrator 18.0.0, SVG Export Plug-In . SVG Version: 6.00 Build 0)  -->
<!DOCTYPE svg PUBLIC "-//W3C//DTD SVG 1.1//EN" "http://www.w3.org/Graphics/SVG/1.1/DTD/svg11.dtd">
<svg version="1.1" id="Layer_1" xmlns="http://www.w3.org/2000/svg" xmlns:xlink="http://www.w3.org/1999/xlink" x="0px" y="0px"
	 viewBox="0 0 75 75" enable-background="new 0 0 75 75" xml:space="preserve">
<g>
	<g>
		<path fill="#181b48" d="M38.6,44.2h4.1v-3.1h-1.6h-3.7H26.7l8-7.1c5.3-4.6,7.6-7.3,7.6-11.7v-0.1c0-4.9-3.9-8.5-9.3-8.5
			c-5.3,0-8.1,2.4-10.8,6.4l2.5,1.8c2.4-3.4,4.6-5.2,8.1-5.2c3.3,0,6.1,2.2,6.1,5.8c0,3-1.7,5.3-6.3,9.5l-10.9,9.6v2.6h13.2H38.6z"
			/>
	</g>
	<g>
		<polygon fill="#181b48" points="48.7,51.4 48.7,31.1 45.7,31.1 38.6,39.6 42.3,39.6 45.4,35.9 45.4,51.4 32.7,51.4 37.4,45.6 
			33.7,45.6 28.6,51.7 29.5,54.2 45.4,54.2 45.4,61.4 48.7,61.4 48.7,54.2 53.3,54.2 53.3,51.4 		"/>
	</g>
</g>
<g>
	<path fill="#181b48" d="M37.5,73.7c-20,0-36.2-16.3-36.2-36.2S17.5,1.3,37.5,1.3s36.2,16.3,36.2,36.2S57.5,73.7,37.5,73.7z
		 M37.5,2.3C18.1,2.3,2.3,18.1,2.3,37.5s15.8,35.2,35.2,35.2s35.2-15.8,35.2-35.2S56.9,2.3,37.5,2.3z"/>
</g>
</svg>
