<?xml version="1.0" encoding="utf-8"?>
<!-- Generator: Adobe Illustrator 18.0.0, SVG Export Plug-In . SVG Version: 6.00 Build 0)  -->
<!DOCTYPE svg PUBLIC "-//W3C//DTD SVG 1.1//EN" "http://www.w3.org/Graphics/SVG/1.1/DTD/svg11.dtd">
<svg version="1.1" id="Layer_1" xmlns="http://www.w3.org/2000/svg" xmlns:xlink="http://www.w3.org/1999/xlink" x="0px" y="0px"
	 viewBox="0 0 75 75" enable-background="new 0 0 75 75" xml:space="preserve">
<g>
	<path fill="#181b48" d="M11.6,54.4V3.8c0-0.7-0.6-1.3-1.3-1.3S9,3.1,9,3.8v50.6c-4.4,0.6-7.8,4.4-7.8,9c0,5,4.1,9.1,9.1,9.1
		s9.1-4.1,9.1-9.1C19.4,58.8,16,55.1,11.6,54.4z M10.3,69.9c-3.6,0-6.5-2.9-6.5-6.5c0-3.6,2.9-6.5,6.5-6.5s6.5,2.9,6.5,6.5
		C16.8,67,13.9,69.9,10.3,69.9z"/>
	<path fill="#181b48" d="M38.8,28V3.8c0-0.7-0.6-1.3-1.3-1.3s-1.3,0.6-1.3,1.3V28c-4.7,0.5-8.3,4.5-8.3,9.3s3.6,8.8,8.3,9.3v24.7
		c0,0.7,0.6,1.3,1.3,1.3s1.3-0.6,1.3-1.3V46.4c4.4-0.7,7.8-4.6,7.8-9.2S43.2,28.8,38.8,28z M37.2,44c-3.7,0-6.7-3-6.7-6.7
		s3-6.7,6.7-6.7s6.7,3,6.7,6.7C44,41,41,44,37.2,44z"/>
	<path fill="#181b48" d="M73.8,11.6c0-5-4.1-9.1-9.1-9.1c-5,0-9.1,4.1-9.1,9.1c0,4.6,3.4,8.3,7.8,9v50.6c0,0.7,0.6,1.3,1.3,1.3
		c0.7,0,1.3-0.6,1.3-1.3V20.6C70.4,19.9,73.8,16.2,73.8,11.6z M64.7,18.1c-3.6,0-6.5-2.9-6.5-6.5s2.9-6.5,6.5-6.5
		c3.6,0,6.5,2.9,6.5,6.5S68.3,18.1,64.7,18.1z"/>
</g>
</svg>
