<?xml version="1.0" encoding="utf-8"?>
<!-- Generator: Adobe Illustrator 18.0.0, SVG Export Plug-In . SVG Version: 6.00 Build 0)  -->
<!DOCTYPE svg PUBLIC "-//W3C//DTD SVG 1.1//EN" "http://www.w3.org/Graphics/SVG/1.1/DTD/svg11.dtd">
<svg version="1.1" id="Layer_1" xmlns="http://www.w3.org/2000/svg" xmlns:xlink="http://www.w3.org/1999/xlink" x="0px" y="0px"
	 viewBox="0 0 75 75" enable-background="new 0 0 75 75" xml:space="preserve">
<g>
	<path fill="#181b48" d="M36.3,69.5H17.4c-5.1,0-9.3-4.2-9.3-9.3V14.8c0-5.1,4.2-9.3,9.3-9.3h19.2c1.2,0,2.1-0.9,2.1-2.1
		s-0.9-2.1-2.1-2.1H17.4C10,1.3,4,7.4,4,14.8v45.5c0,7.4,6,13.4,13.4,13.4h18.9c1.2,0,2.1-0.9,2.1-2.1
		C38.3,70.4,37.4,69.5,36.3,69.5L36.3,69.5z M36.3,69.5"/>
	<path fill="#181b48" d="M70.4,36L57.2,22.9c-0.8-0.8-2.1-0.8-2.9,0c-0.8,0.8-0.8,2.1,0,2.9l9.6,9.6h-42c-1.2,0-2.1,0.9-2.1,2.1
		s0.9,2.1,2.1,2.1h42l-9.6,9.6c-0.8,0.8-0.8,2.1,0,2.9c0.4,0.4,0.9,0.6,1.5,0.6c0.5,0,1.1-0.2,1.5-0.6L70.4,39
		C71.2,38.2,71.2,36.8,70.4,36L70.4,36z M70.4,36"/>
</g>
</svg>
