<?xml version="1.0" encoding="utf-8"?>
<!-- Generator: Adobe Illustrator 18.0.0, SVG Export Plug-In . SVG Version: 6.00 Build 0)  -->
<!DOCTYPE svg PUBLIC "-//W3C//DTD SVG 1.1//EN" "http://www.w3.org/Graphics/SVG/1.1/DTD/svg11.dtd">
<svg version="1.1" id="Layer_1" xmlns="http://www.w3.org/2000/svg" xmlns:xlink="http://www.w3.org/1999/xlink" x="0px" y="0px"
	 viewBox="0 0 30 30" enable-background="new 0 0 30 30" xml:space="preserve">
<g id="XMLID_4383_">
	<path id="XMLID_4416_" fill="#3670A7" d="M27.7,29.8l-25.4,0c-1.1,0-2-0.9-2-2l0-25.4c0-1.1,0.9-2,2-2l25.4,0c1.1,0,2,0.9,2,2
		l0,25.4C29.8,28.8,28.9,29.8,27.7,29.8"/>
	<path id="XMLID_4404_" fill="#FFFFFF" d="M25.2,5.3l0,5.1l-4.6,0c-0.6,0-1,0.5-1,1l0,3.1l5.1,0l0,5.1l-5.1,0l0,10.2l-5.1,0l0-10.2
		l-4.1,0l0-5.1l4.1,0l0-3.1c0-3.2,2.4-5.9,5.6-6.1L25.2,5.3L25.2,5.3z"/>
</g>
</svg>
