<?xml version="1.0" encoding="utf-8"?>
<!-- Generator: Adobe Illustrator 18.0.0, SVG Export Plug-In . SVG Version: 6.00 Build 0)  -->
<!DOCTYPE svg PUBLIC "-//W3C//DTD SVG 1.1//EN" "http://www.w3.org/Graphics/SVG/1.1/DTD/svg11.dtd">
<svg version="1.1" id="Layer_1" xmlns="http://www.w3.org/2000/svg" xmlns:xlink="http://www.w3.org/1999/xlink" x="0px" y="0px"
	 viewBox="0 0 30 30" enable-background="new 0 0 30 30" xml:space="preserve">
<g id="XMLID_105_">
	
		<linearGradient id="XMLID_3665_" gradientUnits="userSpaceOnUse" x1="15.0017" y1="29.7421" x2="15.0017" y2="0.6396" gradientTransform="matrix(1 -4.845175e-04 4.845175e-04 1 -9.012512e-03 -0.1122)">
		<stop  offset="0" style="stop-color:#F19732"/>
		<stop  offset="0.3" style="stop-color:#DF4B4C"/>
		<stop  offset="0.6" style="stop-color:#DD1278"/>
		<stop  offset="1" style="stop-color:#811FC4"/>
	</linearGradient>
	<path id="XMLID_4337_" fill="url(#XMLID_3665_)" d="M20.9,0.3L9,0.3c-4.8,0-8.8,3.9-8.8,8.8l0,11.9c0,4.8,3.9,8.8,8.8,8.8l11.9,0
		c4.8,0,8.8-3.9,8.8-8.8l0-11.9C29.7,4.2,25.8,0.3,20.9,0.3z M26.8,20.9c0,3.2-2.6,5.8-5.8,5.8l-11.9,0c-3.2,0-5.8-2.6-5.8-5.8
		l0-11.9c0-3.2,2.6-5.8,5.8-5.8l11.9,0c3.2,0,5.8,2.6,5.8,5.8L26.8,20.9L26.8,20.9z"/>
	
		<linearGradient id="XMLID_4505_" gradientUnits="userSpaceOnUse" x1="15.0019" y1="29.7421" x2="15.0019" y2="0.6396" gradientTransform="matrix(1 -4.845175e-04 4.845175e-04 1 -9.012512e-03 -0.1122)">
		<stop  offset="0" style="stop-color:#F19732"/>
		<stop  offset="0.3" style="stop-color:#DF4B4C"/>
		<stop  offset="0.6" style="stop-color:#DD1278"/>
		<stop  offset="1" style="stop-color:#811FC4"/>
	</linearGradient>
	<path id="XMLID_3852_" fill="url(#XMLID_4505_)" d="M15,7.4c-4.2,0-7.6,3.4-7.6,7.6c0,4.2,3.4,7.6,7.6,7.6s7.6-3.4,7.6-7.6
		S19.2,7.4,15,7.4z M15,19.6c-2.6,0-4.7-2.1-4.7-4.6c0-2.6,2.1-4.7,4.6-4.7c2.6,0,4.6,2.1,4.7,4.6C19.7,17.6,17.6,19.6,15,19.6z"/>
	
		<linearGradient id="XMLID_4512_" gradientUnits="userSpaceOnUse" x1="22.6247" y1="317.6354" x2="22.6247" y2="288.5281" gradientTransform="matrix(1 -4.845175e-04 4.845175e-04 1 -0.1485 -288.0022)">
		<stop  offset="0" style="stop-color:#F19732"/>
		<stop  offset="0.3" style="stop-color:#DF4B4C"/>
		<stop  offset="0.6" style="stop-color:#DD1278"/>
		<stop  offset="1" style="stop-color:#811FC4"/>
	</linearGradient>
	<circle id="XMLID_3650_" fill="url(#XMLID_4512_)" cx="22.6" cy="7.4" r="1.8"/>
</g>
</svg>
