<?xml version="1.0" encoding="utf-8"?>
<!-- Generator: Adobe Illustrator 18.0.0, SVG Export Plug-In . SVG Version: 6.00 Build 0)  -->
<!DOCTYPE svg PUBLIC "-//W3C//DTD SVG 1.1//EN" "http://www.w3.org/Graphics/SVG/1.1/DTD/svg11.dtd">
<svg version="1.1" id="Layer_1" xmlns="http://www.w3.org/2000/svg" xmlns:xlink="http://www.w3.org/1999/xlink" x="0px" y="0px"
	 viewBox="0 0 32.3 24.9" enable-background="new 0 0 32.3 24.9" xml:space="preserve">
<g id="XMLID_4572_">
	<path id="XMLID_4707_" fill="#1C1A19" d="M5.9,22.1c-0.1-0.1-0.2-0.2-0.3-0.2c-0.1,0-0.3-0.1-0.4-0.1c-0.1,0-0.2,0-0.2,0
		c-0.1,0-0.2,0-0.2,0.1c-0.1,0-0.2,0.1-0.2,0.1c-0.1,0.1-0.1,0.1-0.2,0.2c-0.1-0.1-0.2-0.3-0.3-0.3c-0.1-0.1-0.3-0.1-0.5-0.1
		c-0.1,0-0.1,0-0.2,0c-0.1,0-0.1,0-0.2,0.1c-0.1,0-0.1,0.1-0.2,0.1c-0.1,0-0.1,0.1-0.2,0.2l0-0.3l-0.5,0l0,2.5l0.5,0l0-1.4
		c0-0.1,0-0.2,0.1-0.3s0.1-0.2,0.1-0.2c0.1-0.1,0.1-0.1,0.2-0.1c0.1,0,0.2,0,0.3,0c0.2,0,0.3,0.1,0.4,0.2c0.1,0.1,0.1,0.3,0.1,0.5
		l0,1.4l0.5,0l0-1.4c0-0.1,0-0.2,0.1-0.3c0-0.1,0.1-0.2,0.1-0.2c0.1-0.1,0.1-0.1,0.2-0.1c0.1,0,0.2,0,0.2,0c0.2,0,0.3,0.1,0.4,0.2
		c0.1,0.1,0.1,0.3,0.1,0.5l0,1.4l0.5,0l0-1.6c0-0.2,0-0.3-0.1-0.4C6,22.3,6,22.2,5.9,22.1"/>
	<path id="XMLID_4703_" fill="#1C1A19" d="M8.7,22.2c-0.1-0.1-0.2-0.2-0.3-0.3c-0.1-0.1-0.3-0.1-0.5-0.1c-0.2,0-0.3,0-0.5,0.1
		C7.3,22,7.1,22.1,7,22.2c-0.1,0.1-0.2,0.3-0.3,0.4c-0.1,0.2-0.1,0.3-0.1,0.5c0,0.2,0,0.4,0.1,0.5C6.8,23.8,6.9,24,7,24.1
		c0.1,0.1,0.3,0.2,0.4,0.3c0.2,0.1,0.3,0.1,0.5,0.1c0.2,0,0.3,0,0.5-0.1c0.1-0.1,0.2-0.2,0.3-0.3l0,0.3l0.6,0l0-2.5l-0.6,0L8.7,22.2
		z M8.7,23.5c0,0.1-0.1,0.2-0.2,0.3c-0.1,0.1-0.1,0.1-0.2,0.2c-0.1,0-0.2,0.1-0.3,0.1c-0.1,0-0.2,0-0.3-0.1c-0.1,0-0.2-0.1-0.2-0.2
		c-0.1-0.1-0.1-0.2-0.1-0.3c0-0.1-0.1-0.2-0.1-0.3c0-0.1,0-0.2,0.1-0.3c0-0.1,0.1-0.2,0.1-0.3c0.1-0.1,0.1-0.1,0.2-0.2
		c0.1,0,0.2-0.1,0.3-0.1c0.1,0,0.2,0,0.3,0.1c0.1,0,0.2,0.1,0.2,0.2c0.1,0.1,0.1,0.2,0.2,0.3c0,0.1,0.1,0.2,0.1,0.3
		C8.8,23.3,8.8,23.4,8.7,23.5"/>
	<path id="XMLID_4691_" fill="#1C1A19" d="M11.9,23.1c-0.2-0.1-0.4-0.2-0.7-0.2l-0.3,0c-0.1,0-0.1,0-0.2,0c0,0-0.1,0-0.1-0.1
		c0,0-0.1,0-0.1-0.1c0,0,0-0.1,0-0.1c0-0.1,0-0.2,0.1-0.2c0.1-0.1,0.2-0.1,0.4-0.1c0.1,0,0.2,0,0.2,0c0.1,0,0.2,0,0.2,0
		c0.1,0,0.1,0,0.2,0.1c0.1,0,0.1,0,0.1,0.1l0.2-0.4c-0.1-0.1-0.3-0.2-0.5-0.2c-0.2,0-0.4-0.1-0.6-0.1c-0.2,0-0.3,0-0.4,0.1
		c-0.1,0-0.2,0.1-0.3,0.2c-0.1,0.1-0.2,0.2-0.2,0.3c-0.1,0.1-0.1,0.2-0.1,0.3c0,0.2,0.1,0.4,0.2,0.5c0.1,0.1,0.4,0.2,0.6,0.3l0.3,0
		c0.2,0,0.3,0.1,0.3,0.1c0.1,0,0.1,0.1,0.1,0.2c0,0.1,0,0.2-0.1,0.2C11.3,24,11.1,24,10.9,24c-0.1,0-0.2,0-0.3,0
		c-0.1,0-0.2,0-0.2-0.1c-0.1,0-0.1-0.1-0.2-0.1c-0.1,0-0.1-0.1-0.1-0.1l-0.3,0.4c0.1,0.1,0.2,0.1,0.3,0.2c0.1,0,0.2,0.1,0.3,0.1
		c0.1,0,0.2,0,0.3,0c0.1,0,0.2,0,0.2,0c0.2,0,0.3,0,0.5-0.1c0.1,0,0.3-0.1,0.4-0.2c0.1-0.1,0.2-0.2,0.2-0.3c0-0.1,0.1-0.2,0.1-0.3
		C12.1,23.4,12,23.2,11.9,23.1"/>
	<path id="XMLID_4681_" fill="#1C1A19" d="M17.1,22.2c-0.1-0.1-0.2-0.2-0.4-0.3c-0.1-0.1-0.3-0.1-0.5-0.1c-0.2,0-0.4,0-0.5,0.1
		c-0.2,0.1-0.3,0.2-0.4,0.3c-0.1,0.1-0.2,0.3-0.3,0.4c-0.1,0.2-0.1,0.3-0.1,0.5c0,0.2,0,0.4,0.1,0.6c0.1,0.2,0.2,0.3,0.3,0.4
		c0.1,0.1,0.3,0.2,0.4,0.3c0.2,0.1,0.3,0.1,0.5,0.1c0.2,0,0.4,0,0.6-0.1c0.2-0.1,0.3-0.1,0.5-0.3L17,23.7c-0.1,0.1-0.2,0.2-0.4,0.2
		c-0.1,0-0.3,0.1-0.4,0.1c-0.1,0-0.2,0-0.3,0c-0.1,0-0.2-0.1-0.2-0.1c-0.1-0.1-0.1-0.1-0.2-0.2c0-0.1-0.1-0.2-0.1-0.3l1.9,0
		c0,0,0-0.1,0-0.1c0,0,0-0.1,0-0.1c0-0.2,0-0.4-0.1-0.5C17.2,22.4,17.2,22.3,17.1,22.2 M15.5,22.9c0-0.1,0-0.2,0.1-0.3
		c0-0.1,0.1-0.1,0.1-0.2c0.1-0.1,0.1-0.1,0.2-0.1c0.1,0,0.2,0,0.3,0c0.2,0,0.3,0.1,0.4,0.2c0.1,0.1,0.2,0.3,0.2,0.5L15.5,22.9z"/>
	<path id="XMLID_4673_" fill="#1C1A19" d="M24.4,22.2c-0.1-0.1-0.2-0.2-0.3-0.3c-0.1-0.1-0.3-0.1-0.5-0.1c-0.2,0-0.3,0-0.5,0.1
		C23,22,22.9,22,22.7,22.2c-0.1,0.1-0.2,0.3-0.3,0.4c-0.1,0.2-0.1,0.3-0.1,0.5c0,0.2,0,0.4,0.1,0.5c0.1,0.2,0.2,0.3,0.3,0.4
		c0.1,0.1,0.2,0.2,0.4,0.3c0.2,0.1,0.3,0.1,0.5,0.1c0.2,0,0.3,0,0.5-0.1c0.1-0.1,0.2-0.2,0.3-0.3l0,0.3l0.6,0l0-2.5l-0.6,0
		L24.4,22.2z M24.4,23.4c0,0.1-0.1,0.2-0.2,0.3c-0.1,0.1-0.1,0.1-0.2,0.2c-0.1,0-0.2,0.1-0.3,0.1c-0.1,0-0.2,0-0.3-0.1
		c-0.1,0-0.2-0.1-0.2-0.2c-0.1-0.1-0.1-0.2-0.2-0.3c0-0.1-0.1-0.2-0.1-0.3c0-0.1,0-0.2,0.1-0.3c0-0.1,0.1-0.2,0.2-0.3
		c0.1-0.1,0.1-0.1,0.2-0.2c0.1,0,0.2-0.1,0.3-0.1c0.1,0,0.2,0,0.3,0.1c0.1,0,0.2,0.1,0.2,0.2c0.1,0.1,0.1,0.2,0.2,0.3
		c0,0.1,0.1,0.2,0.1,0.3C24.5,23.2,24.5,23.4,24.4,23.4"/>
	<path id="XMLID_4670_" fill="#1C1A19" d="M14.2,23.9c-0.1,0-0.2,0-0.3,0c-0.1,0-0.1,0-0.2,0c0,0-0.1,0-0.1-0.1c0,0-0.1-0.1-0.1-0.1
		c0-0.1,0-0.1,0-0.2l0-1.1l0.9,0l0-0.5l-0.9,0l0-0.8l-0.6,0l0,0.8l-0.5,0l0,0.5l0.5,0l0,1.1c0,0.3,0.1,0.6,0.2,0.8
		c0.2,0.2,0.4,0.2,0.7,0.2c0.2,0,0.3,0,0.4-0.1c0.1,0,0.2-0.1,0.2-0.1l-0.2-0.5C14.4,23.8,14.3,23.9,14.2,23.9"/>
	<path id="XMLID_4667_" fill="#1C1A19" d="M19.3,21.8c-0.2,0-0.3,0-0.4,0.1c-0.1,0.1-0.2,0.2-0.3,0.3l0-0.3l-0.5,0l0,2.5l0.5,0
		l0-1.4c0-0.1,0-0.2,0-0.3c0-0.1,0.1-0.2,0.1-0.2c0.1-0.1,0.1-0.1,0.2-0.1c0.1,0,0.2,0,0.2,0c0.1,0,0.1,0,0.2,0c0,0,0.1,0,0.1,0
		l0.2-0.5c0,0-0.1,0-0.1,0C19.4,21.8,19.3,21.8,19.3,21.8"/>
	<path id="XMLID_4666_" fill="#1C1A19" d="M27,21.8c-0.2,0-0.3,0-0.4,0.1c-0.1,0.1-0.2,0.2-0.3,0.3l0-0.3l-0.5,0l0,2.5l0.5,0l0-1.4
		c0-0.1,0-0.2,0-0.3c0-0.1,0.1-0.2,0.1-0.2c0.1-0.1,0.1-0.1,0.2-0.1c0.1,0,0.2,0,0.2,0c0.1,0,0.1,0,0.2,0c0,0,0.1,0,0.1,0l0.2-0.5
		c0,0-0.1,0-0.1,0C27.1,21.8,27.1,21.8,27,21.8"/>
	<path id="XMLID_4661_" fill="#1C1A19" d="M29.6,20.8l0,1.3c-0.1-0.1-0.2-0.2-0.3-0.3c-0.1-0.1-0.3-0.1-0.5-0.1
		c-0.2,0-0.3,0-0.5,0.1c-0.2,0.1-0.3,0.2-0.4,0.3c-0.1,0.1-0.2,0.3-0.3,0.4c-0.1,0.2-0.1,0.3-0.1,0.5c0,0.2,0,0.4,0.1,0.5
		c0.1,0.2,0.2,0.3,0.3,0.4c0.1,0.1,0.3,0.2,0.4,0.3c0.2,0.1,0.3,0.1,0.5,0.1c0.2,0,0.3,0,0.5-0.1c0.1-0.1,0.2-0.2,0.3-0.3l0,0.3
		l0.6,0l0-3.6L29.6,20.8z M29.6,23.4c0,0.1-0.1,0.2-0.2,0.3c-0.1,0.1-0.1,0.1-0.2,0.2c-0.1,0-0.2,0.1-0.3,0.1c-0.1,0-0.2,0-0.3-0.1
		c-0.1,0-0.2-0.1-0.2-0.2c-0.1-0.1-0.1-0.2-0.2-0.3c0-0.1,0-0.2,0-0.3c0-0.1,0-0.2,0-0.3c0-0.1,0.1-0.2,0.2-0.3
		c0.1-0.1,0.1-0.1,0.2-0.2c0.1,0,0.2-0.1,0.3-0.1c0.1,0,0.2,0,0.3,0.1c0.1,0,0.2,0.1,0.2,0.2c0.1,0.1,0.1,0.2,0.2,0.3
		c0,0.1,0.1,0.2,0.1,0.3C29.6,23.2,29.6,23.3,29.6,23.4"/>
	<path id="XMLID_4660_" fill="#1C1A19" d="M20.6,22.5c0.1-0.1,0.2-0.1,0.3-0.2c0.1,0,0.2-0.1,0.3-0.1c0.1,0,0.2,0,0.3,0.1
		c0.1,0,0.2,0.1,0.3,0.2l0.3-0.4c-0.1-0.1-0.2-0.1-0.3-0.2c-0.2-0.1-0.3-0.1-0.6-0.1c-0.2,0-0.4,0-0.5,0.1c-0.2,0.1-0.3,0.2-0.4,0.3
		c-0.1,0.1-0.2,0.3-0.3,0.4c-0.1,0.2-0.1,0.3-0.1,0.5c0,0.2,0,0.4,0.1,0.5c0.1,0.2,0.2,0.3,0.3,0.4c0.1,0.1,0.3,0.2,0.4,0.3
		c0.2,0.1,0.3,0.1,0.5,0.1c0.2,0,0.4,0,0.6-0.1c0.1,0,0.2-0.1,0.3-0.2l-0.3-0.4c-0.1,0.1-0.2,0.1-0.3,0.2c-0.1,0-0.2,0.1-0.3,0.1
		c-0.1,0-0.2,0-0.3-0.1c-0.1,0-0.2-0.1-0.3-0.2c-0.1-0.1-0.1-0.2-0.2-0.3c0-0.1-0.1-0.2-0.1-0.3c0-0.1,0-0.2,0.1-0.3
		C20.5,22.7,20.5,22.6,20.6,22.5"/>
	<path id="XMLID_4652_" fill="#1C1A19" d="M31.3,24c0,0,0.1,0,0.1,0c0,0,0.1,0,0.1,0.1c0,0,0,0,0.1,0.1c0,0,0,0.1,0,0.1
		c0,0,0,0.1,0,0.1c0,0,0,0.1-0.1,0.1c0,0,0,0-0.1,0.1c0,0-0.1,0-0.1,0c0,0-0.1,0-0.1,0c0,0-0.1,0-0.1-0.1c0,0,0-0.1-0.1-0.1
		c0,0,0-0.1,0-0.1c0,0,0-0.1,0-0.1c0,0,0-0.1,0.1-0.1c0,0,0.1,0,0.1-0.1C31.2,24,31.3,24,31.3,24 M31.3,24.5
		C31.3,24.5,31.4,24.5,31.3,24.5c0.1,0,0.1,0,0.1-0.1c0,0,0,0,0-0.1c0,0,0,0,0-0.1c0,0,0,0,0-0.1c0,0,0,0,0-0.1c0,0,0,0-0.1,0
		c0,0,0,0-0.1,0c0,0-0.1,0-0.1,0c0,0,0,0-0.1,0c0,0,0,0,0,0.1c0,0,0,0,0,0.1c0,0,0,0.1,0,0.1c0,0,0,0,0,0.1
		C31.2,24.4,31.2,24.4,31.3,24.5C31.3,24.5,31.3,24.5,31.3,24.5 M31.3,24.2C31.4,24.2,31.4,24.2,31.3,24.2
		C31.4,24.2,31.4,24.2,31.3,24.2c0.1,0.1,0.1,0.1,0.1,0.1c0,0,0,0,0,0l0.1,0.1l-0.1,0l-0.1-0.1l0,0l0,0.1l-0.1,0l0-0.2L31.3,24.2z
		 M31.3,24.2L31.3,24.2L31.3,24.2C31.3,24.3,31.3,24.3,31.3,24.2C31.3,24.3,31.4,24.3,31.3,24.2C31.4,24.3,31.3,24.2,31.3,24.2
		C31.3,24.2,31.3,24.2,31.3,24.2L31.3,24.2z"/>
	<path id="XMLID_4651_" fill="#DC2027" d="M12.5,9.9c0-3.1,1.4-5.8,3.6-7.5c-1.6-1.3-3.7-2.1-6-2.1c-5.3,0-9.6,4.3-9.6,9.6
		c0,5.3,4.3,9.6,9.6,9.6c2.3,0,4.3-0.8,6-2.1C13.9,15.7,12.5,13,12.5,9.9"/>
	<path id="XMLID_4641_" fill="#E36324" d="M12.5,9.9c0,3.1,1.4,5.8,3.6,7.5c2.2-1.8,3.6-4.5,3.6-7.5c0-3.1-1.4-5.8-3.6-7.5
		C13.9,4.2,12.5,6.9,12.5,9.9"/>
	<path id="XMLID_4586_" fill="#EC9721" d="M31,15.1l0-0.3l-0.1,0l0-0.1l0.3,0l0,0.1l-0.1,0L31,15.1L31,15.1z M31.6,15.1l0-0.2
		L31.6,15.1l-0.2,0l-0.1-0.2l0,0.2l-0.1,0l0-0.4l0.1,0l0.1,0.2l0.1-0.2l0.1,0L31.6,15.1L31.6,15.1z"/>
	<path id="XMLID_4579_" fill="#EC9721" d="M22.1,0.3c-2.3,0-4.3,0.8-6,2.1c2.2,1.8,3.6,4.5,3.6,7.5c0,3.1-1.4,5.8-3.6,7.5
		c1.6,1.3,3.7,2.1,6,2.1c5.3,0,9.6-4.3,9.6-9.6C31.7,4.6,27.4,0.3,22.1,0.3"/>
</g>
</svg>
