<?xml version="1.0" encoding="utf-8"?>
<!-- Generator: Adobe Illustrator 18.0.0, SVG Export Plug-In . SVG Version: 6.00 Build 0)  -->
<!DOCTYPE svg PUBLIC "-//W3C//DTD SVG 1.1//EN" "http://www.w3.org/Graphics/SVG/1.1/DTD/svg11.dtd">
<svg version="1.1" id="Layer_1" xmlns="http://www.w3.org/2000/svg" xmlns:xlink="http://www.w3.org/1999/xlink" x="0px" y="0px"
	 viewBox="0 0 30 30" enable-background="new 0 0 30 30" xml:space="preserve">
<g id="XMLID_4568_">
	<circle id="XMLID_4571_" fill="#E71A22" cx="15" cy="15" r="14.6"/>
	<g id="XMLID_4569_">
		<path id="XMLID_4570_" fill="#ECEEEE" d="M16.2,20c-1.1-0.1-1.6-0.6-2.4-1.2c-0.5,2.5-1.1,4.9-2.8,6.1c-0.5-3.8,0.8-6.6,1.4-9.6
			c-1-1.8,0.1-5.3,2.3-4.4c2.7,1.1-2.3,6.5,1,7.2c3.5,0.7,5-6.1,2.8-8.3c-3.2-3.2-9.2-0.1-8.5,4.5c0.2,1.1,1.3,1.5,0.5,3
			c-2-0.4-2.6-2-2.6-4.2c0.1-3.5,3.1-5.9,6.1-6.3c3.8-0.4,7.4,1.4,7.9,5C22.5,15.9,20.3,20.3,16.2,20L16.2,20z"/>
	</g>
</g>
</svg>
