<?xml version="1.0" encoding="utf-8"?>
<!-- Generator: Adobe Illustrator 18.0.0, SVG Export Plug-In . SVG Version: 6.00 Build 0)  -->
<!DOCTYPE svg PUBLIC "-//W3C//DTD SVG 1.1//EN" "http://www.w3.org/Graphics/SVG/1.1/DTD/svg11.dtd">
<svg version="1.1" id="Layer_1" xmlns="http://www.w3.org/2000/svg" xmlns:xlink="http://www.w3.org/1999/xlink" x="0px" y="0px"
	 viewBox="0 0 58.4 17.8" enable-background="new 0 0 58.4 17.8" xml:space="preserve">
<g id="XMLID_4551_">
	<g id="XMLID_4559_">
		<polygon id="XMLID_4567_" fill="#005A9B" points="20.8,17.4 23.6,0.5 28.3,0.5 25.4,17.4 20.8,17.4 		"/>
		<path id="XMLID_4566_" fill="#005A9B" d="M42.1,0.9c-0.9-0.3-2.4-0.7-4.1-0.7c-4.6,0-7.8,2.3-7.8,5.6c0,2.4,2.3,3.8,4.1,4.6
			c1.8,0.8,2.4,1.4,2.4,2.1c0,1.1-1.4,1.7-2.8,1.7c-1.9,0-2.8-0.2-4.4-0.9L28.9,13l-0.7,3.8c1.1,0.5,3.1,0.9,5.2,0.9
			c4.9,0,8-2.3,8-5.8c0-1.9-1.2-3.4-3.9-4.6C36,6.5,35,6,35,5.2c0-0.7,0.8-1.5,2.7-1.5c1.5,0,2.6,0.3,3.5,0.7l0.4,0.2L42.1,0.9
			L42.1,0.9z"/>
		<path id="XMLID_4562_" fill="#005A9B" d="M54,0.5l-3.6,0c-1.1,0-1.9,0.3-2.4,1.4l-6.9,15.6l4.9,0c0,0,0.8-2.1,1-2.6
			c0.5,0,5.2,0,5.9,0c0.1,0.6,0.6,2.5,0.6,2.5l4.3,0L54,0.5L54,0.5z M48.3,11.4c0.4-1,1.8-4.7,1.8-4.7c0,0.1,0.4-1,0.6-1.6l0.3,1.5
			c0,0,0.9,4,1.1,4.9L48.3,11.4L48.3,11.4z"/>
		<path id="XMLID_4561_" fill="#005A9B" d="M16.9,0.5L12.3,12l-0.5-2.4C11,7,8.4,4,5.5,2.6l4.1,14.8l4.9,0l7.3-16.9L16.9,0.5
			L16.9,0.5z"/>
		<path id="XMLID_4560_" fill="#F49F1C" d="M8.2,0.5l-7.5,0L0.6,0.8c5.8,1.4,9.6,4.8,11.2,8.9l-1.6-7.8C10,0.8,9.2,0.5,8.2,0.5
			L8.2,0.5z"/>
	</g>
</g>
</svg>
