<?xml version="1.0" encoding="utf-8"?>
<!-- Generator: Adobe Illustrator 18.0.0, SVG Export Plug-In . SVG Version: 6.00 Build 0)  -->
<!DOCTYPE svg PUBLIC "-//W3C//DTD SVG 1.1//EN" "http://www.w3.org/Graphics/SVG/1.1/DTD/svg11.dtd">
<svg version="1.1" id="Layer_1" xmlns="http://www.w3.org/2000/svg" xmlns:xlink="http://www.w3.org/1999/xlink" x="0px" y="0px"
	 viewBox="0 0 30 30" enable-background="new 0 0 30 30" xml:space="preserve">
<g>
	<path fill="#7AD06D" d="M14.5,0.3C6.7,0.6,0.6,7.1,0.7,14.9c0,2.4,0.6,4.6,1.6,6.6l-1.5,7.5c-0.1,0.4,0.3,0.8,0.7,0.7l7.3-1.7
		c1.9,0.9,4,1.5,6.3,1.5c7.9,0.1,14.5-6.2,14.8-14.1C30,6.8,23-0.1,14.5,0.3z M23.3,22.8c-2.2,2.2-5,3.3-8.1,3.3
		c-1.8,0-3.5-0.4-5.1-1.2l-1-0.5l-4.5,1.1L5.6,21l-0.5-1c-0.8-1.6-1.2-3.3-1.2-5.2c0-3,1.2-5.9,3.3-8.1c2.1-2.1,5-3.3,8.1-3.3
		c3,0,5.9,1.2,8.1,3.3c2.2,2.2,3.3,5,3.3,8.1C26.6,17.8,25.4,20.7,23.3,22.8z"/>
	<path fill="#7AD06D" d="M22.3,18l-2.8-0.8c-0.4-0.1-0.8,0-1,0.3l-0.7,0.7c-0.3,0.3-0.7,0.4-1.1,0.2c-1.3-0.5-4.1-3-4.9-4.3
		c-0.2-0.4-0.2-0.8,0.1-1.1l0.6-0.8c0.2-0.3,0.3-0.7,0.1-1.1l-1.2-2.7C11.1,7.8,10.3,7.6,9.7,8C8.9,8.7,8,9.7,7.9,10.8
		c-0.2,2,0.6,4.5,3.9,7.4c3.7,3.5,6.7,3.9,8.6,3.4c1.1-0.3,2-1.3,2.5-2.2C23.2,18.9,22.9,18.1,22.3,18z"/>
</g>
</svg>
