<?xml version="1.0" encoding="utf-8"?>
<!-- Generator: Adobe Illustrator 18.0.0, SVG Export Plug-In . SVG Version: 6.00 Build 0)  -->
<!DOCTYPE svg PUBLIC "-//W3C//DTD SVG 1.1//EN" "http://www.w3.org/Graphics/SVG/1.1/DTD/svg11.dtd">
<svg version="1.1" id="Layer_1" xmlns="http://www.w3.org/2000/svg" xmlns:xlink="http://www.w3.org/1999/xlink" x="0px" y="0px"
	 viewBox="0 0 75 75" enable-background="new 0 0 75 75" xml:space="preserve">
<path fill="#FFFFFF" d="M51.8,2.4l-0.4-1.1H23.6l-0.3,1.1c-0.4,1.5-2.7,9.4-2.7,16.2c0,4,0.8,8.1,1.6,12.2c0.7,3.5,1.3,6.7,1.3,9.3
	c0,6.1,2,24.8,2.8,32.5l0.1,1.1h8.3l0.1-1.2c0-0.2,1.1-19.7,1.1-26.2c0-0.6,0-1.2,0-1.9c0-5-0.1-15.5,1.4-21.2l0.4-1.4l0.4,1.4
	c1.5,5.7,1.4,16.1,1.4,21.2l0,1.9c0,6.5,1.1,26,1.1,26.2l0.1,1.2h8.3l0.1-1.1c0.8-7.7,2.8-26.4,2.8-32.5c0-2.6,0.6-5.9,1.3-9.3
	c0.8-4.1,1.6-8.3,1.6-12.2C54.5,11.8,52.2,3.9,51.8,2.4z M24.3,8.5C24.7,6.6,25.1,5,25.3,4l0.1-0.3h3.7L29,4.2
	c-0.6,2-2.2,3.8-4.2,4.7l-0.7,0.3L24.3,8.5z M36.3,19L36.3,19c-2.9,4.4-3,15.5-3,25.5l0,1.9c0,5.3-0.8,20.1-1,24.5l0,0.4h-3.7l0-0.3
	c-0.8-7.3-2.6-25-2.6-30.8c0-2.8-0.6-6.2-1.3-9.8c-0.8-3.9-1.5-8-1.5-11.7c0-1.9,0.2-4.1,0.6-6.5l0-0.3l0.3,0c1.9-0.3,3.8-1.4,5.2-3
	c1.2-1.4,2.1-3.1,2.5-4.8l0.1-0.3h4.6V19z M49.6,3.8L49.7,4c0.3,1,0.7,2.6,1.1,4.5l0.1,0.7l-0.7-0.3c-2-0.9-3.6-2.7-4.2-4.7
	l-0.1-0.5H49.6z M50.4,30.3c-0.7,3.6-1.3,6.9-1.3,9.8c0,5.8-1.9,23.5-2.6,30.8l0,0.3h-3.7l0-0.4c-0.2-4.4-1-19.2-1-24.5l0-1.9
	c0-10-0.1-21.1-2.9-25.4L38.7,19V3.8h4.6l0.1,0.3c0.3,1.7,1.2,3.4,2.5,4.8c1.5,1.6,3.3,2.6,5.2,3l0.3,0l0,0.3
	c0.4,2.4,0.6,4.6,0.6,6.5C52,22.3,51.2,26.4,50.4,30.3z"/>
</svg>
