<?xml version="1.0" encoding="utf-8"?>
<!-- Generator: Adobe Illustrator 18.0.0, SVG Export Plug-In . SVG Version: 6.00 Build 0)  -->
<!DOCTYPE svg PUBLIC "-//W3C//DTD SVG 1.1//EN" "http://www.w3.org/Graphics/SVG/1.1/DTD/svg11.dtd">
<svg version="1.1" id="Layer_1" xmlns="http://www.w3.org/2000/svg" xmlns:xlink="http://www.w3.org/1999/xlink" x="0px" y="0px"
	 viewBox="0 0 75 75" enable-background="new 0 0 75 75" xml:space="preserve">
<path id="XMLID_92_" fill="#FFFFFF" d="M1.7,29.6c0.3,1.6,0.9,3.1,1.6,4.5C5.8,38.5,7,43.2,7,47.4v17.4c0,0.8,0.6,1.4,1.4,1.4h5.6
	c0.8,0,1.4-0.6,1.4-1.4V49.1c0-3.2,0.7-6.4,2.1-9.2l0.1-0.2c6.7,5.6,12,12.7,15.5,20.6c1.6,3.7,5.2,6,9.1,6h11.5
	c5.6,0,10-0.1,13.2-0.7c1.6-0.3,6.5-1.1,6.5-5c0-2.2-1.8-5.3-4.6-8c-1.9-1.8-5.8-5-11.2-5.8c-0.4-0.1-0.8,0.1-1.2,0.3
	c-1.4,1.3-4.1,2.2-6.5,2.2c-3.4,0-7-1.9-8.3-4.5c0,0-0.1-0.1-0.1-0.1l-9.4-13.4c-5.8-8.3-12.8-15.8-20.7-22.2
	c-0.5-0.4-1.3-0.4-1.8,0c-2.2,1.8-4,3.9-5.5,6.2C1.7,19.9,0.8,25.2,1.7,29.6C1.7,29.6,1.7,29.6,1.7,29.6z M12.7,49.1v14.3H9.8v-16
	c0-0.4,0-0.9,0-1.4C9.4,38.3,6,33.2,5.4,31.8c3.6,1.7,7,3.7,10.1,6.1C14,40.3,12.7,44.7,12.7,49.1z M6.9,16.7
	c1.1-1.8,2.4-3.4,3.9-4.7c7.3,6.1,13.8,13.1,19.3,20.9l9.4,13.4c1.9,3.4,6.4,5.9,10.8,5.9c2.8,0,5.9-1,7.9-2.5
	c4.3,0.8,7.5,3.4,9,4.9c2.5,2.4,3.7,4.8,3.7,6c0,1.2-2.3,1.9-4.2,2.2c-3.1,0.5-7.3,0.6-12.7,0.6H42.3c-2.8,0-5.3-1.7-6.5-4.3
	c-6.1-13.9-17.4-25-31.5-30.8C3.8,24.8,4.6,20.6,6.9,16.7z"/>
</svg>
