<?xml version="1.0" encoding="utf-8"?>
<!-- Generator: Adobe Illustrator 18.0.0, SVG Export Plug-In . SVG Version: 6.00 Build 0)  -->
<!DOCTYPE svg PUBLIC "-//W3C//DTD SVG 1.1//EN" "http://www.w3.org/Graphics/SVG/1.1/DTD/svg11.dtd">
<svg version="1.1" id="Layer_1" xmlns="http://www.w3.org/2000/svg" xmlns:xlink="http://www.w3.org/1999/xlink" x="0px" y="0px"
	 viewBox="0 0 60 60" enable-background="new 0 0 60 60" xml:space="preserve">
<path fill="#FFFFFF" d="M58.6,11L48,1.4c-0.2-0.2-0.4-0.3-0.6-0.3h-9.6c-0.5,0-1,0.4-1,1C36.7,2.6,34.4,4,30,4
	c-4.4,0-6.7-1.4-6.7-1.9c0-0.5-0.4-1-1-1h-9.6c-0.2,0-0.5,0.1-0.6,0.3L1.4,11c-0.4,0.3-0.4,0.9-0.1,1.3L8,21.9
	c0.3,0.4,0.9,0.5,1.3,0.2c0,0,0,0,0.1,0l3.2-2.7c0,0,0,0,0,0c0,1.8,0.7,4.6,1.4,7.6s1.5,6,1.5,7.8c0,1.5-0.8,4.3-1.8,7.7
	c-1.4,4.8-3.1,10.8-3.1,15.4c0,0.5,0.4,1,1,1h36.6c0.5,0,1-0.4,1-1c0-4.6-1.7-10.6-3.1-15.4c-0.9-3.3-1.8-6.2-1.8-7.7
	c0-1.9,0.7-4.9,1.5-7.8c0.7-2.9,1.4-5.7,1.4-7.6c0,0,0,0,0,0l3.2,2.7c0.4,0.3,1,0.3,1.4-0.1c0,0,0,0,0-0.1l6.7-9.6
	C59,11.9,58.9,11.3,58.6,11z M30,5.9c2.2,0,4.5-0.4,6.1-1.1c-1.5,3.4-5.5,4.9-8.9,3.3c-1.5-0.7-2.7-1.9-3.3-3.3
	C25.5,5.6,27.8,5.9,30,5.9z M51,19.9l-4.4-3.7c-0.4-0.3-1-0.3-1.4,0.1c-0.2,0.2-0.3,0.5-0.2,0.8c0.4,1.5,0.4,2.1,0.4,2.2
	c0,1.6-0.7,4.4-1.4,7.1c-0.7,3-1.5,6.2-1.5,8.3c0,1.7,0.8,4.6,1.8,8.2c1.2,4.4,2.7,9.7,3,13.9H12.7c0.2-4.2,1.7-9.6,3-13.9
	c1-3.6,1.8-6.5,1.8-8.2c0-2.1-0.8-5.2-1.5-8.3c-0.7-2.7-1.3-5.5-1.4-7.1c0-0.2,0-0.7,0.4-2.2c0.1-0.5-0.2-1-0.7-1.2
	c-0.3-0.1-0.6,0-0.8,0.2L9,19.9l-5.7-8.1L13,3.1h8.3c0.5,4.8,4.8,8.2,9.6,7.6c4-0.4,7.2-3.6,7.6-7.6H47l9.7,8.8L51,19.9z"/>
</svg>
