<?xml version="1.0" encoding="utf-8"?>
<!-- Generator: Adobe Illustrator 18.0.0, SVG Export Plug-In . SVG Version: 6.00 Build 0)  -->
<!DOCTYPE svg PUBLIC "-//W3C//DTD SVG 1.1//EN" "http://www.w3.org/Graphics/SVG/1.1/DTD/svg11.dtd">
<svg version="1.1" id="Layer_1" xmlns="http://www.w3.org/2000/svg" xmlns:xlink="http://www.w3.org/1999/xlink" x="0px" y="0px"
	 viewBox="0 0 60 60" enable-background="new 0 0 60 60" xml:space="preserve">
<path fill="#FFFFFF" d="M51.4,7.3c0-0.3-0.2-0.6-0.5-0.8L39.2,0.7c-0.1-0.1-0.3-0.1-0.4-0.1H21.3c-0.2,0-0.3,0-0.4,0.1L9.2,6.6
	C8.9,6.7,8.7,7,8.6,7.3L4.7,52c0,0.5,0.3,1,0.9,1.1c0,0,0.1,0,0.1,0h7.7l-0.9,4.7c-0.1,0.5,0.3,1,0.8,1.1c0.1,0,0.1,0,0.2,0h33
	c0.5,0,1-0.4,1-1c0-0.1,0-0.1,0-0.2l-1-5.7h7.8c0.5,0,1-0.4,1-1c0,0,0-0.1,0-0.1L51.4,7.3z M37.1,2.6L30,16L22.9,2.6H37.1z
	 M46.1,50.2l-2.5-13.6l2.9-19.3L44.6,17l-2.9,19.4c0,0.1,0,0.2,0,0.3L45.3,57H14.7l3.7-20.2c0-0.1,0-0.2,0-0.3L15.4,17l-1.9,0.3
	l2.9,19.3l-2.6,14.6h-7l3.7-43.1l10.3-5.2l8.3,15.7c0.3,0.5,0.8,0.7,1.3,0.4c0.2-0.1,0.3-0.2,0.4-0.4l8.3-15.7l10.3,5.2l3.7,42.1
	H46.1z"/>
</svg>
