<?xml version="1.0" encoding="utf-8"?>
<!-- Generator: Adobe Illustrator 18.0.0, SVG Export Plug-In . SVG Version: 6.00 Build 0)  -->
<!DOCTYPE svg PUBLIC "-//W3C//DTD SVG 1.1//EN" "http://www.w3.org/Graphics/SVG/1.1/DTD/svg11.dtd">
<svg version="1.1" id="Layer_1" xmlns="http://www.w3.org/2000/svg" xmlns:xlink="http://www.w3.org/1999/xlink" x="0px" y="0px"
	 viewBox="0 0 75 75" enable-background="new 0 0 75 75" xml:space="preserve">
<path id="XMLID_80_" fill="#FFFFFF" d="M37.5,67.1c-1.1,0-2.2-0.5-2.9-1.3l-32-35.9c-1.2-1.3-1.3-3.3-0.4-4.7l10-15.4
	c0.7-1.1,2-1.8,3.3-1.8h44c1.3,0,2.6,0.6,3.3,1.8l10,15.4c1,1.5,0.8,3.4-0.4,4.7l-32,35.9C39.7,66.6,38.6,67.1,37.5,67.1z M40.7,60
	l0.4,0.2L69,28.7H50.2L40.7,60z M33.9,60.2l0.4-0.3l-9.6-31.2H6L33.9,60.2z M37.5,59.6l9.5-31H28L37.5,59.6z M51.9,26.1h17.8
	l-8.9-13.7L51.9,26.1z M28.7,26.1h17.6l-8.8-13.6L28.7,26.1z M5.3,26.1h17.8l-8.9-13.7L5.3,26.1z M49.1,24.2L58,10.5H40.2L49.1,24.2
	z M25.9,24.2l8.8-13.7H17.1L25.9,24.2z"/>
</svg>
