<?xml version="1.0" encoding="utf-8"?>
<!-- Generator: Adobe Illustrator 18.0.0, SVG Export Plug-In . SVG Version: 6.00 Build 0)  -->
<!DOCTYPE svg PUBLIC "-//W3C//DTD SVG 1.1//EN" "http://www.w3.org/Graphics/SVG/1.1/DTD/svg11.dtd">
<svg version="1.1" id="Layer_1" xmlns="http://www.w3.org/2000/svg" xmlns:xlink="http://www.w3.org/1999/xlink" x="0px" y="0px"
	 viewBox="0 0 75 75" enable-background="new 0 0 75 75" xml:space="preserve">
<g>
	<path fill="#FFFFFF" d="M69.2,48.9l-8.9-32.5c-1.3-5.3-5.4-9.6-10.7-11.2l-3.9-1.2c-0.1-0.1-0.2-0.1-0.3-0.2l-0.9-0.9
		c-1.6-1.6-4.5-1.6-7-1.6c-2.9,0-5.5,0.1-7,1.6l-0.9,0.9l-4.1,1.3c-5.1,1.6-9.3,5.9-10.7,11.2l-9,32.6c-0.2,1-0.1,2.1,0.5,2.9
		c0.6,0.9,1.5,1.5,2.6,1.6l4.8,0.6c1.8,0.2,3.7-1,4-2.8l4.7-18.8L24,45.3l-7.4,24.3c0,0.2,0,0.6,0.2,0.9c0.1,0.4,0.4,0.5,0.7,0.6
		l0.5,0.1c5,1.3,10.3,2.1,15.7,2.3l3.7,0.1c6.5,0,13.1-0.9,19.4-2.5h0.6c0.2-0.1,0.6-0.4,0.7-0.6c0.1-0.4,0.2-0.6,0.1-1l-7.4-24.3
		l1.6-12.8l4.7,18.6c0.4,1.8,2.2,3.1,4,2.8l4.9-0.5c1-0.1,2-0.7,2.6-1.6C69.3,51,69.4,50,69.2,48.9z M29.7,7.6l5.6,15.7l0.9,2.6
		l-1,2.9l-7.4-8.1l2.1-5.5c0.1-0.4,0.1-0.9-0.1-1.1c-0.2-0.2-0.6-0.5-1-0.5h-3.7L29.7,7.6z M46,13.7h-0.1c-0.4,0-0.7,0.1-1,0.5
		c-0.2,0.2-0.2,0.7-0.1,1.1l2.2,5.4l-10.2,11l1.8-5.4c0.1-0.2,0.1-0.4,0.1-0.6l6.4-18.1l1.5,2l2.9,4.1L46,13.7L46,13.7z M32.2,4.6
		c0.9-0.9,3.6-0.9,5.3-0.9c1.7,0,4.4,0,5.1,0.9l0.7,0.7l-5.9,16.8l-2-5.6L31.6,5.4L32.2,4.6z M26.3,45.8c0-0.1,0-0.4,0-0.5
		l-2.5-19.6c0-0.6-0.5-1.1-1.1-1.1c-0.5,0-1.1,0.4-1.2,1l-6.3,25c-0.1,0.6-0.7,1.1-1.3,1L9,51c-0.4,0-0.7-0.2-0.9-0.5
		c-0.1-0.2-0.2-0.6-0.1-1l9-32.6c1.2-4.5,4.7-8.1,9.1-9.4l0.9-0.1l-5.1,6.9c-0.2,0.4-0.4,0.7-0.1,1.2c0.2,0.5,0.6,0.7,1.1,0.7h4.4
		l-1.8,4.4c-0.1,0.4-0.1,0.9,0.2,1.2l8.7,9.8l-1.5,4.6c-0.1,0.2-0.2,0.3-0.2,0.6c0,0,0,0,0,0c0,0,0,0,0,0c0,0,0,0.1,0,0.1V71
		c-4.4-0.2-8.8-1-13.1-2L26.3,45.8z M66.5,50.4c-0.2,0.2-0.5,0.5-0.9,0.5l-4.8,0.6c-0.6,0-1.2-0.4-1.3-1l-6.3-25
		c-0.1-0.6-0.6-1-1.2-1c-0.5,0.1-1,0.5-1.1,1.1l-2.5,19.6c-0.1,0.1,0,0.4,0,0.5l7,23.3c-5.9,1.3-12,2.1-18,2.1H35V37.4l14.5-15.7
		c0.4-0.2,0.4-0.7,0.2-1.2L47.9,16h4.3c0.1,0,0.1,0,0.2,0c0,0,0,0,0,0c0,0,0.1,0,0.1,0c0.3-0.1,0.6-0.3,0.9-0.7
		c0.2-0.4,0.1-0.9-0.1-1.2l-5-6.7l0.4,0.1c4.4,1.3,8,4.9,9.1,9.4l9,32.5C66.7,49.8,66.7,50.1,66.5,50.4z"/>
</g>
</svg>
