<?xml version="1.0" encoding="utf-8"?>
<!-- Generator: Adobe Illustrator 18.0.0, SVG Export Plug-In . SVG Version: 6.00 Build 0)  -->
<!DOCTYPE svg PUBLIC "-//W3C//DTD SVG 1.1//EN" "http://www.w3.org/Graphics/SVG/1.1/DTD/svg11.dtd">
<svg version="1.1" id="Layer_1" xmlns="http://www.w3.org/2000/svg" xmlns:xlink="http://www.w3.org/1999/xlink" x="0px" y="0px"
	 viewBox="0 0 98.4 101.3" enable-background="new 0 0 98.4 101.3" xml:space="preserve">
<path fill="#FFFFFF" d="M78.5,64.3c-2.6-5.3-5.8-9.9-9.4-13.9c-3.9-4.2-7.4-6.7-9.7-8l-1.3-0.8l0.8-1.3c7.6-11.9,7.9-22.7,7.9-22.8
	c0-2.1-1.1-4.2-2.9-5.6l-0.6-0.4V3c0-0.3-0.2-0.5-0.5-0.5c-0.3,0-0.5,0.2-0.5,0.5v7.9l-1.8-0.5c-0.8-0.2-1.7-0.3-2.5-0.3
	c-3.1,0-6,1.4-7.6,3.8l-1.2,1.8L48,13.8c-1.6-2.3-4.5-3.8-7.6-3.8c-0.9,0-1.7,0.1-2.5,0.3L36,10.9V3c0-0.3-0.2-0.5-0.5-0.5
	S35.1,2.7,35.1,3v8.6L34.5,12c-1.9,1.4-2.9,3.5-2.9,5.6c0,0.1,0.3,10.9,7.9,22.8l0.8,1.3L39,42.5c-2.3,1.3-5.8,3.8-9.7,8
	c-3.6,3.9-6.8,8.6-9.4,13.9c-3.3,6.6-5.7,14.2-7.2,22.5c-0.4,2,0.7,3.9,2.6,4.6l6.6,2.4c0.6,0.2,1.2,0.4,1.8,0.6l0,0l0,0
	c5.5,1.9,11.2,3.1,17,3.7l0.1,0c0,0,0,0,0.1,0l0.1,0c2.7,0.3,5.4,0.4,8.1,0.4c9.3,0,18.5-1.6,27.3-4.9l6.6-2.4
	c1.9-0.7,3-2.6,2.6-4.6C84.2,78.5,81.8,70.9,78.5,64.3z M33.8,25c-1.1-4.4-1.2-7.3-1.2-7.3l0,0c0-2.1,1.1-4,3.1-5.3l0.1-0.1
	c0,0,0,0,0,0l0.1-0.1c1.3-0.8,2.9-1.2,4.5-1.2c4.1,0,7.5,2.7,7.8,6.2c0,0.5,0.5,0.9,1,0.9c0.5,0,0.9-0.4,1-0.9
	c0.3-3.5,3.7-6.2,7.8-6.2c1.6,0,3.1,0.4,4.4,1.1l0.1,0.1c0,0,0,0,0.1,0l0.1,0.1c2,1.3,3.1,3.2,3.1,5.3c0,0.1-0.4,11.4-8.3,23.2
	c-0.1,0.1-0.2,0.3-0.3,0.4L57,41.6l-0.3,0.2c-1.6,0.8-3.3,1.3-5.1,1.5l-3.5,0.5l2.1-2.8c0.4-0.5,0.8-1.1,1.1-1.7
	c0.5-0.9,1-1.9,1.2-2.8c0.1-0.3-0.1-0.5-0.3-0.6c-0.3-0.1-0.5,0.1-0.6,0.3C51,38.2,49.8,39.9,49,41c-0.7,0.9-1.3,1.4-1.3,1.4
	c0,0-0.1,0.1-0.1,0.1L47,43.4l-1-0.2c-1.5-0.3-2.9-0.8-4.3-1.4l-0.3-0.2l-0.2-0.3c-0.1-0.1-0.2-0.3-0.3-0.4
	C36.8,34.8,34.8,28.8,33.8,25z M82.8,90.6L82.8,90.6L76.1,93c-0.2,0.1-0.5,0.2-0.7,0.3l-1.8,0.6l-0.4-1.6c-1-4.1-3.7-14.5-8.7-22.4
	c-0.1-0.2-0.4-0.3-0.7-0.2c-0.2,0.1-0.3,0.4-0.2,0.7c4.9,7.9,7.7,18.3,8.6,22.5l0.3,1.3l-1.3,0.4c-7.2,2.1-14.6,3.2-22.1,3.2
	c-2.1,0-4.3-0.1-6.4-0.3l-1.4-0.1l0.1-1.4c0.1-2,0.5-5.9,2.4-9.8c0.1-0.2,0-0.5-0.2-0.6c-0.2-0.1-0.5,0-0.6,0.2
	c-1.8,3.7-2.4,7.4-2.5,9.9l-0.1,1.6l-1.6-0.2c-4.5-0.6-8.9-1.6-13.2-2.9l-1.2-0.4l0.2-1.3c1-5.5,4.8-24.2,14-34.8
	c0.2-0.2,0.2-0.5,0-0.7c-0.2-0.2-0.5-0.2-0.7,0c-3,3.4-10.4,13.7-14.1,34.6l-0.3,1.7l-7.9-2.9c-1.5-0.5-2.3-2-2-3.6
	C17,68.5,24.3,57.4,29.8,51.3c4.7-5.1,9-7.7,10.6-8.5l0.6-0.3l0.6,0.3c2.4,1.1,4.9,1.6,7.5,1.6c2.6,0,5.2-0.6,7.5-1.6l0.6-0.3
	l0.6,0.3c2,1,7.2,4.2,12.7,11c6.9,8.6,11.6,19.7,14.1,33.2C85.1,88.5,84.2,90,82.8,90.6z"/>
<path fill="#FFFFFF" d="M49.2,99.8c-2.7,0-5.5-0.1-8.2-0.4l-0.3,0c-5.9-0.6-11.6-1.9-17.2-3.8c-0.7-0.3-1.3-0.5-1.9-0.7L15,92.4
	c-2.4-0.9-3.7-3.3-3.3-5.8c1.6-8.4,4-16.1,7.3-22.8c2.7-5.4,5.9-10.1,9.5-14.1c4-4.3,7.6-6.8,9.9-8.2l0.4-0.2L38.6,41
	c-7.8-12.2-8-23.2-8-23.3c0-2.5,1.2-4.8,3.3-6.4l0.2-0.1V3c0-0.8,0.7-1.5,1.5-1.5C36.4,1.5,37,2.2,37,3v6.6l0.6-0.1
	c4.2-1.1,8.9,0.5,11.2,3.8l0.4,0.5l0.4-0.5c2.3-3.3,7-4.9,11.2-3.8l0.6,0.1V3c0-0.8,0.7-1.5,1.5-1.5c0.8,0,1.5,0.7,1.5,1.5v8.1
	l0.2,0.1c2.1,1.6,3.3,4,3.3,6.4c0,0.1-0.3,11.3-8,23.3l-0.3,0.4l0.4,0.2c2.4,1.3,6,3.9,10,8.2c3.7,4,6.9,8.7,9.5,14.1
	c3.3,6.7,5.8,14.3,7.3,22.8c0.5,2.5-0.9,4.9-3.3,5.8l-6.6,2.4C67.9,98.1,58.7,99.8,49.2,99.8z M42.5,96.5l0.4,0
	c9.5,0.8,19.1-0.2,28.2-2.9l0.4-0.1l-0.1-0.4c-0.9-4.1-3.7-14.4-8.5-22.2c-0.4-0.7-0.2-1.6,0.5-2c0.7-0.4,1.6-0.2,2,0.5
	c5,8.1,7.8,18.6,8.8,22.7l0.1,0.5l8.1-3c1-0.4,1.6-1.4,1.4-2.4c-2.4-13.3-7.1-24.3-13.9-32.7c-5.4-6.7-10.5-9.8-12.4-10.7l-0.2-0.1
	l-0.2,0.1c-5,2.3-10.9,2.3-15.9,0l-0.2-0.1l-0.2,0.1c-1.6,0.8-5.7,3.3-10.3,8.3C25.1,58,18,68.9,14.6,87.2c-0.2,1,0.4,2.1,1.4,2.4
	l6.8,2.5l0.1-0.5C26.7,70.4,34.2,60,37.3,56.5c0.5-0.6,1.5-0.7,2.1-0.1c0.3,0.3,0.5,0.6,0.5,1c0,0.4-0.1,0.8-0.4,1.1
	c-9,10.4-12.8,28.9-13.8,34.3l-0.1,0.4l0.4,0.1c4.2,1.3,8.6,2.3,13,2.9l0.5,0.1l0-0.5c0.1-2.6,0.7-6.4,2.6-10.3c0.3-0.7,1.3-1,2-0.7
	c0.7,0.4,1,1.3,0.7,2c-1.8,3.7-2.2,7.5-2.3,9.4L42.5,96.5z M52.1,34.8l0.4,0.1c0.8,0.2,1.2,1.1,1,1.8c-0.3,1-0.7,2.1-1.3,3.1
	c-0.4,0.6-0.8,1.2-1.2,1.8l-0.7,0.9l1.1-0.2c1.7-0.2,3.3-0.7,4.8-1.5l0.2-0.2l0.3-0.4c7.7-11.6,8.1-22.5,8.1-22.6
	c0-1.7-1-3.3-2.6-4.4c-0.1-0.1-0.2-0.1-0.2-0.1c-1.2-0.7-2.6-1.1-4-1.1c-3.6,0-6.6,2.3-6.8,5.3c-0.1,1-0.9,1.8-2,1.8
	c-1,0-1.9-0.8-2-1.8C47,14.4,44,12,40.4,12c-1.4,0-2.8,0.4-4,1l-0.7-0.7l0,0l0.5,0.8c-1.7,1.1-2.7,2.7-2.7,4.4c0,0,0.1,2.8,1.2,7.1
	c1,3.8,3,9.6,7,15.6l0.5,0.6c1.3,0.6,2.6,1.1,4,1.3l0.3,0.1l0.5-0.6c0,0,0.6-0.5,1.2-1.3c0.8-1,1.9-2.5,2.4-4.4
	C50.8,35.3,51.4,34.8,52.1,34.8z"/>
</svg>
