<?xml version="1.0" encoding="utf-8"?>
<!-- Generator: Adobe Illustrator 18.0.0, SVG Export Plug-In . SVG Version: 6.00 Build 0)  -->
<!DOCTYPE svg PUBLIC "-//W3C//DTD SVG 1.1//EN" "http://www.w3.org/Graphics/SVG/1.1/DTD/svg11.dtd">
<svg version="1.1" id="Layer_1" xmlns="http://www.w3.org/2000/svg" xmlns:xlink="http://www.w3.org/1999/xlink" x="0px" y="0px"
	 viewBox="0 0 75 75" enable-background="new 0 0 75 75" xml:space="preserve">
<path fill="#FFFFFF" d="M72.6,44.8C62.1,42.1,58.4,35,58.4,33.4V13h-3v20.4c0,2.6-2.4,4.1-6.3,6.3c-1.2,0.6-2.4,1.3-3.5,2.1
	c-2.6,1.7-5.4,4.8-8.1,8.6c-2.7-3.9-5.5-6.9-8.1-8.6c-1.1-0.7-2.3-1.4-3.5-2.1c-3.9-2.2-6.3-3.7-6.3-6.3V13h-3v20.4
	c0,1.6-3.7,8.7-14.2,11.4l-1.4,0.3l0.3,1.4c0.4,1.9,2.4,12.8,2.4,12.9L4,60.7h13.6c1.9,0.9,4.1,1.3,6.5,1.3c4.8,0,8-2,10-3.8h6.8
	c2,1.9,5.2,3.8,10,3.8c2.4,0,4.6-0.4,6.5-1.3H71l0.2-1.2c0-0.1,2.1-11,2.4-12.9l0.3-1.4L72.6,44.8z M37.3,53.7c0.1,0,0.1,0,0.2,0
	c0,0,0,0,0,0c0.1,0,0.1,0,0.2,0c0.2,0.5,0.4,0.9,0.7,1.4h-1.9C36.8,54.7,37.1,54.2,37.3,53.7z M4.5,47.3c1.4-0.4,2.8-0.9,3.9-1.5
	c0.2,2.1,0.8,5,2.2,7.8c0.8,1.6,1.7,2.9,2.8,4.1H6.5C6,55.3,5,50,4.5,47.3z M24.1,59c-5,0-8.6-2.3-10.7-6.7c-1.5-3.1-1.9-6.4-2-8
	c1.9-1.2,3.3-2.5,4.4-3.6c0.8-0.9,1.7-1.9,2.3-3c1.5,2,4.1,3.4,6.4,4.7c1.1,0.6,2.3,1.2,3.3,1.9c2.2,1.5,4.7,4.1,7.1,7.5
	C34.3,53.4,31.4,59,24.1,59z M40.2,51.8c2.4-3.4,4.9-6.1,7.1-7.5c1-0.7,2.1-1.3,3.3-1.9c2.3-1.3,4.8-2.7,6.4-4.7
	c0.7,1.1,1.5,2.1,2.3,3c1,1.1,2.5,2.4,4.4,3.6c-0.1,1.7-0.5,5-2,8c-2.2,4.5-5.8,6.7-10.7,6.7C43.6,59,40.7,53.4,40.2,51.8z
	 M68.5,57.6h-6.9c1.1-1.1,2-2.5,2.8-4.1c1.4-2.8,1.9-5.7,2.2-7.8c1.2,0.6,2.5,1.1,3.9,1.5C70,50,69,55.3,68.5,57.6z"/>
</svg>
