<?xml version="1.0" encoding="utf-8"?>
<!-- Generator: Adobe Illustrator 18.0.0, SVG Export Plug-In . SVG Version: 6.00 Build 0)  -->
<!DOCTYPE svg PUBLIC "-//W3C//DTD SVG 1.1//EN" "http://www.w3.org/Graphics/SVG/1.1/DTD/svg11.dtd">
<svg version="1.1" id="Layer_1" xmlns="http://www.w3.org/2000/svg" xmlns:xlink="http://www.w3.org/1999/xlink" x="0px" y="0px"
	 viewBox="0 0 75 75" enable-background="new 0 0 75 75" xml:space="preserve">
<g id="XMLID_104_">
	<path id="XMLID_107_" fill="#FFFFFF" d="M28.1,73.7c-1,0-1.7-0.8-1.7-1.7c0-1,0.8-1.7,1.7-1.7h7.7v-7.5l-1.3-0.1
		c-9-0.7-17.4-4.8-23.6-11.5c-6.2-6.7-9.6-15.5-9.6-24.6c0-1,0.8-1.7,1.7-1.7h9.3l0.1-1.2C13.9,10.8,24.7,1.3,37.5,1.3
		c12.8,0,23.6,9.6,25.1,22.3l0.1,1.2H72c1,0,1.7,0.8,1.7,1.7c0,9.1-3.4,17.9-9.6,24.6c-6.2,6.7-14.6,10.8-23.6,11.5l-1.3,0.1v7.5
		h7.7c1,0,1.7,0.8,1.7,1.7c0,1-0.8,1.7-1.7,1.7H28.1z M4.9,29.8c0.8,8,4.5,15.5,10.6,20.9c6,5.5,13.9,8.5,22,8.5c8.2,0,16-3,22-8.5
		c6-5.5,9.8-12.9,10.6-20.9l0.2-1.5h-7.5l-0.1,1.2c-1.5,12.7-12.3,22.3-25.1,22.3c-12.8,0-23.6-9.6-25.1-22.3l-0.1-1.2H4.8L4.9,29.8
		z M37.5,4.8c-12,0-21.8,9.8-21.8,21.8s9.8,21.8,21.8,21.8s21.8-9.8,21.8-21.8S49.5,4.8,37.5,4.8z"/>
	<path id="XMLID_106_" fill="#FFFFFF" d="M36.5,26.1c-0.5,0-0.9-0.2-1.2-0.5c-0.7-0.7-0.7-1.8,0-2.5l7.3-7.3
		c0.3-0.3,0.8-0.5,1.2-0.5c0.5,0,0.9,0.2,1.2,0.5c0.7,0.7,0.7,1.8,0,2.5l-7.3,7.3C37.4,25.9,37,26.1,36.5,26.1z"/>
	<path id="XMLID_105_" fill="#FFFFFF" d="M44.4,32.4c-0.5,0-0.9-0.2-1.2-0.5c-0.7-0.7-0.7-1.8,0-2.5l4.9-4.9
		c0.3-0.3,0.8-0.5,1.2-0.5c0.5,0,0.9,0.2,1.2,0.5c0.7,0.7,0.7,1.8,0,2.5l-4.9,4.9C45.3,32.2,44.8,32.4,44.4,32.4z"/>
</g>
</svg>
