<?xml version="1.0" encoding="utf-8"?>
<!-- Generator: Adobe Illustrator 18.0.0, SVG Export Plug-In . SVG Version: 6.00 Build 0)  -->
<!DOCTYPE svg PUBLIC "-//W3C//DTD SVG 1.1//EN" "http://www.w3.org/Graphics/SVG/1.1/DTD/svg11.dtd">
<svg version="1.1" xmlns="http://www.w3.org/2000/svg" xmlns:xlink="http://www.w3.org/1999/xlink" x="0px" y="0px"
	 viewBox="0 0 73 73" enable-background="new 0 0 73 73" xml:space="preserve">
<g id="Layer_1">
	<g>
		<path fill="#181B48" d="M43.7,14.2c0.4-0.4,1.2-0.4,1.6,0c0.2,0.2,0.3,0.5,0.3,0.8s-0.1,0.6-0.3,0.8c-0.3,0.3-0.3,0.9,0,1.2
			c0.2,0.2,0.4,0.2,0.6,0.2c0.2,0,0.4-0.1,0.6-0.2c0.5-0.5,0.8-1.2,0.8-2c0-0.7-0.3-1.4-0.8-2c-0.5-0.5-1.2-0.8-2-0.8
			s-1.4,0.3-2,0.8c-0.3,0.3-0.3,0.9,0,1.2C42.9,14.5,43.4,14.5,43.7,14.2z"/>
		<path fill="#181B48" d="M70,30.4c1-2.5,1.5-5.1,1.5-7.8c0.1-5.3-1.8-10.4-5.3-14.3c1-1,2.3-1.7,3.6-2c0.3-0.1,0.5-0.3,0.7-0.5
			c0.1-0.3,0.2-0.6,0.1-0.8c-0.1-0.3-0.3-0.5-0.5-0.7c-0.3-0.1-0.6-0.2-0.8-0.1c-1.7,0.5-3.3,1.4-4.6,2.6C58.7,1.5,50.1,0,42.6,3
			c-1.4-1.1-3.1-1.7-5-1.7l-0.1,0c-2.1,0-4.1,0.9-5.6,2.4c-2.5,2.5-3.1,6.2-1.5,9.3c-0.6,0-1.2,0.1-1.8,0.3
			c-4.6,1.7-11.4,6.3-15.4,10.4c-2.2,2.3-3.4,5.4-3.2,8.5c0.1,0.9,0.1,1.9,0.3,3c-2.7,2.5-5.1,5.7-6.7,8.7c-1.1,2.1-2.7,5.9-1.4,8.4
			c-1.9,5.3-0.6,11.2,3.4,15.2c2.7,2.7,6.4,4.3,10.2,4.3c1.7,0,3.4-0.3,5-0.9c2.2,1,5.7,0.3,9.8-2.2c2.6-1.6,5.2-3.7,7.4-6
			c1.1,0.1,2.1,0.2,3,0.3c3.2,0.2,6.3-1,8.5-3.2c2.3-2.3,4.9-5.5,7-8.9c0.2-0.3,0.2-0.6,0.1-0.8c-0.1-0.3-0.2-0.5-0.5-0.7
			c-0.3-0.2-0.6-0.2-0.8-0.1c-0.3,0.1-0.5,0.2-0.7,0.5c-2,3.2-4.5,6.3-6.7,8.5c-1.8,1.8-4.3,2.7-6.8,2.6c-0.4,0-0.9-0.1-1.4-0.1
			c0.2-0.3,0.5-0.6,0.7-0.9c1.3-1.9,2-4.1,1.9-6.4c0-3.9-0.5-10.7-1.8-17.9l0-0.1c6.6,1.3,12.1,3.1,16,5.1c1.2,0.6,1.7,2,1.2,3.2
			c-0.2,0.6-0.5,1.3-0.9,2c-0.3,0.6,0,1.2,0.5,1.5c0.3,0.1,0.6,0.1,0.9,0c0.3-0.1,0.5-0.3,0.6-0.6c0.4-0.8,0.7-1.5,0.9-2.2
			c0.2-0.6,0.3-1.2,0.3-1.8c1.1,0.5,2.3,0.8,3.6,0.8c2.1,0,4.2-0.8,5.7-2.4c1.5-1.5,2.3-3.5,2.4-5.6C71.7,33.6,71.2,31.9,70,30.4z
			 M23,69.1c-0.5,0-0.9-0.1-1.2-0.2c0,0-0.1,0-0.1,0c0,0,0,0,0,0c-0.1-0.1-0.1-0.1-0.1-0.1c-0.3-0.3-2.1-2.3-4.7-11.7l0-0.1
			c-0.3-0.9-0.5-1.9-0.7-2.9c-0.1-0.3-0.3-0.5-0.5-0.7c-0.3-0.2-0.6-0.2-0.8-0.1c-0.6,0.1-1,0.8-0.8,1.4c0.1,0.4,0.2,0.7,0.3,1
			c-7.8-2.3-9.6-3.8-9.9-4.2c0,0-0.1-0.1-0.1-0.2c-1.1-2.3,1.9-8.7,6.5-13.4c0.5,3.7,1.2,7.8,2.2,12c0.1,0.3,0.2,0.5,0.5,0.7
			c0.2,0.2,0.5,0.2,0.8,0.2c0.6-0.1,1-0.7,0.9-1.3c-1.5-6.6-2.5-13.1-2.7-17.4c-0.1-2.5,0.8-5,2.6-6.8c3.8-3.9,10.2-8.2,14.5-9.8
			c1.2-0.5,2.6,0.1,3.2,1.2c1.5,2.9,3.7,9,5.4,17.4c0,0.1,0,0.2,0,0.3c1.3,6.4,1.9,12.8,2,19.1c0,1.9-0.5,3.6-1.5,5.1
			c-2.2,3.1-5.6,6.2-9.1,8.4C26.8,68.2,24.6,69.1,23,69.1z M3.9,54c2,1.3,5.7,2.7,10.9,4.1c0.8,2.7,1.5,5.1,2.2,7
			c0.6,1.7,1.3,3,1.9,4c-1,0.3-2.1,0.4-3.2,0.4c-3.2,0-6.4-1.3-8.7-3.6C4,62.8,2.8,58.2,3.9,54z M35.2,7.9c-1.1,1.1-2.1,2.4-3,3.7
			c-0.9-2.2-0.4-4.6,1.3-6.3c1.1-1.1,2.6-1.7,4.1-1.7c0.9,0,1.8,0.2,2.6,0.6C38.4,5.1,36.7,6.4,35.2,7.9z M34.6,15.5
			c-0.3-0.6-0.7-1.1-1.2-1.5c0.9-1.7,2-3.2,3.4-4.6c3.7-3.7,8.5-5.7,13.6-5.8l0.2,0c5,0,9.8,1.9,13.3,5.4c3.6,3.6,5.5,8.4,5.4,13.5
			c-0.1,5.1-2.1,10-5.8,13.6c-1.4,1.4-2.9,2.5-4.6,3.4c-0.4-0.5-0.9-0.9-1.5-1.2c-4.3-2.3-10.2-4.1-17.4-5.5
			C39.1,27.9,37.4,20.8,34.6,15.5z M65.1,37.8c1.5-1.5,2.8-3.2,3.8-5c1.1,2.2,0.7,4.9-1.1,6.7c-1.1,1.1-2.6,1.7-4.1,1.7
			c-0.8,0-1.5-0.1-2.2-0.4C62.8,39.9,64,38.9,65.1,37.8z"/>
		<path fill="#181B48" d="M57.2,26.5c0.4-0.4,1.2-0.4,1.6,0c0.2,0.2,0.3,0.5,0.3,0.8c0,0.3-0.1,0.6-0.3,0.8c-0.3,0.3-0.3,0.9,0,1.2
			c0.2,0.2,0.4,0.2,0.6,0.2h0c0.2,0,0.4-0.1,0.6-0.2c0.5-0.5,0.8-1.2,0.8-2s-0.3-1.4-0.8-2c-0.5-0.5-1.2-0.8-2-0.8s-1.5,0.3-2,0.8
			c-0.2,0.2-0.2,0.4-0.2,0.6s0.1,0.4,0.2,0.6C56.4,26.8,56.9,26.8,57.2,26.5z"/>
		<path fill="#181B48" d="M51.5,25c0.1,0,0.2,0,0.3,0c0.2,0,0.4-0.1,0.6-0.3c0.1-0.2,0.2-0.4,0.2-0.6c0-0.4-0.4-0.8-0.8-0.8
			c0,0,0,0-0.1,0l0,0c0,0-0.1,0-0.1,0c-0.5,0-1-0.2-1.3-0.6c-0.4-0.4-0.6-0.9-0.6-1.5c0-0.5-0.3-0.9-0.8-0.9l-0.1,0
			c-0.4,0-0.8,0.3-0.8,0.8c-0.1,1,0.3,2,1,2.8C49.7,24.6,50.6,25,51.5,25z"/>
	</g>
</g>
<g id="Layer_2" display="none">
</g>
<g id="Layer_3" display="none">
</g>
</svg>
