<?xml version="1.0" encoding="utf-8"?>
<!-- Generator: Adobe Illustrator 18.0.0, SVG Export Plug-In . SVG Version: 6.00 Build 0)  -->
<!DOCTYPE svg PUBLIC "-//W3C//DTD SVG 1.1//EN" "http://www.w3.org/Graphics/SVG/1.1/DTD/svg11.dtd">
<svg version="1.1" id="Layer_1" xmlns="http://www.w3.org/2000/svg" xmlns:xlink="http://www.w3.org/1999/xlink" x="0px" y="0px"
	 viewBox="0 0 245 340" enable-background="new 0 0 245 340" xml:space="preserve">
<g opacity="0.2">
	<path fill="#E6E6E6" stroke="#FFFFFF" stroke-miterlimit="10" d="M230.5,330.9h-216c-3.9,0-7-3.1-7-7V16.1c0-3.9,3.1-7,7-7h216
		c3.9,0,7,3.1,7,7v307.8C237.5,327.7,234.4,330.9,230.5,330.9z"/>
</g>
<path fill="#F2F2F2" d="M188.5,200.8c-5.9-11.9-13-22.4-21.1-31.2c-8.7-9.5-16.7-15-21.9-18l-3-1.7l1.8-2.9
	c17.1-26.8,17.7-51.1,17.7-51.4c0-4.8-2.4-9.4-6.6-12.6l-1.3-1V62.7c0-0.6-0.5-1.1-1.1-1.1c-0.6,0-1.1,0.5-1.1,1.1v17.7l-4.1-1.1
	c-1.8-0.5-3.8-0.7-5.7-0.7c-7,0-13.5,3.3-17.1,8.5l-2.7,4l-2.7-4c-3.6-5.2-10.1-8.5-17.1-8.5c-1.9,0-3.8,0.2-5.7,0.7l-4.1,1.1V62.7
	c0-0.6-0.5-1.1-1.1-1.1c-0.6,0-1.1,0.5-1.1,1.1V82l-1.3,1c-4.2,3.2-6.6,7.9-6.6,12.7c0,0.2,0.6,24.6,17.7,51.4l1.8,2.9l-3,1.7
	c-5.1,3-13.1,8.5-21.8,18c-8.1,8.8-15.2,19.3-21.1,31.2c-7.4,14.8-12.8,31.9-16.3,50.7c-0.8,4.5,1.7,8.9,5.9,10.4l14.9,5.5
	c1.3,0.5,2.6,1,4.1,1.5l0,0l0.1,0c12.4,4.2,25.3,7.1,38.3,8.4l0.2,0c0,0,0.1,0,0.2,0l0.2,0c6.1,0.6,12.2,0.9,18.2,0.9
	c21,0,41.7-3.7,61.4-11l14.9-5.5c4.3-1.6,6.8-6,5.9-10.4C201.3,232.7,195.8,215.7,188.5,200.8z M87.8,112.1
	c-2.5-9.9-2.7-16.4-2.7-16.4l0,0c0-4.7,2.6-9.1,7-11.9l0.2-0.1c0,0,0.1,0,0.1-0.1l0.2-0.1c3-1.7,6.4-2.7,10.1-2.7
	c9.3,0,17,6.1,17.6,13.9c0.1,1.1,1.1,2.1,2.2,2.1c1.1,0,2.1-0.9,2.2-2.1c0.6-7.8,8.3-13.9,17.6-13.9c3.6,0,7,0.9,9.9,2.6l0.3,0.2
	c0.1,0,0.1,0.1,0.2,0.1l0.3,0.2c4.4,2.8,6.9,7.2,6.9,11.8c0,0.3-1,25.7-18.7,52.2c-0.2,0.3-0.4,0.7-0.7,1l-0.5,0.7l-0.8,0.4
	c-3.6,1.7-7.5,2.9-11.4,3.5l-7.9,1.1l4.8-6.3c0.9-1.2,1.8-2.5,2.5-3.8c1.2-2.1,2.1-4.3,2.8-6.4c0.2-0.6-0.2-1.2-0.7-1.4
	c-0.6-0.2-1.2,0.2-1.4,0.7c-1.4,4.6-4,8.4-5.9,10.8c-1.7,2-3,3.1-3,3.2c-0.1,0.1-0.2,0.2-0.2,0.3l-1.2,2l-2.2-0.4
	c-3.3-0.6-6.6-1.7-9.6-3.2l-0.8-0.4l-0.5-0.7c-0.2-0.3-0.4-0.7-0.7-1C94.6,134.2,90,120.9,87.8,112.1z M198.1,259.9L198.1,259.9
	l-14.9,5.5c-0.5,0.2-1.1,0.4-1.7,0.6l-4,1.4l-0.8-3.6c-2.1-9.2-8.3-32.6-19.5-50.5c-0.3-0.5-1-0.7-1.5-0.3c-0.5,0.3-0.7,1-0.3,1.5
	c11.1,17.8,17.3,41.3,19.4,50.6l0.7,3l-2.9,0.9c-16.3,4.8-33,7.3-49.9,7.3c-4.8,0-9.7-0.2-14.5-0.6l-3.1-0.3l0.1-3.1
	c0.2-4.5,1.1-13.3,5.4-22c0.3-0.5,0-1.2-0.5-1.5c-0.5-0.3-1.2,0-1.5,0.5c-4.1,8.4-5.3,16.8-5.6,22.3l-0.2,3.6l-3.5-0.5
	c-10-1.3-20-3.6-29.7-6.6l-2.7-0.9l0.5-2.8c2.2-12.4,10.8-54.6,31.6-78.4c0.4-0.5,0.3-1.1-0.1-1.5c-0.5-0.4-1.1-0.3-1.5,0.1
	c-6.8,7.8-23.4,30.9-31.9,78l-0.7,3.8l-17.8-6.6c-3.3-1.2-5.2-4.6-4.5-8c7.7-41.7,24.1-66.7,36.5-80.4
	c10.5-11.6,20.2-17.2,23.8-19.1l1.4-0.7l1.4,0.7c5.3,2.4,11,3.7,16.9,3.7c5.9,0,11.6-1.2,17-3.7l1.4-0.7l1.4,0.7
	c4.5,2.3,16.3,9.4,28.6,24.8c15.5,19.3,26.1,44.5,31.7,74.7C203.3,255.3,201.4,258.7,198.1,259.9z"/>
</svg>
