<?xml version="1.0" encoding="utf-8"?>
<!-- Generator: Adobe Illustrator 18.0.0, SVG Export Plug-In . SVG Version: 6.00 Build 0)  -->
<!DOCTYPE svg PUBLIC "-//W3C//DTD SVG 1.1//EN" "http://www.w3.org/Graphics/SVG/1.1/DTD/svg11.dtd">
<svg version="1.1" id="Layer_1" xmlns="http://www.w3.org/2000/svg" xmlns:xlink="http://www.w3.org/1999/xlink" x="0px" y="0px"
	 viewBox="0 0 43 43" enable-background="new 0 0 43 43" xml:space="preserve">
<path fill="#181B48" d="M8.9,41.6c-0.2,0-0.3,0-0.4-0.1c-0.2-0.2-0.4-0.5-0.3-0.7l2.3-13.6l-9.9-9.6c-0.2-0.2-0.3-0.5-0.2-0.8
	c0.1-0.3,0.3-0.5,0.6-0.5l13.7-2l6.1-12.4c0.1-0.3,0.4-0.4,0.7-0.4c0.3,0,0.5,0.2,0.7,0.4l6.1,12.4l13.7,2c0.3,0,0.5,0.2,0.6,0.5
	c0.1,0.3,0,0.6-0.2,0.8l-9.9,9.6l2.3,13.6c0,0.3-0.1,0.6-0.3,0.7c-0.2,0.2-0.5,0.2-0.8,0.1l-12.2-6.4L9.3,41.5
	C9.2,41.6,9,41.6,8.9,41.6L8.9,41.6z M2.8,17.5l9.1,8.8c0.2,0.2,0.3,0.4,0.2,0.7L9.9,39.5l11.2-5.9c0.2-0.1,0.5-0.1,0.7,0l11.2,5.9
	L30.9,27c0-0.2,0-0.5,0.2-0.7l9.1-8.8l-12.5-1.8c-0.2,0-0.5-0.2-0.6-0.4L21.5,3.9l-5.6,11.4c-0.1,0.2-0.3,0.4-0.6,0.4L2.8,17.5z
	 M2.8,17.5"/>
</svg>
