<?xml version="1.0" encoding="utf-8"?>
<!-- Generator: Adobe Illustrator 18.0.0, SVG Export Plug-In . SVG Version: 6.00 Build 0)  -->
<!DOCTYPE svg PUBLIC "-//W3C//DTD SVG 1.1//EN" "http://www.w3.org/Graphics/SVG/1.1/DTD/svg11.dtd">
<svg version="1.1" xmlns="http://www.w3.org/2000/svg" xmlns:xlink="http://www.w3.org/1999/xlink" x="0px" y="0px"
	 viewBox="0 0 73 73" enable-background="new 0 0 73 73" xml:space="preserve">
<g id="Layer_1">
	<path fill="#181B48" d="M57.8,49.7c-1.4-1.4-3.2-2.1-5.1-2.1h-5l0-3.9l0.1-0.1c3.8-3.3,5.9-8.1,5.9-13.1l0-5.9
		c1.2-5.9,0.6-10.2-1.5-12.8C51,10,49.3,9.4,48.1,9.1l-0.3-0.1V2c0-0.6-0.5-1.1-1.1-1.1l-3.7,0c-7.3,0-15.4,0.5-20.2,5.9
		c-3.4,3.9-4.6,9.7-3.6,17.7l0,6c0,5,2.2,9.8,5.9,13.1l0.1,0.1v3.9h-5c-4,0-7.2,3.2-7.2,7.2V71c0,0.6,0.5,1.1,1.1,1.1h44.6
		c0.6,0,1.1-0.5,1.1-1.1V54.8C59.9,52.8,59.2,51,57.8,49.7z M48.7,63.8c-0.6,0-1.1,0.5-1.1,1.1v5H25.5v-5c0-0.6-0.5-1.1-1.1-1.1
		c-0.6,0-1.1,0.5-1.1,1.1v5h-7.9V54.8c0-2.7,2.2-5,5-5H26l4.9,3.9l0.3,0.1c0.1,0,0.2,0,0.3,0l0.2,0l4.8-1.9l3.9,1.9l0.1,0
		c0.2,0,0.2,0,0.3,0l0.2,0l0.3-0.1l5.8-3.9h5.7c2.7,0,4.9,2.2,5,4.8l0,15.2h-7.9v-5C49.8,64.3,49.3,63.8,48.7,63.8z M37.6,50v-2.3
		l0.4,0c2.5-0.2,4.8-0.9,6.9-2.1l0.6-0.3l0,2.8l-5,3.4L37.6,50z M31.6,51.4l-4.1-3.3v-2.9l0.6,0.3c2.2,1.2,4.5,1.9,6.9,2.1l0.4,0
		v2.2L31.6,51.4z M45.9,11c0.2,0.2,0.5,0.3,0.8,0.3c0,0,2.3-0.1,3.9,1.8c1.1,1.3,1.6,3.4,1.6,6l0,1.7l-1.4-2.8
		c-0.2-0.5-0.8-0.7-1.3-0.6c-0.4,0.1-9.2,2.9-14.4,2.9c-5.1,0-9.6-2.7-9.7-2.8c-0.5-0.3-1.1-0.2-1.5,0.3l-2.7,3.6l0-1.2
		c-0.1-5.2,1-9.3,3.4-12C28.6,3.5,36.2,3.1,43,3.1l2.6,0v7C45.5,10.5,45.6,10.7,45.9,11z M21.4,24.7l3.6-4.8l0.3,0.1
		c1.9,0.9,5.6,2.5,9.7,2.5c4.5,0,11.2-1.8,13.9-2.6l0.3-0.1l2.4,4.8v5.9c0,8.3-6.8,15.1-15.1,15.1c-8.3,0-15.1-6.8-15.1-15.1V24.7z"
		/>
</g>
<g id="Layer_2" display="none">
</g>
<g id="Layer_3" display="none">
</g>
</svg>
