<?xml version="1.0" encoding="utf-8"?>
<!-- Generator: Adobe Illustrator 18.0.0, SVG Export Plug-In . SVG Version: 6.00 Build 0)  -->
<!DOCTYPE svg PUBLIC "-//W3C//DTD SVG 1.1//EN" "http://www.w3.org/Graphics/SVG/1.1/DTD/svg11.dtd">
<svg version="1.1" id="Layer_1" xmlns="http://www.w3.org/2000/svg" xmlns:xlink="http://www.w3.org/1999/xlink" x="0px" y="0px"
	 viewBox="0 0 100 81.8" enable-background="new 0 0 100 81.8" xml:space="preserve">
<g>
	<path fill="#181B48" d="M60.3,23.4c-12.8,0-23.3,10.4-23.3,23.2c0,12.8,10.4,23.3,23.3,23.3c12.8,0,23.2-10.4,23.2-23.3
		C83.5,33.8,73.1,23.4,60.3,23.4z M60.3,67.8c-11.7,0-21.2-9.5-21.2-21.2c0-11.7,9.5-21.2,21.2-21.2c11.7,0,21.2,9.5,21.2,21.2
		C81.5,58.3,72,67.8,60.3,67.8z"/>
	<path fill="#181B48" d="M91.2,12.3h-7.6L75.1,1.4C75,1.1,74.7,1,74.3,1H46.3c-0.3,0-0.6,0.1-0.8,0.4l-8.5,10.9H8.2
		c-4,0-7.2,3.3-7.2,7.2v54.3c0,4,3.3,7.2,7.2,7.2h83c4,0,7.2-3.3,7.2-7.2V19.5C98.5,15.5,95.2,12.3,91.2,12.3z M25.2,79h-17
		c-2.9,0-5.2-2.3-5.2-5.2V19.5c0-2.9,2.3-5.2,5.2-5.2h17V79z M96.4,73.8c0,2.9-2.3,5.2-5.2,5.2h-64V14.3h10.1c0.3,0,0.6-0.1,0.8-0.4
		l8.5-10.9h27l8.5,10.9c0.2,0.3,0.5,0.4,0.8,0.4h8.1c2.8,0,5.2,2.3,5.2,5.2V73.8z"/>
</g>
</svg>
