<?xml version="1.0" encoding="utf-8"?>
<!-- Generator: Adobe Illustrator 18.0.0, SVG Export Plug-In . SVG Version: 6.00 Build 0)  -->
<!DOCTYPE svg PUBLIC "-//W3C//DTD SVG 1.1//EN" "http://www.w3.org/Graphics/SVG/1.1/DTD/svg11.dtd">
<svg version="1.1" id="Layer_1" xmlns="http://www.w3.org/2000/svg" xmlns:xlink="http://www.w3.org/1999/xlink" x="0px" y="0px"
	 viewBox="0 0 43 43" enable-background="new 0 0 43 43" xml:space="preserve">
<path fill="#181B48" d="M36.3,2.9h-5.4h-0.5h-0.5c0-0.2-0.1-0.3-0.2-0.5c-0.1-0.2-0.2-0.3-0.3-0.4c-0.5-0.5-1.1-0.9-1.9-0.9H15.4
	c-0.8,0-1.5,0.4-1.9,0.9c-0.1,0.1-0.2,0.3-0.3,0.4c-0.1,0.1-0.1,0.3-0.2,0.4h-0.5h-0.5H6.7c-0.2,0-0.4,0.2-0.4,0.4v38.1
	c0,0.2,0.2,0.4,0.4,0.4h29.6c0.2,0,0.4-0.2,0.4-0.4V3.3C36.8,3.1,36.6,2.9,36.3,2.9z M15.4,2h12.1c0.4,0,0.8,0.2,1.1,0.4
	c0.1,0.1,0.2,0.2,0.3,0.4C29,3,29.1,3.3,29.1,3.6c0,0.2,0,0.3-0.1,0.5c0,0.2-0.1,0.3-0.2,0.4c-0.3,0.4-0.8,0.7-1.3,0.7H15.4
	c-0.6,0-1.1-0.3-1.4-0.8C14,4.2,13.9,4,13.9,3.9c0-0.1,0-0.2,0-0.3c0-0.2,0-0.4,0.1-0.6c0.1-0.2,0.2-0.3,0.3-0.4
	C14.6,2.2,15,2,15.4,2z M35.9,41H7.1V3.8h5h0.5H13c0,0.2,0,0.3,0.1,0.5c0,0.2,0.1,0.3,0.2,0.4C13.7,5.5,14.5,6,15.4,6h12.1
	c0.9,0,1.8-0.5,2.2-1.3c0.1-0.1,0.1-0.3,0.2-0.5C30,4.1,30,3.9,30,3.8h0.5h0.5h5V41z"/>
<path fill="#181B48" d="M15.4,13.9h-2.1c-0.2,0-0.4,0.2-0.4,0.4v2.1c0,0.2,0.2,0.4,0.4,0.4h2.1c0.2,0,0.4-0.2,0.4-0.4v-2.1
	C15.8,14.1,15.6,13.9,15.4,13.9z"/>
<path fill="#181B48" d="M30.5,14.9H19c-0.2,0-0.4,0.2-0.4,0.4s0.2,0.4,0.4,0.4h11.5c0.2,0,0.4-0.2,0.4-0.4S30.8,14.9,30.5,14.9z"/>
<path fill="#181B48" d="M15.4,26.2h-2.1c-0.2,0-0.4,0.2-0.4,0.4v2.1c0,0.2,0.2,0.4,0.4,0.4h2.1c0.2,0,0.4-0.2,0.4-0.4v-2.1
	C15.8,26.4,15.6,26.2,15.4,26.2z"/>
<path fill="#181B48" d="M30.5,27.2H19c-0.2,0-0.4,0.2-0.4,0.4c0,0.2,0.2,0.4,0.4,0.4h11.5c0.2,0,0.4-0.2,0.4-0.4
	C31,27.4,30.8,27.2,30.5,27.2z"/>
<path fill="#181B48" d="M15.4,20.1h-2.1c-0.2,0-0.4,0.2-0.4,0.4v2.1c0,0.2,0.2,0.4,0.4,0.4h2.1c0.2,0,0.4-0.2,0.4-0.4v-2.1
	C15.8,20.2,15.6,20.1,15.4,20.1z"/>
<path fill="#181B48" d="M30.5,21H19c-0.2,0-0.4,0.2-0.4,0.4s0.2,0.4,0.4,0.4h11.5c0.2,0,0.4-0.2,0.4-0.4S30.8,21,30.5,21z"/>
</svg>
