<?xml version="1.0" encoding="utf-8"?>
<!-- Generator: Adobe Illustrator 18.0.0, SVG Export Plug-In . SVG Version: 6.00 Build 0)  -->
<!DOCTYPE svg PUBLIC "-//W3C//DTD SVG 1.1//EN" "http://www.w3.org/Graphics/SVG/1.1/DTD/svg11.dtd">
<svg version="1.1" xmlns="http://www.w3.org/2000/svg" xmlns:xlink="http://www.w3.org/1999/xlink" x="0px" y="0px"
	 viewBox="0 0 73 73" enable-background="new 0 0 73 73" xml:space="preserve">
<g id="Layer_1">
	<path fill="#181B48" d="M59,22.7l-0.4,0c-0.2-12.1-10.1-22-22.3-22C24,0.7,14,10.7,14,23v48.2c0,0.6,0.5,1.1,1.1,1.1h42.4
		c0.6,0,1.1-0.5,1.1-1.1l0-47.9l0.4,0L59,22.7z M44.7,53.4c-0.7,4.1-4.3,7-8.4,7c-4.1,0-7.7-3-8.4-7L27.8,53l2.7,0
		c0.6,0,1.1-0.5,1.1-1.1v-3.4l0.4,0.1c2.8,0.7,5.7,0.7,8.5,0l0.4-0.1l0,3.5l0.1,0.4c0.2,0.3,0.4,0.5,0.8,0.6l2.9,0L44.7,53.4z
		 M50.6,26v6.6c0,7.9-6.4,14.3-14.3,14.3C28.4,47,22,40.5,22,32.7V26H50.6z M43.2,47.7l0.2-0.1c5.7-2.7,9.4-8.6,9.4-14.9v-7.7
		c0-0.6-0.5-1.1-1.1-1.1H49v-2.8c0-0.6-0.5-1.1-1.1-1.1c-0.6,0-1.1,0.5-1.1,1.1v2.8h-3.6v-2.8c0-0.6-0.5-1.1-1.1-1.1
		c-0.6,0-1.1,0.5-1.1,1.1v2.8h-3.6v-2.8c0-0.6-0.5-1.1-1.1-1.1c-0.6,0-1.1,0.5-1.1,1.1v2.8h-3.6v-2.8c0-0.6-0.5-1.1-1.1-1.1
		c-0.6,0-1.1,0.5-1.1,1.1v2.8h-3.6v-2.8c0-0.6-0.5-1.1-1.1-1.1c-0.6,0-1.1,0.5-1.1,1.1v2.8h-2.8c-0.6,0-1.1,0.5-1.1,1.1v7.7
		c0,6.3,3.7,12.2,9.4,14.9l0.2,0.1v3.2h-8.5c-1.5,0-2.9,0.5-4.1,1.4l-0.6,0.4V23c0-11.1,9-20.1,20.1-20.1c11.1,0,20.1,9,20.1,20.1
		l0,29.6l-0.6-0.4c-1.2-0.9-2.6-1.4-4.1-1.4h-8.5L43.2,47.7z M56.4,70.1H49v-4.7c0-0.6-0.5-1.1-1.1-1.1c-0.6,0-1.1,0.5-1.1,1.1v4.7
		H25.9v-4.7c0-0.6-0.5-1.1-1.1-1.1c-0.6,0-1.1,0.5-1.1,1.1v4.7h-7.5V57.7c0-2.6,2.1-4.7,4.7-4.7h4.7l0,0.3c0.7,5.3,5.3,9.3,10.6,9.3
		c5.4,0,9.9-4,10.6-9.3l0-0.3h4.7c2.6,0,4.7,2.1,4.7,4.7L56.4,70.1z M56.7,57.7L56.7,57.7L56.7,57.7L56.7,57.7z"/>
</g>
<g id="Layer_2" display="none">
</g>
<g id="Layer_3" display="none">
</g>
</svg>
