<?xml version="1.0" encoding="utf-8"?>
<!-- Generator: Adobe Illustrator 18.0.0, SVG Export Plug-In . SVG Version: 6.00 Build 0)  -->
<!DOCTYPE svg PUBLIC "-//W3C//DTD SVG 1.1//EN" "http://www.w3.org/Graphics/SVG/1.1/DTD/svg11.dtd">
<svg version="1.1" xmlns="http://www.w3.org/2000/svg" xmlns:xlink="http://www.w3.org/1999/xlink" x="0px" y="0px"
	 viewBox="0 0 73 73" enable-background="new 0 0 73 73" xml:space="preserve">
<g id="Layer_1">
	<path fill="#181B48" d="M71,33.6L60.1,23.5v-19H45.6v5.5l-9.4-8.7L1.5,33.6C1,34.1,1,34.9,1.5,35.3c0.2,0.2,0.5,0.4,0.9,0.4
		c0.3,0,0.6-0.1,0.9-0.3l4-3.7V72h58.1V31.7l4,3.7c0.2,0.2,0.5,0.3,0.9,0.3c0.3,0,0.6-0.2,0.9-0.4c0.2-0.2,0.3-0.6,0.3-0.9
		C71.4,34.1,71.2,33.8,71,33.6z M57.6,7v14.2l-9.5-8.8V7H57.6z M29,50.2c0-4,3.2-7.2,7.2-7.2c4,0,7.2,3.2,7.2,7.2v19.3H29V50.2z
		 M36.3,40.5c-5.3,0-9.7,4.4-9.7,9.7v19.3H9.7V29.4L36.3,4.7l26.6,24.7v40.2H46V50.2C46,44.9,41.6,40.5,36.3,40.5z"/>
</g>
<g id="Layer_2" display="none">
</g>
<g id="Layer_3" display="none">
</g>
</svg>
