<?xml version="1.0" encoding="utf-8"?>
<!-- Generator: Adobe Illustrator 18.0.0, SVG Export Plug-In . SVG Version: 6.00 Build 0)  -->
<!DOCTYPE svg PUBLIC "-//W3C//DTD SVG 1.1//EN" "http://www.w3.org/Graphics/SVG/1.1/DTD/svg11.dtd">
<svg version="1.1" xmlns="http://www.w3.org/2000/svg" xmlns:xlink="http://www.w3.org/1999/xlink" x="0px" y="0px"
	 viewBox="0 0 73 73" enable-background="new 0 0 73 73" xml:space="preserve">
<g id="Layer_1">
	<path fill="#181B48" d="M59.7,59c-0.5,0-0.9,0.4-0.9,0.9v9.9c0,0.4-0.3,0.8-0.8,0.8h-5.8V49.6c0-0.5-0.4-0.9-0.9-0.9
		c-0.5,0-0.9,0.4-0.9,0.9v20.9h-12l3.6-3.9c0.3-0.4,0.5-0.9,0.4-1.4l-3.2-18.7l1-1.5l0.3,0.2c0.4,0.3,0.7,0.5,1.3,0.5
		c0.6,0,1.2-0.4,1.5-0.9l3.4-6.8l7.7,3c0.2,0.1,4.4,1.9,4.4,6.8V55c0,0.2,0.1,0.5,0.3,0.6c0.2,0.2,0.4,0.3,0.6,0.3
		c0.5,0,0.9-0.4,0.9-0.9v-7.1c0-6.1-5.2-8.3-5.5-8.4l-12.7-4.9v-3.2l0.1-0.1c2-1.6,3.3-3.8,3.7-6.4l0-0.1l0.1,0
		c1-0.1,1.9-0.4,2.6-1.1c1-0.8,1.5-2,1.5-3.3c0-1-0.4-2-1-2.8l0,0v-4c0-7.1-5.8-12.9-12.9-12.9c-7.1,0-12.9,5.8-12.9,12.9v4.1l0,0
		c-0.7,0.8-1,1.7-1,2.7c0,1.3,0.5,2.4,1.5,3.3c0.7,0.6,1.6,1,2.6,1.1l0.1,0l0,0.1c0.3,2.6,1.8,5,3.9,6.5l0.1,0.1v3l-12.7,4.9
		c-0.2,0.1-5.5,2.3-5.5,8.4v22c0,1.4,1.1,2.5,2.5,2.5h10c0.5,0,0.9-0.4,0.9-0.9c0-0.5-0.4-0.9-0.9-0.9h-2.4V49.6
		c0-0.5-0.4-0.9-0.9-0.9c-0.5,0-0.9,0.4-0.9,0.9v20.9h-5.8c-0.4,0-0.8-0.3-0.8-0.8v-22c0-4.9,4.2-6.7,4.3-6.8l7.7-3l3.4,6.8
		c0.3,0.6,0.9,0.9,1.5,0.9c0.5,0,0.9-0.2,1.3-0.5l0.3-0.2l1,1.5l-3.2,18.7c-0.1,0.5,0.1,1,0.4,1.4l3.6,3.9h-4.6
		c-0.5,0-0.9,0.4-0.9,0.9c0,0.5,0.4,0.9,0.9,0.9h28.2c1.4,0,2.5-1.1,2.5-2.5v-9.9C60.6,59.4,60.2,59,59.7,59z M26.5,17.9V23l-0.2,0
		c-1.3-0.2-2.2-1.3-2.2-2.5c0-1.1,0.9-2.2,2.2-2.5L26.5,17.9z M46.4,17.9c1.3,0.2,2.2,1.3,2.2,2.5c0,0.7-0.3,1.4-0.9,1.9
		c-0.4,0.3-0.8,0.5-1.3,0.6l-0.2,0v-5.1L46.4,17.9z M32.4,32.5l0.2,0.1c2.5,1,5.4,1,7.8-0.1l0.2-0.1v2.4l-4.1,5.1l-4.1-5.1V32.5z
		 M45.1,37.4L41.8,44l-4-2.9l4-5L45.1,37.4z M26.6,16l0,0.1l-0.1,0c-0.3,0-0.7,0.1-1,0.2l-0.2,0.1v-2.9c0-6.1,5-11.1,11.1-11.1
		c6.1,0,11.1,5,11.1,11.1v2.8l-0.2-0.1c-0.3-0.1-0.6-0.1-0.9-0.2l-0.2,0v-0.2c0-0.8,0-0.8-2-2.9c-0.4-0.4-0.8-0.9-1.3-1.4
		c-0.6-0.6-1.5-0.7-2.2-0.3c-3.7,2.4-8.2,3.6-12.4,3.3C27.6,14.7,26.8,15.2,26.6,16z M28.3,16.5l0.2,0c4.4,0.3,9.2-1,13.1-3.5
		l0.1-0.1l1.4,1.5c0.7,0.8,1.1,1.2,1.3,1.4l0,0v7.7c0,4.4-3.6,7.9-7.9,7.9c-2.3,0-4.4-0.9-5.9-2.4c-1.4-1.5-2.3-3.5-2.3-5.5V16.5z
		 M31.2,36.1l4,5l-4,2.9l-3.3-6.6L31.2,36.1z M36.5,42.4l2.4,1.7l-0.9,1.4h-2.8L34.1,44L36.5,42.4z M35.4,47.2h2.3l3.1,18.3
		l-4.2,4.6l-4.2-4.6L35.4,47.2z"/>
</g>
<g id="Layer_2" display="none">
</g>
<g id="Layer_3" display="none">
</g>
</svg>
