<?xml version="1.0" encoding="utf-8"?>
<!-- Generator: Adobe Illustrator 18.0.0, SVG Export Plug-In . SVG Version: 6.00 Build 0)  -->
<!DOCTYPE svg PUBLIC "-//W3C//DTD SVG 1.1//EN" "http://www.w3.org/Graphics/SVG/1.1/DTD/svg11.dtd">
<svg version="1.1" xmlns="http://www.w3.org/2000/svg" xmlns:xlink="http://www.w3.org/1999/xlink" x="0px" y="0px"
	 viewBox="0 0 73 73" enable-background="new 0 0 73 73" xml:space="preserve">
<g id="Layer_1">
	<g>
		<path fill="#181B48" d="M47.8,39.3c-3.1-4.8-8.3-7.6-14-7.6s-10.9,2.9-14,7.6L12,51.6c-1.2,1.8-1.7,4-1.6,6.2
			c0.2,2.2,1,4.2,2.4,5.9c1.4,1.7,3.3,2.8,5.4,3.3c0.8,0.2,1.5,0.3,2.3,0.3c1.4,0,2.8-0.3,4.1-0.9l0.1-0.1c2.9-1.2,6-1.9,9.1-1.9
			c3.2,0,6.3,0.7,9.2,1.9c2,0.9,4.2,1.1,6.3,0.6c2.1-0.5,4-1.6,5.4-3.3c1.4-1.7,2.3-3.7,2.4-5.9c0.1-2.2-0.4-4.3-1.6-6.2L47.8,39.3z
			 M53.5,62.4l-0.2-0.2c-1.5,1.8-3.7,2.8-6,2.8c-1.1,0-2.2-0.2-3.2-0.7c-3.2-1.4-6.6-2.1-10.1-2.1c-3.5,0-6.9,0.7-10.1,2.1l-0.1,0
			c-3.2,1.4-6.9,0.5-9.2-2.2c-2.3-2.7-2.6-6.5-0.7-9.5l7.9-12.3c2.7-4.2,7.2-6.7,12.2-6.7s9.5,2.5,12.2,6.7l7.9,12.3
			c1.9,3,1.7,6.8-0.7,9.5L53.5,62.4z"/>
		<path fill="#181B48" d="M17.3,33c0.8-2.2,0.7-4.6-0.2-6.9c-0.9-2.3-2.5-4.2-4.5-5.2h0c-2.1-1.1-4.3-1.3-6.4-0.5
			C2,21.9,0.2,27.1,2,31.9c1.4,3.7,4.8,6.2,8.3,6.2c0.9,0,1.7-0.2,2.5-0.5C14.9,36.9,16.5,35.3,17.3,33z M15.2,32.3
			c-0.6,1.6-1.7,2.8-3.1,3.4l-0.1,0c-0.6,0.2-1.2,0.3-1.8,0.3c-2.7,0-5.2-2-6.3-4.9c-1.4-3.7-0.1-7.6,3-8.8C7.5,22.1,8.1,22,8.8,22
			c0.9,0,1.9,0.2,2.8,0.7c1.6,0.9,2.8,2.3,3.5,4.1C15.8,28.7,15.8,30.6,15.2,32.3z"/>
		<path fill="#181B48" d="M28.5,28c5.3,0,9.6-5,9.6-11.1c0-6.1-4.3-11.1-9.6-11.1c-5.3,0-9.6,5-9.6,11.1C18.9,23.1,23.2,28,28.5,28z
			 M21.1,16.9c0-4.9,3.3-8.9,7.5-8.9c4.1,0,7.5,4,7.5,8.9c0,4.9-3.3,8.9-7.5,8.9C24.4,25.9,21.1,21.9,21.1,16.9z"/>
		<path fill="#181B48" d="M47.2,31.1L47.2,31.1c0.8,0.3,1.6,0.4,2.4,0.4c3.9,0,7.6-3,9-7.2c0.8-2.5,0.8-5.2-0.1-7.5
			c-1-2.4-2.7-4.1-5-4.8c-2.2-0.7-4.7-0.4-6.9,0.9c-2.1,1.3-3.8,3.4-4.6,5.9C40.4,24,42.7,29.5,47.2,31.1z M52.9,14
			c1.6,0.5,2.9,1.8,3.7,3.6c0.7,1.8,0.8,4,0.1,6c-1.1,3.4-4,5.7-7,5.7c-0.6,0-1.2-0.1-1.8-0.3c-3.4-1.1-5.1-5.5-3.8-9.6
			c0.7-2,2-3.7,3.7-4.8c1.1-0.6,2.2-1,3.3-1C51.8,13.7,52.4,13.8,52.9,14z"/>
		<path fill="#181B48" d="M68.7,31.5L68.7,31.5c-1.3-0.9-2.8-1.4-4.4-1.4c-2.9,0-5.8,1.5-7.7,4.1c-3,4.1-2.6,9.6,1,12.3
			c1.2,0.9,2.8,1.4,4.4,1.4c2.9,0,5.8-1.5,7.7-4.1C72.7,39.7,72.3,34.1,68.7,31.5z M68.2,42.7L68,42.5c-1.5,2-3.7,3.2-5.9,3.2
			c-1.2,0-2.2-0.3-3.1-1c-2.6-1.9-2.9-6.1-0.5-9.3c1.5-2,3.7-3.2,5.9-3.2c1.2,0,2.2,0.3,3.1,1c2.6,2,2.9,6.1,0.5,9.3L68.2,42.7z"/>
	</g>
</g>
<g id="Layer_2" display="none">
</g>
<g id="Layer_3" display="none">
</g>
</svg>
