<?xml version="1.0" encoding="utf-8"?>
<!-- Generator: Adobe Illustrator 18.0.0, SVG Export Plug-In . SVG Version: 6.00 Build 0)  -->
<!DOCTYPE svg PUBLIC "-//W3C//DTD SVG 1.1//EN" "http://www.w3.org/Graphics/SVG/1.1/DTD/svg11.dtd">
<svg version="1.1" id="Layer_1" xmlns="http://www.w3.org/2000/svg" xmlns:xlink="http://www.w3.org/1999/xlink" x="0px" y="0px"
	 viewBox="0 0 43 43" enable-background="new 0 0 43 43" xml:space="preserve">
<path fill="#181B48" d="M17.1,10.8c-0.1,0.2-0.3,0.2-0.5,0.2h-3.4H13h-0.2v0.2v0.2V36v0.2v0.2H13h0.2h24.9c1,0,1.8-0.8,1.8-1.8V12.9
	c0-1-0.8-1.8-1.8-1.8h-3.2c-0.2,0-0.4-0.1-0.5-0.2L31,6.5H20.4L17.1,10.8z M11.3,9.7h0.4h0.8h0.4h3.4l3.3-4.3
	c0.1-0.2,0.3-0.2,0.5-0.2h11.2c0.2,0,0.4,0.1,0.5,0.2l3.4,4.3h2.9c1.7,0,3.1,1.4,3.1,3.2v21.8c0,1.8-1.4,3.2-3.1,3.2H12.9h-0.4h-0.8
	h-0.4H4.9c-1.7,0-3.2-1.4-3.2-3.2V12.9c0-1.7,1.4-3.2,3.2-3.2H11.3z M11.4,11.3v-0.2h-0.2H11H4.9c-1,0-1.8,0.8-1.8,1.8v21.8
	c0,1,0.8,1.8,1.8,1.8H11h0.2h0.2v-0.2V36V11.5V11.3z"/>
<path fill="#181B48" d="M17.7,23.8c0-4.4,3.6-8,8-8c4.4,0,8,3.6,8,8s-3.6,8-8,8C21.3,31.8,17.7,28.2,17.7,23.8z M25.7,16.8
	c-3.8,0-7,3.1-7,7s3.1,7,7,7s7-3.1,7-7S29.6,16.8,25.7,16.8z"/>
</svg>
