<?xml version="1.0" encoding="utf-8"?>
<!-- Generator: Adobe Illustrator 18.0.0, SVG Export Plug-In . SVG Version: 6.00 Build 0)  -->
<!DOCTYPE svg PUBLIC "-//W3C//DTD SVG 1.1//EN" "http://www.w3.org/Graphics/SVG/1.1/DTD/svg11.dtd">
<svg version="1.1" id="Layer_1" xmlns="http://www.w3.org/2000/svg" xmlns:xlink="http://www.w3.org/1999/xlink" x="0px" y="0px"
	 viewBox="0 0 81.6 81.8" enable-background="new 0 0 81.6 81.8" xml:space="preserve">
<g>
	<path fill="#181B48" d="M32.1,19.9c-0.2-0.1-0.4-0.2-0.7-0.2c-0.2,0-0.4,0-0.6,0.1c-0.4,0.2-0.6,0.6-0.6,1V61c0,0.4,0.2,0.8,0.6,1
		c0.4,0.2,0.9,0.2,1.2-0.1l29.4-20c0.3-0.2,0.5-0.6,0.5-1c0-0.4-0.2-0.8-0.5-1L32.1,19.9z M58.6,41L32.6,58.7V23.1l0.2,0.2
		l25.9,17.6L58.6,41z"/>
	<path fill="#181B48" d="M40.8,1C18.8,1,0.9,18.9,0.9,40.9c0,22,17.9,39.9,39.9,39.9s39.9-17.9,39.9-39.9C80.8,18.9,62.8,1,40.8,1z
		 M40.8,78.5c-20.7,0-37.6-16.9-37.6-37.6S20.1,3.3,40.8,3.3s37.6,16.9,37.6,37.6S61.5,78.5,40.8,78.5z"/>
</g>
</svg>
