<?xml version="1.0" encoding="utf-8"?>
<!-- Generator: Adobe Illustrator 18.0.0, SVG Export Plug-In . SVG Version: 6.00 Build 0)  -->
<!DOCTYPE svg PUBLIC "-//W3C//DTD SVG 1.1//EN" "http://www.w3.org/Graphics/SVG/1.1/DTD/svg11.dtd">
<svg version="1.1" id="Layer_1" xmlns="http://www.w3.org/2000/svg" xmlns:xlink="http://www.w3.org/1999/xlink" x="0px" y="0px"
	 viewBox="0 0 284 388" enable-background="new 0 0 284 388" xml:space="preserve">
<g>
	<path fill="none" stroke="#FFFFFF" stroke-width="1.1711" stroke-miterlimit="10" d="M269.7,382.4H14.3c-3.9,0-7-3.1-7-7V12.6
		c0-3.9,3.1-7,7-7h255.3c3.9,0,7,3.1,7,7v362.8C276.7,379.3,273.5,382.4,269.7,382.4z"/>
</g>
<g>
	<path fill="#FFFFFF" d="M142,163.6c-16.8,0-30.4,13.6-30.4,30.4s13.6,30.4,30.4,30.4c16.8,0,30.4-13.6,30.4-30.4
		S158.8,163.6,142,163.6z M135,206.1v-24.2L155,194L135,206.1z"/>
</g>
<text transform="matrix(1 0 0 1 126.9321 362.8836)" fill="#FFFFFF" font-family="'Gotham-Light'" font-size="13.2461">mp4</text>
</svg>
