<?xml version="1.0" encoding="utf-8"?>
<!-- Generator: Adobe Illustrator 18.0.0, SVG Export Plug-In . SVG Version: 6.00 Build 0)  -->
<!DOCTYPE svg PUBLIC "-//W3C//DTD SVG 1.1//EN" "http://www.w3.org/Graphics/SVG/1.1/DTD/svg11.dtd">
<svg version="1.1" id="Layer_1" xmlns="http://www.w3.org/2000/svg" xmlns:xlink="http://www.w3.org/1999/xlink" x="0px" y="0px"
	 viewBox="0 0 682.4 113.1" enable-background="new 0 0 682.4 113.1" xml:space="preserve">
<g id="XMLID_1422_">
	<g id="XMLID_1424_">
		<path id="XMLID_1588_" fill="none" stroke="#181B48" stroke-width="0.9074" stroke-miterlimit="10" d="M436.4,96.3
			C410.3,96.3,389,75.1,389,49c0-26.1,21.2-47.4,47.4-47.4s47.4,21.2,47.4,47.4C483.7,75.1,462.5,96.3,436.4,96.3L436.4,96.3z"/>
	</g>
</g>
<g>
	<g id="XMLID_50_">
		<g id="XMLID_1392_">
			<path fill="#181B48" d="M475,49c0,21.3-17.3,38.7-38.7,38.7c-21.3,0-38.7-17.3-38.7-38.7c0-21.3,17.3-38.7,38.7-38.7
				C457.7,10.3,475,27.7,475,49z"/>
			<path fill="#181B48" d="M475,49c0-21.3-17.3-38.7-38.7-38.7c-21.3,0-38.7,17.3-38.7,38.7c0,21.3,17.3,38.7,38.7,38.7
				C457.7,87.6,475,70.3,475,49z M476.8,49c0,22.3-18.1,40.4-40.5,40.4c-22.3,0-40.5-18.1-40.5-40.4s18.1-40.5,40.5-40.5
				C458.7,8.5,476.8,26.7,476.8,49z"/>
		</g>
	</g>
	<path fill="#FFFFFF" d="M423.9,69c-0.2,0-0.3,0-0.4-0.1c-0.2-0.2-0.4-0.5-0.3-0.7l2.3-13.6l-9.9-9.6c-0.2-0.2-0.3-0.5-0.2-0.8
		c0.1-0.3,0.3-0.5,0.6-0.5l13.7-2l6.1-12.4c0.1-0.3,0.4-0.4,0.7-0.4c0.3,0,0.5,0.2,0.7,0.4l6.1,12.4l13.7,2c0.3,0,0.5,0.2,0.6,0.5
		c0.1,0.3,0,0.6-0.2,0.8l-9.9,9.6l2.3,13.6c0,0.3-0.1,0.6-0.3,0.7c-0.2,0.2-0.5,0.2-0.8,0.1l-12.2-6.4l-12.2,6.4
		C424.2,68.9,424,69,423.9,69L423.9,69z M417.8,44.8l9.1,8.8c0.2,0.2,0.3,0.4,0.2,0.7l-2.1,12.5l11.2-5.9c0.2-0.1,0.5-0.1,0.7,0
		l11.2,5.9l-2.1-12.5c0-0.2,0-0.5,0.2-0.7l9.1-8.8L442.7,43c-0.2,0-0.5-0.2-0.6-0.4l-5.6-11.4l-5.6,11.4c-0.1,0.2-0.3,0.4-0.6,0.4
		L417.8,44.8z M417.8,44.8"/>
</g>
<path fill="#FFFFFF" d="M423.6,69.3c-0.2,0-0.3,0-0.4-0.1c-0.2-0.2-0.4-0.5-0.3-0.7l2.3-13.6l-9.9-9.6c-0.2-0.2-0.3-0.5-0.2-0.8
	c0.1-0.3,0.3-0.5,0.6-0.5l13.7-2l6.1-12.4c0.1-0.3,0.4-0.4,0.7-0.4c0.3,0,0.5,0.2,0.7,0.4l6.1,12.4l13.7,2c0.3,0,0.5,0.2,0.6,0.5
	c0.1,0.3,0,0.6-0.2,0.8l-9.9,9.6l2.3,13.6c0,0.3-0.1,0.6-0.3,0.7c-0.2,0.2-0.5,0.2-0.8,0.1l-12.2-6.4l-12.2,6.4
	C423.8,69.3,423.7,69.3,423.6,69.3L423.6,69.3z M417.4,45.2l9.1,8.8c0.2,0.2,0.3,0.4,0.2,0.7l-2.1,12.5l11.2-5.9
	c0.2-0.1,0.5-0.1,0.7,0l11.2,5.9l-2.1-12.5c0-0.2,0-0.5,0.2-0.7l9.1-8.8l-12.5-1.8c-0.2,0-0.5-0.2-0.6-0.4l-5.6-11.4l-5.6,11.4
	c-0.1,0.2-0.3,0.4-0.6,0.4L417.4,45.2z M417.4,45.2"/>
<g opacity="0.6">
	<g id="XMLID_27_">
		<g id="XMLID_1399_">
			<path fill="#181B48" d="M247.2,8.8c22.3,0,40.4,18.1,40.4,40.4c0,22.3-18.1,40.4-40.4,40.4s-40.4-18.1-40.4-40.4
				C206.8,26.9,225,8.8,247.2,8.8z M285.8,49.2c0-21.3-17.3-38.6-38.6-38.6s-38.6,17.3-38.6,38.6s17.3,38.6,38.6,38.6
				S285.8,70.4,285.8,49.2z"/>
			<path fill="#181B48" d="M242.8,38.5c-0.1,0.2-0.3,0.2-0.5,0.2h-3.4h-0.2h-0.2v0.2v0.2v24.5v0.2v0.2h0.2h0.2h24.9
				c1,0,1.8-0.8,1.8-1.8V40.5c0-1-0.8-1.8-1.8-1.8h-3.2c-0.2,0-0.4-0.1-0.5-0.2l-3.3-4.3h-10.6L242.8,38.5z M237,37.4h0.4h0.8h0.4
				h3.3l3.3-4.3c0.1-0.2,0.3-0.2,0.5-0.2h11.2c0.2,0,0.4,0.1,0.5,0.2l3.4,4.3h2.9c1.7,0,3.1,1.4,3.1,3.2v21.8c0,1.8-1.4,3.2-3.1,3.2
				h-25.2h-0.4h-0.8H237h-6.4c-1.7,0-3.2-1.4-3.2-3.2V40.5c0-1.7,1.4-3.2,3.2-3.2H237z M237.2,38.9v-0.2h-0.2h-0.2h-6.1
				c-1,0-1.8,0.8-1.8,1.8v21.8c0,1,0.8,1.8,1.8,1.8h6.1h0.2h0.2v-0.2v-0.2V39.2V38.9z"/>
			<path fill="#181B48" d="M243.4,51.4c0-4.4,3.6-8,8-8c4.4,0,8,3.6,8,8s-3.6,8-8,8C247,59.4,243.4,55.8,243.4,51.4z M251.5,44.4
				c-3.8,0-7,3.1-7,7s3.1,7,7,7s7-3.1,7-7S255.3,44.4,251.5,44.4z"/>
		</g>
	</g>
</g>
<g>
	<g id="XMLID_1744_">
		<g id="XMLID_1745_">
			<g>
				<path fill="#181B48" d="M247.1,8.5c22.3,0,40.4,18.1,40.4,40.4c0,22.3-18.1,40.4-40.4,40.4s-40.4-18.1-40.4-40.4
					C206.7,26.6,224.8,8.5,247.1,8.5z M285.7,48.9c0-21.3-17.3-38.6-38.6-38.6s-38.6,17.3-38.6,38.6s17.3,38.6,38.6,38.6
					S285.7,70.2,285.7,48.9z"/>
				<path fill="#181B48" d="M247.1,10.3c21.3,0,38.6,17.3,38.6,38.6s-17.3,38.6-38.6,38.6s-38.6-17.3-38.6-38.6
					S225.8,10.3,247.1,10.3z"/>
			</g>
		</g>
	</g>
	<g>
		<path fill="#FFFFFF" d="M251.3,43.1c-4.4,0-8,3.6-8,8c0,4.4,3.6,8,8,8c4.4,0,8-3.6,8-8C259.3,46.7,255.7,43.1,251.3,43.1z
			 M251.3,58.1c-3.8,0-7-3.1-7-7c0-3.8,3.1-7,7-7c3.8,0,7,3.1,7,7C258.3,55,255.2,58.1,251.3,58.1z"/>
		<path fill="#FFFFFF" d="M263.7,37.1h-2.9l-3.3-4.3c-0.1-0.2-0.3-0.3-0.5-0.3h-11.2c-0.2,0-0.4,0.1-0.5,0.3l-3.3,4.3h-3.3h-0.4
			h-0.9h-0.4h-6.4c-1.7,0-3.2,1.4-3.2,3.2V62c0,1.7,1.4,3.2,3.2,3.2h6.4h0.4h0.8h0.4h25.2c1.7,0,3.2-1.4,3.2-3.2V40.3
			C266.9,38.5,265.5,37.1,263.7,37.1z M228.6,62V40.3c0-1,0.8-1.8,1.8-1.8h6.1h0.2h0.2v0.2v0.2v24.5v0.2v0.2h-0.2h-0.2h-6.1
			C229.5,63.8,228.6,63,228.6,62z M265.5,62c0,1-0.8,1.8-1.8,1.8h-24.9h-0.2h-0.2v-0.2v-0.2V38.9v-0.2v-0.2h0.2h0.2h3.4
			c0.2,0,0.4-0.1,0.5-0.3l3.3-4.3h10.6l3.3,4.3c0.1,0.2,0.3,0.3,0.5,0.3h3.2c1,0,1.8,0.8,1.8,1.8V62z"/>
	</g>
</g>
<g id="XMLID_1736_">
	<g id="XMLID_1737_">
		<path id="XMLID_1738_" fill="none" stroke="#181B48" stroke-width="0.9074" stroke-miterlimit="10" d="M247.1,96.2
			c-26.1,0-47.4-21.2-47.4-47.4c0-26.1,21.2-47.4,47.4-47.4s47.4,21.2,47.4,47.4C294.4,75,273.2,96.2,247.1,96.2L247.1,96.2z"/>
	</g>
</g>
<g>
	<g opacity="0.6">
		<g id="XMLID_1727_">
			<g id="XMLID_1728_">
				<path id="XMLID_1729_" fill="#181B48" d="M633,91.3c-22.3,0-40.4-18.1-40.4-40.4c0-22.3,18.1-40.4,40.4-40.4
					c22.3,0,40.4,18.1,40.4,40.4C673.4,73.2,655.3,91.3,633,91.3L633,91.3z M633,12.3c-21.3,0-38.6,17.3-38.6,38.6
					c0,21.3,17.3,38.6,38.6,38.6s38.6-17.3,38.6-38.6C671.6,29.7,654.3,12.3,633,12.3L633,12.3z"/>
			</g>
		</g>
	</g>
	<g id="XMLID_1725_" opacity="0.6">
		<path id="XMLID_1726_" fill="#181B48" d="M627.3,66c-0.2,0-0.4-0.1-0.6-0.2l-10.6-11.1c-0.3-0.3-0.3-0.8,0-1.1
			c0.3-0.3,0.8-0.3,1.1,0l10,10.5l22.8-27.8c0.3-0.3,0.8-0.4,1.1-0.1c0.3,0.3,0.4,0.8,0.1,1.1l-23.4,28.5
			C627.8,65.9,627.6,66,627.3,66C627.3,66,627.3,66,627.3,66L627.3,66z"/>
	</g>
</g>
<g>
	<g id="XMLID_1761_">
		<g id="XMLID_1762_">
			<path id="XMLID_1763_" fill="none" stroke="#181B48" stroke-width="0.9074" stroke-miterlimit="10" d="M633,98.4
				c-26.1,0-47.4-21.2-47.4-47.4c0-26.1,21.2-47.4,47.4-47.4c26.1,0,47.4,21.2,47.4,47.4C680.4,77.2,659.1,98.4,633,98.4L633,98.4z"
				/>
		</g>
	</g>
	<g id="XMLID_1755_">
		<g id="XMLID_1756_">
			<path fill="#181B48" d="M633,12.5c21.3,0,38.6,17.3,38.6,38.6c0,21.3-17.3,38.6-38.6,38.6c-21.3,0-38.6-17.3-38.6-38.6
				C594.4,29.8,611.7,12.5,633,12.5z"/>
			<path fill="#181B48" d="M594.4,51.1c0,21.3,17.3,38.6,38.6,38.6c21.3,0,38.6-17.3,38.6-38.6c0-21.3-17.3-38.6-38.6-38.6
				C611.7,12.5,594.4,29.8,594.4,51.1z M592.6,51.1c0-22.3,18.1-40.4,40.4-40.4c22.3,0,40.4,18.1,40.4,40.4
				c0,22.3-18.1,40.4-40.4,40.4C610.7,91.5,592.6,73.3,592.6,51.1z"/>
		</g>
	</g>
	<g id="XMLID_1753_">
		<path id="XMLID_1754_" fill="#FFFFFF" d="M627.3,66.2c-0.2,0-0.4-0.1-0.6-0.2l-10.6-11.1c-0.3-0.3-0.3-0.8,0-1.1
			c0.3-0.3,0.8-0.3,1.1,0l10,10.5l22.8-27.8c0.3-0.3,0.8-0.4,1.1-0.1c0.3,0.3,0.4,0.8,0.1,1.1l-23.4,28.5
			C627.8,66,627.6,66.2,627.3,66.2C627.3,66.2,627.3,66.2,627.3,66.2L627.3,66.2z"/>
	</g>
</g>
<line id="XMLID_1719_" opacity="0.6" fill="none" stroke="#181B48" stroke-width="0.9074" stroke-miterlimit="10" x1="105.1" y1="50.7" x2="199.4" y2="50.7"/>
<line id="XMLID_42_" opacity="0.6" fill="none" stroke="#181B48" stroke-width="0.9074" stroke-miterlimit="10" x1="294.1" y1="50.7" x2="388.5" y2="50.7"/>
<line id="XMLID_1519_" opacity="0.6" fill="none" stroke="#181B48" stroke-width="0.9074" stroke-miterlimit="10" x1="484" y1="50.7" x2="585.5" y2="50.7"/>
<g id="XMLID_1708_">
	<g id="XMLID_1709_">
		<path id="XMLID_1710_" fill="none" stroke="#181B48" stroke-width="0.9074" stroke-miterlimit="10" d="M57.8,96.8
			c-26.1,0-47.4-21.2-47.4-47.4c0-26.1,21.2-47.4,47.4-47.4s47.4,21.2,47.4,47.4C105.1,75.6,83.9,96.8,57.8,96.8L57.8,96.8z"/>
	</g>
</g>
<g>
	<g>
		<g id="XMLID_1704_">
			<g id="XMLID_1705_">
				<path id="XMLID_1706_" fill="#181B48" d="M57.8,89.6c-22.3,0-40.4-18.1-40.4-40.4C17.4,27,35.5,8.9,57.8,8.9S98.2,27,98.2,49.2
					C98.2,71.5,80,89.6,57.8,89.6L57.8,89.6z"/>
			</g>
		</g>
	</g>
	<g>
		<path fill="#FFFFFF" d="M72.6,30.6h-5.4h-0.5h-0.5c0-0.2-0.1-0.3-0.2-0.5c-0.1-0.2-0.2-0.3-0.3-0.4c-0.5-0.5-1.1-0.9-1.9-0.9H51.7
			c-0.8,0-1.5,0.4-1.9,0.9c-0.1,0.1-0.2,0.3-0.3,0.4c-0.1,0.1-0.1,0.3-0.2,0.4h-0.5h-0.5H43c-0.2,0-0.4,0.2-0.4,0.4v38.1
			c0,0.2,0.2,0.4,0.4,0.4h29.6c0.2,0,0.4-0.2,0.4-0.4V31.1C73,30.8,72.8,30.6,72.6,30.6z M51.7,29.7h12.1c0.4,0,0.8,0.2,1.1,0.4
			c0.1,0.1,0.2,0.2,0.3,0.4c0.1,0.2,0.2,0.5,0.2,0.8c0,0.2,0,0.3-0.1,0.5c0,0.2-0.1,0.3-0.2,0.4c-0.3,0.4-0.8,0.7-1.3,0.7H51.7
			c-0.6,0-1.1-0.3-1.4-0.8c-0.1-0.1-0.2-0.3-0.2-0.5c0-0.1,0-0.2,0-0.3c0-0.2,0-0.4,0.1-0.6c0.1-0.2,0.2-0.3,0.3-0.4
			C50.8,29.9,51.2,29.7,51.7,29.7z M72.1,68.8H43.4V31.5h5h0.5h0.5c0,0.2,0,0.3,0.1,0.5c0,0.2,0.1,0.3,0.2,0.4
			c0.4,0.8,1.2,1.3,2.2,1.3h12.1c0.9,0,1.8-0.5,2.2-1.3c0.1-0.1,0.1-0.3,0.2-0.5c0-0.1,0.1-0.3,0.1-0.5h0.5h0.5h5V68.8z"/>
		<path fill="#FFFFFF" d="M51.7,41.7h-2.1c-0.2,0-0.4,0.2-0.4,0.4v2.1c0,0.2,0.2,0.4,0.4,0.4h2.1c0.2,0,0.4-0.2,0.4-0.4V42
			C52,41.8,51.9,41.7,51.7,41.7z"/>
		<path fill="#FFFFFF" d="M66.8,42.6H55.3c-0.2,0-0.4,0.2-0.4,0.4s0.2,0.4,0.4,0.4h11.5c0.2,0,0.4-0.2,0.4-0.4S67,42.6,66.8,42.6z"
			/>
		<path fill="#FFFFFF" d="M51.7,54h-2.1c-0.2,0-0.4,0.2-0.4,0.4v2.1c0,0.2,0.2,0.4,0.4,0.4h2.1c0.2,0,0.4-0.2,0.4-0.4v-2.1
			C52,54.1,51.9,54,51.7,54z"/>
		<path fill="#FFFFFF" d="M66.8,54.9H55.3c-0.2,0-0.4,0.2-0.4,0.4s0.2,0.4,0.4,0.4h11.5c0.2,0,0.4-0.2,0.4-0.4S67,54.9,66.8,54.9z"
			/>
		<path fill="#FFFFFF" d="M51.7,47.8h-2.1c-0.2,0-0.4,0.2-0.4,0.4v2.1c0,0.2,0.2,0.4,0.4,0.4h2.1c0.2,0,0.4-0.2,0.4-0.4v-2.1
			C52,48,51.9,47.8,51.7,47.8z"/>
		<path fill="#FFFFFF" d="M66.8,48.8H55.3c-0.2,0-0.4,0.2-0.4,0.4s0.2,0.4,0.4,0.4h11.5c0.2,0,0.4-0.2,0.4-0.4S67,48.8,66.8,48.8z"
			/>
	</g>
</g>
<g>
	<path fill="#181B48" d="M2.6,107.4L2.6,107.4c0-2,1.5-3.6,3.5-3.6c1.2,0,2,0.5,2.7,1.1l-0.4,0.4c-0.6-0.6-1.3-1-2.4-1
		c-1.7,0-2.9,1.4-2.9,3.1v0c0,1.8,1.3,3.1,3,3.1c1,0,1.7-0.4,2.4-1.1l0.4,0.3C8.1,110.5,7.3,111,6,111C4,111,2.6,109.4,2.6,107.4z"
		/>
	<path fill="#181B48" d="M9.7,109.4L9.7,109.4c0-1.1,0.9-1.7,2.2-1.7c0.7,0,1.2,0.1,1.7,0.2v-0.2c0-1-0.6-1.6-1.7-1.6
		c-0.6,0-1.1,0.2-1.6,0.4l-0.2-0.4c0.6-0.3,1.1-0.4,1.8-0.4c0.7,0,1.2,0.2,1.6,0.6c0.3,0.3,0.5,0.8,0.5,1.4v3.2h-0.5V110
		c-0.3,0.5-1,1-1.9,1C10.7,111,9.7,110.5,9.7,109.4z M13.7,109v-0.6c-0.4-0.1-1-0.2-1.7-0.2c-1.1,0-1.7,0.5-1.7,1.2v0
		c0,0.7,0.7,1.2,1.5,1.2C12.8,110.5,13.7,109.9,13.7,109z"/>
	<path fill="#181B48" d="M16.1,109.6v-3.3h-0.7v-0.4h0.7v-1.6h0.5v1.6h1.8v0.4h-1.8v3.3c0,0.7,0.4,1,1,1c0.2,0,0.5-0.1,0.8-0.2v0.5
		c-0.3,0.1-0.5,0.2-0.8,0.2C16.7,111,16.1,110.5,16.1,109.6z"/>
	<path fill="#181B48" d="M19.3,108.3L19.3,108.3c0-1.5,1-2.7,2.4-2.7c1.4,0,2.3,1.2,2.3,2.7c0,0.1,0,0.1,0,0.2h-4.2c0.1,1.3,1,2,2,2
		c0.8,0,1.3-0.3,1.7-0.8l0.3,0.3c-0.5,0.6-1.1,1-2.1,1C20.5,111,19.3,109.9,19.3,108.3z M23.6,108.1c-0.1-1-0.7-2-1.8-2
		c-1,0-1.8,0.8-1.9,2H23.6z"/>
	<path fill="#181B48" d="M25.4,111.7l0.3-0.4c0.6,0.5,1.3,0.7,2.1,0.7c1.2,0,2-0.7,2-2v-0.7c-0.4,0.6-1.1,1.2-2.1,1.2
		c-1.2,0-2.4-0.9-2.4-2.4v0c0-1.5,1.2-2.4,2.4-2.4c1,0,1.7,0.5,2.1,1.1v-1h0.5v4.3c0,0.7-0.2,1.3-0.7,1.7c-0.4,0.4-1.1,0.7-1.8,0.7
		C26.9,112.5,26.1,112.2,25.4,111.7z M29.8,108.1L29.8,108.1c0-1.2-1-2-2.1-2c-1.1,0-2,0.7-2,1.9v0c0,1.1,0.9,1.9,2,1.9
		C28.8,110,29.8,109.2,29.8,108.1z"/>
	<path fill="#181B48" d="M31.8,108.3L31.8,108.3c0-1.4,1.1-2.7,2.6-2.7c1.5,0,2.6,1.2,2.6,2.6v0c0,1.4-1.1,2.7-2.6,2.7
		C32.9,111,31.8,109.8,31.8,108.3z M36.5,108.3L36.5,108.3c0-1.2-0.9-2.2-2.1-2.2c-1.2,0-2.1,1-2.1,2.2v0c0,1.2,0.9,2.2,2.1,2.2
		C35.6,110.5,36.5,109.5,36.5,108.3z"/>
	<path fill="#181B48" d="M38.5,105.8H39v1.4c0.4-0.9,1.2-1.6,2.3-1.5v0.5h-0.1c-1.2,0-2.2,0.9-2.2,2.5v2.1h-0.5V105.8z"/>
	<path fill="#181B48" d="M42.6,105.8h0.5v5.1h-0.5V105.8z M43.5,103.6l0.6,0.3l-1.1,1h-0.4L43.5,103.6z"/>
	<path fill="#181B48" d="M44.6,109.4L44.6,109.4c0-1.1,0.9-1.7,2.2-1.7c0.7,0,1.2,0.1,1.7,0.2v-0.2c0-1-0.6-1.6-1.7-1.6
		c-0.6,0-1.1,0.2-1.6,0.4l-0.2-0.4c0.6-0.3,1.1-0.4,1.8-0.4c0.7,0,1.2,0.2,1.6,0.6c0.3,0.3,0.5,0.8,0.5,1.4v3.2h-0.5V110
		c-0.3,0.5-1,1-1.9,1C45.6,111,44.6,110.5,44.6,109.4z M48.5,109v-0.6c-0.4-0.1-1-0.2-1.7-0.2c-1.1,0-1.7,0.5-1.7,1.2v0
		c0,0.7,0.7,1.2,1.5,1.2C47.6,110.5,48.5,109.9,48.5,109z"/>
	<path fill="#181B48" d="M53.4,108.3L53.4,108.3c0-1.7,1.2-2.7,2.5-2.7c1,0,1.7,0.6,2.1,1.2v-3.3h0.5v7.3H58v-1.1
		c-0.4,0.7-1.1,1.3-2.1,1.3C54.7,111,53.4,110,53.4,108.3z M58,108.3L58,108.3c0-1.3-1-2.2-2.1-2.2c-1.1,0-2,0.8-2,2.2v0
		c0,1.3,0.9,2.2,2,2.2C57,110.5,58,109.6,58,108.3z"/>
	<path fill="#181B48" d="M60,108.3L60,108.3c0-1.5,1-2.7,2.4-2.7c1.4,0,2.3,1.2,2.3,2.7c0,0.1,0,0.1,0,0.2h-4.2c0.1,1.3,1,2,2,2
		c0.8,0,1.3-0.3,1.7-0.8l0.3,0.3c-0.5,0.6-1.1,1-2.1,1C61.2,111,60,109.9,60,108.3z M64.2,108.1c-0.1-1-0.7-2-1.8-2
		c-1,0-1.8,0.8-1.9,2H64.2z"/>
	<path fill="#181B48" d="M69.2,105.8h0.5v1.1c0.4-0.7,1.1-1.3,2.1-1.3c1.2,0,2.5,1,2.5,2.6v0c0,1.7-1.2,2.7-2.5,2.7
		c-1,0-1.7-0.6-2.1-1.2v2.7h-0.5V105.8z M73.7,108.3L73.7,108.3c0-1.4-0.9-2.2-2-2.2c-1.1,0-2.1,0.9-2.1,2.2v0c0,1.3,1,2.2,2.1,2.2
		C72.8,110.5,73.7,109.7,73.7,108.3z"/>
	<path fill="#181B48" d="M75.8,105.8h0.5v1.4c0.4-0.9,1.2-1.6,2.3-1.5v0.5h-0.1c-1.2,0-2.2,0.9-2.2,2.5v2.1h-0.5V105.8z"/>
	<path fill="#181B48" d="M79.2,108.3L79.2,108.3c0-1.4,1.1-2.7,2.6-2.7c1.5,0,2.6,1.2,2.6,2.6v0c0,1.4-1.1,2.7-2.6,2.7
		C80.3,111,79.2,109.8,79.2,108.3z M83.9,108.3L83.9,108.3c0-1.2-0.9-2.2-2.1-2.2c-1.2,0-2.1,1-2.1,2.2v0c0,1.2,0.9,2.2,2.1,2.2
		C83,110.5,83.9,109.5,83.9,108.3z"/>
	<path fill="#181B48" d="M85.6,108.3L85.6,108.3c0-1.7,1.2-2.7,2.5-2.7c1,0,1.7,0.6,2.1,1.2v-3.3h0.5v7.3h-0.5v-1.1
		c-0.4,0.7-1.1,1.3-2.1,1.3C86.9,111,85.6,110,85.6,108.3z M90.2,108.3L90.2,108.3c0-1.3-1-2.2-2.1-2.2c-1.1,0-2,0.8-2,2.2v0
		c0,1.3,0.9,2.2,2,2.2C89.2,110.5,90.2,109.6,90.2,108.3z"/>
	<path fill="#181B48" d="M92.4,108.9v-3.1h0.5v3c0,1,0.6,1.7,1.6,1.7c1,0,1.8-0.8,1.8-1.8v-2.9h0.5v5.1h-0.5v-0.9
		c-0.3,0.6-0.9,1.1-1.8,1.1C93.2,111,92.4,110.1,92.4,108.9z"/>
	<path fill="#181B48" d="M98.3,108.3L98.3,108.3c0-1.4,1.1-2.7,2.6-2.7c1,0,1.6,0.4,2,0.9l-0.3,0.4c-0.4-0.4-0.9-0.8-1.7-0.8
		c-1.2,0-2.1,1-2.1,2.2v0c0,1.2,0.9,2.2,2.1,2.2c0.7,0,1.3-0.4,1.7-0.8l0.3,0.3c-0.5,0.6-1.1,1-2.1,1
		C99.5,111,98.3,109.8,98.3,108.3z"/>
	<path fill="#181B48" d="M104.7,109.6v-3.3h-0.7v-0.4h0.7v-1.6h0.5v1.6h1.8v0.4h-1.8v3.3c0,0.7,0.4,1,1,1c0.2,0,0.5-0.1,0.8-0.2v0.5
		c-0.3,0.1-0.5,0.2-0.8,0.2C105.3,111,104.7,110.5,104.7,109.6z"/>
	<path fill="#181B48" d="M107.9,108.3L107.9,108.3c0-1.4,1.1-2.7,2.6-2.7c1.5,0,2.6,1.2,2.6,2.6v0c0,1.4-1.1,2.7-2.6,2.7
		C109,111,107.9,109.8,107.9,108.3z M112.6,108.3L112.6,108.3c0-1.2-0.9-2.2-2.1-2.2c-1.2,0-2.1,1-2.1,2.2v0c0,1.2,0.9,2.2,2.1,2.2
		C111.7,110.5,112.6,109.5,112.6,108.3z"/>
</g>
<g>
	<path fill="#181B48" d="M185.8,103.9h0.5v7h-0.5V103.9z"/>
	<path fill="#181B48" d="M188.4,105.8h0.5v0.9c0.3-0.6,0.9-1.1,1.8-1.1c1.3,0,2,0.9,2,2.1v3.1h-0.5v-3c0-1-0.6-1.7-1.6-1.7
		c-1,0-1.8,0.8-1.8,1.8v2.9h-0.5V105.8z"/>
	<path fill="#181B48" d="M194.8,106.2h-0.7v-0.4h0.7v-0.5c0-0.6,0.2-1,0.4-1.3c0.3-0.3,0.6-0.4,1.1-0.4c0.3,0,0.5,0,0.8,0.1v0.5
		c-0.3-0.1-0.5-0.1-0.8-0.1c-0.7,0-1,0.4-1,1.3v0.5h1.8v0.4h-1.8v4.6h-0.5V106.2z"/>
	<path fill="#181B48" d="M197.7,108.3L197.7,108.3c0-1.4,1.1-2.7,2.6-2.7c1.5,0,2.6,1.2,2.6,2.6v0c0,1.4-1.1,2.7-2.6,2.7
		C198.8,111,197.7,109.8,197.7,108.3z M202.4,108.3L202.4,108.3c0-1.2-0.9-2.2-2.1-2.2c-1.2,0-2.1,1-2.1,2.2v0
		c0,1.2,0.9,2.2,2.1,2.2C201.5,110.5,202.4,109.5,202.4,108.3z"/>
	<path fill="#181B48" d="M204.4,105.8h0.5v1.4c0.4-0.9,1.2-1.6,2.3-1.5v0.5h0c-1.2,0-2.2,0.9-2.2,2.5v2.1h-0.5V105.8z"/>
	<path fill="#181B48" d="M208.4,105.8h0.5v0.9c0.3-0.5,0.8-1,1.7-1c0.9,0,1.4,0.5,1.7,1.1c0.3-0.6,0.9-1.1,1.8-1.1
		c1.2,0,2,0.8,2,2.1v3.1h-0.5v-3c0-1.1-0.6-1.7-1.5-1.7c-0.9,0-1.6,0.7-1.6,1.8v3H212v-3.1c0-1.1-0.6-1.7-1.5-1.7
		c-0.9,0-1.6,0.8-1.6,1.8v2.9h-0.5V105.8z"/>
	<path fill="#181B48" d="M217.5,109.4L217.5,109.4c0-1.1,0.9-1.7,2.2-1.7c0.7,0,1.2,0.1,1.7,0.2v-0.2c0-1-0.6-1.6-1.7-1.6
		c-0.6,0-1.1,0.2-1.6,0.4l-0.2-0.4c0.6-0.3,1.1-0.4,1.8-0.4c0.7,0,1.2,0.2,1.6,0.6c0.3,0.3,0.5,0.8,0.5,1.4v3.2h-0.5V110
		c-0.3,0.5-1,1-1.9,1C218.5,111,217.5,110.5,217.5,109.4z M221.4,109v-0.6c-0.4-0.1-1-0.2-1.7-0.2c-1.1,0-1.7,0.5-1.7,1.2v0
		c0,0.7,0.7,1.2,1.5,1.2C220.5,110.5,221.4,109.9,221.4,109z"/>
	<path fill="#181B48" d="M223.3,108.3L223.3,108.3c0-1.4,1.1-2.7,2.6-2.7c1,0,1.6,0.4,2,0.9l-0.3,0.4c-0.4-0.4-0.9-0.8-1.7-0.8
		c-1.2,0-2.1,1-2.1,2.2v0c0,1.2,0.9,2.2,2.1,2.2c0.7,0,1.3-0.4,1.7-0.8l0.3,0.3c-0.5,0.6-1.1,1-2.1,1
		C224.5,111,223.3,109.8,223.3,108.3z"/>
	<path fill="#181B48" d="M229.4,103.8h0.6v0.7h-0.6V103.8z M229.5,105.8h0.5v5.1h-0.5V105.8z"/>
	<path fill="#181B48" d="M231.5,108.3L231.5,108.3c0-1.4,1.1-2.7,2.6-2.7c1.5,0,2.6,1.2,2.6,2.6v0c0,1.4-1.1,2.7-2.6,2.7
		C232.6,111,231.5,109.8,231.5,108.3z M236.2,108.3L236.2,108.3c0-1.2-0.9-2.2-2.1-2.2c-1.2,0-2.1,1-2.1,2.2v0
		c0,1.2,0.9,2.2,2.1,2.2C235.4,110.5,236.2,109.5,236.2,108.3z M234.8,103.6l0.6,0.3l-1.1,1h-0.4L234.8,103.6z"/>
	<path fill="#181B48" d="M238.3,105.8h0.5v0.9c0.3-0.6,0.9-1.1,1.8-1.1c1.3,0,2,0.9,2,2.1v3.1h-0.5v-3c0-1-0.6-1.7-1.6-1.7
		c-1,0-1.8,0.8-1.8,1.8v2.9h-0.5V105.8z"/>
	<path fill="#181B48" d="M247.1,108.3L247.1,108.3c0-1.7,1.2-2.7,2.5-2.7c1,0,1.7,0.6,2.1,1.2v-3.3h0.5v7.3h-0.5v-1.1
		c-0.4,0.7-1.1,1.3-2.1,1.3C248.3,111,247.1,110,247.1,108.3z M251.7,108.3L251.7,108.3c0-1.3-1-2.2-2.1-2.2c-1.1,0-2,0.8-2,2.2v0
		c0,1.3,0.9,2.2,2,2.2C250.7,110.5,251.7,109.6,251.7,108.3z"/>
	<path fill="#181B48" d="M253.7,108.3L253.7,108.3c0-1.5,1-2.7,2.4-2.7c1.4,0,2.3,1.2,2.3,2.7c0,0.1,0,0.1,0,0.2h-4.2
		c0.1,1.3,1,2,2,2c0.8,0,1.3-0.3,1.7-0.8l0.3,0.3c-0.5,0.6-1.1,1-2.1,1C254.8,111,253.7,109.9,253.7,108.3z M257.9,108.1
		c-0.1-1-0.7-2-1.8-2c-1,0-1.8,0.8-1.9,2H257.9z"/>
	<path fill="#181B48" d="M259.9,103.6h0.5v7.3h-0.5V103.6z"/>
	<path fill="#181B48" d="M265.3,105.8h0.5v1.1c0.4-0.7,1.1-1.3,2.1-1.3c1.2,0,2.5,1,2.5,2.6v0c0,1.7-1.2,2.7-2.5,2.7
		c-1,0-1.7-0.6-2.1-1.2v2.7h-0.5V105.8z M269.9,108.3L269.9,108.3c0-1.4-0.9-2.2-2-2.2c-1.1,0-2.1,0.9-2.1,2.2v0
		c0,1.3,1,2.2,2.1,2.2C269,110.5,269.9,109.7,269.9,108.3z"/>
	<path fill="#181B48" d="M271.9,105.8h0.5v1.4c0.4-0.9,1.2-1.6,2.3-1.5v0.5h0c-1.2,0-2.2,0.9-2.2,2.5v2.1h-0.5V105.8z"/>
	<path fill="#181B48" d="M275.3,108.3L275.3,108.3c0-1.4,1.1-2.7,2.6-2.7c1.5,0,2.6,1.2,2.6,2.6v0c0,1.4-1.1,2.7-2.6,2.7
		C276.4,111,275.3,109.8,275.3,108.3z M280,108.3L280,108.3c0-1.2-0.9-2.2-2.1-2.2c-1.2,0-2.1,1-2.1,2.2v0c0,1.2,0.9,2.2,2.1,2.2
		C279.2,110.5,280,109.5,280,108.3z"/>
	<path fill="#181B48" d="M281.8,108.3L281.8,108.3c0-1.7,1.2-2.7,2.5-2.7c1,0,1.7,0.6,2.1,1.2v-3.3h0.5v7.3h-0.5v-1.1
		c-0.4,0.7-1.1,1.3-2.1,1.3C283,111,281.8,110,281.8,108.3z M286.4,108.3L286.4,108.3c0-1.3-1-2.2-2.1-2.2c-1.1,0-2,0.8-2,2.2v0
		c0,1.3,0.9,2.2,2,2.2C285.3,110.5,286.4,109.6,286.4,108.3z"/>
	<path fill="#181B48" d="M288.6,108.9v-3.1h0.5v3c0,1,0.6,1.7,1.6,1.7c1,0,1.8-0.8,1.8-1.8v-2.9h0.5v5.1h-0.5v-0.9
		c-0.3,0.6-0.9,1.1-1.8,1.1C289.3,111,288.6,110.1,288.6,108.9z"/>
	<path fill="#181B48" d="M294.5,108.3L294.5,108.3c0-1.4,1.1-2.7,2.6-2.7c1,0,1.6,0.4,2,0.9l-0.3,0.4c-0.4-0.4-0.9-0.8-1.7-0.8
		c-1.2,0-2.1,1-2.1,2.2v0c0,1.2,0.9,2.2,2.1,2.2c0.7,0,1.3-0.4,1.7-0.8l0.3,0.3c-0.5,0.6-1.1,1-2.1,1
		C295.6,111,294.5,109.8,294.5,108.3z"/>
	<path fill="#181B48" d="M300.8,109.6v-3.3h-0.7v-0.4h0.7v-1.6h0.5v1.6h1.8v0.4h-1.8v3.3c0,0.7,0.4,1,1,1c0.2,0,0.5-0.1,0.7-0.2v0.5
		c-0.3,0.1-0.5,0.2-0.8,0.2C301.4,111,300.8,110.5,300.8,109.6z"/>
	<path fill="#181B48" d="M304,108.3L304,108.3c0-1.4,1.1-2.7,2.6-2.7c1.5,0,2.6,1.2,2.6,2.6v0c0,1.4-1.1,2.7-2.6,2.7
		C305.1,111,304,109.8,304,108.3z M308.7,108.3L308.7,108.3c0-1.2-0.9-2.2-2.1-2.2c-1.2,0-2.1,1-2.1,2.2v0c0,1.2,0.9,2.2,2.1,2.2
		C307.9,110.5,308.7,109.5,308.7,108.3z"/>
</g>
<g>
	<path fill="#181B48" d="M376,103.9h5v0.5h-4.5v2.7h4v0.5h-4v2.8h4.5v0.5h-5V103.9z"/>
	<path fill="#181B48" d="M384.5,107.9l1.7-2.2h0.6l-2,2.5l2.1,2.6h-0.6l-1.8-2.3l-1.8,2.3h-0.6l2.1-2.6l-2-2.5h0.6L384.5,107.9z"/>
	<path fill="#181B48" d="M388.2,105.8h0.5v1.1c0.4-0.7,1.1-1.3,2.1-1.3c1.2,0,2.5,1,2.5,2.6v0c0,1.7-1.2,2.7-2.5,2.7
		c-1,0-1.7-0.6-2.1-1.2v2.7h-0.5V105.8z M392.8,108.3L392.8,108.3c0-1.4-0.9-2.2-2-2.2c-1.1,0-2.1,0.9-2.1,2.2v0
		c0,1.3,1,2.2,2.1,2.2C391.9,110.5,392.8,109.7,392.8,108.3z"/>
	<path fill="#181B48" d="M394.5,108.3L394.5,108.3c0-1.4,1.1-2.7,2.6-2.7c1.5,0,2.6,1.2,2.6,2.6v0c0,1.4-1.1,2.7-2.6,2.7
		C395.6,111,394.5,109.8,394.5,108.3z M399.2,108.3L399.2,108.3c0-1.2-0.9-2.2-2.1-2.2c-1.2,0-2.1,1-2.1,2.2v0
		c0,1.2,0.9,2.2,2.1,2.2C398.3,110.5,399.2,109.5,399.2,108.3z"/>
	<path fill="#181B48" d="M400.8,110.2l0.3-0.4c0.6,0.4,1.2,0.7,1.8,0.7c0.7,0,1.2-0.4,1.2-1v0c0-0.6-0.6-0.8-1.3-1
		c-0.8-0.2-1.7-0.5-1.7-1.4v0c0-0.8,0.7-1.4,1.7-1.4c0.6,0,1.3,0.2,1.8,0.6l-0.3,0.4c-0.5-0.3-1-0.5-1.6-0.5c-0.7,0-1.2,0.4-1.2,0.9
		v0c0,0.6,0.7,0.8,1.4,1c0.8,0.2,1.7,0.5,1.7,1.4v0c0,0.9-0.8,1.5-1.8,1.5C402.2,111,401.3,110.7,400.8,110.2z"/>
	<path fill="#181B48" d="M406.2,103.8h0.6v0.7h-0.6V103.8z M406.3,105.8h0.5v5.1h-0.5V105.8z"/>
	<path fill="#181B48" d="M408.4,108.3L408.4,108.3c0-1.4,1.1-2.7,2.6-2.7c1,0,1.6,0.4,2,0.9l-0.3,0.4c-0.4-0.4-0.9-0.8-1.7-0.8
		c-1.2,0-2.1,1-2.1,2.2v0c0,1.2,0.9,2.2,2.1,2.2c0.7,0,1.3-0.4,1.7-0.8l0.3,0.3c-0.5,0.6-1.1,1-2.1,1
		C409.5,111,408.4,109.8,408.4,108.3z"/>
	<path fill="#181B48" d="M414.4,103.8h0.6v0.7h-0.6V103.8z M414.5,105.8h0.5v5.1h-0.5V105.8z"/>
	<path fill="#181B48" d="M416.6,108.3L416.6,108.3c0-1.4,1.1-2.7,2.6-2.7c1.5,0,2.6,1.2,2.6,2.6v0c0,1.4-1.1,2.7-2.6,2.7
		C417.7,111,416.6,109.8,416.6,108.3z M421.3,108.3L421.3,108.3c0-1.2-0.9-2.2-2.1-2.2c-1.2,0-2.1,1-2.1,2.2v0
		c0,1.2,0.9,2.2,2.1,2.2C420.4,110.5,421.3,109.5,421.3,108.3z M419.8,103.6l0.6,0.3l-1.1,1H419L419.8,103.6z"/>
	<path fill="#181B48" d="M423.3,105.8h0.5v0.9c0.3-0.6,0.9-1.1,1.8-1.1c1.3,0,2,0.9,2,2.1v3.1h-0.5v-3c0-1-0.6-1.7-1.6-1.7
		c-1,0-1.8,0.8-1.8,1.8v2.9h-0.5V105.8z"/>
	<path fill="#181B48" d="M432.1,108.3L432.1,108.3c0-1.7,1.2-2.7,2.5-2.7c1,0,1.7,0.6,2.1,1.2v-3.3h0.5v7.3h-0.5v-1.1
		c-0.4,0.7-1.1,1.3-2.1,1.3C433.4,111,432.1,110,432.1,108.3z M436.7,108.3L436.7,108.3c0-1.3-1-2.2-2.1-2.2c-1.1,0-2,0.8-2,2.2v0
		c0,1.3,0.9,2.2,2,2.2C435.7,110.5,436.7,109.6,436.7,108.3z"/>
	<path fill="#181B48" d="M438.7,108.3L438.7,108.3c0-1.5,1-2.7,2.4-2.7c1.4,0,2.3,1.2,2.3,2.7c0,0.1,0,0.1,0,0.2h-4.2
		c0.1,1.3,1,2,2,2c0.8,0,1.3-0.3,1.7-0.8l0.3,0.3c-0.5,0.6-1.1,1-2.1,1C439.8,111,438.7,109.9,438.7,108.3z M442.9,108.1
		c-0.1-1-0.7-2-1.8-2c-1,0-1.8,0.8-1.9,2H442.9z"/>
	<path fill="#181B48" d="M444.9,103.6h0.5v7.3h-0.5V103.6z"/>
	<path fill="#181B48" d="M450.4,105.8h0.5v1.1c0.4-0.7,1.1-1.3,2.1-1.3c1.2,0,2.5,1,2.5,2.6v0c0,1.7-1.2,2.7-2.5,2.7
		c-1,0-1.7-0.6-2.1-1.2v2.7h-0.5V105.8z M454.9,108.3L454.9,108.3c0-1.4-0.9-2.2-2-2.2c-1.1,0-2.1,0.9-2.1,2.2v0
		c0,1.3,1,2.2,2.1,2.2C454,110.5,454.9,109.7,454.9,108.3z"/>
	<path fill="#181B48" d="M457,105.8h0.5v1.4c0.4-0.9,1.2-1.6,2.3-1.5v0.5h0c-1.2,0-2.2,0.9-2.2,2.5v2.1H457V105.8z"/>
	<path fill="#181B48" d="M460.4,108.3L460.4,108.3c0-1.4,1.1-2.7,2.6-2.7c1.5,0,2.6,1.2,2.6,2.6v0c0,1.4-1.1,2.7-2.6,2.7
		C461.5,111,460.4,109.8,460.4,108.3z M465.1,108.3L465.1,108.3c0-1.2-0.9-2.2-2.1-2.2c-1.2,0-2.1,1-2.1,2.2v0
		c0,1.2,0.9,2.2,2.1,2.2C464.2,110.5,465.1,109.5,465.1,108.3z"/>
	<path fill="#181B48" d="M466.8,108.3L466.8,108.3c0-1.7,1.2-2.7,2.5-2.7c1,0,1.7,0.6,2.1,1.2v-3.3h0.5v7.3h-0.5v-1.1
		c-0.4,0.7-1.1,1.3-2.1,1.3C468,111,466.8,110,466.8,108.3z M471.4,108.3L471.4,108.3c0-1.3-1-2.2-2.1-2.2c-1.1,0-2,0.8-2,2.2v0
		c0,1.3,0.9,2.2,2,2.2C470.4,110.5,471.4,109.6,471.4,108.3z"/>
	<path fill="#181B48" d="M473.6,108.9v-3.1h0.5v3c0,1,0.6,1.7,1.6,1.7c1,0,1.8-0.8,1.8-1.8v-2.9h0.5v5.1h-0.5v-0.9
		c-0.3,0.6-0.9,1.1-1.8,1.1C474.4,111,473.6,110.1,473.6,108.9z"/>
	<path fill="#181B48" d="M479.5,108.3L479.5,108.3c0-1.4,1.1-2.7,2.6-2.7c1,0,1.6,0.4,2,0.9l-0.3,0.4c-0.4-0.4-0.9-0.8-1.7-0.8
		c-1.2,0-2.1,1-2.1,2.2v0c0,1.2,0.9,2.2,2.1,2.2c0.7,0,1.3-0.4,1.7-0.8l0.3,0.3c-0.5,0.6-1.1,1-2.1,1
		C480.6,111,479.5,109.8,479.5,108.3z"/>
	<path fill="#181B48" d="M485.8,109.6v-3.3h-0.7v-0.4h0.7v-1.6h0.5v1.6h1.8v0.4h-1.8v3.3c0,0.7,0.4,1,1,1c0.2,0,0.5-0.1,0.7-0.2v0.5
		c-0.3,0.1-0.5,0.2-0.8,0.2C486.5,111,485.8,110.5,485.8,109.6z"/>
	<path fill="#181B48" d="M489.1,108.3L489.1,108.3c0-1.4,1.1-2.7,2.6-2.7c1.5,0,2.6,1.2,2.6,2.6v0c0,1.4-1.1,2.7-2.6,2.7
		C490.2,111,489.1,109.8,489.1,108.3z M493.8,108.3L493.8,108.3c0-1.2-0.9-2.2-2.1-2.2c-1.2,0-2.1,1-2.1,2.2v0
		c0,1.2,0.9,2.2,2.1,2.2C492.9,110.5,493.8,109.5,493.8,108.3z"/>
</g>
<g>
	<path fill="#181B48" d="M585.8,103.9h2.5c1.5,0,2.6,0.8,2.6,2.1v0c0,1.5-1.3,2.2-2.7,2.2h-1.9v2.6h-0.5V103.9z M588.2,107.8
		c1.3,0,2.2-0.7,2.2-1.7v0c0-1.1-0.9-1.7-2.1-1.7h-2v3.4H588.2z"/>
	<path fill="#181B48" d="M592.4,105.8h0.5v1.4c0.4-0.9,1.2-1.6,2.3-1.5v0.5h0c-1.2,0-2.2,0.9-2.2,2.5v2.1h-0.5V105.8z"/>
	<path fill="#181B48" d="M595.8,108.3L595.8,108.3c0-1.4,1.1-2.7,2.6-2.7c1.5,0,2.6,1.2,2.6,2.6v0c0,1.4-1.1,2.7-2.6,2.7
		C596.9,111,595.8,109.8,595.8,108.3z M600.5,108.3L600.5,108.3c0-1.2-0.9-2.2-2.1-2.2c-1.2,0-2.1,1-2.1,2.2v0
		c0,1.2,0.9,2.2,2.1,2.2C599.6,110.5,600.5,109.5,600.5,108.3z"/>
	<path fill="#181B48" d="M602.2,108.3L602.2,108.3c0-1.7,1.2-2.7,2.5-2.7c1,0,1.7,0.6,2.1,1.2v-3.3h0.5v7.3h-0.5v-1.1
		c-0.4,0.7-1.1,1.3-2.1,1.3C603.4,111,602.2,110,602.2,108.3z M606.8,108.3L606.8,108.3c0-1.3-1-2.2-2.1-2.2c-1.1,0-2,0.8-2,2.2v0
		c0,1.3,0.9,2.2,2,2.2C605.8,110.5,606.8,109.6,606.8,108.3z"/>
	<path fill="#181B48" d="M609,108.9v-3.1h0.5v3c0,1,0.6,1.7,1.6,1.7c1,0,1.8-0.8,1.8-1.8v-2.9h0.5v5.1h-0.5v-0.9
		c-0.3,0.6-0.9,1.1-1.8,1.1C609.8,111,609,110.1,609,108.9z"/>
	<path fill="#181B48" d="M614.9,108.3L614.9,108.3c0-1.4,1.1-2.7,2.6-2.7c1,0,1.6,0.4,2,0.9l-0.3,0.4c-0.4-0.4-0.9-0.8-1.7-0.8
		c-1.2,0-2.1,1-2.1,2.2v0c0,1.2,0.9,2.2,2.1,2.2c0.7,0,1.3-0.4,1.7-0.8l0.3,0.3c-0.5,0.6-1.1,1-2.1,1
		C616,111,614.9,109.8,614.9,108.3z"/>
	<path fill="#181B48" d="M621.2,109.6v-3.3h-0.7v-0.4h0.7v-1.6h0.5v1.6h1.8v0.4h-1.8v3.3c0,0.7,0.4,1,1,1c0.2,0,0.5-0.1,0.7-0.2v0.5
		c-0.3,0.1-0.5,0.2-0.8,0.2C621.9,111,621.2,110.5,621.2,109.6z"/>
	<path fill="#181B48" d="M624.5,108.3L624.5,108.3c0-1.4,1.1-2.7,2.6-2.7c1.5,0,2.6,1.2,2.6,2.6v0c0,1.4-1.1,2.7-2.6,2.7
		C625.6,111,624.5,109.8,624.5,108.3z M629.2,108.3L629.2,108.3c0-1.2-0.9-2.2-2.1-2.2c-1.2,0-2.1,1-2.1,2.2v0
		c0,1.2,0.9,2.2,2.1,2.2C628.3,110.5,629.2,109.5,629.2,108.3z"/>
	<path fill="#181B48" d="M634.2,105.8h0.5v1.1c0.4-0.7,1.1-1.3,2.1-1.3c1.2,0,2.5,1,2.5,2.6v0c0,1.7-1.2,2.7-2.5,2.7
		c-1,0-1.7-0.6-2.1-1.2v2.7h-0.5V105.8z M638.8,108.3L638.8,108.3c0-1.4-0.9-2.2-2-2.2c-1.1,0-2.1,0.9-2.1,2.2v0
		c0,1.3,1,2.2,2.1,2.2C637.9,110.5,638.8,109.7,638.8,108.3z"/>
	<path fill="#181B48" d="M640.7,108.9v-3.1h0.5v3c0,1,0.6,1.7,1.6,1.7c1,0,1.8-0.8,1.8-1.8v-2.9h0.5v5.1h-0.5v-0.9
		c-0.3,0.6-0.9,1.1-1.8,1.1C641.5,111,640.7,110.1,640.7,108.9z"/>
	<path fill="#181B48" d="M647.4,109.8v1.1h-0.5v-7.3h0.5v3.3c0.4-0.7,1.1-1.3,2.1-1.3c1.2,0,2.5,1,2.5,2.6v0c0,1.7-1.2,2.7-2.5,2.7
		C648.5,111,647.9,110.4,647.4,109.8z M651.5,108.3L651.5,108.3c0-1.4-0.9-2.2-2-2.2c-1.1,0-2.1,0.9-2.1,2.2v0c0,1.3,1,2.2,2.1,2.2
		C650.6,110.5,651.5,109.7,651.5,108.3z"/>
	<path fill="#181B48" d="M653.6,103.6h0.5v7.3h-0.5V103.6z"/>
	<path fill="#181B48" d="M656,103.8h0.6v0.7H656V103.8z M656.1,105.8h0.5v5.1h-0.5V105.8z"/>
	<path fill="#181B48" d="M658.2,108.3L658.2,108.3c0-1.4,1.1-2.7,2.6-2.7c1,0,1.6,0.4,2,0.9l-0.3,0.4c-0.4-0.4-0.9-0.8-1.7-0.8
		c-1.2,0-2.1,1-2.1,2.2v0c0,1.2,0.9,2.2,2.1,2.2c0.7,0,1.3-0.4,1.7-0.8l0.3,0.3c-0.5,0.6-1.1,1-2.1,1
		C659.3,111,658.2,109.8,658.2,108.3z"/>
	<path fill="#181B48" d="M663.8,109.4L663.8,109.4c0-1.1,0.9-1.7,2.2-1.7c0.7,0,1.2,0.1,1.7,0.2v-0.2c0-1-0.6-1.6-1.7-1.6
		c-0.6,0-1.1,0.2-1.6,0.4l-0.2-0.4c0.6-0.3,1.1-0.4,1.8-0.4c0.7,0,1.2,0.2,1.6,0.6c0.3,0.3,0.5,0.8,0.5,1.4v3.2h-0.5V110
		c-0.3,0.5-1,1-1.9,1C664.8,111,663.8,110.5,663.8,109.4z M667.7,109v-0.6c-0.4-0.1-1-0.2-1.7-0.2c-1.1,0-1.7,0.5-1.7,1.2v0
		c0,0.7,0.7,1.2,1.5,1.2C666.9,110.5,667.7,109.9,667.7,109z"/>
	<path fill="#181B48" d="M669.6,108.3L669.6,108.3c0-1.7,1.2-2.7,2.5-2.7c1,0,1.7,0.6,2.1,1.2v-3.3h0.5v7.3h-0.5v-1.1
		c-0.4,0.7-1.1,1.3-2.1,1.3C670.9,111,669.6,110,669.6,108.3z M674.3,108.3L674.3,108.3c0-1.3-1-2.2-2.1-2.2c-1.1,0-2,0.8-2,2.2v0
		c0,1.3,0.9,2.2,2,2.2C673.2,110.5,674.3,109.6,674.3,108.3z"/>
	<path fill="#181B48" d="M676.2,108.3L676.2,108.3c0-1.4,1.1-2.7,2.6-2.7c1.5,0,2.6,1.2,2.6,2.6v0c0,1.4-1.1,2.7-2.6,2.7
		C677.3,111,676.2,109.8,676.2,108.3z M680.9,108.3L680.9,108.3c0-1.2-0.9-2.2-2.1-2.2c-1.2,0-2.1,1-2.1,2.2v0
		c0,1.2,0.9,2.2,2.1,2.2C680.1,110.5,680.9,109.5,680.9,108.3z"/>
</g>
</svg>
