<?xml version="1.0" encoding="utf-8"?>
<!-- Generator: Adobe Illustrator 18.0.0, SVG Export Plug-In . SVG Version: 6.00 Build 0)  -->
<!DOCTYPE svg PUBLIC "-//W3C//DTD SVG 1.1//EN" "http://www.w3.org/Graphics/SVG/1.1/DTD/svg11.dtd">
<svg version="1.1" xmlns="http://www.w3.org/2000/svg" xmlns:xlink="http://www.w3.org/1999/xlink" x="0px" y="0px"
	 viewBox="0 0 73 73" enable-background="new 0 0 73 73" xml:space="preserve">
<g id="Layer_1">
	<path fill="#181B48" d="M61.7,64.8c-0.5-2.2-1.2-5.9-2.5-12.7c-0.9-4.4-4.8-5.3-5.3-5.4L52,46.1l0.3,0.2L42.9,44v-0.7h8.5
		c1.6,0,2.9-1.3,2.9-2.9l0-15.9c0.1-0.6,0.1-1.2,0-1.7l0-5.9c0-0.5-0.4-0.9-0.9-0.9s-0.9,0.4-0.9,0.9v3.3l-0.2-0.1
		c-0.6-0.3-1.2-0.6-1.8-0.7l-0.1,0l0-0.1c-0.2-1.1-1.1-1.9-2.2-2c-1.3-0.2-2.2-0.9-2.8-2.2c-0.3-0.5-0.8-0.9-1.3-0.9
		c-0.6-0.1-1.1,0.2-1.5,0.7c-1.8,2.4-6.9,8.1-15.7,8.1c-0.6,0-1,0-1.2,0l-0.1,0c-0.7,0-1.4,0.2-2,0.7c-0.5,0.5-0.8,1.2-0.8,1.9v2.4
		c0,3.8,1.6,7.6,4.4,10.2c0.9,0.9,1.9,1.6,3,2.2l0.1,0v1.1h-8.4c-0.6,0-1.2-0.5-1.2-1.2V16.6c0-7.8,6.3-14.2,14-14.2
		c2.8,0,6,0.8,8.1,2c0.9,0.5,1.5,0.4,2.3,0.3c0.4-0.1,0.7-0.1,1.2-0.1c3.3,0,6,3.4,6.4,6.5c0,0.1,0,0.2,0,0.9c0,0.5,0.4,0.8,0.8,0.9
		h0.1c0.2,0,0.5-0.1,0.6-0.3c0.2-0.2,0.3-0.4,0.3-0.6v-0.1c0-0.4,0-0.9,0-1c-0.4-3.9-3.8-8.1-8.1-8.1c-0.8,0-1.2,0.1-1.6,0.2
		c-0.4,0.1-0.7,0.1-1-0.1c-2.4-1.3-5.9-2.2-8.9-2.2c0,0,0,0,0,0c-4.2,0-8.1,1.6-11.1,4.6c-3.1,3-4.8,7.1-4.8,11.4v23.7
		c0,1.6,1.3,2.9,2.9,2.9h8.4V44l-11.8,3c-1.4,0.5-3.8,1.9-4.5,5.2L11.3,65c-0.5,2.3-0.5,2.6-0.5,2.7c-0.2,1.4,0.1,2.6,0.8,3.5
		c0.7,0.8,1.9,1.3,3.3,1.3h11.4c0.5,0,0.9-0.4,0.9-0.9s-0.4-0.9-0.9-0.9h-4.1V60.5c0-0.5-0.4-0.9-0.9-0.9s-0.9,0.4-0.9,0.9v10.1
		h-5.5c-1,0-2.4-0.2-2.4-2.1c0-0.4,0-0.4,0.6-3.3c0.4-2.1,1.2-5.9,2.5-12.8c0.5-2.5,2.3-3.5,3.3-3.9l0.8-0.2l6.3-1.6l0.1,0.1
		c2.7,3.2,4.3,5,5.2,6.2c1.4,1.7,1.4,1.7,1.7,1.9c1.1,1.1,2.5,1.6,3.8,1.6c1.4-0.1,2.7-0.8,3.8-2l6.6-7.7l6.4,1.6
		c2.7,0.8,3.6,2.6,3.9,4c1.3,6.7,2.1,10.5,2.5,12.7c0.6,2.9,0.6,2.9,0.6,3.3c0,1.4-0.8,2.1-2.4,2.1h-5.5V60.5c0-0.5-0.4-0.9-0.9-0.9
		c-0.5,0-0.9,0.4-0.9,0.9v10.1H31.2c-0.5,0-0.9,0.4-0.9,0.9s0.4,0.9,0.9,0.9h26.9c2.6,0,4.2-1.4,4.2-3.9
		C62.3,67.9,62.3,67.8,61.7,64.8z M41.6,50.5l-2.5,2.9c-0.7,0.9-1.7,1.4-2.6,1.4c-1,0-1.9-0.5-2.6-1.4l-2.4-2.9H41.6z M31.9,44.6
		l0-3.5l0.2,0.1c2.9,1,5.9,1,8.7,0l0.2-0.1l0,0.2c0,1.2,0,2,0,2.5l0,0.1c0,0.8,0,0.8,0,1c0.1,0.3,0.3,0.5,0.6,0.6l3.4,0.8l-2,2.4
		H29.9l-2-2.4l3.4-0.8C31.6,45.4,31.9,45.1,31.9,44.6z M24.5,27.9c0-0.8,0-1.4,0-1.8c0-0.8,0-1,0.3-1.3c0.2-0.2,0.4-0.2,0.6-0.2
		c7.2,0.4,13.8-2.6,18.3-8.4l0.1-0.2l0.1,0.2c1.1,2,2.8,2.6,4,2.8c0.4,0.1,0.7,0.4,0.7,0.8v8.3c0,4.9-2.8,9.1-7.3,11
		c-1.6,0.7-3.2,1-4.8,1c-3,0-5.9-1.2-8.2-3.3h0C25.9,34.5,24.5,31.3,24.5,27.9z M52.5,24.3c-0.3,0.7-1,1.4-1.9,1.6L50.4,26v-4.8
		l0.2,0.1c0.9,0.3,1.7,0.9,1.9,1.6l0,0.1L52.5,24.3z M50.4,28.1v-0.3l0.1,0c0.6-0.1,1.2-0.3,1.8-0.7l0.2-0.1v13.4
		c0,0.6-0.5,1.2-1.2,1.2h-8.5v-1.1l0.1,0C47.5,38,50.4,33.3,50.4,28.1z"/>
</g>
<g id="Layer_2" display="none">
</g>
<g id="Layer_3" display="none">
</g>
</svg>
