<?xml version="1.0" encoding="utf-8"?>
<!-- Generator: Adobe Illustrator 18.0.0, SVG Export Plug-In . SVG Version: 6.00 Build 0)  -->
<!DOCTYPE svg PUBLIC "-//W3C//DTD SVG 1.1//EN" "http://www.w3.org/Graphics/SVG/1.1/DTD/svg11.dtd">
<svg version="1.1" xmlns="http://www.w3.org/2000/svg" xmlns:xlink="http://www.w3.org/1999/xlink" x="0px" y="0px"
	 viewBox="0 0 125 125" enable-background="new 0 0 125 125" xml:space="preserve">
<g id="Layer_1">
	<g id="XMLID_921_">
		<g>
			<path fill="#181B48" d="M112.2,75.1l-7-43.1c-0.4-2.7-1.9-5.2-4.1-6.7c-1.9-1.3-4.2-1.8-6.4-1.4L20.2,38.2c-5,1-8.3,6.2-7.4,11.6
				l0.9,5.5l6.1,37.6c0.8,4.8,4.5,8.3,8.9,8.3c0.5,0,1.1,0,1.6-0.1l74.6-14.3C109.8,85.7,113.1,80.6,112.2,75.1L112.2,75.1z
				 M14.9,49.4c-0.7-4,1.9-7.9,5.6-8.6L95,26.5c0.4-0.1,0.8-0.1,1.2-0.1c3.4,0,6.3,2.6,6.9,6.2l0.7,4L15.6,53.5L14.9,49.4z
				 M109,81.1c-1.1,1.6-2.7,2.7-4.5,3.1L30,98.5c-0.4,0.1-0.8,0.1-1.3,0.1c-1.3,0-2.6-0.4-3.7-1.2c-1.6-1.1-2.7-2.9-3.1-5L16,56
				l88.2-16.9l5.9,36.5C110.4,77.6,110,79.5,109,81.1z"/>
		</g>
		<g>
			<path fill="#181B48" d="M44.2,68.8c-0.2-0.1-0.3-0.2-0.5-0.2c-0.1,0-0.1,0-0.2,0l0,0l-11.3,2.2c-0.6,0.1-1,0.8-0.9,1.5l2,12.3
				c0.1,0.6,0.6,1,1.1,1c0,0,0.1,0,0.1,0l11.3-2.2c0.6-0.1,1-0.8,0.9-1.5l-2-12.3C44.6,69.3,44.4,69,44.2,68.8z M35.2,82.9l-1.6-9.7
				l9.2-1.8l1.6,9.7L35.2,82.9z"/>
		</g>
	</g>
</g>
<g id="Layer_2">
</g>
<g id="Layer_3">
</g>
</svg>
