<?xml version="1.0" encoding="utf-8"?>
<!-- Generator: Adobe Illustrator 18.0.0, SVG Export Plug-In . SVG Version: 6.00 Build 0)  -->
<!DOCTYPE svg PUBLIC "-//W3C//DTD SVG 1.1//EN" "http://www.w3.org/Graphics/SVG/1.1/DTD/svg11.dtd">
<svg version="1.1" xmlns="http://www.w3.org/2000/svg" xmlns:xlink="http://www.w3.org/1999/xlink" x="0px" y="0px"
	 viewBox="0 0 125 125" enable-background="new 0 0 125 125" xml:space="preserve">
<g id="Layer_1">
	<path fill="#181B48" d="M111.6,33.1c-0.9-0.2-1.8,0.4-2,1.3c0,0,0,0,0,0l-6.5,28.1c-1.9,8.4-9.4,14.4-18,14.3h-52l-5.7-49.7
		c-0.5-4.2-4.1-7.4-8.3-7.4h-5.3c-0.9,0-1.7,0.8-1.7,1.7s0.8,1.7,1.7,1.7H19c2.6,0,4.7,1.9,5,4.5l7.5,65.4c0.5,3.9,3.6,7,7.5,7.4
		c0.9,5.5,6.1,9.2,11.6,8.3c4.2-0.7,7.6-4,8.3-8.2h17.1c0.9,5.5,6.1,9.2,11.6,8.3s9.2-6.1,8.3-11.6c-0.9-5.5-6.1-9.2-11.6-8.3
		c-4.2,0.7-7.5,4-8.3,8.3H59c-0.9-5.5-6.1-9.2-11.6-8.2c-4.2,0.7-7.5,4-8.2,8.2c-2.2-0.3-4-2.1-4.2-4.4l-1.4-12.3h51.6
		c10.2,0,19-7,21.3-16.9l6.5-28.1C113.1,34.3,112.5,33.4,111.6,33.1L111.6,33.1z M86,91.9c3.7,0,6.7,3,6.7,6.7c0,3.7-3,6.7-6.7,6.7
		c-3.7,0-6.7-3-6.7-6.7C79.3,94.9,82.3,91.9,86,91.9z M49.1,91.9c3.7,0,6.7,3,6.7,6.7c0,3.7-3,6.7-6.7,6.7s-6.7-3-6.7-6.7
		C42.3,94.9,45.4,91.9,49.1,91.9z"/>
	<path fill="#181B48" d="M46.9,38.7c0.4,0,0.9-0.2,1.2-0.5L64.2,22v46.3c0,0.9,0.8,1.7,1.7,1.7c0.9,0,1.7-0.8,1.7-1.7V22l16.1,16.1
		c0.7,0.7,1.7,0.7,2.4,0s0.7-1.7,0-2.4l-19-19c-0.7-0.7-1.7-0.7-2.4,0c0,0,0,0,0,0l-19,19c-0.7,0.7-0.7,1.7,0,2.4
		C46,38.5,46.4,38.7,46.9,38.7z"/>
</g>
<g id="Layer_2">
</g>
<g id="Layer_3">
</g>
</svg>
