<?xml version="1.0" encoding="utf-8"?>
<!-- Generator: Adobe Illustrator 18.0.0, SVG Export Plug-In . SVG Version: 6.00 Build 0)  -->
<!DOCTYPE svg PUBLIC "-//W3C//DTD SVG 1.1//EN" "http://www.w3.org/Graphics/SVG/1.1/DTD/svg11.dtd">
<svg version="1.1" xmlns="http://www.w3.org/2000/svg" xmlns:xlink="http://www.w3.org/1999/xlink" x="0px" y="0px"
	 viewBox="0 0 125 125" enable-background="new 0 0 125 125" xml:space="preserve">
<g id="Layer_1">
	<path id="XMLID_5_" fill="#181B48" d="M96.4,11.7H77.7l-0.3-0.5c-2.9-5.7-8.6-9.3-14.9-9.3c-6.3,0-12.1,3.6-14.9,9.3l-0.3,0.6H28.6
		c-1.8,0-3.2,1.4-3.2,3.1c0,1.7,1.4,3.1,3.2,3.1h17.1l0,0.9c0,0.8,0.1,1.7,0.2,2.6l0.2,0.9l-0.9,0.2c-7.5,1.5-13,8.2-13,16v48.2
		c0,8.8,7.2,16.2,16,16.3l0.9,0v7.7c0,6.9,5.5,12.4,12.5,12.4h1.4c7,0,12.7-5.5,12.7-12.4v-7.7l0.9,0c8.8-0.2,16-7.5,16-16.3V38.5
		c0-7.7-5.5-14.4-13.1-16l-0.9-0.2l0.2-0.9c0.1-0.9,0.2-1.7,0.2-2.6l0-0.9h17.1c1.8,0,3.2-1.4,3.2-3.1
		C99.5,13.1,98.1,11.7,96.4,11.7z M60.8,7.7c7.1-1.2,13.1,4.9,12,12c-0.7,4.3-4.2,7.8-8.4,8.5c-7.1,1.2-13.2-4.9-12-12
		C53,11.9,56.5,8.4,60.8,7.7z M69.6,109.9c0,3.5-2.8,6.3-6.3,6.3h-1.5c-3.5,0-6.3-2.8-6.3-6.3V88c0-3.5,2.8-6.3,6.3-6.3h1.5
		c3.5,0,6.3,2.8,6.3,6.3V109.9z M86.6,37.8v48.2c0,5.4-4.2,9.8-9.7,9.9l-1,0v-7.7c0-7-5.8-12.9-12.7-12.9h-1.4
		c-6.9,0-12.5,5.8-12.5,12.9V96l-1,0c-5.4-0.2-9.7-4.5-9.7-9.9V37.8c0-5.4,4.4-9.7,9.9-9.7H49l0.3,0.2l0,0c3.1,4,7.9,6.3,13.2,6.3
		c5.2,0,10-2.3,13.2-6.4l0.3-0.3l0.6,0C82.1,27.9,86.6,32.3,86.6,37.8z"/>
</g>
<g id="Layer_2">
</g>
<g id="Layer_3">
</g>
</svg>
