<?xml version="1.0" encoding="utf-8"?>
<!-- Generator: Adobe Illustrator 18.0.0, SVG Export Plug-In . SVG Version: 6.00 Build 0)  -->
<!DOCTYPE svg PUBLIC "-//W3C//DTD SVG 1.1//EN" "http://www.w3.org/Graphics/SVG/1.1/DTD/svg11.dtd">
<svg version="1.1" xmlns="http://www.w3.org/2000/svg" xmlns:xlink="http://www.w3.org/1999/xlink" x="0px" y="0px"
	 viewBox="0 0 125 125" enable-background="new 0 0 125 125" xml:space="preserve">
<g id="Layer_1">
	<g>
		<g>
			<path fill="#181B48" d="M62.5,27.2c-0.8,0-1.5,0.7-1.5,1.5v4.8l-7.7,2.6L38.7,39c-0.2,0-0.3,0.1-0.5,0.2L22,49.5
				c-0.7,0.4-0.9,1.3-0.5,2l10.3,16.2c0.2,0.4,0.6,0.6,1,0.7c0.4,0.1,0.9-0.1,1.2-0.4l3.4-3.1v40.3c0,0.8,0.7,1.5,1.5,1.5H86
				c0.8,0,1.5-0.7,1.5-1.5V65.2L91,68c0.3,0.3,0.7,0.4,1.1,0.3c0.4-0.1,0.8-0.3,1-0.6L103.4,53c0.5-0.7,0.3-1.6-0.3-2L86.9,39.3
				c-0.2-0.1-0.4-0.2-0.6-0.3l-14.6-2.9L64,33.5v-3.6c3-0.8,4.8-3.7,4.3-6.7c-0.5-3-3.3-5.1-6.3-4.9c-3,0.3-5.4,2.8-5.4,5.9
				c0,0.8,0.7,1.5,1.5,1.5s1.5-0.7,1.5-1.5c0-1.6,1.3-2.9,2.9-2.9c1.6,0,2.9,1.3,2.9,2.9C65.4,25.9,64.1,27.2,62.5,27.2L62.5,27.2z
				 M62.5,36.1l7.3,2.4c-0.5,3.6-3.6,6.3-7.3,6.3c-3.7,0-6.8-2.7-7.3-6.3L62.5,36.1z M100.2,52.5l-8.6,12.2L87,61
				c-0.4-0.4-1-0.4-1.6-0.2c-0.5,0.2-0.8,0.8-0.8,1.3v41.6H40.4V61.6c0-0.6-0.3-1.1-0.9-1.3C39,60,38.4,60.1,38,60.5l-4.6,4.2
				l-8.6-13.5l14.7-9.4l12.8-2.6c0.9,4.9,5.1,8.5,10.1,8.5c5,0,9.3-3.6,10.1-8.5l12.8,2.6L100.2,52.5z M100.2,52.5"/>
		</g>
	</g>
</g>
<g id="Layer_2">
</g>
<g id="Layer_3">
</g>
</svg>
