<?xml version="1.0" encoding="utf-8"?>
<!-- Generator: Adobe Illustrator 18.0.0, SVG Export Plug-In . SVG Version: 6.00 Build 0)  -->
<!DOCTYPE svg PUBLIC "-//W3C//DTD SVG 1.1//EN" "http://www.w3.org/Graphics/SVG/1.1/DTD/svg11.dtd">
<svg version="1.1" xmlns="http://www.w3.org/2000/svg" xmlns:xlink="http://www.w3.org/1999/xlink" x="0px" y="0px"
	 viewBox="0 0 125 125" enable-background="new 0 0 125 125" xml:space="preserve">
<g id="Layer_1">
	<g id="XMLID_3_">
		<g id="XMLID_809_">
			<path id="XMLID_811_" fill="#181B48" d="M25.7,106.7c-1.5,0-2.7-1.2-2.7-2.7c-0.1-0.8-0.1-1.7,0-2.4l4.5-57.1
				c0.3-3.4,3.1-6,6.5-6h9.5v-1c0-10.5,8.5-19,19-19l0.2,0c10.4,0.1,18.8,8.7,18.8,19.3v0.7h9.5c3.4,0,6.2,2.6,6.5,6l4.5,57.1v2.5
				c0,1.5-1.2,2.7-2.7,2.7H25.7z M34,43.1c-0.9,0-1.7,0.7-1.7,1.6L27.7,102h69.7l-4.5-57.3c-0.1-0.9-0.8-1.6-1.7-1.6h-9.5V51
				c0,1.3-1.1,2.4-2.4,2.4s-2.4-1.1-2.4-2.4v-7.9H48.3V51c0,1.3-1.1,2.4-2.4,2.4s-2.4-1.1-2.4-2.4v-7.9H34z M62.5,23.1
				c-7.9,0-14.2,6.4-14.2,14.2v1h28.5v-1C76.8,29.5,70.4,23.1,62.5,23.1z"/>
		</g>
	</g>
</g>
<g id="Layer_2">
</g>
<g id="Layer_3">
</g>
</svg>
