<?xml version="1.0" encoding="utf-8"?>
<!-- Generator: Adobe Illustrator 18.0.0, SVG Export Plug-In . SVG Version: 6.00 Build 0)  -->
<!DOCTYPE svg PUBLIC "-//W3C//DTD SVG 1.1//EN" "http://www.w3.org/Graphics/SVG/1.1/DTD/svg11.dtd">
<svg version="1.1" xmlns="http://www.w3.org/2000/svg" xmlns:xlink="http://www.w3.org/1999/xlink" x="0px" y="0px"
	 viewBox="0 0 125 125" enable-background="new 0 0 125 125" xml:space="preserve">
<g id="Layer_1">
	<g>
		<path fill="#181B48" d="M60,82.5h5v6.4h-5V82.5z M60.3,41.4v-5.3h4.4v5.3l-1.1,33.7h-2.1L60.3,41.4z"/>
	</g>
	<g>
		<path fill="#181B48" d="M62.5,110.8c-26.6,0-48.3-21.7-48.3-48.3c0-26.6,21.7-48.3,48.3-48.3s48.3,21.7,48.3,48.3
			C110.8,89.1,89.1,110.8,62.5,110.8z M62.5,16.8c-25.2,0-45.7,20.5-45.7,45.7s20.5,45.7,45.7,45.7s45.7-20.5,45.7-45.7
			S87.7,16.8,62.5,16.8z"/>
	</g>
</g>
<g id="Layer_2">
</g>
<g id="Layer_3">
</g>
</svg>
