<?xml version="1.0" encoding="utf-8"?>
<!-- Generator: Adobe Illustrator 18.0.0, SVG Export Plug-In . SVG Version: 6.00 Build 0)  -->
<!DOCTYPE svg PUBLIC "-//W3C//DTD SVG 1.1//EN" "http://www.w3.org/Graphics/SVG/1.1/DTD/svg11.dtd">
<svg version="1.1" id="Layer_1" xmlns="http://www.w3.org/2000/svg" xmlns:xlink="http://www.w3.org/1999/xlink" x="0px" y="0px"
	 viewBox="0 0 75 75" enable-background="new 0 0 75 75" xml:space="preserve">
<path fill="#FFFFFF" d="M73.9,15.5c0-0.1,0-0.2-0.1-0.3c-0.1-0.5-0.2-1-0.6-1.4c-0.1-0.2-0.3-0.3-0.7-0.3c0,0,0,0,0,0
	c-1.7,0-3.3,0-5,0c0,0,0,0,0,0c-0.2,0-0.4-0.1-0.5-0.2c-1.4-1.3-3-2.2-4.7-2.6c-0.2-0.1-0.3-0.2-0.4-0.5c-0.2-1.1-0.6-2.2-1.3-3.2
	c-0.5-0.8-1.3-1.3-2-1.4c-0.8-0.1-1.6,0.3-2.3,1c-0.1,0.1-0.2,0.3-0.3,0.4l0,0l0,0c-0.2-0.1-0.3-0.2-0.5-0.3
	c-1.5-0.7-2.6-0.5-3.5,0.8c-0.5,0.6-0.7,1.4-0.8,2.2c-0.1,1-0.1,2.1-0.2,3.1c0,0.6-0.1,1.2-0.1,1.8c0,0.2,0,0.3-0.1,0.4
	c-1.3,2.3-2.6,4.5-3.9,6.8c-0.1,0.1-0.2,0.3-0.3,0.3c-1.9,0.8-3.7,1.5-5.6,2.3c-0.1,0.1-0.3,0.1-0.5,0.1c-1.7,0-3.3,0-5,0l-2.6,0
	c-2.2,0-4.5,0-6.7,0.4c-2.1,0.4-4.2,0.8-6.2,1.2l-1.4,0.3c-0.2,0-0.2,0-0.4-0.1L18,26c-0.4-0.4-0.9-0.8-1.3-1.2
	c-1.3-0.9-3-0.8-4.1,0.2c-0.4,0.4-0.7,0.9-0.9,1.3l-0.1,0.1c-0.2,0.4-0.3,0.9-0.1,1.5c0.2,0.8,0.7,1.7,1.3,2.5
	c0.2,0.2,0.4,0.5,0.5,0.7l-0.5,0.9c-0.4,0.8-0.8,1.6-1.2,2.3c-0.8,1.6-1.2,3.3-1.2,5.2c0,1.5,0,3.1-0.1,4.9c0,0.4-0.1,0.8-0.3,1.2
	c-0.4,0.9-1.1,1.6-2.1,2.2c-1.5,0.8-3.3,1.4-5.4,1.8c-0.6,0.1-1.2,0.6-1.2,1.2c0,0.3-0.1,0.6-0.1,0.9l0,0.4l0,12.7l0,0.2
	c0,0.1,0,0.2,0,0.3c0,0.3,0,0.6,0,0.8c0,0.5,0,1,0,1.5c0.1,1,0.2,1.1,1.2,1.2c2.5,0.1,4.7,0.1,6.8,0.1c0.5,0,1-0.1,1.7-0.1
	c0.6-0.1,0.9-0.4,1-0.9c0.2-2-0.4-3.5-1.7-4.5c-0.8-0.6-1.8-0.9-2.6-1.1c-0.3-0.1-0.3-0.1-0.2-0.3l0-0.2c0.1-0.5,0.1-0.9,0.2-1.4
	c0.6-2.4,1.9-4,3.7-4.9c0.8-0.4,1.7-0.7,2.9-1.1c0.7-0.2,1.4-0.4,2.1-0.6c0.9-0.3,1.9-0.5,2.8-0.9c3.7-1.3,6.3-3.4,8.1-6.3
	c0.3-0.6,0.6-0.6,1.3-0.5c1.5,0.2,3,0.5,4.5,0.7c1.3,0.2,2.5,0.4,3.8,0.6c1.5,0.2,3,0.5,4.5,0.7c0.9,0.2,1.8,0.3,2.7,0.5
	c0.2,0,0.2,0.1,0.3,0.2c0.7,4.1,1.4,8.2,2.1,12.2l0.2,1.1c0.3,1.8,0.6,3.7,1,5.5c0.3,1.3,0.4,1.5,1.8,1.5c1.9,0,3.8,0,5.6,0l1.4,0
	c0,0,0,0,0,0c0.2,0,0.4,0,0.5-0.1c0.4-0.4,0.9-0.9,0.8-1.9c-0.3-2.2-1.6-3.8-3.8-4.6c-0.3-0.1-0.5-0.2-0.8-0.3l-0.2-0.1l0.2-2
	c0.2-1.5,0.3-3,0.4-4.5c0.3-2.7,0.5-5.4,0.7-8.2c0-0.2,0.1-0.2,0.2-0.4l0.4-0.4c0.9-0.7,1.8-1.4,2.6-2.2c2.3-2.1,3.7-4.6,4-7.6
	c0.1-0.8,0.2-1.5,0.2-2.3c0.1-1.2,0.3-2.4,0.4-3.7c0.2-1.4,0.4-2.9,0.9-4.3c0.6-1.7,1.6-2.6,3.2-2.9c1.1-0.2,2.2-0.6,3.2-0.9
	c2.5-0.8,4.1-2.5,4.5-5.2c0-0.2,0.1-0.3,0.1-0.5l0-0.3L73.9,15.5z M58.5,8.1c0,0,0.1,0.1,0.1,0.2c0.4,0.6,0.7,1.2,0.7,1.8
	c0,0.2,0,0.2,0,0.2c0,0-0.1,0-0.2,0c-0.3,0-0.5-0.1-0.7-0.4c-0.2-0.3-0.3-0.5-0.5-0.8l-0.1-0.3c0-0.2,0.2-0.3,0.4-0.5
	C58.3,8.3,58.4,8.2,58.5,8.1z M53.3,12.6c0-0.1,0-0.1,0-0.2c0.1-0.9,0.2-1.9,0.3-2.8c0-0.2,0.1-0.4,0.2-0.7c0-0.1,0.1-0.2,0.1-0.2
	c0,0,0,0,0,0c0,0,0.1,0,0.2,0.1c0.8,0.6,1.3,1.3,1.8,2.2L53.3,12.6z M6.1,57.8c-0.9,1.9-1.3,3.6-1.3,5.4c0,1,0.3,1.4,1.2,1.7
	C6.3,65,6.7,65,7,65.1c0.3,0.1,0.5,0.1,0.8,0.2c0.7,0.2,1.1,0.6,1.4,1.2c0.1,0.1,0.1,0.2,0.1,0.2c0,0-0.1,0-0.3,0.1
	c-0.1,0-0.2,0-0.4,0c-1.5,0-2.9,0-4.4,0H3.5V52.5l0.6-0.2C4.7,52.2,5.4,52,6,51.8c1.5-0.5,2.8-1.1,4-1.9c1.7-1.1,2.6-2.7,2.8-4.6
	c0.1-1.3,0.1-2.6,0.2-3.9c0-0.6,0-1.1,0-1.7c0-0.1,0-0.2,0-0.3c0.3,0,0.5,0,0.8,0c0.8,0,1.5,0,2.3,0c1.9,0.1,3.5,0.5,4.9,1.2
	c1.8,1,3.2,2.5,4.2,4.4c0,0,0,0.1,0,0.2c-1.1,2-2.8,3.5-5.3,4.9c-1.5,0.9-3.2,1.4-4.8,1.9l-0.6,0.2c-1.4,0.4-2.8,1-4.2,1.6
	C8.4,54.5,7,55.9,6.1,57.8z M15.5,32.3c0.9-1.3,0.9-1.8-0.3-2.9c-0.7-0.6-1-1.2-1.2-1.8c-0.1-0.4,0-0.5,0.1-0.6l0.1-0.1
	c0.3-0.2,0.4-0.3,0.6-0.3c0.1,0,0.2,0,0.3,0.1c0.7,0.4,1.3,0.9,1.7,1.6c0.3,0.6,0.8,0.8,1.4,0.7c0.4-0.1,0.8-0.2,1.3-0.3l0.3-0.1
	C18.6,30.4,17.2,31.6,15.5,32.3z M14.3,36.6l-0.8,0c0.1-0.4,0.3-0.7,0.6-1c0,0,0.1-0.1,0.2-0.1c2.7-0.3,5-1.6,6.9-3.8
	c0.7-0.9,1.4-1.9,1.9-2.6c0.4-0.6,0.9-1,1.6-1.1c2.5-0.6,5.2-0.9,8-0.9c1.7,0,3.4,0,5.1,0c1,0,1.9,0,2.9,0c0.3,0,0.6-0.1,0.9-0.2
	c1-0.4,2-0.8,3.1-1.1c1-0.4,2-0.8,3-1.1c1-0.4,1.6-1,2.1-2c1.1-2.3,2.2-4.2,3.3-5.9c0.2-0.3,0.5-0.6,0.7-0.9l0.1-0.1
	c0.1-0.1,0.1-0.1,0.1-0.1c0,0,0,0,0.1,0.1c0.4,0.7,0.8,1.3,1.1,2c0,0,0,0.1,0,0.2c0,0,0,0.1,0,0.1L55,21.3c0,1.7-0.1,3.5-0.1,5.2
	c0,2.2,0.6,4.2,2,5.9c0.6,0.7,1.2,1.2,2,1.5c0.3,0.2,0.5,0.4,0.5,0.8c-0.1,1.6-0.4,3.1-0.9,4.6c0,0-0.1,0.1-0.1,0.1
	c-0.5,0-1,0-1.5,0c-0.6,0-1.3,0-1.9,0.1c-4,0.2-7.2,2-9.5,5.4L45.3,45c-0.1,0.2-0.3,0.4-0.4,0.6c-0.1,0.3-0.3,0.4-0.6,0.3
	c-0.9-0.1-1.9-0.2-2.8-0.4c-1-0.1-2-0.3-3.1-0.4c-2.7-0.4-5.4-0.8-8.1-1.1c-0.9-0.1-1.7-0.3-2.6-0.4c-0.1,0-0.2-0.1-0.3-0.2
	c-0.2-0.3-0.4-0.6-0.6-0.9c-0.3-0.5-0.7-1-1.1-1.4c-2-2.3-4.7-3.8-7.9-4.3c-0.8-0.1-1.6-0.1-2.5-0.2C15,36.7,14.7,36.6,14.3,36.6z
	 M59.4,31.7c-0.1,0-0.1-0.1-0.2-0.1c-1.4-1.4-2.1-2.8-2-4.5c0-0.8,0-1.6,0.1-2.4c0-1.6,0.1-3.3,0.1-4.9c0.1-2.2-0.5-4-1.8-5.5
	c0,0,0,0,0,0c1.3-0.6,2.7-1.2,4.3-1.1c2.1,0.1,3.6,0.7,4.8,1.8c0.1,0.1,0.3,0.2,0.4,0.4c0.2,0.2,0.4,0.4,0.6,0.6
	c0.2,0.2,0.5,0.3,0.8,0.3c1.1,0,2.2,0,3.3,0l1.4,0c0.4,1.5-0.4,3.3-1.9,3.8c-0.7,0.3-1.4,0.5-2.2,0.7c-0.4,0.1-0.8,0.2-1.2,0.3
	c-0.5,0.2-1.1,0.4-1.6,0.6c-1.8,0.7-2.9,2-3.6,4.2c-0.5,1.6-0.8,3.3-1.2,5.3C59.5,31.4,59.5,31.6,59.4,31.7z M51.5,47.4
	c-0.1,1.6-0.3,3.1-0.4,4.7c-0.1,1-0.2,2.1-0.3,3.1c-0.2,2.3-0.4,4.6-0.6,7.1c0,0.4,0,0.9,0,1.3c0.1,0.7,0.3,0.9,1,1.1
	c0.7,0.1,1.4,0.4,2.1,0.9c0.5,0.3,0.9,0.7,1.2,1.3c-0.1,0-0.1,0-0.2,0l-0.5,0c-1.3,0-2.6,0-4,0c-0.4,0-0.4,0-0.5-0.5l-0.1-0.5
	c-1-6-2-12.1-2.9-18.2c0-0.1,0-0.2,0-0.3c1.4-3.2,3.9-5.1,7.4-5.4c0.8-0.1,1.6-0.1,2.4-0.1c0,0,0,0,0,0c0,0,0.1,0,0.1,0
	c0,0-0.1,0.1-0.1,0.1c-0.9,1-2,2.2-3.3,3.1C52,45.5,51.6,46.3,51.5,47.4z"/>
</svg>
