<?xml version="1.0" encoding="utf-8"?>
<!-- Generator: Adobe Illustrator 18.0.0, SVG Export Plug-In . SVG Version: 6.00 Build 0)  -->
<!DOCTYPE svg PUBLIC "-//W3C//DTD SVG 1.1//EN" "http://www.w3.org/Graphics/SVG/1.1/DTD/svg11.dtd">
<svg version="1.1" id="Layer_1" xmlns="http://www.w3.org/2000/svg" xmlns:xlink="http://www.w3.org/1999/xlink" x="0px" y="0px"
	 viewBox="0 0 75 75" enable-background="new 0 0 75 75" xml:space="preserve">
<g>
	<path fill="#FFFFFF" d="M67.9,18.8H7.1c-3.2,0-5.8,2.6-5.8,5.8v31.5h72.4V24.7C73.7,21.5,71.1,18.8,67.9,18.8z M14,21.4H61v14.8
		l-1.4-0.9c-5.9-3.8-12.7-5.5-22.1-5.5c-9.2,0-16.2,1.7-22.1,5.5L14,36.1V21.4z M15.1,39.1c1.7-2.1,3.9-3.1,5.6-3.8
		c6-2.5,12.8-3.4,20.9-2.8c4.7,0.3,8.8,1.2,12.6,2.8c2.3,0.9,4.5,2.5,5.6,3.9l1.1,1.5H13.9L15.1,39.1z M71.1,53.6H3.8V25.2
		c0-2.1,1.7-3.9,3.9-3.9h3.7v21.8h52.2V21.3h3.7c2.1,0,3.9,1.7,3.9,3.9V53.6z"/>
</g>
</svg>
