<?xml version="1.0" encoding="utf-8"?>
<!-- Generator: Adobe Illustrator 18.0.0, SVG Export Plug-In . SVG Version: 6.00 Build 0)  -->
<!DOCTYPE svg PUBLIC "-//W3C//DTD SVG 1.1//EN" "http://www.w3.org/Graphics/SVG/1.1/DTD/svg11.dtd">
<svg version="1.1" id="Layer_1" xmlns="http://www.w3.org/2000/svg" xmlns:xlink="http://www.w3.org/1999/xlink" x="0px" y="0px"
	 viewBox="0 0 75 75" enable-background="new 0 0 75 75" xml:space="preserve">
<g>
	<g>
		<path fill="#FFFFFF" d="M61.8,53.7c-0.6,0-1.1,0.5-1.1,1.1v9.5c0,4.2-3.4,7.5-7.5,7.5h-7.8c-1.8,0-3.4-0.6-4.8-1.7
			c1.2-1.6,2-3.6,2-5.8V53.3c0-0.6-0.5-1.1-1.1-1.1c-0.6,0-1.1,0.5-1.1,1.1v10.9c0,4.2-3.4,7.5-7.5,7.5H19.1c-4.2,0-7.5-3.4-7.5-7.5
			V53.3c0-0.6-0.5-1.1-1.1-1.1c-0.6,0-1.1,0.5-1.1,1.1v10.9c0,5.4,4.4,9.7,9.7,9.7h13.8c2.4,0,4.6-0.9,6.3-2.3
			c1.7,1.5,4,2.3,6.3,2.3h7.8c5.4,0,9.7-4.4,9.7-9.7v-9.5C62.9,54.2,62.4,53.7,61.8,53.7z"/>
		<path fill="#FFFFFF" d="M54.7,28.4v-5c0-2.2-1.8-4-4-4h-2.9c-2.2,0-4,1.8-4,4v5c-1,0.5-2.8,1.5-4.5,3.6c-0.1-0.2-0.3-0.5-0.4-0.7
			c-1.5-2.4-3.4-4.3-5.6-5.6c-0.5-0.3-0.8-0.9-0.8-1.5v-1.7c0.7-0.4,1.2-1.1,1.2-1.9v-5.5c0-1.4-1.1-2.5-2.5-2.5H30V9h7.1l1.4,1.4
			c0.2,0.2,0.5,0.3,0.8,0.3c0.3,0,0.6-0.1,0.8-0.3l3.2-3.2c0.4-0.4,0.4-1.1,0-1.5l-4.3-4.3C38.6,1.2,38.4,1,38.1,1H21.7
			c-2.2,0-4,1.8-4,4c0,2.2,1.8,4,4,4H22v3.6h-1.2c-1.4,0-2.5,1.1-2.5,2.5v5.5c0,0.8,0.5,1.6,1.2,1.9v1.7c0,0.6-0.3,1.2-0.8,1.5
			c-2.3,1.4-4.2,3.3-5.6,5.6c-2.4,3.9-3.6,8.8-3.6,14.8v2.2c0,0.6,0.5,1.1,1.1,1.1c0.6,0,1.1-0.5,1.1-1.1v-2.2
			c0-11.2,4.5-16.3,8.2-18.6c1.2-0.7,1.9-2,1.9-3.4v-1.4h8.8v1.4c0,1.4,0.7,2.7,1.9,3.4c2,1.2,4.3,3.3,5.9,6.8
			c0,0.2,0.1,0.3,0.2,0.4c1.2,2.8,2.1,6.5,2.1,11.4v2.2c0,0.6,0.5,1.1,1.1,1.1c0.6,0,1.1-0.5,1.1-1.1v-2.2c0-4.6-0.7-8.6-2.1-11.9
			c1.9-2.7,4.2-3.7,4.7-4h8.2c0.5,0.2,2,0.9,3.6,2.5c2.5,2.6,3.7,6.2,3.7,10.8v6.2c0,0.6,0.5,1.1,1.1,1.1s1.1-0.5,1.1-1.1v-6.2
			c0-6.4-2.4-10.2-4.4-12.3C57,29.7,55.6,28.8,54.7,28.4z M19.9,5c0-1,0.8-1.8,1.8-1.8h15.9l3.2,3.2l-1.6,1.6l-1-1
			c-0.2-0.2-0.5-0.3-0.8-0.3H21.7C20.7,6.8,19.9,6,19.9,5z M24.2,9h3.6v3.6h-3.6V9z M20.5,15.1c0-0.2,0.2-0.4,0.4-0.4h10.4
			c0.2,0,0.4,0.2,0.4,0.4v5.5c0,0,0,0.1-0.1,0.1H20.5c0,0-0.1,0-0.1-0.1V15.1z M52.6,28.1h-6.5v-4.7c0-1,0.8-1.8,1.8-1.8h2.9
			c1,0,1.8,0.8,1.8,1.8V28.1z"/>
		<path fill="#FFFFFF" d="M55.3,45c0-3.3-2.7-6-6-6c-3.3,0-6,2.7-6,6c0,3.3,2.7,6,6,6C52.6,50.9,55.3,48.3,55.3,45z M45.5,45
			c0-2.1,1.7-3.8,3.8-3.8c2.1,0,3.8,1.7,3.8,3.8c0,2.1-1.7,3.8-3.8,3.8C47.2,48.8,45.5,47.1,45.5,45z"/>
		<path fill="#FFFFFF" d="M25.9,66.1c5.4,0,9.7-7.4,9.7-16.9c0-9.5-4.3-16.9-9.7-16.9c-5.4,0-9.7,7.4-9.7,16.9
			C16.2,58.7,20.5,66.1,25.9,66.1z M25.9,34.5c4.1,0,7.5,6.7,7.5,14.7c0,8-3.5,14.7-7.5,14.7c-4.1,0-7.5-6.7-7.5-14.7
			C18.4,41.2,21.8,34.5,25.9,34.5z"/>
		<path fill="#FFFFFF" d="M59.8,8.8c-3.2,0-5.8,2.6-5.8,5.8c0,3.2,2.6,5.8,5.8,5.8c3.2,0,5.8-2.6,5.8-5.8C65.6,11.4,63,8.8,59.8,8.8
			z M59.8,18.3c-2,0-3.7-1.6-3.7-3.7c0-2,1.6-3.7,3.7-3.7s3.7,1.6,3.7,3.7C63.5,16.7,61.8,18.3,59.8,18.3z"/>
		<path fill="#FFFFFF" d="M50.7,9c2.2,0,4-1.8,4-4c0-2.2-1.8-4-4-4c-2.2,0-4,1.8-4,4C46.8,7.2,48.5,9,50.7,9z M50.7,3.2
			c1,0,1.8,0.8,1.8,1.8c0,1-0.8,1.8-1.8,1.8c-1,0-1.8-0.8-1.8-1.8C48.9,4,49.7,3.2,50.7,3.2z"/>
	</g>
</g>
</svg>
