<?xml version="1.0" encoding="utf-8"?>
<!-- Generator: Adobe Illustrator 18.0.0, SVG Export Plug-In . SVG Version: 6.00 Build 0)  -->
<!DOCTYPE svg PUBLIC "-//W3C//DTD SVG 1.1//EN" "http://www.w3.org/Graphics/SVG/1.1/DTD/svg11.dtd">
<svg version="1.1" id="Layer_1" xmlns="http://www.w3.org/2000/svg" xmlns:xlink="http://www.w3.org/1999/xlink" x="0px" y="0px"
	 viewBox="0 0 75 75" enable-background="new 0 0 75 75" xml:space="preserve">
<path fill="#FFFFFF" d="M64.8,12.9c0.6-1.8,0.2-3.7-1-5.1c-1.6-1.9-4.4-2.4-6.6-1.3c-5.9-3.7-12.7-5.7-19.7-5.7
	c-7,0-13.8,2-19.7,5.7c-2.2-1.2-5-0.6-6.6,1.3c-1.2,1.4-1.6,3.4-1,5.1c-1.1,1.2-2.2,2.6-3.1,4c-0.6,0.9-0.4,2.1,0.5,2.6
	c0.9,0.6,2,0.4,2.6-0.5c0.7-1.1,1.5-2.1,2.4-3.1c6,5.4,9.6,13.5,9.6,21.5c0,8.1-3.6,16.1-9.6,21.5c-5.2-6-8-13.6-8-21.5
	c0-5.3,1.2-10.3,3.6-15c0.5-0.9,0.1-2.1-0.8-2.6c-0.9-0.5-2.1-0.1-2.6,0.8c-2.7,5.2-4,10.8-4,16.7c0,9.1,3.4,17.8,9.5,24.6
	c-0.1,0.4-0.2,0.8-0.3,1.3c-0.1,1.4,0.3,2.8,1.2,3.9c1.6,1.9,4.4,2.4,6.6,1.3c5.9,3.7,12.7,5.7,19.7,5.7c7,0,13.8-2,19.7-5.7
	c2.2,1.2,5,0.6,6.6-1.3c1.2-1.4,1.6-3.4,1-5.1c1.6-1.7,3-3.6,4.2-5.6c0.3-0.4,0.3-0.9,0.2-1.4c-0.1-0.5-0.4-0.9-0.9-1.2
	c-0.4-0.3-0.9-0.3-1.4-0.2c-0.5,0.1-0.9,0.4-1.2,0.9c-1,1.6-2.1,3.1-3.3,4.6c-0.1-0.1-0.2-0.2-0.2-0.2c-5.9-5.4-9.4-13.4-9.4-21.4
	c0-3.7,0.7-7.4,2.1-10.8c1.6-4.1,4.2-7.8,7.5-10.8c5.2,6,8,13.6,8,21.5c0,4.6-0.9,9.1-2.8,13.3c-0.2,0.5-0.2,1,0,1.5
	c0.2,0.5,0.5,0.9,1,1.1c0.5,0.2,1,0.2,1.5,0c0.5-0.2,0.8-0.5,1.1-1c2.1-4.7,3.1-9.7,3.1-14.8C74.2,28.4,70.9,19.7,64.8,12.9z
	 M29.1,37.5c0,10.3-4.7,20.5-12.5,27.3c-0.4,0.4-1,0.6-1.5,0.5c-0.4,0-0.7-0.2-1-0.5c-0.5-0.6-0.4-1.6,0.2-2.2
	c7.3-6,11.7-15.4,11.7-25.1c0-9.6-4.4-18.9-11.7-25.1c-0.6-0.5-0.7-1.5-0.2-2.2c0.3-0.3,0.6-0.5,1-0.5c0.5,0,1,0.2,1.5,0.5
	C24.4,17,29.1,27.2,29.1,37.5z M32.9,37.5c0-10.6-4.3-20.9-12-28.4c5-2.9,10.7-4.5,16.6-4.5c5.9,0,11.6,1.6,16.6,4.5l-0.7,0.7
	c-7.3,7.8-11.3,17.6-11.3,27.7c0,3.4,0.4,6.8,1.3,10.1l0,0.1c1.8,6.9,5.5,13.2,10.6,18.2c-5,2.9-10.7,4.5-16.6,4.5
	c-5.9,0-11.6-1.6-16.6-4.5C28.6,58.1,32.9,48,32.9,37.5z M60.7,12.4C53.4,18.6,49,27.9,49,37.5c0,9.6,4.4,18.9,11.7,25.1
	c0.3,0.3,0.5,0.6,0.5,1c0,0.4-0.1,0.8-0.3,1.1c-0.3,0.3-0.6,0.5-1,0.5c-0.5,0-1-0.2-1.5-0.5C50.6,58,45.9,47.8,45.9,37.5
	c0-10.3,4.7-20.5,12.5-27.3c0.4-0.4,0.9-0.6,1.3-0.6c0,0,0.1,0,0.1,0c0.4,0,0.7,0.2,1,0.5C61.4,10.8,61.3,11.8,60.7,12.4z
	 M68.9,52.5L68.9,52.5L68.9,52.5L68.9,52.5z"/>
</svg>
