<?xml version="1.0" encoding="utf-8"?>
<!-- Generator: Adobe Illustrator 18.0.0, SVG Export Plug-In . SVG Version: 6.00 Build 0)  -->
<!DOCTYPE svg PUBLIC "-//W3C//DTD SVG 1.1//EN" "http://www.w3.org/Graphics/SVG/1.1/DTD/svg11.dtd">
<svg version="1.1" id="Layer_1" xmlns="http://www.w3.org/2000/svg" xmlns:xlink="http://www.w3.org/1999/xlink" x="0px" y="0px"
	 viewBox="0 0 75 75" enable-background="new 0 0 75 75" xml:space="preserve">
<g>
	<path fill="#FFFFFF" d="M64.9,23c-0.6-2.7-3.8-4.8-9-6.1C51,15.7,44.4,15,37.5,15c-6.9,0-13.5,0.7-18.4,1.9c-5.2,1.3-8.3,3.4-9,6.1
		c-1.5,6.3-8.2,23.7-9,25.6C1,48.8,1,49.1,1,49.3c0,3.5,3.8,6.1,11.7,8.1c6.7,1.7,15.5,2.6,24.8,2.6s18.2-0.9,24.8-2.6
		c7.8-2,11.7-4.6,11.7-8.1c0-0.2,0-0.5-0.1-0.7C73.8,48.4,66.5,29.7,64.9,23z M16.1,22.3c3.2-1.4,10.7-3.1,21.4-3.1
		c10.8,0,18.3,1.7,21.4,3.1l2.5,1.1l-2.5,1.1c-3.2,1.4-10.7,3.1-21.4,3.1S19.2,26,16.1,24.6l-2.5-1.1L16.1,22.3z M69.1,50.2
		c-0.7,0.6-3.1,2.2-9.6,3.6c-6.1,1.3-13.9,2.1-22.1,2.1s-16-0.7-22.1-2.1c-6.4-1.4-8.8-3-9.6-3.6l-0.7-0.6l7.7-21.9l1.3,0.6
		c1.9,0.9,3.9,1.4,4.9,1.7c4.9,1.2,11.5,1.9,18.4,1.9c6.9,0,13.5-0.7,18.4-1.9c1.1-0.3,3.1-0.8,4.9-1.7l1.3-0.6l7.7,21.9L69.1,50.2z
		"/>
</g>
</svg>
