<?xml version="1.0" encoding="utf-8"?>
<!-- Generator: Adobe Illustrator 18.0.0, SVG Export Plug-In . SVG Version: 6.00 Build 0)  -->
<!DOCTYPE svg PUBLIC "-//W3C//DTD SVG 1.1//EN" "http://www.w3.org/Graphics/SVG/1.1/DTD/svg11.dtd">
<svg version="1.1" xmlns="http://www.w3.org/2000/svg" xmlns:xlink="http://www.w3.org/1999/xlink" x="0px" y="0px"
	 viewBox="0 0 508.8 115.6" enable-background="new 0 0 508.8 115.6" xml:space="preserve">
<g id="BACK">
</g>
<g id="Layer_1">
	<g id="XMLID_30_">
		<path id="XMLID_4474_" fill="#FFFFFF" d="M55.3,3.2C26.2,3.2,2.6,26.8,2.6,55.9c0,21.8,13.2,40.5,32,48.5l34.6-34.6
			c7.7-7.7,7.7-20.2,0-27.8c-7.7-7.7-20.2-7.7-27.8,0c-3.7,3.7-5.8,8.7-5.8,13.9c0,5.3,2,10.2,5.8,13.9c1.7,1.7,1.7,4.6,0,6.3
			c-1.7,1.7-4.6,1.7-6.3,0c-5.4-5.4-8.4-12.6-8.4-20.2c0-7.6,3-14.8,8.4-20.2c11.2-11.2,29.3-11.2,40.4,0s11.2,29.3,0,40.4
			l-31.3,31.3c3.6,0.8,7.3,1.2,11.1,1.2c29.1,0,52.7-23.6,52.7-52.7C108,26.8,84.4,3.2,55.3,3.2z"/>
		<g id="XMLID_4222_">
			<path id="XMLID_4223_" fill="#FFFFFF" d="M492.4,41L492.4,41c0-3.8,3.1-7,6.9-7c3.9,0,6.9,3.1,6.9,6.9v0c0,3.8-3.1,6.9-6.9,6.9
				C495.4,47.9,492.4,44.8,492.4,41z M505.1,41L505.1,41c0-3.3-2.5-5.9-5.8-5.9c-3.3,0-5.8,2.7-5.8,5.9v0c0,3.2,2.5,5.9,5.8,5.9
				C502.6,46.9,505.1,44.2,505.1,41z M496.6,37.4h3.2c1.5,0,2.7,0.8,2.7,2.2c0,1.1-0.7,1.9-1.6,2.1l1.9,2.7h-1.6l-1.7-2.4h-1.5v2.4
				h-1.3V37.4z M499.7,40.8c0.9,0,1.4-0.5,1.4-1.2c0-0.8-0.5-1.1-1.4-1.1h-1.7v2.3H499.7z"/>
		</g>
		<g id="XMLID_4145_">
			<path id="XMLID_4168_" fill="#FFFFFF" d="M151,34.1h7l19,43.4h-8L164.6,67h-20.4l-4.4,10.4h-7.8L151,34.1z M161.9,60.3l-7.4-17.2
				L147,60.3H161.9z"/>
			<path id="XMLID_4165_" fill="#FFFFFF" d="M192,34.4h19.2c5.4,0,9.7,1.6,12.4,4.3c2.3,2.3,3.6,5.5,3.6,9.3v0.1
				c0,7.1-4.2,11.3-10.3,13l11.6,16.3h-8.9l-10.6-15h-9.5v15H192V34.4z M210.6,55.7c5.4,0,8.9-2.8,8.9-7.2v-0.1
				c0-4.6-3.3-7.1-8.9-7.1h-11v14.5H210.6z"/>
			<path id="XMLID_4163_" fill="#FFFFFF" d="M244,34.4h8.1l13.1,20.4l13.1-20.4h8.1v43.1h-7.6V46.5l-13.6,20.3h-0.2l-13.5-20.2v30.8
				H244V34.4z"/>
			<path id="XMLID_4160_" fill="#FFFFFF" d="M320.2,34.1h7l19,43.4h-8L333.8,67h-20.4L309,77.4h-7.8L320.2,34.1z M331.1,60.3
				l-7.4-17.2l-7.4,17.2H331.1z"/>
			<path id="XMLID_4157_" fill="#FFFFFF" d="M361.2,34.4h19.2c5.4,0,9.7,1.6,12.4,4.3c2.3,2.3,3.6,5.5,3.6,9.3v0.1
				c0,7.1-4.2,11.3-10.3,13l11.6,16.3h-8.9l-10.6-15h-9.5v15h-7.6V34.4z M379.8,55.7c5.4,0,8.9-2.8,8.9-7.2v-0.1
				c0-4.6-3.3-7.1-8.9-7.1h-11v14.5H379.8z"/>
			<path id="XMLID_4155_" fill="#FFFFFF" d="M413.6,34.4h7.6v43.1h-7.6V34.4z"/>
			<path id="XMLID_4146_" fill="#FFFFFF" d="M438.4,56v-0.1c0-12.1,9.4-22.3,22.6-22.3s22.5,10,22.5,22.2v0.1
				c0,12.1-9.4,22.3-22.6,22.3C447.6,78.2,438.4,68.1,438.4,56z M475.5,56v-0.1c0-8.4-6.1-15.3-14.6-15.3c-8.6,0-14.5,6.8-14.5,15.2
				v0.1c0,8.4,6.1,15.3,14.6,15.3C469.5,71.2,475.5,64.4,475.5,56z"/>
		</g>
		<g id="XMLID_3418_">
			<path id="XMLID_4143_" fill="#FFFFFF" d="M388.9,97.9h2.7l4.4,6.8l4.4-6.8h2.7v14.3h-2.5v-10.3l-4.5,6.8h-0.1l-4.5-6.7v10.2h-2.5
				V97.9z"/>
			<path id="XMLID_4069_" fill="#FFFFFF" d="M413.1,105.1L413.1,105.1c0-4.1,3.1-7.5,7.5-7.5c4.4,0,7.5,3.3,7.5,7.4v0
				c0,4-3.1,7.4-7.5,7.4C416.2,112.4,413.1,109.1,413.1,105.1z M425.5,105.1L425.5,105.1c0-2.8-2-5.1-4.9-5.1
				c-2.8,0-4.8,2.3-4.8,5.1v0c0,2.8,2,5.1,4.9,5.1C423.5,110.1,425.5,107.9,425.5,105.1z M421.9,93.5l2.3,1l-2.6,2h-1.9L421.9,93.5z
				"/>
			<path id="XMLID_4064_" fill="#FFFFFF" d="M436.1,97.9h2.8l4.3,11l4.3-11h2.7l-6,14.4h-2.2L436.1,97.9z"/>
			<path id="XMLID_4062_" fill="#FFFFFF" d="M459.9,97.9h2.5v14.3h-2.5V97.9z"/>
			<path id="XMLID_3419_" fill="#FFFFFF" d="M473.4,97.9h2.5v12h7.5v2.3h-10.1V97.9z"/>
		</g>
	</g>
</g>
</svg>
