<?xml version="1.0" encoding="utf-8"?>
<!-- Generator: Adobe Illustrator 18.0.0, SVG Export Plug-In . SVG Version: 6.00 Build 0)  -->
<!DOCTYPE svg PUBLIC "-//W3C//DTD SVG 1.1//EN" "http://www.w3.org/Graphics/SVG/1.1/DTD/svg11.dtd">
<svg version="1.1" id="Layer_1" xmlns="http://www.w3.org/2000/svg" xmlns:xlink="http://www.w3.org/1999/xlink" x="0px" y="0px"
	 viewBox="0 0 51.3 51.3" enable-background="new 0 0 51.3 51.3" xml:space="preserve">
<g>
	<g>
		<g>
			<g>
				<path fill="#181B48" d="M43.7,49.9c-0.3,0-0.5-0.1-0.8-0.2l-5.2-3.5l-5.2,3.5c-0.5,0.3-1.1,0.3-1.6,0l-5.2-3.5l-5.2,3.5
					c-0.5,0.3-1.1,0.3-1.6,0l-5.2-3.5l-5.2,3.5c-0.4,0.3-1,0.3-1.5,0.1c-0.5-0.3-0.8-0.7-0.8-1.3V4.3H3.6c-0.8,0-1.4-0.6-1.4-1.4
					s0.6-1.4,1.4-1.4h44.1c0.8,0,1.4,0.7,1.4,1.5c0,0.8-0.6,1.4-1.4,1.4h-2.6l0,44.1c0,0.5-0.3,1-0.8,1.3
					C44.2,49.8,43.9,49.9,43.7,49.9z M37.7,45.7l5.5,3.6c0.3,0.2,0.7,0.2,1.1,0c0.3-0.2,0.5-0.5,0.5-0.9l0-44.5h3c0.6,0,1-0.5,1-1
					c0-0.6-0.5-1.1-1-1.1H3.6c-0.6,0-1,0.5-1,1s0.5,1,1,1h2.9v44.5c0,0.4,0.2,0.7,0.5,0.9c0.3,0.2,0.7,0.2,1-0.1l5.5-3.6l5.5,3.6
					c0.3,0.2,0.8,0.2,1.1,0l5.5-3.6l5.5,3.6c0.3,0.2,0.8,0.2,1.1,0L37.7,45.7z M31.6,47.2l-5.5-3.6c-0.3-0.2-0.8-0.2-1.1,0l-5.5,3.6
					l-5.5-3.6c-0.3-0.2-0.8-0.2-1.1,0l-4.4,2.9V3.9h34.1l0,42.6l-4.4-3c-0.3-0.2-0.8-0.2-1.1,0L31.6,47.2z M25.6,43
					c0.3,0,0.6,0.1,0.8,0.2l5.2,3.5l5.2-3.5c0.5-0.3,1.1-0.3,1.6,0l3.8,2.5l0-41.4H9v41.4l3.8-2.5c0.5-0.3,1.1-0.3,1.6,0l5.2,3.5
					l5.2-3.5C25,43.1,25.3,43,25.6,43z"/>
			</g>
		</g>
	</g>
	<g>
		<g>
			<path fill="#181B48" d="M27.3,21.5H14.4c-0.8,0-1.4-0.6-1.4-1.4s0.6-1.4,1.4-1.4h12.9c0.8,0,1.4,0.6,1.4,1.4S28.1,21.5,27.3,21.5
				z M14.4,19c-0.6,0-1,0.5-1,1s0.5,1,1,1h12.9c0.6,0,1-0.5,1-1s-0.5-1-1-1H14.4z"/>
		</g>
	</g>
	<g>
		<g>
			<path fill="#181B48" d="M24.1,25.8h-9.7c-0.8,0-1.4-0.6-1.4-1.4s0.6-1.4,1.4-1.4h9.7c0.8,0,1.4,0.6,1.4,1.4S24.9,25.8,24.1,25.8z
				 M14.4,23.3c-0.6,0-1,0.5-1,1s0.5,1,1,1h9.7c0.6,0,1-0.5,1-1s-0.5-1-1-1H14.4z"/>
		</g>
	</g>
	<g>
		<g>
			<path fill="#181B48" d="M36.9,21.5h-3.2c-0.8,0-1.4-0.6-1.4-1.4s0.6-1.4,1.4-1.4h3.2c0.8,0,1.4,0.6,1.4,1.4S37.7,21.5,36.9,21.5z
				 M33.7,19c-0.6,0-1,0.5-1,1s0.5,1,1,1h3.2c0.6,0,1-0.5,1-1s-0.5-1-1-1H33.7z"/>
		</g>
	</g>
	<g>
		<g>
			<path fill="#181B48" d="M36.9,25.8h-3.2c-0.8,0-1.4-0.6-1.4-1.4s0.6-1.4,1.4-1.4h3.2c0.8,0,1.4,0.6,1.4,1.4S37.7,25.8,36.9,25.8z
				 M33.7,23.3c-0.6,0-1,0.5-1,1s0.5,1,1,1h3.2c0.6,0,1-0.5,1-1s-0.5-1-1-1H33.7z"/>
		</g>
	</g>
	<g>
		<g>
			<path fill="#181B48" d="M27.3,11.6H14.4c-0.8,0-1.4-0.6-1.4-1.4s0.6-1.4,1.4-1.4h12.9c0.8,0,1.4,0.6,1.4,1.4S28.1,11.6,27.3,11.6
				z M14.4,9.2c-0.6,0-1,0.5-1,1c0,0.6,0.5,1,1,1h12.9c0.6,0,1-0.5,1-1c0-0.6-0.5-1-1-1H14.4z"/>
		</g>
	</g>
	<g>
		<g>
			<path fill="#181B48" d="M24.1,15.9h-9.7c-0.8,0-1.4-0.6-1.4-1.4c0-0.8,0.6-1.4,1.4-1.4h9.7c0.8,0,1.4,0.6,1.4,1.4
				C25.5,15.2,24.9,15.9,24.1,15.9z M14.4,13.4c-0.6,0-1,0.5-1,1c0,0.6,0.5,1,1,1h9.7c0.6,0,1-0.5,1-1c0-0.6-0.5-1-1-1H14.4z"/>
		</g>
	</g>
	<g>
		<g>
			<path fill="#181B48" d="M36.9,11.6h-3.2c-0.8,0-1.4-0.6-1.4-1.4s0.6-1.4,1.4-1.4h3.2c0.8,0,1.4,0.6,1.4,1.4S37.7,11.6,36.9,11.6z
				 M33.7,9.2c-0.6,0-1,0.5-1,1c0,0.6,0.5,1,1,1h3.2c0.6,0,1-0.5,1-1c0-0.6-0.5-1-1-1H33.7z"/>
		</g>
	</g>
	<g>
		<g>
			<path fill="#181B48" d="M36.9,15.9h-3.2c-0.8,0-1.4-0.6-1.4-1.4c0-0.8,0.6-1.4,1.4-1.4h3.2c0.8,0,1.4,0.6,1.4,1.4
				C38.4,15.2,37.7,15.9,36.9,15.9z M33.7,13.4c-0.6,0-1,0.5-1,1c0,0.6,0.5,1,1,1h3.2c0.6,0,1-0.5,1-1c0-0.6-0.5-1-1-1H33.7z"/>
		</g>
	</g>
	<g>
		<g>
			<path fill="#181B48" d="M27.3,31.5H14.4c-0.8,0-1.4-0.6-1.4-1.4s0.6-1.4,1.4-1.4h12.9c0.8,0,1.4,0.6,1.4,1.4S28.1,31.5,27.3,31.5
				z M14.4,29c-0.6,0-1,0.5-1,1s0.5,1,1,1h12.9c0.6,0,1-0.5,1-1s-0.5-1-1-1H14.4z"/>
		</g>
	</g>
	<g>
		<g>
			<path fill="#181B48" d="M24.1,35.7h-9.7c-0.8,0-1.4-0.6-1.4-1.4s0.6-1.4,1.4-1.4h9.7c0.8,0,1.4,0.6,1.4,1.4S24.9,35.7,24.1,35.7z
				 M14.4,33.3c-0.6,0-1,0.5-1,1s0.5,1,1,1h9.7c0.6,0,1-0.5,1-1s-0.5-1-1-1H14.4z"/>
		</g>
	</g>
	<g>
		<g>
			<path fill="#181B48" d="M36.9,31.5h-3.2c-0.8,0-1.4-0.6-1.4-1.4s0.6-1.4,1.4-1.4h3.2c0.8,0,1.4,0.6,1.4,1.4S37.7,31.5,36.9,31.5z
				 M33.7,29c-0.6,0-1,0.5-1,1s0.5,1,1,1h3.2c0.6,0,1-0.5,1-1s-0.5-1-1-1H33.7z"/>
		</g>
	</g>
	<g>
		<g>
			<path fill="#181B48" d="M36.9,35.7h-3.2c-0.8,0-1.4-0.6-1.4-1.4s0.6-1.4,1.4-1.4h3.2c0.8,0,1.4,0.6,1.4,1.4S37.7,35.7,36.9,35.7z
				 M33.7,33.3c-0.6,0-1,0.5-1,1s0.5,1,1,1h3.2c0.6,0,1-0.5,1-1s-0.5-1-1-1H33.7z"/>
		</g>
	</g>
</g>
</svg>
