<?xml version="1.0" encoding="utf-8"?>
<!-- Generator: Adobe Illustrator 18.0.0, SVG Export Plug-In . SVG Version: 6.00 Build 0)  -->
<!DOCTYPE svg PUBLIC "-//W3C//DTD SVG 1.1//EN" "http://www.w3.org/Graphics/SVG/1.1/DTD/svg11.dtd">
<svg version="1.1" id="Layer_1" xmlns="http://www.w3.org/2000/svg" xmlns:xlink="http://www.w3.org/1999/xlink" x="0px" y="0px"
	 viewBox="0 0 23.8 16.8" enable-background="new 0 0 23.8 16.8" xml:space="preserve">
<g id="XMLID_105_">
	<g>
		<path id="XMLID_4729_" fill="#FFFFFF" d="M23.1,10.9l-1.5-8.7c-0.2-1.3-1.4-2.1-2.7-1.9L2.5,3.2C1.3,3.4,0.4,4.6,0.7,5.9L0.8,7
			c0,0,0,0,0,0l0,0l1.3,7.6c0.2,1.1,1.2,1.9,2.3,1.9c0.1,0,0.3,0,0.4,0l16.3-2.9h0C22.5,13.4,23.3,12.2,23.1,10.9z M2.7,4.3
			l16.3-2.9c0.1,0,0.1,0,0.2,0c0.6,0,1.1,0.4,1.2,1l0.1,0.5L1.9,6.2L1.8,5.7C1.7,5.1,2.1,4.5,2.7,4.3z M21.8,12
			c-0.2,0.3-0.5,0.4-0.8,0.5L4.7,15.4c-0.6,0.1-1.3-0.3-1.4-1l-1.2-7l18.7-3.3l1.2,7C22,11.4,22,11.7,21.8,12z"/>
		<path id="XMLID_4726_" fill="#FFFFFF" d="M7.7,9.3L5.2,9.8c-0.3,0.1-0.5,0.4-0.5,0.7l0.4,2.5c0,0.3,0.3,0.5,0.6,0.5
			c0,0,0.1,0,0.1,0L8.3,13c0.3-0.1,0.5-0.4,0.5-0.7L8.3,9.8C8.3,9.5,8,9.3,7.7,9.3z M6.2,12.2l-0.2-1.3l1.3-0.2l0.2,1.3L6.2,12.2z"
			/>
	</g>
</g>
</svg>
