<?xml version="1.0" encoding="utf-8"?>
<!-- Generator: Adobe Illustrator 18.0.0, SVG Export Plug-In . SVG Version: 6.00 Build 0)  -->
<!DOCTYPE svg PUBLIC "-//W3C//DTD SVG 1.1//EN" "http://www.w3.org/Graphics/SVG/1.1/DTD/svg11.dtd">
<svg version="1.1" id="Layer_1" xmlns="http://www.w3.org/2000/svg" xmlns:xlink="http://www.w3.org/1999/xlink" x="0px" y="0px"
	 viewBox="0 0 14.5 10.5" enable-background="new 0 0 14.5 10.5" xml:space="preserve">
<g id="XMLID_4536_">
	<path id="XMLID_4544_" fill="#666666" d="M14.1,6.8l-0.9-5.3c-0.1-0.8-0.9-1.3-1.6-1.2L1.6,2.1C0.8,2.2,0.3,3,0.4,3.7l0.1,0.7v0v0
		L1.4,9c0.1,0.7,0.7,1.2,1.4,1.2c0.1,0,0.2,0,0.2,0l9.9-1.7h0C13.7,8.3,14.2,7.5,14.1,6.8z M1.7,2.8L11.6,1c0,0,0.1,0,0.1,0
		c0.3,0,0.6,0.2,0.7,0.6l0.1,0.3l-11.3,2L1.1,3.6C1.1,3.2,1.3,2.9,1.7,2.8z M13.3,7.4c-0.1,0.2-0.3,0.3-0.5,0.3L2.9,9.5
		C2.5,9.5,2.1,9.3,2.1,8.9L1.3,4.6l11.3-2l0.8,4.3C13.4,7.1,13.4,7.3,13.3,7.4z"/>
	<path id="XMLID_4537_" fill="#666666" d="M4.7,5.8L3.2,6.1C3,6.1,2.9,6.3,2.9,6.5L3.2,8c0,0.2,0.2,0.3,0.3,0.3c0,0,0,0,0.1,0L5.1,8
		c0.2,0,0.3-0.2,0.3-0.4L5.1,6.1C5.1,5.9,4.9,5.8,4.7,5.8z M3.8,7.5L3.7,6.7l0.8-0.1l0.1,0.8L3.8,7.5z"/>
</g>
</svg>
