<?xml version="1.0" encoding="utf-8"?>
<!-- Generator: Adobe Illustrator 18.0.0, SVG Export Plug-In . SVG Version: 6.00 Build 0)  -->
<!DOCTYPE svg PUBLIC "-//W3C//DTD SVG 1.1//EN" "http://www.w3.org/Graphics/SVG/1.1/DTD/svg11.dtd">
<svg version="1.1" id="Layer_1" xmlns="http://www.w3.org/2000/svg" xmlns:xlink="http://www.w3.org/1999/xlink" x="0px" y="0px"
	 viewBox="0 0 13 12" enable-background="new 0 0 13 12" xml:space="preserve">
<g id="XMLID_4659_">
	<path id="XMLID_4661_" fill="#666666" d="M11.5,11.8h-10c-0.4,0-0.8-0.4-0.8-0.8V1c0-0.4,0.4-0.8,0.8-0.8h10c0.4,0,0.8,0.4,0.8,0.8
		v10C12.3,11.4,11.9,11.8,11.5,11.8"/>
	<path id="XMLID_4660_" fill="#FFFFFF" d="M10.5,2.2v2H8.7c-0.2,0-0.4,0.2-0.4,0.4v1.2h2v2h-2v4h-2v-4H4.7v-2h1.6V4.6
		c0-1.3,1-2.3,2.2-2.4L10.5,2.2L10.5,2.2z"/>
</g>
</svg>
