<?xml version="1.0" encoding="utf-8"?>
<!-- Generator: Adobe Illustrator 18.0.0, SVG Export Plug-In . SVG Version: 6.00 Build 0)  -->
<!DOCTYPE svg PUBLIC "-//W3C//DTD SVG 1.1//EN" "http://www.w3.org/Graphics/SVG/1.1/DTD/svg11.dtd">
<svg version="1.1" id="Layer_1" xmlns="http://www.w3.org/2000/svg" xmlns:xlink="http://www.w3.org/1999/xlink" x="0px" y="0px"
	 viewBox="0 0 62.5 57.2" enable-background="new 0 0 62.5 57.2" xml:space="preserve">
<g>
	<g>
		<g>
			<path fill="#181B48" d="M60.7,26.2c-0.6-1.9-2.4-3.2-4.4-3.1l-0.4,0c-1.2,0.1-2.4,0.6-3.3,1.4L46,31.1c-0.2-0.2-0.3-0.5-0.5-0.7
				c-0.9-0.9-2.1-1.4-3.3-1.4H33c-1.7,0-3.4-0.2-5-0.7c-4.2-1.2-8.2-0.3-11.6,2.4c-1.4,1.2-2.4,2.4-3.1,3.3
				c-0.7-0.5-1.6-0.8-2.4-0.7c-1.1,0-2.1,0.5-2.9,1.3l-6,6.2c-0.4,0.5-0.4,1.2,0,1.6l4.8,4.7c0.5,0.4,1.2,0.4,1.6,0
				c0.4-0.5,0.4-1.2,0-1.6l-4-3.9l5.2-5.4c0.3-0.4,0.8-0.6,1.3-0.6c0.5,0,1,0.2,1.3,0.5l9.2,9c0.4,0.3,0.5,0.8,0.6,1.3
				c0,0.5-0.2,1-0.5,1.3l-5.1,5.2l-1.3-1.2c-0.5-0.4-1.2-0.4-1.6,0c-0.4,0.5-0.4,1.2,0,1.6l2.1,2c0.2,0.2,0.5,0.3,0.8,0.3
				c0.3,0,0.6-0.1,0.8-0.4l5.9-6c0.8-0.8,1.2-1.8,1.2-3c0-0.5-0.1-1-0.3-1.5l2.1-0.2c1-0.1,1.9-0.2,2.9-0.2h14c0.2,0,0.4,0,0.6,0
				l1.3-0.1c1.4-0.1,2.7-0.6,3.8-1.4c0.6-0.4,1.1-0.8,1.5-1.3l9.5-11.1C60.8,29.3,61.1,27.7,60.7,26.2L60.7,26.2z M58,29l-9.5,11.1
				c-0.3,0.4-0.7,0.7-1,0.9c-0.8,0.5-1.7,0.9-2.7,1l-1.3,0.1c-0.1,0-0.3,0-0.5,0H29c-1.1,0-2.1,0.1-3.2,0.2l-3.4,0.4L15,35.6
				c0.5-0.7,1.4-2,2.8-3.1c2.8-2.3,6-2.9,9.5-2c1.8,0.5,3.7,0.8,5.7,0.8h9.2c0.6,0,1.2,0.3,1.6,0.7c0.3,0.3,0.5,0.7,0.6,1.1
				c0,0.1,0,0.2,0,0.3c0,0.5-0.1,1.1-0.5,1.5l0,0c-0.4,0.5-1.1,0.8-1.8,0.8h-8c-0.6,0-1.2,0.5-1.2,1.2c0,0.6,0.5,1.2,1.2,1.2h8
				c1.4,0,2.7-0.6,3.6-1.7l0,0c0.7-0.8,1-1.8,1-2.9l7.4-7.4c0.5-0.5,1.1-0.7,1.7-0.8l0.4,0c0.9,0,1.8,0.6,2.1,1.5
				C58.7,27.6,58.5,28.4,58,29L58,29z M58,29"/>
		</g>
		<path fill="#181B48" d="M10.9,38.1c-1.7,0-3.1,1.4-3.1,3.1c0,1.7,1.4,3.1,3.1,3.1c1.7,0,3.1-1.4,3.1-3.1
			C14,39.5,12.6,38.1,10.9,38.1L10.9,38.1z M10.9,42c-0.5,0-0.8-0.4-0.8-0.8c0-0.5,0.4-0.8,0.8-0.8c0.5,0,0.8,0.4,0.8,0.8
			C11.7,41.7,11.3,42,10.9,42L10.9,42z M10.9,42"/>
		<path fill="#181B48" d="M29.2,36L29.2,36c-0.7,0.2-1.1,0.8-0.9,1.4c0.1,0.5,0.6,0.9,1.1,0.9c0.1,0,0.2,0,0.3,0l0.1,0
			c0.6-0.1,1-0.8,0.9-1.4C30.4,36.3,29.8,35.9,29.2,36L29.2,36z M29.2,36"/>
		<path fill="#181B48" d="M10.7,48.3L10.7,48.3c-0.7,0.2-1.1,0.8-0.9,1.4c0.1,0.5,0.6,0.9,1.1,0.9c0.1,0,0.2,0,0.3,0l0.1,0
			c0.6-0.1,1-0.8,0.9-1.4C12,48.6,11.3,48.2,10.7,48.3L10.7,48.3z M10.7,48.3"/>
		<path fill="#181B48" d="M35.6,26c6.8,0,12.3-5.5,12.3-12.3c0-6.8-5.5-12.3-12.3-12.3c-2.8,0-5.4,0.9-7.6,2.6
			c-0.5,0.4-1,0.8-1.4,1.3C26,6,25.4,6.8,24.9,7.6c-1.1,1.8-1.6,4-1.6,6.1C23.3,20.5,28.8,26,35.6,26L35.6,26z M26.9,8.8
			c0.4-0.7,0.8-1.3,1.4-1.8c0.4-0.4,0.7-0.7,1.1-1c1.8-1.4,3.9-2.1,6.1-2.1c5.5,0,10,4.5,10,10s-4.5,10-10,10c-5.5,0-10-4.5-10-10
			C25.6,12,26.1,10.3,26.9,8.8L26.9,8.8z M26.9,8.8"/>
		<path fill="#181B48" d="M36.6,17.7C36.2,18,35.5,18,35.1,18c-0.8,0-1.5-0.9-1.5-2c0-0.6-0.5-1.2-1.2-1.2c-0.6,0-1.2,0.5-1.2,1.2
			c0,2,1.2,3.7,2.9,4.2c0,0.6,0.5,1.1,1.2,1.1c0.6,0,1.1-0.5,1.2-1.1c1.7-0.4,3.1-1.7,3.1-3.9c0-2.6-2.7-4-4-4c0,0-1.7-0.2-1.7-1.2
			c0-1.7,1.7-1.7,1.7-1.7c0.3,0,0.7,0.2,1,0.5c0.1,0.1,0.2,0.2,0.2,0.8c0,0.6,0.5,1.2,1.2,1.2c0.6,0,1.2-0.5,1.2-1.2
			c0-0.7,0-1.6-0.8-2.4c-0.5-0.5-1.1-0.9-1.7-1c0-0.6-0.5-1.1-1.2-1.1c-0.6,0-1.2,0.5-1.2,1.2v0.1c-1.3,0.5-2.6,1.6-2.6,3.8
			c0,2.7,2.8,3.6,4,3.6c0.3,0,1.7,0.6,1.7,1.7C37.3,17,37.1,17.4,36.6,17.7L36.6,17.7z M36.6,17.7"/>
	</g>
</g>
</svg>
