<?xml version="1.0" encoding="utf-8"?>
<!-- Generator: Adobe Illustrator 18.0.0, SVG Export Plug-In . SVG Version: 6.00 Build 0)  -->
<!DOCTYPE svg PUBLIC "-//W3C//DTD SVG 1.1//EN" "http://www.w3.org/Graphics/SVG/1.1/DTD/svg11.dtd">
<svg version="1.1" id="Layer_1" xmlns="http://www.w3.org/2000/svg" xmlns:xlink="http://www.w3.org/1999/xlink" x="0px" y="0px"
	 viewBox="0 0 51.3 51.3" enable-background="new 0 0 51.3 51.3" xml:space="preserve">
<path fill="#181B48" d="M50.4,23.5l-7.5-6.9V5.2h-8.6v3.4l-8.6-8L1,23.5c-0.3,0.3-0.4,0.9,0,1.2c0.3,0.3,0.9,0.4,1.2,0L5,22.1v28.7
	h41.3V22.1l2.9,2.7c0.2,0.2,0.4,0.2,0.6,0.2c0.2,0,0.5-0.1,0.6-0.3C50.7,24.3,50.7,23.8,50.4,23.5L50.4,23.5z M36,6.9h5.2v8L36,10.1
	V6.9z M20.5,49.1V30.9c0-0.4,0.4-0.8,0.8-0.8H30c0.4,0,0.8,0.4,0.8,0.8v18.1H20.5z M44.6,49.1H32.6V30.9c0-1.4-1.1-2.5-2.5-2.5h-8.7
	c-1.4,0-2.5,1.1-2.5,2.5v18.1H6.7V20.5L25.7,2.9L38,14.3l4.9,4.6l1.7,1.6V49.1z M44.6,49.1"/>
</svg>
