<?xml version="1.0" encoding="utf-8"?>
<!-- Generator: Adobe Illustrator 18.0.0, SVG Export Plug-In . SVG Version: 6.00 Build 0)  -->
<!DOCTYPE svg PUBLIC "-//W3C//DTD SVG 1.1//EN" "http://www.w3.org/Graphics/SVG/1.1/DTD/svg11.dtd">
<svg version="1.1" id="Layer_1" xmlns="http://www.w3.org/2000/svg" xmlns:xlink="http://www.w3.org/1999/xlink" x="0px" y="0px"
	 viewBox="0 0 196.4 44.1" enable-background="new 0 0 196.4 44.1" xml:space="preserve">
<g id="XMLID_113_">
	<path id="XMLID_4715_" fill="#FFFFFF" d="M22.3,1.3c-11.1,0-20.1,9-20.1,20.1c0,8.3,5,15.4,12.2,18.5l13.2-13.2
		c2.9-2.9,2.9-7.7,0-10.6c-2.9-2.9-7.7-2.9-10.6,0c-1.4,1.4-2.2,3.3-2.2,5.3c0,2,0.8,3.9,2.2,5.3c0.7,0.7,0.7,1.7,0,2.4
		c-0.7,0.7-1.7,0.7-2.4,0c-2.1-2.1-3.2-4.8-3.2-7.7c0-2.9,1.1-5.6,3.2-7.7c4.3-4.3,11.2-4.3,15.4,0s4.3,11.2,0,15.4L18.1,41
		c1.4,0.3,2.8,0.4,4.2,0.4c11.1,0,20.1-9,20.1-20.1C42.4,10.2,33.4,1.3,22.3,1.3z"/>
	<g id="XMLID_4709_">
		<path id="XMLID_4710_" fill="#FFFFFF" d="M188.9,15.7L188.9,15.7c0-1.5,1.2-2.7,2.6-2.7c1.5,0,2.6,1.2,2.6,2.6v0
			c0,1.4-1.2,2.6-2.6,2.6C190.1,18.3,188.9,17.1,188.9,15.7z M193.8,15.7L193.8,15.7c0-1.2-1-2.3-2.2-2.3c-1.3,0-2.2,1-2.2,2.3v0
			c0,1.2,1,2.2,2.2,2.2C192.8,17.9,193.8,16.9,193.8,15.7z M190.5,14.3h1.2c0.6,0,1,0.3,1,0.8c0,0.4-0.3,0.7-0.6,0.8l0.7,1h-0.6
			l-0.6-0.9h-0.6v0.9h-0.5V14.3z M191.7,15.6c0.3,0,0.5-0.2,0.5-0.4c0-0.3-0.2-0.4-0.5-0.4h-0.6v0.9H191.7z"/>
	</g>
	<g id="XMLID_4566_">
		<path id="XMLID_4706_" fill="#FFFFFF" d="M58.8,13h2.7l7.2,16.5h-3l-1.7-4h-7.8l-1.7,4h-3L58.8,13z M63,23l-2.8-6.6L57.3,23H63z"
			/>
		<path id="XMLID_4689_" fill="#FFFFFF" d="M74.4,13.1h7.3c2.1,0,3.7,0.6,4.7,1.6c0.9,0.9,1.4,2.1,1.4,3.5v0c0,2.7-1.6,4.3-3.9,5
			l4.4,6.2H85l-4-5.7h-3.6v5.7h-2.9V13.1z M81.5,21.3c2.1,0,3.4-1.1,3.4-2.7v0c0-1.8-1.3-2.7-3.4-2.7h-4.2v5.5H81.5z"/>
		<path id="XMLID_4666_" fill="#FFFFFF" d="M94.3,13.1h3.1l5,7.8l5-7.8h3.1v16.4h-2.9V17.8l-5.2,7.7h-0.1l-5.1-7.7v11.7h-2.8V13.1z"
			/>
		<path id="XMLID_4654_" fill="#FFFFFF" d="M123.3,13h2.7l7.2,16.5h-3l-1.7-4h-7.8l-1.7,4h-3L123.3,13z M127.5,23l-2.8-6.6l-2.8,6.6
			H127.5z"/>
		<path id="XMLID_4651_" fill="#FFFFFF" d="M138.9,13.1h7.3c2.1,0,3.7,0.6,4.7,1.6c0.9,0.9,1.4,2.1,1.4,3.5v0c0,2.7-1.6,4.3-3.9,5
			l4.4,6.2h-3.4l-4-5.7h-3.6v5.7h-2.9V13.1z M146,21.3c2.1,0,3.4-1.1,3.4-2.7v0c0-1.8-1.3-2.7-3.4-2.7h-4.2v5.5H146z"/>
		<path id="XMLID_4635_" fill="#FFFFFF" d="M158.9,13.1h2.9v16.4h-2.9V13.1z"/>
		<path id="XMLID_4571_" fill="#FFFFFF" d="M168.4,21.4L168.4,21.4c0-4.7,3.6-8.5,8.6-8.5s8.6,3.8,8.6,8.4v0c0,4.6-3.6,8.5-8.6,8.5
			C171.9,29.8,168.4,26,168.4,21.4z M182.5,21.4L182.5,21.4c0-3.2-2.3-5.9-5.6-5.9c-3.3,0-5.5,2.6-5.5,5.8v0c0,3.2,2.3,5.8,5.6,5.8
			C180.2,27.2,182.5,24.6,182.5,21.4z"/>
	</g>
	<g id="XMLID_3659_">
		<path id="XMLID_4515_" fill="#FFFFFF" d="M149.5,37.3h1l1.7,2.6l1.7-2.6h1v5.5h-1v-3.9l-1.7,2.6h0l-1.7-2.6v3.9h-0.9V37.3z"/>
		<path id="XMLID_4505_" fill="#FFFFFF" d="M158.7,40.1L158.7,40.1c0-1.6,1.2-2.8,2.9-2.8c1.7,0,2.8,1.3,2.8,2.8v0
			c0,1.5-1.2,2.8-2.9,2.8C159.9,42.9,158.7,41.6,158.7,40.1z M163.4,40.1L163.4,40.1c0-1.1-0.8-2-1.9-2c-1.1,0-1.8,0.9-1.8,1.9v0
			c0,1.1,0.8,1.9,1.9,1.9C162.7,42,163.4,41.1,163.4,40.1z M162.1,35.7l0.9,0.4l-1,0.8h-0.7L162.1,35.7z"/>
		<path id="XMLID_4348_" fill="#FFFFFF" d="M167.5,37.3h1.1l1.6,4.2l1.6-4.2h1l-2.3,5.5h-0.8L167.5,37.3z"/>
		<path id="XMLID_4337_" fill="#FFFFFF" d="M176.6,37.3h1v5.5h-1V37.3z"/>
		<path id="XMLID_4231_" fill="#FFFFFF" d="M181.7,37.3h1v4.6h2.9v0.9h-3.8V37.3z"/>
	</g>
</g>
</svg>
