<?xml version="1.0" encoding="utf-8"?>
<!-- Generator: Adobe Illustrator 18.0.0, SVG Export Plug-In . SVG Version: 6.00 Build 0)  -->
<!DOCTYPE svg PUBLIC "-//W3C//DTD SVG 1.1//EN" "http://www.w3.org/Graphics/SVG/1.1/DTD/svg11.dtd">
<svg version="1.1" id="Layer_1" xmlns="http://www.w3.org/2000/svg" xmlns:xlink="http://www.w3.org/1999/xlink" x="0px" y="0px"
	 viewBox="0 0 11.4 14.2" enable-background="new 0 0 11.4 14.2" xml:space="preserve">
<path id="XMLID_4560_" fill="#666666" d="M9.4,1.5H7.4l0-0.1c-0.3-0.6-1-1-1.7-1C5,0.4,4.3,0.8,4,1.4l0,0.1H1.9
	c-0.2,0-0.4,0.2-0.4,0.3c0,0.2,0.2,0.3,0.4,0.3h1.9l0,0.1c0,0.1,0,0.2,0,0.3l0,0.1l-0.1,0C2.9,2.8,2.3,3.6,2.3,4.4v5.3
	c0,1,0.8,1.8,1.8,1.8l0.1,0v0.8c0,0.8,0.6,1.4,1.4,1.4h0.2c0.8,0,1.4-0.6,1.4-1.4v-0.8l0.1,0c1,0,1.8-0.8,1.8-1.8V4.4
	c0-0.9-0.6-1.6-1.5-1.8l-0.1,0l0-0.1c0-0.1,0-0.2,0-0.3l0-0.1h1.9c0.2,0,0.4-0.2,0.4-0.3C9.8,1.6,9.6,1.5,9.4,1.5z M5.7,1
	c0.6,0,1.1,0.5,1.1,1.1c0,0.6-0.5,1.1-1.1,1.1C5,3.3,4.5,2.8,4.5,2.2C4.5,1.5,5,1,5.7,1z M6.5,12.3c0,0.4-0.3,0.7-0.7,0.7H5.6
	c-0.4,0-0.7-0.3-0.7-0.7V9.9c0-0.4,0.3-0.7,0.7-0.7h0.2c0.4,0,0.7,0.3,0.7,0.7V12.3z M8.3,4.4v5.3c0,0.6-0.5,1.1-1.1,1.1l-0.1,0V9.9
	c0-0.8-0.6-1.4-1.4-1.4H5.6c-0.8,0-1.4,0.6-1.4,1.4v0.9l-0.1,0C3.5,10.8,3,10.3,3,9.7V4.4c0-0.6,0.5-1.1,1.1-1.1h0.1l0,0l0,0
	C4.6,3.8,5.1,4,5.7,4c0.6,0,1.1-0.3,1.5-0.7l0,0l0.1,0C7.8,3.3,8.3,3.7,8.3,4.4z"/>
</svg>
