<?xml version="1.0" encoding="utf-8"?>
<!-- Generator: Adobe Illustrator 18.0.0, SVG Export Plug-In . SVG Version: 6.00 Build 0)  -->
<!DOCTYPE svg PUBLIC "-//W3C//DTD SVG 1.1//EN" "http://www.w3.org/Graphics/SVG/1.1/DTD/svg11.dtd">
<svg version="1.1" id="Layer_1" xmlns="http://www.w3.org/2000/svg" xmlns:xlink="http://www.w3.org/1999/xlink" x="0px" y="0px"
	 viewBox="0 0 14.7 23.8" enable-background="new 0 0 14.7 23.8" xml:space="preserve">
<path id="XMLID_20_" fill="#FFFFFF" d="M13.5,2.7h-3.4l0-0.1c-0.5-1-1.6-1.7-2.7-1.7c-1.1,0-2.2,0.6-2.7,1.7l0,0.1H1.2
	C0.9,2.7,0.6,3,0.6,3.3c0,0.3,0.3,0.6,0.6,0.6h3.1l0,0.2c0,0.1,0,0.3,0,0.5l0,0.2l-0.2,0C2.9,4.9,1.9,6.2,1.9,7.6v8.7
	c0,1.6,1.3,2.9,2.9,3l0.2,0v1.4c0,1.3,1,2.2,2.3,2.2h0.3c1.3,0,2.3-1,2.3-2.2v-1.4l0.2,0c1.6,0,2.9-1.4,2.9-3V7.6
	c0-1.4-1-2.6-2.4-2.9l-0.2,0l0-0.2c0-0.2,0-0.3,0-0.5l0-0.2h3.1c0.3,0,0.6-0.3,0.6-0.6C14.1,3,13.8,2.7,13.5,2.7z M7.4,2
	c1,0,1.9,0.8,1.9,1.9c0,1-0.8,1.9-1.9,1.9c-1,0-1.9-0.8-1.9-1.9C5.5,2.8,6.3,2,7.4,2z M8.6,20.5c0,0.6-0.5,1.1-1.1,1.1H7.2
	c-0.6,0-1.1-0.5-1.1-1.1v-4c0-0.6,0.5-1.1,1.1-1.1h0.3c0.6,0,1.1,0.5,1.1,1.1V20.5z M11.7,7.4v8.7c0,1-0.8,1.8-1.7,1.8l-0.2,0v-1.4
	c0-1.3-1.1-2.3-2.3-2.3H7.2c-1.2,0-2.3,1-2.3,2.3V18l-0.2,0c-1,0-1.7-0.8-1.7-1.8V7.4c0-1,0.8-1.7,1.8-1.7h0.1l0.1,0l0,0
	c0.6,0.7,1.4,1.1,2.4,1.1c0.9,0,1.8-0.4,2.4-1.2l0.1-0.1h0.1C10.9,5.6,11.7,6.4,11.7,7.4z"/>
</svg>
