<?xml version="1.0" encoding="utf-8"?>
<!-- Generator: Adobe Illustrator 18.0.0, SVG Export Plug-In . SVG Version: 6.00 Build 0)  -->
<!DOCTYPE svg PUBLIC "-//W3C//DTD SVG 1.1//EN" "http://www.w3.org/Graphics/SVG/1.1/DTD/svg11.dtd">
<svg version="1.1" id="Layer_1" xmlns="http://www.w3.org/2000/svg" xmlns:xlink="http://www.w3.org/1999/xlink" x="0px" y="0px"
	 viewBox="0 0 51.3 51.3" enable-background="new 0 0 51.3 51.3" xml:space="preserve">
<g>
	<g>
		<path fill="#181B48" d="M26.5,13.8H14.7v11.8h11.9V13.8z M24.8,24h-8.5v-8.5h8.5V24z M24.8,24"/>
		<path fill="#181B48" d="M44.3,13.8H30.7c-0.5,0-0.8,0.4-0.8,0.8c0,0.5,0.4,0.8,0.8,0.8h13.5c0.5,0,0.8-0.4,0.8-0.8
			C45.1,14.2,44.8,13.8,44.3,13.8L44.3,13.8z M44.3,13.8"/>
		<path fill="#181B48" d="M44.3,18.9H30.7c-0.5,0-0.8,0.4-0.8,0.8c0,0.5,0.4,0.8,0.8,0.8h13.5c0.5,0,0.8-0.4,0.8-0.8
			C45.1,19.3,44.8,18.9,44.3,18.9L44.3,18.9z M44.3,18.9"/>
		<path fill="#181B48" d="M44.3,24H30.7c-0.5,0-0.8,0.4-0.8,0.8c0,0.5,0.4,0.8,0.8,0.8h13.5c0.5,0,0.8-0.4,0.8-0.8
			C45.1,24.4,44.8,24,44.3,24L44.3,24z M44.3,24"/>
		<path fill="#181B48" d="M44.3,29.1H16.4c-0.5,0-0.8,0.4-0.8,0.8c0,0.5,0.4,0.8,0.8,0.8h27.9c0.5,0,0.8-0.4,0.8-0.8
			C45.1,29.4,44.8,29.1,44.3,29.1L44.3,29.1z M44.3,29.1"/>
		<path fill="#181B48" d="M29.1,34.1H16.4c-0.5,0-0.8,0.4-0.8,0.8c0,0.5,0.4,0.8,0.8,0.8h12.7c0.5,0,0.8-0.4,0.8-0.8
			C29.9,34.5,29.5,34.1,29.1,34.1L29.1,34.1z M29.1,34.1"/>
		<path fill="#181B48" d="M29.1,39.2H16.4c-0.5,0-0.8,0.4-0.8,0.8c0,0.5,0.4,0.8,0.8,0.8h12.7c0.5,0,0.8-0.4,0.8-0.8
			C29.9,39.6,29.5,39.2,29.1,39.2L29.1,39.2z M29.1,39.2"/>
		<path fill="#181B48" d="M29.1,44.3H16.4c-0.5,0-0.8,0.4-0.8,0.8c0,0.5,0.4,0.8,0.8,0.8h12.7c0.5,0,0.8-0.4,0.8-0.8
			C29.9,44.7,29.5,44.3,29.1,44.3L29.1,44.3z M29.1,44.3"/>
		<path fill="#181B48" d="M33.3,46h11.9V34.1H33.3V46z M35,35.8h8.5v8.5H35V35.8z M35,35.8"/>
		<path fill="#181B48" d="M50.2,11.3C50.2,11.3,50.2,11.3,50.2,11.3l0-11H9.6v25.4H1.1V46c0,2.8,2.3,5.1,5.1,5.1h38.9
			c2.8,0,5.1-2.3,5.1-5.1L50.2,11.3C50.2,11.3,50.2,11.3,50.2,11.3L50.2,11.3z M48.5,2v8.5H11.3V2H48.5z M2.8,46V27.4h6.8V46
			c0,1.9-1.5,3.4-3.4,3.4C4.3,49.4,2.8,47.9,2.8,46L2.8,46z M45.1,49.4H10c0,0,0,0,0,0c0.2-0.2,0.3-0.4,0.5-0.6c0,0,0-0.1,0.1-0.1
			c0.1-0.2,0.3-0.5,0.4-0.7c0,0,0-0.1,0-0.1c0.1-0.3,0.2-0.5,0.2-0.8c0,0,0-0.1,0-0.1c0.1-0.3,0.1-0.6,0.1-0.9V12.1h37.2V46
			C48.5,47.9,47,49.4,45.1,49.4L45.1,49.4z M45.1,49.4"/>
		<path fill="#181B48" d="M40.1,3.7H19.7v5.1h20.3V3.7z M38.4,7H21.4V5.4h16.9V7z M38.4,7"/>
	</g>
</g>
</svg>
