<?xml version="1.0" encoding="utf-8"?>
<!-- Generator: Adobe Illustrator 18.0.0, SVG Export Plug-In . SVG Version: 6.00 Build 0)  -->
<!DOCTYPE svg PUBLIC "-//W3C//DTD SVG 1.1//EN" "http://www.w3.org/Graphics/SVG/1.1/DTD/svg11.dtd">
<svg version="1.1" id="Layer_1" xmlns="http://www.w3.org/2000/svg" xmlns:xlink="http://www.w3.org/1999/xlink" x="0px" y="0px"
	 viewBox="0 0 13 12" enable-background="new 0 0 13 12" xml:space="preserve">
<g id="XMLID_4662_">
	<g>
		<circle id="XMLID_4681_" fill="#666666" cx="6.5" cy="6" r="5.9"/>
		<g id="XMLID_4667_">
			<path id="XMLID_4670_" fill="#FFFFFF" d="M7,8C6.5,8,6.3,7.7,6,7.5c-0.2,1-0.4,2-1.1,2.5C4.7,8.5,5.2,7.3,5.4,6.1
				C5,5.4,5.5,4,6.4,4.3C7.4,4.8,5.4,7,6.8,7.2c1.4,0.3,2-2.5,1.1-3.4c-1.3-1.3-3.7,0-3.4,1.8C4.6,6.2,5,6.3,4.7,6.9
				c-0.8-0.2-1.1-0.8-1-1.7c0.1-1.4,1.3-2.4,2.5-2.5c1.5-0.2,3,0.6,3.2,2C9.5,6.3,8.6,8.1,7,8L7,8z"/>
		</g>
	</g>
</g>
</svg>
