<?xml version="1.0" encoding="utf-8"?>
<!-- Generator: Adobe Illustrator 18.0.0, SVG Export Plug-In . SVG Version: 6.00 Build 0)  -->
<!DOCTYPE svg PUBLIC "-//W3C//DTD SVG 1.1//EN" "http://www.w3.org/Graphics/SVG/1.1/DTD/svg11.dtd">
<svg version="1.1" id="Layer_1" xmlns="http://www.w3.org/2000/svg" xmlns:xlink="http://www.w3.org/1999/xlink" x="0px" y="0px"
	 viewBox="0 0 21.9 22.7" enable-background="new 0 0 21.9 22.7" xml:space="preserve">
<g id="XMLID_3769_">
	<path id="XMLID_4519_" fill="#FFFFFF" d="M20.8,12.5l-8.3-8.3c-0.4-0.4-1-0.7-1.6-0.7c-0.1,0-0.1,0-0.2,0l-6,0.4
		c-0.7,0-1.2,0.6-1.2,1.2L3.3,7.3C3,7.1,2.8,6.9,2.5,6.6C1.8,6,1.5,5.2,1.4,4.3C1.3,3.6,1.5,2.9,2,2.4c1-1,2.9-0.8,4.2,0.5
		c0.2,0.2,0.6,0.2,0.8,0c0.2-0.2,0.2-0.6,0-0.8C5.2,0.4,2.7,0.2,1.2,1.6C0.5,2.3,0.1,3.3,0.3,4.5c0.1,1.1,0.6,2.1,1.4,2.9
		c0.5,0.5,1,0.8,1.6,1.1l-0.2,2.7c0,0.7,0.2,1.3,0.7,1.8l8.3,8.3c0.5,0.5,1.2,0.8,2,0.8l0,0c0.7,0,1.4-0.3,2-0.8l4.8-4.8
		c0.5-0.5,0.8-1.2,0.8-2C21.6,13.7,21.3,13,20.8,12.5z M20,15.6l-4.8,4.8C14.9,20.8,14.5,21,14,21l0,0c-0.4,0-0.9-0.2-1.2-0.5
		l-8.3-8.3c-0.2-0.2-0.4-0.6-0.4-0.9l0.2-2.4c0.1,0,0.2,0,0.3,0c0.1,0,0.3,0,0.4,0c0.9,0,1.8-0.3,2.4-1c0.2-0.2,0.2-0.6,0-0.8
		c-0.2-0.2-0.6-0.2-0.8,0C6.2,7.6,5.5,7.8,4.7,7.7c-0.1,0-0.2,0-0.3,0l0.2-2.5C4.6,5.1,4.7,5,4.8,5l6-0.4c0,0,0.1,0,0.1,0
		c0.3,0,0.6,0.1,0.9,0.4l8.3,8.3c0.3,0.3,0.5,0.7,0.5,1.2C20.5,14.9,20.4,15.3,20,15.6z"/>
</g>
</svg>
