<?xml version="1.0" encoding="utf-8"?>
<!-- Generator: Adobe Illustrator 18.0.0, SVG Export Plug-In . SVG Version: 6.00 Build 0)  -->
<!DOCTYPE svg PUBLIC "-//W3C//DTD SVG 1.1//EN" "http://www.w3.org/Graphics/SVG/1.1/DTD/svg11.dtd">
<svg version="1.1" id="Layer_1" xmlns="http://www.w3.org/2000/svg" xmlns:xlink="http://www.w3.org/1999/xlink" x="0px" y="0px"
	 viewBox="0 0 51.3 51.3" enable-background="new 0 0 51.3 51.3" xml:space="preserve">
<g>
	<path fill="#181B48" d="M50.4,4.5c0-0.9-0.3-1.7-1-2.4c-0.6-0.6-1.5-1-2.4-1c-0.9,0-1.7,0.3-2.4,1c-0.3,0.3-0.8,0.8-1,1.2
		c-0.3,0.3-0.2,0.8,0.1,1.1c0.3,0.3,0.8,0.2,1.1-0.1c0.4-0.5,0.8-0.9,0.9-1.1c0.3-0.3,0.8-0.5,1.3-0.5c0,0,0,0,0,0
		c0.5,0,0.9,0.2,1.2,0.5c0.3,0.3,0.5,0.8,0.5,1.2c0,0.5-0.2,0.9-0.5,1.3c-0.3,0.3-1.3,1.1-2.8,2.1c-0.9-1.5-2.5-2.5-4.3-2.5
		L29.4,5.3c-1.6,0-3.1,0.6-4.2,1.7L1.7,30.1C1.2,30.6,1,31.2,1,31.9s0.3,1.3,0.7,1.8l15.5,15.8c0.5,0.5,1.1,0.7,1.8,0.7
		s1.3-0.2,1.8-0.7l23.5-23.2c1.1-1.1,1.7-2.6,1.8-4.2l0.1-11.7c0-0.3,0-0.7-0.1-1c1.7-1.1,2.9-2.1,3.4-2.5C50,6.3,50.4,5.4,50.4,4.5
		z M44.5,10.4l-0.1,11.7c0,1.1-0.5,2.2-1.3,3L19.6,48.3c-0.4,0.3-0.9,0.3-1.3,0L2.8,32.6c-0.2-0.2-0.3-0.4-0.3-0.6
		c0-0.2,0.1-0.5,0.3-0.6L26.3,8.1c0.8-0.8,1.9-1.2,3.1-1.2L41.1,7c1.3,0,2.4,0.8,3,1.8c-0.9,0.6-2,1.3-3.1,1.9c0,0-0.1-0.1-0.1-0.1
		c-1.3-1.3-3.4-1.3-4.7,0c-1.3,1.3-1.3,3.4,0,4.7c0.6,0.7,1.5,1,2.4,1c0.9,0,1.7-0.3,2.4-1c0.9-0.9,1.2-2.1,0.9-3.2
		C42.7,11.6,43.6,11,44.5,10.4C44.5,10.4,44.5,10.4,44.5,10.4z M37.8,13.3c0.1,0.3,0.4,0.4,0.7,0.4c0.1,0,0.2,0,0.4-0.1
		c0.5-0.2,0.9-0.5,1.4-0.7c0,0.5-0.2,0.9-0.5,1.3c-0.7,0.7-1.8,0.7-2.5,0c-0.7-0.7-0.7-1.8,0-2.5c0.3-0.3,0.8-0.5,1.2-0.5
		c0.4,0,0.7,0.1,1,0.3c-0.5,0.2-0.9,0.5-1.4,0.7C37.7,12.4,37.6,12.9,37.8,13.3z"/>
	<path fill="#181B48" d="M24.8,17.2c-0.4,0-0.8,0.4-0.8,0.8l-0.1,16.8c0,0.4,0.4,0.8,0.8,0.8c0.4,0,0.8-0.4,0.8-0.8L25.6,18
		C25.6,17.6,25.3,17.2,24.8,17.2z"/>
	<path fill="#181B48" d="M16.4,24c-1.3,1.3-1.3,3.4,0,4.7c0.6,0.7,1.5,1,2.4,1c0.9,0,1.7-0.3,2.4-1c0.6-0.6,1-1.5,1-2.4
		s-0.3-1.7-1-2.4C19.8,22.7,17.7,22.7,16.4,24z M20,27.7c-0.7,0.7-1.8,0.7-2.5,0c-0.7-0.7-0.7-1.8,0-2.5c0.3-0.3,0.8-0.5,1.2-0.5
		c0.4,0,0.9,0.2,1.2,0.5l0,0c0.3,0.3,0.5,0.8,0.5,1.2C20.5,26.9,20.3,27.3,20,27.7z"/>
	<path fill="#181B48" d="M28.4,24.1c-1.3,1.3-1.3,3.4,0,4.7c0.6,0.7,1.5,1,2.4,1c0.9,0,1.7-0.3,2.4-1c1.3-1.3,1.3-3.4,0-4.7
		C31.9,22.8,29.7,22.8,28.4,24.1z M32,27.8c-0.7,0.7-1.8,0.7-2.5,0c-0.7-0.7-0.7-1.8,0-2.5c0.3-0.3,0.8-0.5,1.2-0.5
		c0.4,0,0.9,0.2,1.2,0.5C32.7,26,32.7,27.1,32,27.8z"/>
</g>
</svg>
