<?xml version="1.0" encoding="utf-8"?>
<!-- Generator: Adobe Illustrator 18.0.0, SVG Export Plug-In . SVG Version: 6.00 Build 0)  -->
<!DOCTYPE svg PUBLIC "-//W3C//DTD SVG 1.1//EN" "http://www.w3.org/Graphics/SVG/1.1/DTD/svg11.dtd">
<svg version="1.1" id="Layer_1" xmlns="http://www.w3.org/2000/svg" xmlns:xlink="http://www.w3.org/1999/xlink" x="0px" y="0px"
	 viewBox="0 0 51.3 51.3" enable-background="new 0 0 51.3 51.3" xml:space="preserve">
<path fill="#181B48" d="M10.6,49.3c-0.2,0-0.4-0.1-0.5-0.2c-0.3-0.2-0.4-0.5-0.3-0.9l2.9-16.1L0.9,20.7c-0.2-0.2-0.3-0.6-0.2-0.9
	c0.1-0.3,0.4-0.6,0.7-0.6l16.2-2.2L25,2.3c0.2-0.3,0.5-0.5,0.8-0.5c0.3,0,0.6,0.2,0.8,0.5L33.7,17l16.2,2.5c0.3,0.1,0.6,0.3,0.7,0.6
	c0.1,0.3,0,0.7-0.2,0.9L38.6,32.4l2.6,16.1c0.1,0.3-0.1,0.7-0.4,0.9c-0.3,0.2-0.6,0.2-0.9,0.1l-14.4-7.7L11,49.2
	C10.8,49.3,10.7,49.3,10.6,49.3L10.6,49.3z M3.5,20.7l10.7,10.6c0.2,0.2,0.3,0.5,0.2,0.8l-2.6,14.8l13.3-6.9c0.3-0.1,0.6-0.1,0.8,0
	L39.2,47l-2.4-14.8c0-0.3,0.1-0.6,0.3-0.8L47.8,21L33,18.7c-0.3,0-0.5-0.2-0.7-0.5L25.8,4.7L19,18.1c-0.1,0.3-0.4,0.4-0.7,0.5
	L3.5,20.7z M3.5,20.7"/>
</svg>
