<?xml version="1.0" encoding="utf-8"?>
<!-- Generator: Adobe Illustrator 18.0.0, SVG Export Plug-In . SVG Version: 6.00 Build 0)  -->
<!DOCTYPE svg PUBLIC "-//W3C//DTD SVG 1.1//EN" "http://www.w3.org/Graphics/SVG/1.1/DTD/svg11.dtd">
<svg version="1.1" id="Layer_1" xmlns="http://www.w3.org/2000/svg" xmlns:xlink="http://www.w3.org/1999/xlink" x="0px" y="0px"
	 viewBox="0 0 30 30" enable-background="new 0 0 30 30" xml:space="preserve">
<g id="XMLID_106_">
	<path id="WhatsApp_1_" fill="#666666" d="M29.4,14.6c0,7.8-6.3,14.1-14.2,14.1c-2.5,0-4.8-0.6-6.8-1.7l-7.8,2.5l2.6-7.5
		c-1.3-2.1-2-4.6-2-7.3c0-7.8,6.3-14.1,14.2-14.1C23.1,0.6,29.4,6.9,29.4,14.6z M15.3,2.8C8.7,2.8,3.4,8.1,3.4,14.6
		c0,2.6,0.8,5,2.3,6.9l-1.5,4.4l4.6-1.5c1.9,1.2,4.1,2,6.6,2c6.6,0,11.9-5.3,11.9-11.8C27.2,8.1,21.8,2.8,15.3,2.8z M22.4,17.9
		c-0.1-0.1-0.3-0.2-0.7-0.4c-0.3-0.2-2.1-1-2.4-1.1c-0.3-0.1-0.6-0.2-0.8,0.2c-0.2,0.3-0.9,1.1-1.1,1.4c-0.2,0.2-0.4,0.3-0.8,0.1
		c-0.3-0.2-1.5-0.5-2.8-1.7c-1-0.9-1.7-2-1.9-2.4c-0.2-0.3,0-0.5,0.2-0.7c0.2-0.2,0.3-0.4,0.5-0.6c0.2-0.2,0.2-0.3,0.3-0.6
		c0.1-0.2,0.1-0.4,0-0.6c-0.1-0.2-0.8-1.9-1.1-2.6c-0.3-0.7-0.6-0.6-0.8-0.6c-0.2,0-0.4,0-0.7,0S9.9,8.3,9.6,8.6
		C9.3,9,8.4,9.8,8.4,11.5c0,1.7,1.2,3.3,1.4,3.6c0.2,0.2,2.4,3.8,5.9,5.2c3.5,1.4,3.5,0.9,4.2,0.9c0.6-0.1,2.1-0.8,2.3-1.6
		C22.5,18.7,22.5,18,22.4,17.9z"/>
</g>
</svg>
