<?xml version="1.0" encoding="utf-8"?>
<!-- Generator: Adobe Illustrator 18.0.0, SVG Export Plug-In . SVG Version: 6.00 Build 0)  -->
<!DOCTYPE svg PUBLIC "-//W3C//DTD SVG 1.1//EN" "http://www.w3.org/Graphics/SVG/1.1/DTD/svg11.dtd">
<svg version="1.1" id="Layer_1" xmlns="http://www.w3.org/2000/svg" xmlns:xlink="http://www.w3.org/1999/xlink" x="0px" y="0px"
	 viewBox="0 0 26 26" enable-background="new 0 0 26 26" xml:space="preserve">
<g id="XMLID_4452_">
	<path id="XMLID_4453_" fill="#181B48" d="M4.3,23.5c-0.4,0-0.6-0.3-0.6-0.6c0-0.2,0-0.4,0-0.6L4.7,8.7c0.1-0.8,0.7-1.4,1.5-1.4h2.3
		V7c0-2.5,2-4.5,4.5-4.5l0,0c2.5,0,4.5,2.1,4.5,4.6v0.2h2.3c0.8,0,1.5,0.6,1.5,1.4l1.1,13.5v0.6c0,0.4-0.3,0.6-0.6,0.6H4.3z
		 M6.2,8.4C6,8.4,5.8,8.6,5.8,8.8L4.7,22.4h16.5L20.2,8.8c0-0.2-0.2-0.4-0.4-0.4h-2.3v1.9c0,0.3-0.3,0.6-0.6,0.6s-0.6-0.3-0.6-0.6
		V8.4H9.6v1.9c0,0.3-0.3,0.6-0.6,0.6s-0.6-0.3-0.6-0.6V8.4H6.2z M13,3.7c-1.9,0-3.4,1.5-3.4,3.4v0.2h6.8V7C16.4,5.2,14.9,3.7,13,3.7
		z"/>
</g>
</svg>
