<?xml version="1.0" encoding="utf-8"?>
<!-- Generator: Adobe Illustrator 18.0.0, SVG Export Plug-In . SVG Version: 6.00 Build 0)  -->
<!DOCTYPE svg PUBLIC "-//W3C//DTD SVG 1.1//EN" "http://www.w3.org/Graphics/SVG/1.1/DTD/svg11.dtd">
<svg version="1.1" xmlns="http://www.w3.org/2000/svg" xmlns:xlink="http://www.w3.org/1999/xlink" x="0px" y="0px"
	 viewBox="0 0 40 40" enable-background="new 0 0 40 40" xml:space="preserve">
<g id="BACK">
</g>
<g id="Layer_1">
	<path id="XMLID_29_" fill="#181B48" d="M20.3,37.5c-0.1,0-0.3,0-0.4-0.1c0,0-0.1-0.1-0.1-0.1c-0.1-0.1-0.3-0.2-0.6-0.4
		c-1.3-0.9-4.2-3.1-6.1-4.6C5.8,26.3,1.9,21.9,1.2,18.7c-0.3-1.1-0.5-2.4-0.6-3.6C0.6,11.7,1.9,8.4,4,6c2-2.1,4.6-3.3,7.3-3.3h0
		c3.4,0,6.5,1.6,8.6,4.4c2-2.9,5.1-4.6,8.5-4.7l0.2,0c5.8,0,10.7,5.4,10.7,12c0,1.3-0.1,2.5-0.5,3.7c-0.6,3.1-4.4,7.7-11.5,13.7
		c-2.8,2.4-5,4.2-6.7,5.3C20.6,37.4,20.4,37.5,20.3,37.5z M11.4,4.4c-2.4,0-4.6,1-6.2,2.8c-1.9,2-2.9,4.9-2.9,7.9
		c0,1.1,0.2,2.2,0.5,3.2c0.4,1.9,2.7,5.6,11.3,12.6c1.9,1.5,4.8,3.7,6.1,4.6c0.1,0.1,0.1,0.1,0.2,0.1c1.6-1.1,3.6-2.8,6.1-4.9
		c8.4-7.2,10.6-10.9,10.9-12.8c0.3-1.1,0.5-2.2,0.4-3.3c-0.1-5.7-4.2-10.4-9.1-10.4l-0.2,0c-3.2,0-6.2,1.9-7.8,4.9
		c-0.1,0.3-0.4,0.4-0.7,0.4c-0.2,0-0.6-0.2-0.7-0.4C17.5,6.2,14.6,4.4,11.4,4.4z"/>
</g>
</svg>
