<?xml version="1.0" encoding="utf-8"?>
<!-- Generator: Adobe Illustrator 18.0.0, SVG Export Plug-In . SVG Version: 6.00 Build 0)  -->
<!DOCTYPE svg PUBLIC "-//W3C//DTD SVG 1.1//EN" "http://www.w3.org/Graphics/SVG/1.1/DTD/svg11.dtd">
<svg version="1.1" id="Layer_1" xmlns="http://www.w3.org/2000/svg" xmlns:xlink="http://www.w3.org/1999/xlink" x="0px" y="0px"
	 viewBox="0 0 26 26" enable-background="new 0 0 26 26" xml:space="preserve">
<g id="XMLID_4271_">
	<path id="XMLID_4278_" fill="#181B48" d="M13,18.1c-4.9,0-8.9-4-8.9-8.9c0-4.9,4-8.9,8.9-8.9c4.9,0,8.9,4,8.9,8.9
		C21.9,14.1,17.9,18.1,13,18.1L13,18.1z M13,1.3c-4.3,0-7.9,3.5-7.9,7.9c0,4.3,3.5,7.8,7.9,7.8c4.3,0,7.8-3.5,7.8-7.8
		C20.8,4.8,17.3,1.3,13,1.3L13,1.3z"/>
</g>
<g id="XMLID_3891_">
	<path id="XMLID_4254_" fill="#181B48" d="M13,14.6c-3,0-5.5-2.5-5.5-5.5c0-3,2.5-5.5,5.5-5.5c3,0,5.5,2.5,5.5,5.5
		C18.5,12.2,16,14.6,13,14.6L13,14.6z M13,4.8c-2.4,0-4.4,2-4.4,4.4c0,2.4,2,4.4,4.4,4.4c2.4,0,4.4-2,4.4-4.4
		C17.4,6.8,15.4,4.8,13,4.8L13,4.8z"/>
</g>
<g id="XMLID_3624_">
	<g id="XMLID_3640_">
		<path id="XMLID_3661_" fill="#181B48" d="M8.3,25.8c-0.2,0-0.4-0.1-0.5-0.2L6,22.7l-3.4-0.1c-0.2,0-0.4-0.1-0.5-0.3
			c-0.1-0.2-0.1-0.4,0-0.5l4-7.3c0.1-0.3,0.5-0.4,0.7-0.2c0.3,0.1,0.4,0.5,0.2,0.7l-3.6,6.5l2.8,0.1c0.2,0,0.3,0.1,0.4,0.2l1.5,2.3
			l3.6-6.5c0.1-0.3,0.5-0.4,0.7-0.2c0.3,0.1,0.4,0.5,0.2,0.7l-4,7.3C8.7,25.7,8.5,25.8,8.3,25.8C8.3,25.8,8.3,25.8,8.3,25.8
			L8.3,25.8z"/>
	</g>
	<g id="XMLID_3625_">
		<path id="XMLID_3630_" fill="#181B48" d="M17.7,25.8C17.7,25.8,17.7,25.8,17.7,25.8c-0.2,0-0.4-0.1-0.5-0.3l-4-7.3
			c-0.1-0.3-0.1-0.6,0.2-0.7c0.3-0.1,0.6-0.1,0.7,0.2l3.6,6.5l1.5-2.3c0.1-0.2,0.3-0.2,0.4-0.2l2.8-0.1l-3.6-6.5
			c-0.1-0.3-0.1-0.6,0.2-0.7c0.3-0.1,0.6-0.1,0.7,0.2l4,7.3c0.1,0.2,0.1,0.4,0,0.5c-0.1,0.2-0.3,0.3-0.5,0.3L20,22.7l-1.9,2.8
			C18,25.7,17.9,25.8,17.7,25.8L17.7,25.8z"/>
	</g>
</g>
</svg>
