<?xml version="1.0" encoding="utf-8"?>
<!-- Generator: Adobe Illustrator 18.0.0, SVG Export Plug-In . SVG Version: 6.00 Build 0)  -->
<!DOCTYPE svg PUBLIC "-//W3C//DTD SVG 1.1//EN" "http://www.w3.org/Graphics/SVG/1.1/DTD/svg11.dtd">
<svg version="1.1" id="Layer_1" xmlns="http://www.w3.org/2000/svg" xmlns:xlink="http://www.w3.org/1999/xlink" x="0px" y="0px"
	 viewBox="0 0 37.3 31.4" enable-background="new 0 0 37.3 31.4" xml:space="preserve">
<g id="_x31_ywkoV.tif_1_">
	<g>
		<g>
			<path fill="#FFFFFF" d="M20.4,5.4c2.4,0.6,4.2,1.9,5.4,3.9c0.9,1.5,1.3,3.1,1.3,4.9c0,1.5,0,3.1,0.2,4.6c0.1,0.7,0.4,1.4,0.7,2.1
				c0.2,0.5,0.6,0.8,1.1,0.8c0.4,0,0.5,0.3,0.5,0.7c0,1,0,2.1,0,3.1c0,0.6-0.2,0.8-0.8,0.8c-2.2,0-4.5,0-6.7,0
				c-0.4,0-0.7,0.1-0.8,0.6c-0.3,1.2-1.5,2-2.6,2.1c-1.3,0-2.4-0.8-2.8-2c-0.1-0.2-0.1-0.4-0.2-0.6c-0.2,0-0.4,0-0.6,0
				c-2.1,0-4.3,0-6.4,0c-1.1,0-1.1-0.1-1.1-1.2c0-0.9,0-1.8,0-2.7c0-0.5,0.2-0.7,0.7-0.8c0.7-0.1,1.1-0.6,1.2-1.2
				c0.3-1.1,0.6-2.3,0.7-3.5c0.1-1.5-0.1-3.1,0.2-4.6c0.6-3.4,2.6-5.7,6-6.7c0.5-0.1,0.7-0.3,0.6-0.8c0-0.2,0-0.5,0-0.7
				c0.1-0.8,0.8-1.5,1.6-1.5c0.8,0,1.5,0.5,1.7,1.3C20.4,4.3,20.4,4.8,20.4,5.4z M28.7,25.1c0-0.4,0-0.8,0-1.1c0-0.8,0-1.4-0.8-1.9
				c-1-0.5-1.3-1.7-1.4-2.7c-0.2-1.7-0.2-3.4-0.3-5.1c-0.1-0.9-0.1-1.9-0.4-2.7c-0.9-2.8-2.8-4.5-5.6-5.1c-0.5-0.1-0.8-0.3-0.8-0.9
				c0-0.4,0.1-0.8,0-1.2c-0.1-0.3-0.4-0.6-0.6-0.7C18.3,3.5,18,3.9,18,4.3c0,0.3,0,0.6,0,0.9c0,1,0,1-1,1.2
				c-2.9,0.8-4.8,2.6-5.5,5.5c-0.3,1.4-0.2,2.8-0.3,4.2c-0.1,1.1-0.1,2.3-0.4,3.4c-0.3,1.2-0.8,2.4-2,3c-0.1,0-0.2,0.2-0.2,0.3
				c0,0.7,0,1.5,0,2.3C15.3,25.1,21.9,25.1,28.7,25.1z M16.9,26.3c0.3,1,1,1.5,1.8,1.5c0.7,0,1.7-0.7,1.7-1.5
				C19.2,26.3,18.1,26.3,16.9,26.3z"/>
			<path fill="#FFFFFF" d="M34,16.3c0,2.3-0.6,4.3-2,6c-0.2,0.3-0.5,0.5-0.9,0.2c-0.4-0.3-0.2-0.6,0.1-0.9c2.5-3.1,2.3-7.8,0-10.6
				c-0.2-0.3-0.4-0.6,0-0.9c0.4-0.3,0.6,0,0.9,0.3C33.3,12.3,33.9,14.2,34,16.3z"/>
			<path fill="#FFFFFF" d="M3.3,16.4c0.1-2.1,0.6-4.1,2-5.8c0.3-0.3,0.5-0.6,0.9-0.3c0.4,0.3,0.2,0.6-0.1,0.9
				c-2.3,3.1-2.3,7.3,0,10.4c0.1,0.1,0.2,0.2,0.2,0.2c0,0.3,0,0.5,0,0.8c-0.3,0-0.6,0-0.8-0.1c-0.4-0.5-0.8-1-1.1-1.6
				C3.6,19.5,3.3,17.9,3.3,16.4z"/>
			<path fill="#FFFFFF" d="M30.6,16.6c0,1-0.3,2.1-1.1,3c-0.2,0.3-0.5,0.5-0.9,0.2c-0.3-0.2-0.2-0.5,0-0.8c1.2-1.8,1.2-3.5,0-5.3
				c-0.2-0.3-0.3-0.6,0.1-0.8c0.3-0.2,0.6-0.1,0.8,0.2C30.3,14.1,30.6,15.2,30.6,16.6z"/>
			<path fill="#FFFFFF" d="M6.6,16.3c0-1,0.3-2.1,1.1-3.1c0.2-0.3,0.5-0.5,0.8-0.3c0.4,0.3,0.2,0.6,0,0.9c-1.1,1.7-1.1,3.5,0,5.2
				c0.2,0.3,0.4,0.6,0,0.9c-0.4,0.3-0.6,0-0.9-0.3C7,18.7,6.6,17.6,6.6,16.3z"/>
			<path fill="#FFFFFF" d="M23.7,12.7c0,0.4,0.1,1-0.5,1c-0.7,0-0.5-0.6-0.5-1c0-0.7-0.2-1.2-0.7-1.7c-0.3-0.3-0.5-0.6-0.1-0.9
				c0.4-0.3,0.7-0.1,0.9,0.2C23.4,11,23.7,11.8,23.7,12.7z"/>
		</g>
	</g>
</g>
</svg>
