<?xml version="1.0" encoding="utf-8"?>
<!-- Generator: Adobe Illustrator 18.0.0, SVG Export Plug-In . SVG Version: 6.00 Build 0)  -->
<!DOCTYPE svg PUBLIC "-//W3C//DTD SVG 1.1//EN" "http://www.w3.org/Graphics/SVG/1.1/DTD/svg11.dtd">
<svg version="1.1" id="Layer_1" xmlns="http://www.w3.org/2000/svg" xmlns:xlink="http://www.w3.org/1999/xlink" x="0px" y="0px"
	 viewBox="0 0 45 36.8" enable-background="new 0 0 45 36.8" xml:space="preserve">
<g id="_x31_ywkoV.tif_5_">
	<g>
		<g>
			<path fill="#181B48" d="M25,4.2c3.2,0.8,5.6,2.6,7.4,5.3c1.2,2,1.7,4.3,1.7,6.6c0,2.1,0,4.1,0.3,6.2c0.1,1,0.6,1.9,1,2.8
				c0.3,0.6,0.8,1.1,1.6,1.1c0.6,0,0.7,0.5,0.7,1c0,1.4,0,2.8,0,4.2c0,0.8-0.3,1.1-1.1,1.1c-3,0-6.1,0-9.1,0c-0.6,0-0.9,0.1-1.1,0.8
				c-0.5,1.6-2,2.8-3.6,2.8c-1.7,0-3.2-1-3.9-2.7c-0.1-0.3-0.2-0.5-0.3-0.9c-0.3,0-0.5,0-0.8,0c-2.9,0-5.8,0-8.7,0
				c-1.4,0-1.5-0.1-1.5-1.6c0-1.2,0-2.4,0-3.6c0-0.6,0.2-1,0.9-1.1c1-0.1,1.5-0.9,1.7-1.7c0.4-1.5,0.8-3.1,0.9-4.7
				c0.2-2.1-0.1-4.2,0.3-6.3C12,9,14.8,5.9,19.3,4.5c0.6-0.2,0.9-0.4,0.8-1.1c0-0.3,0-0.6,0.1-1c0.2-1.1,1.1-2,2.2-2
				c1.1,0,2.1,0.7,2.3,1.8C24.9,2.8,24.9,3.5,25,4.2z M36.1,31c0-0.6,0-1,0-1.5c0.1-1,0.1-1.9-1.1-2.6c-1.3-0.7-1.8-2.2-2-3.7
				c-0.3-2.3-0.3-4.7-0.4-7c-0.1-1.3-0.1-2.6-0.5-3.7c-1.2-3.7-3.7-6.1-7.6-7c-0.7-0.2-1.1-0.5-1-1.2c0-0.5,0.1-1.1,0-1.6
				c-0.1-0.4-0.5-0.8-0.8-0.9c-0.5-0.1-0.9,0.3-1,0.8c-0.1,0.4,0,0.9,0,1.3c0,1.3,0,1.3-1.3,1.7c-4,1.1-6.6,3.6-7.5,7.5
				c-0.4,1.9-0.2,3.8-0.4,5.8c-0.1,1.5-0.2,3.1-0.5,4.6c-0.3,1.7-1,3.2-2.8,4c-0.1,0.1-0.3,0.3-0.3,0.4c0,1,0,2,0,3.1
				C18,31,27,31,36.1,31z M20.1,32.6c0.4,1.3,1.3,2.1,2.5,2c1,0,2.3-0.9,2.3-2C23.3,32.6,21.7,32.6,20.1,32.6z"/>
			<path fill="#181B48" d="M43.3,19.1c0,3.1-0.9,5.8-2.7,8.2c-0.3,0.4-0.7,0.7-1.2,0.3c-0.5-0.4-0.2-0.8,0.1-1.2
				c3.3-4.2,3.1-10.5,0-14.4c-0.3-0.4-0.5-0.8,0-1.2c0.5-0.4,0.9-0.1,1.2,0.4C42.5,13.6,43.3,16.3,43.3,19.1z"/>
			<path fill="#181B48" d="M1.7,19.1c0.1-2.9,0.9-5.6,2.7-7.9c0.3-0.4,0.7-0.8,1.3-0.4c0.5,0.4,0.2,0.9-0.1,1.3
				c-3.2,4.2-3.2,10-0.1,14.2c0.1,0.1,0.2,0.2,0.2,0.3c0,0.3,0,0.7-0.1,1c-0.4,0-0.9,0-1-0.2c-0.6-0.7-1.1-1.4-1.5-2.2
				C2.1,23.4,1.7,21.3,1.7,19.1z"/>
			<path fill="#181B48" d="M38.8,19.5c0,1.4-0.5,2.8-1.4,4.1c-0.3,0.4-0.7,0.6-1.2,0.3c-0.5-0.3-0.3-0.7,0-1.1
				c1.6-2.4,1.6-4.8,0-7.2c-0.3-0.4-0.3-0.8,0.1-1.1c0.4-0.3,0.8-0.1,1.1,0.3C38.3,16.1,38.8,17.6,38.8,19.5z"/>
			<path fill="#181B48" d="M6.2,19c0.1-1.4,0.4-2.9,1.4-4.2c0.3-0.4,0.7-0.7,1.1-0.3c0.5,0.4,0.3,0.8,0,1.2c-1.5,2.3-1.5,4.8,0,7.1
				c0.3,0.4,0.5,0.9,0,1.2c-0.6,0.4-0.9,0-1.2-0.4C6.7,22.4,6.2,20.8,6.2,19z"/>
			<path fill="#181B48" d="M29.4,14.2c-0.1,0.5,0.1,1.3-0.7,1.4c-0.9,0-0.7-0.8-0.7-1.4c0-0.9-0.3-1.7-0.9-2.3
				c-0.4-0.4-0.7-0.8-0.2-1.2c0.5-0.4,0.9-0.1,1.2,0.3C29,11.8,29.4,12.9,29.4,14.2z"/>
		</g>
	</g>
</g>
</svg>
