<?xml version="1.0" encoding="utf-8"?>
<!-- Generator: Adobe Illustrator 18.0.0, SVG Export Plug-In . SVG Version: 6.00 Build 0)  -->
<!DOCTYPE svg PUBLIC "-//W3C//DTD SVG 1.1//EN" "http://www.w3.org/Graphics/SVG/1.1/DTD/svg11.dtd">
<svg version="1.1" id="Layer_1" xmlns="http://www.w3.org/2000/svg" xmlns:xlink="http://www.w3.org/1999/xlink" x="0px" y="0px"
	 viewBox="0 0 26 26" enable-background="new 0 0 26 26" xml:space="preserve">
<path id="XMLID_4494_" fill="#181B48" d="M6.9,6.6c-1.2,1.3-1.9,2.9-1.9,4.6v0.4l0,0l0,0h1l0,0h0c0-3,2.6-6,5.6-6h0.4v-1h-0.4
	C9.8,4.6,8.1,5.2,6.9,6.6z"/>
<path id="XMLID_4485_" fill="#181B48" d="M23.8,23.2l-5.3-5.3c1.7-1.8,2.6-4.1,2.6-6.5c0-5.3-4.3-9.6-9.6-9.6C6.3,1.8,2,6.1,2,11.4
	c0,5.3,4.3,9.6,9.6,9.6c2.2,0,4.4-0.8,6.1-2.2L23,24c0.1,0.1,0.3,0.2,0.4,0.2s0.3-0.1,0.4-0.2c0.1-0.1,0.2-0.3,0.2-0.4
	C24,23.5,24,23.3,23.8,23.2z M11.5,19.7c-4.6,0-8.4-3.8-8.4-8.4C3.2,6.7,6.9,3,11.5,3c4.6,0,8.4,3.8,8.4,8.4
	C19.9,16,16.2,19.7,11.5,19.7z"/>
</svg>
