<?xml version="1.0" encoding="utf-8"?>
<!-- Generator: Adobe Illustrator 18.0.0, SVG Export Plug-In . SVG Version: 6.00 Build 0)  -->
<!DOCTYPE svg PUBLIC "-//W3C//DTD SVG 1.1//EN" "http://www.w3.org/Graphics/SVG/1.1/DTD/svg11.dtd">
<svg version="1.1" id="Layer_1" xmlns="http://www.w3.org/2000/svg" xmlns:xlink="http://www.w3.org/1999/xlink" x="0px" y="0px"
	 viewBox="0 0 26 26" enable-background="new 0 0 26 26" xml:space="preserve">
<g>
	<g>
		<path fill="#FFFFFF" d="M13,3.3c-0.2,0-0.4,0.2-0.4,0.4V5l-2.1,0.7l-4,0.8c0,0-0.1,0-0.1,0.1L1.8,9.4C1.7,9.5,1.6,9.8,1.7,10
			l2.8,4.5c0.1,0.1,0.2,0.2,0.3,0.2c0.1,0,0.2,0,0.3-0.1l0.9-0.9v11.1c0,0.2,0.2,0.4,0.4,0.4h13c0.2,0,0.4-0.2,0.4-0.4v-11l1,0.8
			c0.1,0.1,0.2,0.1,0.3,0.1c0.1,0,0.2-0.1,0.3-0.2l2.8-4.1c0.1-0.2,0.1-0.4-0.1-0.6l-4.5-3.2c0,0-0.1-0.1-0.2-0.1l-4-0.8L13.4,5V4
			c0.8-0.2,1.3-1,1.2-1.8c-0.1-0.8-0.9-1.4-1.7-1.3c-0.8,0.1-1.5,0.8-1.5,1.6c0,0.2,0.2,0.4,0.4,0.4c0.2,0,0.4-0.2,0.4-0.4
			c0-0.4,0.4-0.8,0.8-0.8c0.4,0,0.8,0.4,0.8,0.8C13.8,2.9,13.4,3.3,13,3.3L13,3.3z M13,5.7l2,0.7c-0.1,1-1,1.7-2,1.7
			c-1,0-1.9-0.7-2-1.7L13,5.7z M23.4,10.3L21,13.6l-1.3-1c-0.1-0.1-0.3-0.1-0.4-0.1c-0.1,0.1-0.2,0.2-0.2,0.4v11.5H6.9V12.7
			c0-0.2-0.1-0.3-0.2-0.4c-0.1-0.1-0.3,0-0.4,0.1L5,13.6L2.6,9.9l4.1-2.6l3.5-0.7C10.4,8,11.6,9,13,9c1.4,0,2.6-1,2.8-2.4l3.5,0.7
			L23.4,10.3z M23.4,10.3"/>
	</g>
</g>
<g>
	<path fill="#FFFFFF" d="M14.8,14.9c-0.4-0.3-0.9-0.5-1.3-0.6v1.9c1.5,0.4,2.1,1,2.1,2v0c0,1.1-0.8,1.8-2.1,1.9v1h-0.9v-1
		c-0.9-0.1-1.7-0.4-2.3-1l0.6-0.9c0.6,0.5,1.1,0.8,1.7,0.9v-1.9c-1.4-0.4-2.1-0.9-2.1-2v0c0-1.1,0.8-1.8,2.1-1.9v-0.6h0.9v0.6
		c0.7,0.1,1.3,0.3,1.8,0.7L14.8,14.9z M12.7,15.9v-1.7c-0.6,0.1-0.9,0.4-0.9,0.8v0C11.8,15.4,12,15.7,12.7,15.9z M13.5,17.3v1.8
		c0.6-0.1,1-0.4,1-0.8v0C14.5,17.8,14.3,17.5,13.5,17.3z"/>
</g>
</svg>
