<?xml version="1.0" encoding="utf-8"?>
<!-- Generator: Adobe Illustrator 18.0.0, SVG Export Plug-In . SVG Version: 6.00 Build 0)  -->
<!DOCTYPE svg PUBLIC "-//W3C//DTD SVG 1.1//EN" "http://www.w3.org/Graphics/SVG/1.1/DTD/svg11.dtd">
<svg version="1.1" id="Layer_1" xmlns="http://www.w3.org/2000/svg" xmlns:xlink="http://www.w3.org/1999/xlink" x="0px" y="0px"
	 viewBox="0 0 51.3 51.3" enable-background="new 0 0 51.3 51.3" xml:space="preserve">
<g>
	<g>
		<path fill="#FFFFFF" d="M25.7,50.9c-13.9,0-25.2-11.3-25.2-25.2c0-13.9,11.3-25.2,25.2-25.2s25.2,11.3,25.2,25.2
			C50.9,39.6,39.6,50.9,25.7,50.9z M25.7,3.2C13.3,3.2,3.2,13.3,3.2,25.7s10.1,22.5,22.5,22.5S48.1,38,48.1,25.7S38.1,3.2,25.7,3.2z
			"/>
	</g>
	<g>
		<path fill="#FFFFFF" d="M26.4,29.3h2.7v-2.1h-1h-2.5h-7.1l5.3-4.7c3.5-3.1,5.1-4.9,5.1-7.8v-0.1c0-3.3-2.6-5.7-6.2-5.7
			c-3.5,0-5.4,1.6-7.2,4.3l1.7,1.2c1.6-2.2,3.1-3.4,5.4-3.4c2.2,0,4,1.5,4,3.8c0,2-1.1,3.5-4.2,6.3l-7.3,6.4v1.7h8.8H26.4z"/>
		<polygon fill="#FFFFFF" points="33.1,34.1 33.1,20.6 31.1,20.6 26.4,26.3 28.9,26.3 30.9,23.8 30.9,34.1 22.5,34.1 25.6,30.3 
			23.1,30.3 19.8,34.3 20.3,36 30.9,36 30.9,40.8 33.1,40.8 33.1,36 36.2,36 36.2,34.1 		"/>
	</g>
</g>
</svg>
