<?xml version="1.0" encoding="utf-8"?>
<!-- Generator: Adobe Illustrator 18.0.0, SVG Export Plug-In . SVG Version: 6.00 Build 0)  -->
<!DOCTYPE svg PUBLIC "-//W3C//DTD SVG 1.1//EN" "http://www.w3.org/Graphics/SVG/1.1/DTD/svg11.dtd">
<svg version="1.1" id="Layer_1" xmlns="http://www.w3.org/2000/svg" xmlns:xlink="http://www.w3.org/1999/xlink" x="0px" y="0px"
	 viewBox="0 0 28 28" enable-background="new 0 0 28 28" xml:space="preserve">
<g id="XMLID_1998_">
	<path id="XMLID_2074_" fill="#FFFFFF" d="M6.6,22.9c-0.3,0-0.5-0.2-0.5-0.5c0-0.2,0-0.3,0-0.5L7,10.4C7,9.7,7.6,9.2,8.3,9.2h1.9V9
		c0-2.1,1.7-3.8,3.8-3.8l0,0c2.1,0,3.8,1.8,3.8,3.9v0.1h1.9c0.7,0,1.3,0.5,1.3,1.2l0.9,11.4v0.5c0,0.3-0.2,0.5-0.5,0.5H6.6z
		 M8.3,10.1c-0.2,0-0.3,0.1-0.3,0.3L7,21.9h14l-0.9-11.5c0-0.2-0.2-0.3-0.3-0.3h-1.9v1.6c0,0.3-0.2,0.5-0.5,0.5
		c-0.3,0-0.5-0.2-0.5-0.5v-1.6h-5.7v1.6c0,0.3-0.2,0.5-0.5,0.5c-0.3,0-0.5-0.2-0.5-0.5v-1.6H8.3z M14,6.1c-1.6,0-2.9,1.3-2.9,2.9
		v0.2h5.7V9C16.9,7.4,15.6,6.1,14,6.1z"/>
</g>
</svg>
