<?xml version="1.0" encoding="utf-8"?>
<!-- Generator: Adobe Illustrator 18.0.0, SVG Export Plug-In . SVG Version: 6.00 Build 0)  -->
<!DOCTYPE svg PUBLIC "-//W3C//DTD SVG 1.1//EN" "http://www.w3.org/Graphics/SVG/1.1/DTD/svg11.dtd">
<svg version="1.1" id="Layer_1" xmlns="http://www.w3.org/2000/svg" xmlns:xlink="http://www.w3.org/1999/xlink" x="0px" y="0px"
	 viewBox="0 0 28 28" enable-background="new 0 0 28 28" xml:space="preserve">
<path fill="#FFFFFF" d="M25.1,23.7V8.8h-4.6v14.9h-1.1V11.9h-4.6v11.8h-1.1V15H9v8.8H7.9v-5.3H3.3v5.3H2.9c-0.2,0-0.4,0.2-0.4,0.4
	c0,0.2,0.2,0.4,0.4,0.4h22.1c0.2,0,0.4-0.2,0.4-0.4C25.5,23.9,25.3,23.7,25.1,23.7L25.1,23.7z M4.1,23.7v-4.6h3.1v4.6H4.1z
	 M9.8,23.7v-8h3.1v8H9.8z M15.5,23.7V12.7h3.1v11.1H15.5z M21.3,23.7V9.6h3.1v14.1H21.3z M21.3,23.7"/>
<path fill="#FFFFFF" d="M5.6,13.2c0.1,0,0.1,0,0.2-0.1l13.8-8L18.8,7c-0.1,0.2,0,0.4,0.2,0.5c0.1,0,0.1,0,0.2,0
	c0.1,0,0.3-0.1,0.3-0.2l1.4-3c0,0,0,0,0,0c0,0,0,0,0-0.1c0,0,0,0,0,0c0,0,0,0,0,0c0,0,0,0,0,0c0,0,0,0,0-0.1c0,0,0,0,0,0
	c0,0,0,0,0,0c0,0,0,0,0,0c0,0,0,0,0,0c0,0,0,0,0,0c0,0,0,0,0,0c0,0,0,0,0,0c0,0,0,0,0,0c0,0,0,0,0,0c0,0,0,0,0,0c0,0,0,0-0.1,0
	c0,0,0,0,0,0l-3.3-0.3c-0.2,0-0.4,0.1-0.4,0.3c0,0.2,0.1,0.4,0.3,0.4l2.1,0.2l-13.8,8c-0.2,0.1-0.2,0.3-0.1,0.5
	C5.4,13.1,5.5,13.2,5.6,13.2L5.6,13.2z M5.6,13.2"/>
</svg>
