<?xml version="1.0" encoding="utf-8"?>
<!-- Generator: Adobe Illustrator 18.0.0, SVG Export Plug-In . SVG Version: 6.00 Build 0)  -->
<!DOCTYPE svg PUBLIC "-//W3C//DTD SVG 1.1//EN" "http://www.w3.org/Graphics/SVG/1.1/DTD/svg11.dtd">
<svg version="1.1" id="Layer_1" xmlns="http://www.w3.org/2000/svg" xmlns:xlink="http://www.w3.org/1999/xlink" x="0px" y="0px"
	 viewBox="0 0 29 29" enable-background="new 0 0 29 29" xml:space="preserve">
<g>
	<path fill="#FFFFFF" d="M15.7,7.8c1.5,0.4,2.7,1.2,3.5,2.6c0.6,1,0.8,2,0.8,3.2c0,1,0,2,0.1,3c0,0.5,0.3,0.9,0.5,1.3
		c0.1,0.3,0.4,0.5,0.7,0.5c0.3,0,0.3,0.2,0.3,0.5c0,0.7,0,1.3,0,2c0,0.4-0.2,0.5-0.5,0.5c-1.5,0-2.9,0-4.4,0c-0.3,0-0.4,0-0.5,0.4
		c-0.2,0.8-1,1.3-1.7,1.3c-0.8,0-1.6-0.5-1.9-1.3c0-0.1-0.1-0.2-0.1-0.4c-0.1,0-0.3,0-0.4,0c-1.4,0-2.8,0-4.2,0
		c-0.7,0-0.7,0-0.7-0.8c0-0.6,0-1.2,0-1.7c0-0.3,0.1-0.5,0.4-0.5c0.5-0.1,0.7-0.4,0.8-0.8c0.2-0.7,0.4-1.5,0.4-2.3c0.1-1,0-2,0.1-3
		c0.4-2.2,1.7-3.7,3.9-4.4c0.3-0.1,0.4-0.2,0.4-0.5c0-0.2,0-0.3,0-0.5c0.1-0.5,0.5-0.9,1.1-1c0.5,0,1,0.3,1.1,0.9
		C15.6,7.1,15.6,7.4,15.7,7.8z M21,20.7c0-0.3,0-0.5,0-0.7c0-0.5,0-0.9-0.5-1.2c-0.6-0.3-0.9-1.1-0.9-1.8c-0.1-1.1-0.1-2.2-0.2-3.4
		c0-0.6-0.1-1.2-0.2-1.8c-0.6-1.8-1.8-2.9-3.7-3.4c-0.4-0.1-0.5-0.2-0.5-0.6c0-0.3,0.1-0.5,0-0.8c-0.1-0.2-0.2-0.4-0.4-0.4
		c-0.3-0.1-0.4,0.2-0.5,0.4c0,0.2,0,0.4,0,0.6c0,0.6,0,0.6-0.6,0.8c-1.9,0.5-3.2,1.7-3.6,3.6c-0.2,0.9-0.1,1.8-0.2,2.8
		c-0.1,0.7-0.1,1.5-0.2,2.2c-0.2,0.8-0.5,1.6-1.3,1.9C8,19,8,19.1,8,19.2c0,0.5,0,1,0,1.5C12.3,20.7,16.7,20.7,21,20.7z M13.3,21.4
		c0.2,0.6,0.6,1,1.2,1c0.5,0,1.1-0.4,1.1-1C14.9,21.4,14.1,21.4,13.3,21.4z"/>
	<path fill="#FFFFFF" d="M24.5,14.9c0,1.5-0.4,2.8-1.3,3.9c-0.2,0.2-0.3,0.3-0.6,0.1c-0.2-0.2-0.1-0.4,0-0.6c1.6-2,1.5-5.1,0-6.9
		c-0.2-0.2-0.2-0.4,0-0.6c0.2-0.2,0.4,0,0.6,0.2C24.1,12.3,24.5,13.6,24.5,14.9z"/>
	<path fill="#FFFFFF" d="M4.5,14.9c0-1.4,0.4-2.7,1.3-3.8c0.2-0.2,0.3-0.4,0.6-0.2c0.2,0.2,0.1,0.4,0,0.6c-1.5,2-1.5,4.8,0,6.8
		c0,0.1,0.1,0.1,0.1,0.2c0,0.2,0,0.3,0,0.5c-0.2,0-0.4,0-0.5-0.1c-0.3-0.3-0.5-0.7-0.7-1.1C4.7,17,4.5,16,4.5,14.9z"/>
	<path fill="#FFFFFF" d="M22.3,15.1c0,0.7-0.2,1.4-0.7,2c-0.2,0.2-0.3,0.3-0.6,0.1c-0.2-0.2-0.1-0.4,0-0.5c0.8-1.2,0.8-2.3,0-3.5
		c-0.1-0.2-0.2-0.4,0-0.5c0.2-0.2,0.4,0,0.5,0.1C22.1,13.5,22.3,14.2,22.3,15.1z"/>
	<path fill="#FFFFFF" d="M6.7,14.9c0-0.7,0.2-1.4,0.7-2c0.1-0.2,0.3-0.3,0.6-0.2c0.2,0.2,0.1,0.4,0,0.6c-0.7,1.1-0.7,2.3,0,3.4
		c0.1,0.2,0.3,0.4,0,0.6c-0.3,0.2-0.4,0-0.6-0.2C6.9,16.5,6.7,15.7,6.7,14.9z"/>
	<path fill="#FFFFFF" d="M17.8,12.6c0,0.3,0.1,0.6-0.3,0.7c-0.4,0-0.4-0.4-0.4-0.7c0-0.4-0.1-0.8-0.4-1.1c-0.2-0.2-0.3-0.4-0.1-0.6
		c0.2-0.2,0.4-0.1,0.6,0.1C17.6,11.4,17.8,11.9,17.8,12.6z"/>
</g>
</svg>
