<?xml version="1.0" encoding="utf-8"?>
<!-- Generator: Adobe Illustrator 18.0.0, SVG Export Plug-In . SVG Version: 6.00 Build 0)  -->
<!DOCTYPE svg PUBLIC "-//W3C//DTD SVG 1.1//EN" "http://www.w3.org/Graphics/SVG/1.1/DTD/svg11.dtd">
<svg version="1.1" id="Layer_1" xmlns="http://www.w3.org/2000/svg" xmlns:xlink="http://www.w3.org/1999/xlink" x="0px" y="0px"
	 viewBox="0 0 25 25" enable-background="new 0 0 25 25" xml:space="preserve">
<path fill="#FFFFFF" d="M21.7,7.2c0-0.1,0-0.2-0.1-0.2c-0.1-0.1-0.2-0.2-0.3-0.3l-8.6-4.2c-0.1-0.1-0.3-0.1-0.4,0L3.6,6.8
	C3.4,6.8,3.3,7,3.3,7.2v10.6c0,0.2,0.1,0.4,0.3,0.5l8.7,4.2c0,0,0,0,0,0c0,0,0,0,0,0c0,0,0,0,0,0l0,0c0,0,0,0,0,0c0,0,0,0,0,0h0
	c0,0,0,0,0.1,0c0,0,0,0,0.1,0h0c0,0,0,0,0,0c0,0,0,0,0,0l0,0c0,0,0,0,0,0c0,0,0,0,0,0c0,0,0,0,0,0l8.7-4.2c0.2-0.1,0.3-0.3,0.3-0.5
	L21.7,7.2C21.7,7.2,21.7,7.2,21.7,7.2L21.7,7.2z M12.5,3.6L20,7.2l-2.8,1.3L9.7,4.9L12.5,3.6z M12.5,10.9L5,7.2l3.6-1.7l7.5,3.7
	L12.5,10.9z M4.3,8l7.7,3.7v9.4l-7.7-3.7V8z M13,21.2v-9.4l3.6-1.7v2.5c0,0.3,0.2,0.5,0.5,0.5c0.3,0,0.5-0.2,0.5-0.5v-3L20.7,8v9.4
	L13,21.2z M13,21.2"/>
</svg>
