<?xml version="1.0" encoding="utf-8"?>
<!-- Generator: Adobe Illustrator 18.0.0, SVG Export Plug-In . SVG Version: 6.00 Build 0)  -->
<!DOCTYPE svg PUBLIC "-//W3C//DTD SVG 1.1//EN" "http://www.w3.org/Graphics/SVG/1.1/DTD/svg11.dtd">
<svg version="1.1" id="Layer_1" xmlns="http://www.w3.org/2000/svg" xmlns:xlink="http://www.w3.org/1999/xlink" x="0px" y="0px"
	 viewBox="0 0 28 28" enable-background="new 0 0 28 28" xml:space="preserve">
<g>
	<path fill="#FFFFFF" d="M20.9,15.1h-8v-8c0-0.2-0.2-0.4-0.4-0.4c-4.8,0-8.8,3.9-8.8,8.8c0,4.8,3.9,8.8,8.8,8.8
		c4.8,0,8.8-3.9,8.8-8.8C21.3,15.3,21.1,15.1,20.9,15.1z M20.4,16.3c-0.2,2-1.1,3.8-2.6,5.1c-1.5,1.3-3.4,2.1-5.4,2.1
		c-4.4,0-8-3.6-8-8c0-2,0.7-3.9,2.1-5.4c1.3-1.5,3.1-2.4,5.1-2.6l0.4,0v8c0,0.2,0.2,0.4,0.4,0.4h8L20.4,16.3z"/>
	<path fill="#FFFFFF" d="M15.5,3.7c-0.2,0-0.4,0.2-0.4,0.4v8.4c0,0.2,0.2,0.4,0.4,0.4h8.4c0.2,0,0.4-0.2,0.4-0.4
		C24.3,7.6,20.4,3.7,15.5,3.7z M15.9,12.1V4.5l0.4,0c3.8,0.4,6.8,3.4,7.2,7.2l0,0.4H15.9z"/>
</g>
</svg>
