<?xml version="1.0" encoding="utf-8"?>
<!-- Generator: Adobe Illustrator 18.0.0, SVG Export Plug-In . SVG Version: 6.00 Build 0)  -->
<!DOCTYPE svg PUBLIC "-//W3C//DTD SVG 1.1//EN" "http://www.w3.org/Graphics/SVG/1.1/DTD/svg11.dtd">
<svg version="1.1" id="Layer_1" xmlns="http://www.w3.org/2000/svg" xmlns:xlink="http://www.w3.org/1999/xlink" x="0px" y="0px"
	 viewBox="0 0 29 29" enable-background="new 0 0 29 29" xml:space="preserve">
<path fill="#FFFFFF" d="M22.9,9.7h-2.3c-0.3,0-0.6-0.2-0.7-0.5l-0.9-2.4c-0.1-0.3-0.4-0.5-0.7-0.5h-7.4c-0.3,0-0.6,0.2-0.7,0.5
	L8.9,9.7H8.5V8.4C8.5,8.2,8.3,8,8.1,8H6.9C6.7,8,6.5,8.2,6.5,8.4v1.3H6.1c-0.9,0-1.6,0.7-1.6,1.6v9.8c0,0.9,0.7,1.6,1.6,1.6h16.8
	c0.9,0,1.6-0.7,1.6-1.6v-9.8C24.5,10.4,23.8,9.7,22.9,9.7L22.9,9.7z M7.2,8.7h0.7v1H7.2V8.7z M23.8,21.1c0,0.5-0.4,0.9-0.9,0.9H6.1
	c-0.5,0-0.9-0.4-0.9-0.9v-9.8c0-0.5,0.4-0.9,0.9-0.9h2.8c0.3,0,0.6-0.2,0.7-0.5l0.9-2.4C10.6,7.2,10.9,7,11.2,7h6.5
	c0.3,0,0.6,0.2,0.7,0.5l0.9,2.4c0.1,0.3,0.4,0.5,0.7,0.5h2.8c0.5,0,0.9,0.4,0.9,0.9V21.1z M23.8,21.1"/>
<path fill="#FFFFFF" d="M14.5,9.3c-3.3,0-6,2.7-6,6c0,3.3,2.7,6,6,6s6-2.7,6-6C20.5,12,17.8,9.3,14.5,9.3L14.5,9.3z M14.5,20.7
	c-2.9,0-5.3-2.4-5.3-5.3c0-2.9,2.4-5.3,5.3-5.3s5.3,2.4,5.3,5.3C19.8,18.3,17.4,20.7,14.5,20.7L14.5,20.7z M14.5,20.7"/>
<path fill="#FFFFFF" d="M14.5,11.3c-2.2,0-4,1.8-4,4c0,2.2,1.8,4,4,4c2.2,0,4-1.8,4-4C18.5,13.1,16.7,11.3,14.5,11.3L14.5,11.3z
	 M14.5,18.7c-1.8,0-3.3-1.5-3.3-3.3c0-1.8,1.5-3.3,3.3-3.3s3.3,1.5,3.3,3.3C17.8,17.2,16.3,18.7,14.5,18.7L14.5,18.7z M14.5,18.7"/>
<path fill="#FFFFFF" d="M21.8,11c-0.7,0-1.3,0.6-1.3,1.3c0,0.7,0.6,1.3,1.3,1.3c0.7,0,1.3-0.6,1.3-1.3C23.2,11.6,22.6,11,21.8,11
	L21.8,11z M21.8,13c-0.4,0-0.7-0.3-0.7-0.7c0-0.4,0.3-0.7,0.7-0.7c0.4,0,0.7,0.3,0.7,0.7C22.5,12.7,22.2,13,21.8,13L21.8,13z
	 M21.8,13"/>
</svg>
