<?xml version="1.0" encoding="utf-8"?>
<!-- Generator: Adobe Illustrator 18.0.0, SVG Export Plug-In . SVG Version: 6.00 Build 0)  -->
<!DOCTYPE svg PUBLIC "-//W3C//DTD SVG 1.1//EN" "http://www.w3.org/Graphics/SVG/1.1/DTD/svg11.dtd">
<svg version="1.1" id="Layer_1" xmlns="http://www.w3.org/2000/svg" xmlns:xlink="http://www.w3.org/1999/xlink" x="0px" y="0px"
	 viewBox="0 0 29 29" enable-background="new 0 0 29 29" xml:space="preserve">
<path fill="#FFFFFF" d="M23,12.8l-0.1,0c-0.4,0-0.8,0.2-1,0.4l-2.3,2.3l-0.1-0.1c0-0.1-0.1-0.1-0.2-0.2c-0.3-0.3-0.6-0.4-1-0.4h-3.1
	c-0.6,0-1.2-0.1-1.7-0.2c-1.4-0.4-2.7-0.1-3.8,0.8c-0.5,0.4-0.8,0.8-1,1.1l-0.1,0.1l-0.1-0.1c-0.2-0.1-0.5-0.2-0.7-0.2c0,0,0,0,0,0
	c-0.3,0-0.7,0.1-0.9,0.4l-2,2.1c-0.1,0.1-0.1,0.3,0,0.4l1.6,1.6c0.1,0,0.1,0.1,0.2,0.1c0,0,0,0,0,0c0.1,0,0.1,0,0.2-0.1
	c0-0.1,0.1-0.1,0.1-0.2s0-0.1-0.1-0.2l-1.4-1.4L7.1,17c0.1-0.1,0.3-0.2,0.5-0.2c0.2,0,0.4,0.1,0.5,0.2l3.1,3
	c0.1,0.1,0.2,0.3,0.2,0.5c0,0.2-0.1,0.4-0.2,0.5l-1.8,1.8l-0.5-0.5c0,0-0.1-0.1-0.2-0.1c0,0,0,0,0,0c-0.1,0-0.1,0-0.2,0.1
	c-0.1,0.1-0.1,0.3,0,0.4l0.7,0.7c0.1,0.1,0.3,0.1,0.4,0l2-2c0.2-0.2,0.4-0.6,0.4-0.9c0-0.2,0-0.3-0.1-0.4l-0.1-0.2l0.9-0.1
	c0.3,0,0.7-0.1,1-0.1h4.7c0.1,0,0.1,0,0.2,0l0.5,0c0.4,0,0.9-0.2,1.2-0.4c0.2-0.1,0.3-0.3,0.5-0.4l3.2-3.8c0.3-0.4,0.4-0.9,0.3-1.3
	C24.1,13.2,23.6,12.8,23,12.8z M23.6,14.7l-3.2,3.8c-0.1,0.1-0.2,0.2-0.4,0.3c-0.3,0.2-0.6,0.3-1,0.3l-0.5,0c-0.1,0-0.1,0-0.2,0
	h-4.7c-0.4,0-0.7,0-1.1,0.1l-1.2,0.1l-2.6-2.5l0.1-0.1c0.2-0.3,0.5-0.7,1-1.1c1-0.8,2.1-1,3.3-0.7c0.6,0.2,1.2,0.3,1.9,0.3h3.1
	c0.2,0,0.5,0.1,0.6,0.3c0.1,0.1,0.2,0.3,0.2,0.4c0,0,0,0.1,0,0.1c0,0.2-0.1,0.5-0.2,0.6c-0.2,0.2-0.4,0.3-0.7,0.3h-2.7
	c-0.1,0-0.3,0.1-0.3,0.3s0.1,0.3,0.3,0.3h2.7c0.4,0,0.8-0.2,1.1-0.5c0.2-0.3,0.3-0.6,0.3-0.9v-0.1l2.5-2.5c0.2-0.2,0.4-0.3,0.7-0.3
	l0.1,0c0.4,0,0.7,0.2,0.8,0.6C23.9,14.2,23.8,14.5,23.6,14.7z"/>
<path fill="#FFFFFF" d="M7.6,17.8c-0.5,0-0.9,0.4-0.9,0.9s0.4,0.9,0.9,0.9c0.5,0,0.9-0.4,0.9-0.9S8.1,17.8,7.6,17.8z M7.6,19.2
	c-0.2,0-0.4-0.2-0.4-0.4s0.2-0.4,0.4-0.4S8,18.6,8,18.8S7.8,19.2,7.6,19.2z"/>
<path fill="#FFFFFF" d="M16,13.5c2.2,0,4-1.8,4-4s-1.8-4-4-4c-0.9,0-1.8,0.3-2.5,0.9c-0.2,0.1-0.3,0.3-0.5,0.4
	c-0.2,0.2-0.4,0.5-0.6,0.7c-0.3,0.6-0.5,1.3-0.5,2C11.9,11.7,13.7,13.5,16,13.5z M12.9,7.8L12.9,7.8c0.1-0.2,0.3-0.5,0.5-0.6
	c0.1-0.1,0.3-0.3,0.4-0.4C14.4,6.3,15.2,6,16,6c1.9,0,3.5,1.6,3.5,3.5c0,1.9-1.6,3.5-3.5,3.5c-1.9,0-3.5-1.6-3.5-3.5
	C12.5,8.9,12.6,8.3,12.9,7.8z"/>
<path fill="#FFFFFF" d="M15.2,10.3c0-0.1-0.1-0.3-0.3-0.3c-0.1,0-0.3,0.1-0.3,0.3c0,0.6,0.4,1.1,0.9,1.3l0.1,0l0,0.1
	c0,0.1,0.1,0.3,0.3,0.3c0.1,0,0.3-0.1,0.3-0.3l0-0.1l0.1,0c0.3-0.1,1-0.3,1-1.2c0-0.8-0.9-1.2-1.2-1.2c-0.1,0-0.7-0.1-0.7-0.5
	c0-0.6,0.5-0.7,0.7-0.7c0.1,0,0.3,0.1,0.4,0.2c0.1,0.1,0.1,0.1,0.1,0.4c0,0.1,0.1,0.3,0.3,0.3c0.1,0,0.3-0.1,0.3-0.3
	c0-0.2,0-0.5-0.2-0.7c-0.2-0.2-0.3-0.3-0.5-0.3l-0.1,0l0-0.1C16.1,7.1,16,7,15.9,7c-0.1,0-0.3,0.1-0.3,0.3v0.1l-0.1,0.1
	c-0.3,0.1-0.8,0.4-0.8,1.2c0,0.8,0.8,1.1,1.2,1.1c0.2,0,0.7,0.3,0.7,0.7c0,0.3-0.1,0.4-0.3,0.6c-0.2,0.1-0.5,0.1-0.6,0.1
	C15.5,11.1,15.2,10.7,15.2,10.3z"/>
</svg>
