<?xml version="1.0" encoding="utf-8"?>
<!-- Generator: Adobe Illustrator 18.0.0, SVG Export Plug-In . SVG Version: 6.00 Build 0)  -->
<!DOCTYPE svg PUBLIC "-//W3C//DTD SVG 1.1//EN" "http://www.w3.org/Graphics/SVG/1.1/DTD/svg11.dtd">
<svg version="1.1" id="Layer_1" xmlns="http://www.w3.org/2000/svg" xmlns:xlink="http://www.w3.org/1999/xlink" x="0px" y="0px"
	 viewBox="0 0 29 29" enable-background="new 0 0 29 29" xml:space="preserve">
<g>
	<g>
		<g>
			<path fill="#FFFFFF" d="M14.5,23c-0.1,0-0.2,0-0.2-0.1L4.6,11.4c-0.1-0.1-0.1-0.3,0-0.4l3.6-4.9C8.3,6.1,8.3,6,8.4,6h12.1
				c0.1,0,0.2,0,0.2,0.1l3.6,4.9c0.1,0.1,0.1,0.3,0,0.4l-9.7,11.5C14.7,22.9,14.6,23,14.5,23L14.5,23z M5.2,11.2l9.3,11.1l9.3-11.1
				l-3.4-4.5H8.6L5.2,11.2z M5.2,11.2"/>
		</g>
		<path fill="#FFFFFF" d="M24.2,11.5H4.8c-0.2,0-0.3-0.1-0.3-0.3c0-0.2,0.1-0.3,0.3-0.3h19.4c0.2,0,0.3,0.1,0.3,0.3
			C24.5,11.3,24.4,11.5,24.2,11.5L24.2,11.5z M24.2,11.5"/>
		<path fill="#FFFFFF" d="M14.5,23C14.5,23,14.4,23,14.5,23c-0.3-0.1-0.3-0.2-0.3-0.4l3.6-11.5c0.1-0.2,0.2-0.2,0.4-0.2
			c0.2,0.1,0.2,0.2,0.2,0.4l-3.6,11.5C14.7,22.9,14.6,23,14.5,23L14.5,23z M14.5,23"/>
		<path fill="#FFFFFF" d="M14.5,23c-0.1,0-0.2-0.1-0.3-0.2l-3.6-11.5c-0.1-0.2,0-0.3,0.2-0.4c0.2-0.1,0.3,0,0.4,0.2l3.6,11.5
			C14.8,22.7,14.8,22.9,14.5,23C14.6,23,14.5,23,14.5,23L14.5,23z M14.5,23"/>
		<path fill="#FFFFFF" d="M10.9,11.5c-0.1,0-0.2-0.1-0.3-0.2L8.2,6.5C8.1,6.3,8.2,6.1,8.3,6C8.5,6,8.6,6,8.7,6.2l2.4,4.8
			c0.1,0.2,0,0.3-0.1,0.4C11,11.5,10.9,11.5,10.9,11.5L10.9,11.5z M10.9,11.5"/>
		<path fill="#FFFFFF" d="M10.9,11.5c-0.1,0-0.1,0-0.2-0.1c-0.1-0.1-0.2-0.3-0.1-0.4l3.6-4.9C14.4,6,14.5,6,14.7,6.1
			c0.1,0.1,0.2,0.3,0.1,0.4l-3.6,4.8C11,11.4,11,11.5,10.9,11.5L10.9,11.5z M10.9,11.5"/>
		<path fill="#FFFFFF" d="M18.1,11.5c-0.1,0-0.2,0-0.2-0.1l-3.6-4.8c-0.1-0.1-0.1-0.3,0.1-0.4C14.5,6,14.6,6,14.7,6.1l3.6,4.9
			c0.1,0.1,0.1,0.3-0.1,0.4C18.3,11.5,18.2,11.5,18.1,11.5L18.1,11.5z M18.1,11.5"/>
		<path fill="#FFFFFF" d="M18.1,11.5c0,0-0.1,0-0.1,0c-0.1-0.1-0.2-0.3-0.1-0.4l2.4-4.8C20.4,6,20.5,6,20.7,6
			c0.2,0.1,0.2,0.3,0.1,0.4l-2.4,4.9C18.4,11.4,18.2,11.5,18.1,11.5L18.1,11.5z M18.1,11.5"/>
	</g>
</g>
</svg>
