<?xml version="1.0" encoding="utf-8"?>
<!-- Generator: Adobe Illustrator 18.0.0, SVG Export Plug-In . SVG Version: 6.00 Build 0)  -->
<!DOCTYPE svg PUBLIC "-//W3C//DTD SVG 1.1//EN" "http://www.w3.org/Graphics/SVG/1.1/DTD/svg11.dtd">
<svg version="1.1" id="Layer_1" xmlns="http://www.w3.org/2000/svg" xmlns:xlink="http://www.w3.org/1999/xlink" x="0px" y="0px"
	 viewBox="0 0 28 28" enable-background="new 0 0 28 28" xml:space="preserve">
<path fill="#FFFFFF" d="M16.7,11.3c-3.9-3-8.4,1.5-5.4,5.4C15.2,19.7,19.7,15.2,16.7,11.3z M15.9,15.9c-2.7,2.1-5.8-1-3.7-3.7
	C14.9,10,18,13.1,15.9,15.9z"/>
<path fill="#FFFFFF" d="M21.3,15c0-0.3,0.1-0.6,0.1-1c0-0.3,0-0.6-0.1-1l0-0.3l2.4-1.9l-2.1-3.7l-2.9,1.1l-0.2-0.2
	c-0.5-0.4-1.1-0.7-1.6-1l-0.3-0.1l-0.4-3l-4.2,0l-0.5,3.1l-0.3,0.1c-0.6,0.2-1.1,0.5-1.7,1L9.3,8.4L6.5,7.2l-2.1,3.6l2.4,1.9l0,0.3
	c0,0.4-0.1,0.7-0.1,1c0,0.3,0,0.6,0.1,1l0,0.3l-2.4,1.9l2.1,3.7l2.9-1.1l0.2,0.2c0.5,0.4,1.1,0.7,1.6,1l0.3,0.1l0.4,3l4.2,0l0.5-3.1
	l0.3-0.1c0.6-0.2,1.1-0.5,1.7-1l0.2-0.2l2.8,1.1l2.1-3.6l-2.4-1.9L21.3,15z M22.2,17.4l-1.1,2l-2.5-1l-0.7,0.5
	c-0.5,0.4-0.9,0.6-1.4,0.8l-0.9,0.3l-0.4,2.7h-2.3l-0.4-2.7l-0.8-0.3c-0.5-0.2-0.9-0.5-1.4-0.8l-0.7-0.6l-2.6,1l-1.1-2L8,15.7
	l-0.1-0.9c0-0.4-0.1-0.6-0.1-0.8c0-0.2,0-0.5,0.1-0.8L8,12.3l-2.2-1.7l1.1-2l2.5,1l0.7-0.5c0.5-0.4,0.9-0.6,1.4-0.8l0.9-0.3l0.4-2.7
	h2.3l0.4,2.7l0.8,0.3c0.5,0.2,0.9,0.5,1.4,0.8l0.7,0.6l2.6-1l1.1,2L20,12.3l0.1,0.9c0,0.3,0.1,0.5,0.1,0.8c0,0.2,0,0.5-0.1,0.8
	L20,15.7L22.2,17.4z"/>
</svg>
