<?xml version="1.0" encoding="utf-8"?>
<!-- Generator: Adobe Illustrator 18.0.0, SVG Export Plug-In . SVG Version: 6.00 Build 0)  -->
<!DOCTYPE svg PUBLIC "-//W3C//DTD SVG 1.1//EN" "http://www.w3.org/Graphics/SVG/1.1/DTD/svg11.dtd">
<svg version="1.1" id="Layer_1" xmlns="http://www.w3.org/2000/svg" xmlns:xlink="http://www.w3.org/1999/xlink" x="0px" y="0px"
	 viewBox="0 0 28 28" enable-background="new 0 0 28 28" xml:space="preserve">
<path fill="#FFFFFF" d="M13.7,21.5H9.3c-1.2,0-2.2-1-2.2-2.2V8.7c0-1.2,1-2.2,2.2-2.2h4.5c0.3,0,0.5-0.2,0.5-0.5
	c0-0.3-0.2-0.5-0.5-0.5H9.3c-1.7,0-3.1,1.4-3.1,3.1v10.6c0,1.7,1.4,3.1,3.1,3.1h4.4c0.3,0,0.5-0.2,0.5-0.5S14,21.5,13.7,21.5
	L13.7,21.5z M13.7,21.5"/>
<path fill="#FFFFFF" d="M21.7,13.7l-3.1-3.1c-0.2-0.2-0.5-0.2-0.7,0c-0.2,0.2-0.2,0.5,0,0.7l2.3,2.3h-9.8c-0.3,0-0.5,0.2-0.5,0.5
	c0,0.3,0.2,0.5,0.5,0.5h9.8l-2.3,2.3c-0.2,0.2-0.2,0.5,0,0.7c0.1,0.1,0.2,0.1,0.3,0.1c0.1,0,0.2,0,0.3-0.1l3.1-3.1
	C21.9,14.2,21.9,13.8,21.7,13.7L21.7,13.7z M21.7,13.7"/>
</svg>
