<?xml version="1.0" encoding="utf-8"?>
<!-- Generator: Adobe Illustrator 18.0.0, SVG Export Plug-In . SVG Version: 6.00 Build 0)  -->
<!DOCTYPE svg PUBLIC "-//W3C//DTD SVG 1.1//EN" "http://www.w3.org/Graphics/SVG/1.1/DTD/svg11.dtd">
<svg version="1.1" id="Layer_1" xmlns="http://www.w3.org/2000/svg" xmlns:xlink="http://www.w3.org/1999/xlink" x="0px" y="0px"
	 viewBox="0 0 29 29" enable-background="new 0 0 29 29" xml:space="preserve">
<path fill="#FFFFFF" d="M21.6,5.5c-0.1,0-3.8-1.5-6.6,0c-2.1,1.1-5.9,0.3-6.8,0.1V5c0-0.3-0.2-0.5-0.5-0.5C7.3,4.5,7.1,4.7,7.1,5v19
	c0,0.3,0.2,0.5,0.5,0.5c0.3,0,0.5-0.2,0.5-0.5v-7.6C8.9,16.7,10.4,17,12,17c1.4,0,2.5-0.2,3.4-0.7c2.4-1.3,5.8,0,5.8,0
	c0.2,0.1,0.3,0,0.4,0c0.1-0.1,0.2-0.2,0.2-0.4V6C21.9,5.8,21.8,5.6,21.6,5.5z M8.1,15.5V6.6c1.3,0.3,5,1,7.3-0.2
	c2-1.1,4.6-0.4,5.5-0.1v8.8c-1.2-0.4-3.8-0.9-6,0.2C12.8,16.5,9.1,15.7,8.1,15.5z"/>
</svg>
