<?xml version="1.0" encoding="utf-8"?>
<!-- Generator: Adobe Illustrator 18.0.0, SVG Export Plug-In . SVG Version: 6.00 Build 0)  -->
<!DOCTYPE svg PUBLIC "-//W3C//DTD SVG 1.1//EN" "http://www.w3.org/Graphics/SVG/1.1/DTD/svg11.dtd">
<svg version="1.1" id="Layer_1" xmlns="http://www.w3.org/2000/svg" xmlns:xlink="http://www.w3.org/1999/xlink" x="0px" y="0px"
	 viewBox="0 0 25 25" enable-background="new 0 0 25 25" xml:space="preserve">
<path fill="#FFFFFF" stroke="#FFFFFF" stroke-width="0.15" stroke-miterlimit="10" d="M21,1.9c-0.2-0.1-4.5-1.8-7.9,0
	c-2.7,1.4-7.3,0.4-8.5,0V1c0-0.2-0.2-0.4-0.4-0.4C4,0.6,3.8,0.8,3.8,1v1.2c0,0,0,0,0,0c0,0,0,0,0,0v11.5v0.4V24
	c0,0.2,0.2,0.4,0.4,0.4c0.2,0,0.4-0.2,0.4-0.4v-9.4c0.9,0.2,2.9,0.6,4.9,0.6c1.4,0,2.9-0.2,4-0.8c3-1.6,7.1,0,7.2,0
	c0.1,0,0.3,0,0.4,0c0.1-0.1,0.2-0.2,0.2-0.3V2.2C21.2,2.1,21.1,1.9,21,1.9z M20.4,13.6c-1.3-0.4-4.6-1.2-7.3,0.2
	c-2.7,1.4-7.3,0.4-8.5,0v-0.1V2.7c1.5,0.4,6.1,1.3,8.9-0.2c2.6-1.4,6-0.4,6.9-0.1V13.6z"/>
</svg>
