<?xml version="1.0" encoding="utf-8"?>
<!-- Generator: Adobe Illustrator 18.0.0, SVG Export Plug-In . SVG Version: 6.00 Build 0)  -->
<!DOCTYPE svg PUBLIC "-//W3C//DTD SVG 1.1//EN" "http://www.w3.org/Graphics/SVG/1.1/DTD/svg11.dtd">
<svg version="1.1" id="Layer_1" xmlns="http://www.w3.org/2000/svg" xmlns:xlink="http://www.w3.org/1999/xlink" x="0px" y="0px"
	 viewBox="0 0 25 25" enable-background="new 0 0 25 25" xml:space="preserve">
<path fill="#FFFFFF" d="M22,1.9L22,1.9H3h0c-0.3,0-0.6,0.2-0.7,0.4C2.2,2.6,2.2,2.9,2.3,3.2l7,9.8c0.3,0.4,0.4,0.8,0.4,1.3v8
	c0,0.2,0.1,0.4,0.2,0.5c0.2,0.2,0.6,0.3,0.8,0.2l3.9-1.5c0.3-0.1,0.5-0.4,0.5-0.7v-6.5c0-0.5,0.1-0.9,0.4-1.3l7-9.8
	c0.2-0.2,0.2-0.6,0.1-0.8C22.6,2.1,22.3,1.9,22,1.9z M21.8,3L15,12.5c-0.4,0.5-0.6,1.1-0.6,1.8v6.5l-3.8,1.5v-7.9
	c0-0.6-0.2-1.2-0.6-1.8L3.1,2.8h18.8L21.8,3z"/>
</svg>
