<?xml version="1.0" encoding="utf-8"?>
<!-- Generator: Adobe Illustrator 18.0.0, SVG Export Plug-In . SVG Version: 6.00 Build 0)  -->
<!DOCTYPE svg PUBLIC "-//W3C//DTD SVG 1.1//EN" "http://www.w3.org/Graphics/SVG/1.1/DTD/svg11.dtd">
<svg version="1.1" id="Layer_1" xmlns="http://www.w3.org/2000/svg" xmlns:xlink="http://www.w3.org/1999/xlink" x="0px" y="0px"
	 viewBox="0 0 25.6 21.9" enable-background="new 0 0 25.6 21.9" xml:space="preserve">
<path id="XMLID_2_" fill="#FFFFFF" d="M13,21c-0.1,0-0.2,0-0.2-0.1c0,0-0.1,0-0.1,0c0,0-0.2-0.1-0.4-0.2c-0.8-0.5-2.5-1.8-3.7-2.7
	C4.3,14.6,2,12,1.5,10.2C1.3,9.6,1.2,8.9,1.2,8.2c0-2,0.7-3.8,2-5.2C4.4,1.8,6,1.1,7.6,1.1h0c2.1,0,3.9,0.9,5.2,2.5
	C14,2,15.8,1,17.9,1L18,1c3.5,0,6.4,3.1,6.4,6.9c0,0.7-0.1,1.5-0.3,2.1c-0.3,1.8-2.7,4.4-6.9,7.9c-1.7,1.4-3,2.4-4,3
	C13.2,20.9,13.1,21,13,21z M7.7,2.1c-1.4,0-2.7,0.6-3.8,1.6C2.8,4.8,2.2,6.4,2.2,8.1c0,0.6,0.1,1.3,0.3,1.8c0.3,1.1,1.6,3.2,6.8,7.2
	c1.1,0.9,2.9,2.1,3.6,2.6c0,0,0.1,0.1,0.1,0.1c0.9-0.6,2.2-1.6,3.6-2.8c5-4.1,6.3-6.3,6.6-7.3c0.2-0.6,0.3-1.3,0.3-1.9
	c0-3.3-2.5-5.9-5.5-5.9l-0.1,0c-1.9,0-3.7,1.1-4.7,2.8C13.1,4.9,13,5,12.8,5c-0.1,0-0.3-0.1-0.4-0.2C11.3,3.1,9.6,2.1,7.7,2.1z"/>
</svg>
