<?xml version="1.0" encoding="utf-8"?>
<!-- Generator: Adobe Illustrator 18.0.0, SVG Export Plug-In . SVG Version: 6.00 Build 0)  -->
<!DOCTYPE svg PUBLIC "-//W3C//DTD SVG 1.1//EN" "http://www.w3.org/Graphics/SVG/1.1/DTD/svg11.dtd">
<svg version="1.1" id="Layer_1" xmlns="http://www.w3.org/2000/svg" xmlns:xlink="http://www.w3.org/1999/xlink" x="0px" y="0px"
	 viewBox="0 0 28 28" enable-background="new 0 0 28 28" xml:space="preserve">
<path fill="#FFFFFF" d="M14,4.5c-5.3,0-9.5,4.3-9.5,9.5c0,5.3,4.3,9.5,9.5,9.5c5.3,0,9.5-4.3,9.5-9.5C23.5,8.7,19.3,4.5,14,4.5
	L14,4.5z M14,22.4c-4.6,0-8.4-3.8-8.4-8.4S9.4,5.6,14,5.6s8.4,3.8,8.4,8.4S18.6,22.4,14,22.4L14,22.4z M14,22.4"/>
<path fill="#FFFFFF" d="M14.6,10.8c0,0.4-0.3,0.7-0.7,0.7c-0.4,0-0.7-0.3-0.7-0.7c0-0.4,0.3-0.7,0.7-0.7
	C14.3,10.1,14.6,10.4,14.6,10.8L14.6,10.8z M14.6,10.8"/>
<path fill="#FFFFFF" d="M13.9,12.8c-0.3,0-0.6,0.3-0.6,0.6v5c0,0.3,0.3,0.6,0.6,0.6c0.3,0,0.6-0.3,0.6-0.6v-5
	C14.5,13,14.2,12.8,13.9,12.8L13.9,12.8z M13.9,12.8"/>
</svg>
