<?xml version="1.0" encoding="utf-8"?>
<!-- Generator: Adobe Illustrator 18.0.0, SVG Export Plug-In . SVG Version: 6.00 Build 0)  -->
<!DOCTYPE svg PUBLIC "-//W3C//DTD SVG 1.1//EN" "http://www.w3.org/Graphics/SVG/1.1/DTD/svg11.dtd">
<svg version="1.1" id="Layer_1" xmlns="http://www.w3.org/2000/svg" xmlns:xlink="http://www.w3.org/1999/xlink" x="0px" y="0px"
	 viewBox="0 0 29 29" enable-background="new 0 0 29 29" xml:space="preserve">
<path fill="#FFFFFF" d="M14.5,14.8c-0.8,0-1.4,0.6-1.4,1.4v2.1c0,0.8,0.6,1.4,1.4,1.4c0.8,0,1.4-0.6,1.4-1.4v-2.1
	C15.9,15.5,15.3,14.8,14.5,14.8L14.5,14.8z M15.2,18.3c0,0.4-0.3,0.7-0.7,0.7c-0.4,0-0.7-0.3-0.7-0.7v-2.1c0-0.4,0.3-0.7,0.7-0.7
	c0.4,0,0.7,0.3,0.7,0.7V18.3z M15.2,18.3"/>
<path fill="#FFFFFF" d="M18.3,11.8V8c0-1.9-1.7-3.5-3.8-3.5c-2.1,0-3.8,1.6-3.8,3.5c0,0.2,0.2,0.3,0.3,0.3c0.2,0,0.3-0.2,0.3-0.3
	c0-1.6,1.4-2.8,3.1-2.8s3.1,1.3,3.1,2.8v3.4c-0.1,0-0.1-0.1-0.2-0.1c-0.1-0.1-0.3-0.1-0.4-0.2c-0.1,0-0.2-0.1-0.3-0.1
	c-0.1,0-0.2-0.1-0.3-0.1c-0.2,0-0.3-0.1-0.5-0.1c-0.1,0-0.1,0-0.2,0c-0.2,0-0.4-0.1-0.5-0.1c0,0-0.1,0-0.1,0c-0.2,0-0.4,0-0.6,0
	c-3.8,0-6.9,3.1-6.9,6.9c0,3.8,3.1,6.9,6.9,6.9c3.8,0,6.9-3.1,6.9-6.9C21.4,15.2,20.2,13.1,18.3,11.8L18.3,11.8z M14.5,23.8
	c-3.4,0-6.2-2.8-6.2-6.2c0-3.4,2.8-6.2,6.2-6.2c0.2,0,0.4,0,0.6,0c0.1,0,0.1,0,0.2,0c0.1,0,0.3,0,0.4,0.1c0.1,0,0.2,0,0.3,0.1
	c0.1,0,0.2,0.1,0.4,0.1c0.1,0,0.2,0.1,0.3,0.1c0.1,0,0.1,0,0.2,0.1c0.3,0.1,0.7,0.3,1,0.5c1.8,1.1,3,3.1,3,5.3
	C20.7,21,17.9,23.8,14.5,23.8L14.5,23.8z M14.5,23.8"/>
</svg>
