<?xml version="1.0" encoding="utf-8"?>
<!-- Generator: Adobe Illustrator 18.0.0, SVG Export Plug-In . SVG Version: 6.00 Build 0)  -->
<!DOCTYPE svg PUBLIC "-//W3C//DTD SVG 1.1//EN" "http://www.w3.org/Graphics/SVG/1.1/DTD/svg11.dtd">
<svg version="1.1" id="Layer_1" xmlns="http://www.w3.org/2000/svg" xmlns:xlink="http://www.w3.org/1999/xlink" x="0px" y="0px"
	 viewBox="0 0 29 29" enable-background="new 0 0 29 29" xml:space="preserve">
<circle fill="#FFFFFF" cx="20.7" cy="10.3" r="0.4"/>
<path fill="#FFFFFF" d="M19.2,12.1h2.4c0.1,0,0.1,0,0.2-0.1l2.7-2.7c0.1-0.1,0.1-0.3,0-0.3l-2.4-2.4c0,0-0.1-0.1-0.2-0.1
	s-0.1,0-0.2,0.1L19,9.3c0,0-0.1,0.1-0.1,0.2v2.4C19,11.9,19.1,12.1,19.2,12.1z M19.5,9.6l2.4-2.4l2,2l-2.4,2.4h-2V9.6z"/>
<path fill="#FFFFFF" d="M17.5,12.2C17.5,12.2,17.5,12.2,17.5,12.2l-5.9,2.6l0-0.1c-0.2-0.5-0.6-0.8-1.1-0.8H7.1
	c-0.7,0-1.2,0.5-1.2,1.2v0.1H4.7c-0.1,0-0.2,0.1-0.2,0.2v2c0,0.1,0.1,0.2,0.2,0.2h1.1v0.1c0,0.6,0.4,1,0.9,1.2l0.1,0v3.1
	c0,0.1,0.1,0.2,0.2,0.2h2c0.1,0,0.2-0.1,0.2-0.2v-1.4h0.4c0.5,0,0.9-0.4,0.9-0.9v-0.8l0.1,0c0.4-0.1,0.7-0.4,0.9-0.8l0-0.1l0.1,0
	l5.7,2.5c0.1,0.1,0.3,0,0.3-0.1c0,0,0-0.1,0-0.1v-8.1C17.8,12.3,17.7,12.2,17.5,12.2z M5.8,17.3H5v-1.5h0.9V17.3z M8.9,22H7.3v-2.9
	h1.5V22z M10.2,19.9c0,0.2-0.2,0.4-0.4,0.4H9.4v-1.2h0.9V19.9z M11.2,17.9c0,0.4-0.3,0.7-0.7,0.7H7.1c-0.4,0-0.7-0.3-0.7-0.7v-2.8
	c0-0.4,0.3-0.7,0.7-0.7h3.4c0.4,0,0.7,0.3,0.7,0.7V17.9z M15.3,19.3l-3.5-1.6v-2.4l3.5-1.6V19.3z M17.3,20.2l-1.5-0.7v-6l1.5-0.7
	V20.2z"/>
<path fill="#FFFFFF" d="M12.1,12.3c0.4,0.3,0.9,0.5,1.4,0.5c0,0,0,0,0,0c0,0,0,0,0,0c0.6,0,1.2-0.2,1.6-0.7c0.4-0.4,0.7-1,0.7-1.6
	c0-0.5-0.2-1-0.5-1.4l0-0.1l2-2L17,6.7l-2,2l-0.1,0c-0.5-0.4-1.1-0.5-1.7-0.4c-0.6,0.1-1.1,0.4-1.5,0.9
	C10.9,10.1,11.1,11.5,12.1,12.3z M13.5,8.7c1,0,1.8,0.8,1.8,1.8s-0.8,1.8-1.8,1.8s-1.8-0.8-1.8-1.8C11.7,9.5,12.5,8.7,13.5,8.7z"/>
<path fill="#FFFFFF" d="M18.9,18.1h1.8v0.4c0,0.1,0.1,0.2,0.2,0.2h2.7c0.1,0,0.2-0.1,0.2-0.2v-1.7c0-0.5-0.3-1-0.8-1.2l-0.2-0.1
	l0.1-0.1c0.3-0.2,0.5-0.5,0.5-0.8c0.1-0.3,0-0.7-0.2-0.9c-0.4-0.6-1.2-0.7-1.7-0.3c-0.6,0.4-0.7,1.2-0.3,1.7
	c0.1,0.1,0.2,0.2,0.3,0.3l0.1,0.1l-0.2,0.1c-0.2,0.1-0.4,0.2-0.5,0.4l-0.1,0.1L20.8,16c-0.1-0.1-0.2-0.2-0.4-0.3l-0.1-0.1l0.1-0.1
	c0.4-0.3,0.5-0.9,0.2-1.3c-0.1-0.2-0.4-0.3-0.6-0.4c0,0-0.1,0-0.1,0c-0.2,0-0.4,0.1-0.5,0.2c-0.2,0.1-0.3,0.4-0.4,0.6s0,0.5,0.2,0.7
	c0.1,0.1,0.1,0.2,0.2,0.2l0.1,0.1l-0.1,0.1c-0.4,0.2-0.7,0.6-0.7,1.1v1C18.6,18,18.7,18.1,18.9,18.1z M21.5,14.5
	c0-0.4,0.3-0.8,0.8-0.8c0.4,0,0.8,0.3,0.8,0.8c0,0.4-0.3,0.8-0.8,0.8C21.8,15.3,21.5,14.9,21.5,14.5z M21.1,16.9
	c0-0.4,0.3-0.8,0.8-0.8h0.7c0.4,0,0.8,0.3,0.8,0.8v1.4h-2.2V16.9z M19.5,14.8c0-0.2,0.2-0.4,0.4-0.4c0.2,0,0.4,0.2,0.4,0.4
	s-0.2,0.4-0.4,0.4C19.6,15.3,19.5,15.1,19.5,14.8z M19.1,16.9c0-0.4,0.3-0.8,0.8-0.8c0.4,0,0.8,0.3,0.8,0.8v0.8h-1.5V16.9z"/>
</svg>
