<?xml version="1.0" encoding="utf-8"?>
<!-- Generator: Adobe Illustrator 18.0.0, SVG Export Plug-In . SVG Version: 6.00 Build 0)  -->
<!DOCTYPE svg PUBLIC "-//W3C//DTD SVG 1.1//EN" "http://www.w3.org/Graphics/SVG/1.1/DTD/svg11.dtd">
<svg version="1.1" id="Layer_1" xmlns="http://www.w3.org/2000/svg" xmlns:xlink="http://www.w3.org/1999/xlink" x="0px" y="0px"
	 viewBox="0 0 51.3 51.3" enable-background="new 0 0 51.3 51.3" xml:space="preserve">
<g>
	<path fill="#FFFFFF" d="M5.5,19.3c2.5,0,4.9,0,7.4,0l2.8,0l0.9,0c0.9,0,1.8,0,2.7,0c0.6,0,0.8-0.3,0.8-0.7c0-2.1,0-4.5,0-7
		c0-0.2-0.3-0.6-0.4-0.6c-0.6-0.1-0.6-0.5-0.6-0.8l0-0.1c-0.3-3-1.3-5.2-3-7c-1.1-1.1-2.4-1.6-3.7-1.6c-1.3,0-2.5,0.5-3.6,1.5
		c-1.1,1-1.9,2.2-2.3,3.5C6.1,7.5,5.9,8.5,5.7,9.5c-0.1,0.4-0.2,0.9-0.3,1.3l0,0.1l-0.1,0c-0.7,0.2-0.7,0.2-0.7,1.1
		c0,1.7,0,3.5,0,5.2l0,1C4.5,19.2,4.7,19.3,5.5,19.3z M18.8,18.1H5.7v-2.7l0.2,0.1c4.3,2,8.4,2.1,12.7,0l0.2-0.1V18.1z M6.8,10.8
		c0-1,0.2-2,0.5-3.1c0.6-1.8,1.4-3.1,2.5-4c1.7-1.4,3.8-1.2,5.4,0.4c1.5,1.6,2.4,3.7,2.6,6.4c0,0.1,0,0.1,0,0.2c0,0,0,0,0,0.1l0,0.1
		h-11L6.8,10.8z M5.7,12.2h13.2l0,0.2c0,0.1-0.2,1.8-1.3,2.4c-1,0.5-2.4,0.9-4.6,1l-0.2,0l0-0.2c0-0.8-0.3-0.9-0.6-0.9
		c-0.3,0-0.5,0.1-0.6,0.9l0,0.2l-0.2,0c-1.5-0.1-2.9-0.4-4.4-1.1c-1-0.5-1.5-1.2-1.4-2.3L5.7,12.2z"/>
	<path fill="#FFFFFF" d="M21.7,24.8c-0.4-0.5-0.7-0.5-1.1-0.1c-0.3,0.2-0.6,0.5-0.8,0.7c-0.4,0.4-0.8,0.7-1.3,1.1
		c-1.7,1.4-3.3,2.6-4.9,3.7c-0.4,0.3-1.1,0.8-1.9,0.3c0,0-0.2,0-0.2,0c-1.8,0.1-3.5,1.9-3.4,3.8c0,0.6,0.2,0.9,0.9,0.9
		c0.4,0,0.8,0,1.1,0c0.3,0,0.6,0,0.8,0c0.4,0,0.7,0,1.1,0c0.1,0,0.2,0,0.3,0c1.4,0,2.5-0.5,3.4-1.4c0.4-0.4,1-0.8,1.5-1.2
		c0.2-0.2,0.5-0.3,0.7-0.5l0.1-0.1l0.3,0.2l0,0.7c0,0.5,0,1,0,1.4c0,0.5,0.2,0.7,0.7,0.7c0.7,0,1.4,0,2,0c0.6,0,0.8-0.2,0.8-0.8
		c0-0.4,0-0.9,0-1.3c0-0.6,0-1.2,0-1.9c0-0.3,0.1-0.6,0.3-0.9C23.3,28.5,23.2,26.4,21.7,24.8z M21.1,29.5c-0.4,0.5-0.6,1-0.6,1.7
		c0,0.5,0,0.9,0,1.4c0,0.2,0,0.4,0,0.6c0,0.4,0,0.6-0.2,0.7c-0.1,0.1-0.2,0.1-0.3,0.1c-0.1,0-0.3,0-0.5-0.1l-0.1,0l0-0.6
		c0-0.4-0.1-0.9-0.1-1.3c0-0.2-0.1-0.5-0.2-0.7c-0.2-0.3-0.4-0.5-0.6-0.6c-0.2-0.1-0.5,0-0.7,0.2c-0.6,0.4-1.2,0.9-1.8,1.3
		c-0.5,0.4-1.1,0.8-1.6,1.2c-0.4,0.3-0.9,0.6-1.3,0.6c-0.8,0.1-1.7,0-2.5,0c-0.3,0-0.7,0-1,0H9.3l0-0.2c0.1-0.6,0.5-1.1,1-1.4
		c0.5-0.3,1.1-0.5,1.6-0.3c0.7,0.2,1.3-0.1,1.9-0.4c1.8-1,3.4-2.4,5-3.7c0.2-0.2,0.5-0.4,0.7-0.6c0.3-0.3,0.6-0.5,0.9-0.8l0.5-0.4
		l0.1,0.1C22,26.9,22,28.5,21.1,29.5z"/>
	<path fill="#FFFFFF" d="M13.2,38.9c-0.3-0.1-0.4,0-0.4,0c-0.7,0.4-1.3,0.1-1.8-0.2l-0.2-0.1c-1.1-0.7-2.1-1.5-3.2-2.3
		c-0.8-0.7-1.7-1.4-2.5-2.1c-0.4-0.4-0.8-0.7-1.2-1.1c-0.4-0.4-0.7-0.4-1.1,0c-1.5,1.5-1.7,3.8-0.4,5.5c0.2,0.2,0.3,0.6,0.3,0.9
		c0,0.6,0,1.3,0,1.9c0,0.4,0,0.8,0,1.2c0,0.7,0.2,0.8,0.9,0.8c0.7,0,1.3,0,1.8,0c0.6,0,0.8-0.2,0.8-0.8c0-0.4,0-0.9,0-1.4l0-1.1
		l0.2,0.2c0.1,0.1,0.2,0.1,0.3,0.2c0.1,0.1,0.2,0.1,0.3,0.2l0.6,0.4c0.6,0.5,1.3,1,1.9,1.5c0.6,0.5,1.2,0.8,1.9,0.8
		c1.4,0,2.9,0,4.3,0.1c0,0,0,0,0,0c0.3,0,0.6-0.1,0.7-0.6c0.1-1-0.1-1.8-0.6-2.4C15.1,39.7,14.3,39.2,13.2,38.9z M15,42.2
		c-0.3,0-0.7,0-1,0c-0.3,0-0.7,0-1,0c-0.5,0-1,0-1.6,0c-0.4,0-0.9-0.3-1.3-0.6c-0.5-0.4-1-0.7-1.5-1.1c-0.6-0.4-1.2-0.9-1.8-1.3
		C6.6,38.9,6.3,38.9,6,39c-0.3,0.1-0.5,0.4-0.6,0.8c-0.1,0.4-0.2,0.8-0.2,1.2l0,0.2c0,0.2,0,0.4,0,0.7c0,0.1,0,0.2,0,0.3v0.2H4v-0.2
		c0-0.2,0-0.5,0-0.7c0-0.5,0-1.1,0-1.7c0-0.8-0.1-1.4-0.6-1.9c-0.8-0.9-0.8-2.3,0-3.4l0.1-0.1l0.1,0.1c0.2,0.2,0.4,0.4,0.7,0.6
		c0.5,0.4,0.9,0.8,1.4,1.2c1.4,1.1,3.2,2.4,4.9,3.7c0.7,0.5,1.5,0.7,2.2,0.4c0.1,0,0.1,0,0.2,0c0.4,0,0.8,0.2,1.3,0.6
		c0.4,0.3,0.8,0.9,0.8,1.4l0,0.2H15z"/>
	<path fill="#FFFFFF" d="M48.2,36.3c-1.3-6-3-11-5.3-15.4c-0.7-1.3-0.7-2.5-0.1-3.9c0.2-0.4,0.4-0.8,0.6-1.1
		c0.1-0.2,0.3-0.4,0.4-0.7l0.1-0.1c0.2-0.4,0.4-0.8,0.5-1.2c0.3-0.8,0.2-1.8-0.3-2.6c-0.4-0.7-0.9-1.2-1.5-1.4
		c-0.7-0.2-1.4-0.4-2-0.7c-0.5-0.1-0.9-0.3-1.4-0.4c-0.1,0-0.2-0.1-0.3-0.1c-0.1,0-0.2,0-0.3-0.1l-0.3-0.1l0.5-0.5
		C39,8,39.2,7.9,39.3,7.8c1.3-1,2.7-2.1,4-3.1c0.3-0.2,0.4-0.4,0.4-0.6c0-0.1,0-0.3-0.2-0.4c-1-1.2-2.2-1.9-3.5-2.1
		c-0.4,0-0.6,0.1-0.8,0.4c-0.7,1.3-1.4,2.6-2,3.9c-0.1,0.3-0.3,0.5-0.4,0.8c-0.1,0.1-0.1,0.3-0.2,0.5l-0.1,0.3l-0.3-0.6
		c-0.1-0.2-0.1-0.3-0.2-0.4l-0.9-1.7c-0.5-0.9-0.9-1.8-1.4-2.7c-0.2-0.3-0.4-0.5-0.7-0.5c-0.1,0-0.2,0-0.2,0
		c-1.1,0.2-2.2,0.8-3.2,1.9c-0.2,0.2-0.3,0.4-0.3,0.6c0,0.2,0.2,0.4,0.4,0.6c0.2,0.1,0.4,0.3,0.6,0.4c0.5,0.4,1,0.7,1.5,1.1
		c0.6,0.5,1.2,0.9,1.8,1.4c0.3,0.2,0.5,0.4,0.8,0.7l0.2,0.2l-0.3,0.1c-0.3,0.1-0.7,0.2-1,0.3c-0.7,0.2-1.4,0.4-2,0.6
		c-0.8,0.3-1.8,0.7-2.3,1.6c-0.8,1.3-0.7,2.6,0.1,4l0.2,0.3c0.3,0.6,0.7,1.1,1,1.8c0.6,1.4,0.6,2.6-0.1,3.7
		c-0.1,0.2-0.2,0.3-0.3,0.5c0,0.1-0.1,0.1-0.1,0.2c-1.6,3.4-3,7-4.1,11c-1.2,4.3-2,8.8-2.4,13.8c0,0.5,0.1,0.8,0.5,1
		c1.2,0.7,2.7,1.3,4.5,1.6c4.9,1,9.9,1.1,15.1,0.2c2.2-0.4,3.9-0.9,5.5-1.8c0.5-0.3,0.7-0.6,0.7-1.3C49.3,42.5,48.8,39.3,48.2,36.3z
		 M38.6,5.9c0.5-1,1-1.9,1.5-2.8c0.1-0.2,0.4-0.2,0.6-0.2c0.3,0.2,0.7,0.4,1,0.6l0.6,0.4l-3.8,3l-0.3-0.2L38.6,5.9z M34.6,6.9
		l-3.8-3L31,3.7c0.1-0.1,0.3-0.2,0.4-0.2c0.4-0.2,0.7-0.4,1.1-0.6C32.6,2.8,33,3,33.1,3.1c0.5,0.9,1,1.8,1.4,2.7l0.4,0.8L34.6,6.9z
		 M41.9,48.3V41l0.5-0.1l0,0.1l1.4,7L41.9,48.3z M47.9,46.8c-0.7,0.3-1.4,0.5-2.1,0.8L45,47.9l0-0.2c-0.1-0.5-0.2-0.9-0.2-1.3
		c-0.2-0.9-0.3-1.8-0.5-2.6c-0.5-1.9-1-3.8-1.6-5.7c-0.2-0.7-0.4-1.4-0.6-2.1c-0.1-0.5-0.4-0.7-0.7-0.6c-0.4,0.1-0.5,0.3-0.5,0.8
		c0,1.4,0,2.8-0.1,4.2c0,2.4-0.1,4.9-0.1,7.3c0,0.6-0.2,0.8-0.8,0.8c-1.1,0.1-2.2,0.1-3.3,0.1c-2.3,0-4.5-0.2-6.7-0.5
		c-1.4-0.2-3.2-0.5-4.8-1.4c-0.3-0.1-0.5-0.3-0.5-0.8c0.5-4.8,1.3-9.1,2.4-13.1c0.9-3.4,2.2-7.4,4.2-11.2c1.1-2,1-4-0.4-6.4
		c-0.1-0.2-0.2-0.3-0.3-0.5c-0.1-0.2-0.3-0.4-0.4-0.7c-0.3-0.6-0.4-1.3-0.2-1.9c0.2-0.6,0.7-1.1,1.3-1.4c3.7-1.5,7.4-1.5,11.1,0.2
		c0.4,0.2,0.7,0.6,0.9,1.1c0.2,0.6,0.1,1.4-0.2,2c-0.2,0.3-0.4,0.6-0.5,0.9c-0.2,0.3-0.4,0.7-0.6,1.1c-0.8,1.6-1,2.9-0.6,4.2
		c0,0.1,0.1,0.3,0.1,0.4c2.9,5.6,4.9,11.7,6.2,18.9c0.2,1.3,0.4,2.6,0.6,3.9c0.1,0.8,0.2,1.5,0.3,2.3C48.5,46.3,48.4,46.6,47.9,46.8
		z"/>
</g>
</svg>
