<?xml version="1.0" encoding="utf-8"?>
<!-- Generator: Adobe Illustrator 18.0.0, SVG Export Plug-In . SVG Version: 6.00 Build 0)  -->
<!DOCTYPE svg PUBLIC "-//W3C//DTD SVG 1.1//EN" "http://www.w3.org/Graphics/SVG/1.1/DTD/svg11.dtd">
<svg version="1.1" id="Layer_1" xmlns="http://www.w3.org/2000/svg" xmlns:xlink="http://www.w3.org/1999/xlink" x="0px" y="0px"
	 viewBox="0 0 28 28" enable-background="new 0 0 28 28" xml:space="preserve">
<path fill="#FFFFFF" d="M23.4,3.8H4.6C4.4,3.8,4.2,4,4.2,4.3s0.2,0.4,0.4,0.4h1.2v18.9c0,0.2,0.1,0.3,0.2,0.4c0.1,0.1,0.3,0.1,0.4,0
	l2.3-1.5l2.3,1.5c0.1,0.1,0.3,0.1,0.5,0l2.3-1.5l2.6,1.7l2.6-1.7l2.3,1.5c0.1,0.1,0.3,0.1,0.4,0c0.1-0.1,0.2-0.2,0.2-0.4l0-18.9h1.3
	c0.2,0,0.4-0.2,0.4-0.4C23.8,4.1,23.6,3.8,23.4,3.8z M21.2,22.8l-2.1-1.4l-2.6,1.7l-2.3-1.5c-0.1-0.1-0.3-0.1-0.5,0l-2.3,1.5
	l-2.6-1.7l-2.1,1.4V4.7h14.5L21.2,22.8z"/>
<path fill="#FFFFFF" d="M14.7,11.1H9.2c-0.2,0-0.4,0.2-0.4,0.4S9,12,9.2,12h5.5c0.2,0,0.4-0.2,0.4-0.4S14.9,11.1,14.7,11.1z"/>
<path fill="#FFFFFF" d="M18.8,11.1h-1.4c-0.2,0-0.4,0.2-0.4,0.4s0.2,0.4,0.4,0.4h1.4c0.2,0,0.4-0.2,0.4-0.4S19,11.1,18.8,11.1z"/>
<path fill="#FFFFFF" d="M14.7,6.9H9.2C9,6.9,8.8,7.1,8.8,7.4S9,7.8,9.2,7.8h5.5c0.2,0,0.4-0.2,0.4-0.4S14.9,6.9,14.7,6.9z"/>
<path fill="#FFFFFF" d="M18.8,6.9h-1.4c-0.2,0-0.4,0.2-0.4,0.4s0.2,0.4,0.4,0.4h1.4c0.2,0,0.4-0.2,0.4-0.4S19,6.9,18.8,6.9z"/>
<path fill="#FFFFFF" d="M14.7,15.4H9.2c-0.2,0-0.4,0.2-0.4,0.4c0,0.2,0.2,0.4,0.4,0.4h5.5c0.2,0,0.4-0.2,0.4-0.4
	C15.1,15.6,14.9,15.4,14.7,15.4z"/>
<path fill="#FFFFFF" d="M18.8,15.4h-1.4c-0.2,0-0.4,0.2-0.4,0.4c0,0.2,0.2,0.4,0.4,0.4h1.4c0.2,0,0.4-0.2,0.4-0.4
	C19.2,15.6,19,15.4,18.8,15.4z"/>
</svg>
