<?xml version="1.0" encoding="utf-8"?>
<!-- Generator: Adobe Illustrator 18.0.0, SVG Export Plug-In . SVG Version: 6.00 Build 0)  -->
<!DOCTYPE svg PUBLIC "-//W3C//DTD SVG 1.1//EN" "http://www.w3.org/Graphics/SVG/1.1/DTD/svg11.dtd">
<svg version="1.1" id="Layer_1" xmlns="http://www.w3.org/2000/svg" xmlns:xlink="http://www.w3.org/1999/xlink" x="0px" y="0px"
	 viewBox="0 0 29 29" enable-background="new 0 0 29 29" xml:space="preserve">
<path fill="#FFFFFF" d="M17.7,4.6c-0.1-0.1-0.2-0.1-0.2-0.1H8.6C7.7,4.5,7,5.2,7,6.1v16.8c0,0.9,0.7,1.6,1.6,1.6h11.8
	c0.9,0,1.6-0.7,1.6-1.6V9c0-0.1,0-0.2-0.1-0.2L17.7,4.6z M17.8,5.7l3,3h-2.1c-0.5,0-0.9-0.4-0.9-0.9V5.7z M21.3,22.9
	c0,0.5-0.4,0.9-0.9,0.9H8.6c-0.5,0-0.9-0.4-0.9-0.9V6.1c0-0.5,0.4-0.9,0.9-0.9h8.5v2.6c0,0.9,0.7,1.6,1.6,1.6h2.6V22.9z"/>
<path fill="#FFFFFF" d="M19.1,19.8H9.9c-0.2,0-0.3,0.2-0.3,0.3c0,0.2,0.2,0.3,0.3,0.3h9.2c0.2,0,0.3-0.2,0.3-0.3
	C19.5,20,19.3,19.8,19.1,19.8z"/>
<path fill="#FFFFFF" d="M19.1,15.5H9.9c-0.2,0-0.3,0.2-0.3,0.3c0,0.2,0.2,0.3,0.3,0.3h9.2c0.2,0,0.3-0.2,0.3-0.3
	C19.5,15.7,19.3,15.5,19.1,15.5z"/>
<path fill="#FFFFFF" d="M13.7,11.6c0,0.2,0.2,0.3,0.3,0.3h5c0.2,0,0.3-0.2,0.3-0.3s-0.2-0.3-0.3-0.3h-5
	C13.9,11.2,13.7,11.4,13.7,11.6z"/>
<path fill="#FFFFFF" d="M9.9,11.2c-0.2,0-0.3,0.2-0.3,0.3s0.2,0.3,0.3,0.3h0.5V12c0,0.2,0.2,0.3,0.3,0.3c0.2,0,0.3-0.2,0.3-0.3v-0.1
	l0,0c0.5-0.2,0.8-0.6,0.8-1.1c0-0.7-0.5-1.2-1.2-1.2c-0.3,0-0.5-0.2-0.5-0.5c0-0.3,0.2-0.5,0.5-0.5h0.8c0.2,0,0.3-0.2,0.3-0.3
	s-0.2-0.3-0.3-0.3h-0.5V7.8c0-0.2-0.2-0.3-0.3-0.3c-0.2,0-0.3,0.2-0.3,0.3v0.1l0,0C9.9,8.1,9.5,8.5,9.5,9c0,0.7,0.5,1.2,1.2,1.2
	c0.3,0,0.5,0.2,0.5,0.5s-0.2,0.5-0.5,0.5H9.9z"/>
</svg>
