<?xml version="1.0" encoding="utf-8"?>
<!-- Generator: Adobe Illustrator 18.0.0, SVG Export Plug-In . SVG Version: 6.00 Build 0)  -->
<!DOCTYPE svg PUBLIC "-//W3C//DTD SVG 1.1//EN" "http://www.w3.org/Graphics/SVG/1.1/DTD/svg11.dtd">
<svg version="1.1" id="Layer_1" xmlns="http://www.w3.org/2000/svg" xmlns:xlink="http://www.w3.org/1999/xlink" x="0px" y="0px"
	 viewBox="0 0 28 28" enable-background="new 0 0 28 28" xml:space="preserve">
<path fill="#FFFFFF" d="M21.3,21.9H6.7v-3.2c0-1.2,0.8-2.3,1.9-2.7l6.5-2.3l0,0c1.4-0.5,2.3-1.8,2.3-3.3C17.4,8.6,15.9,7,14,7
	s-3.4,1.5-3.4,3.4c0,0.9,0.3,1.7,1,2.4c0.2,0.2,0.2,0.5,0,0.6c-0.2,0.2-0.5,0.2-0.6,0c-0.8-0.8-1.2-1.9-1.2-3c0-2.4,1.9-4.3,4.3-4.3
	s4.3,1.9,4.3,4.3c0,1.9-1.2,3.5-3,4.1v0l-6.5,2.3c-0.8,0.3-1.3,1-1.3,1.9V21h12.9v-2.3c0-0.8-0.5-1.6-1.3-1.9L16.7,16
	c-0.2-0.1-0.3-0.3-0.3-0.6c0.1-0.2,0.3-0.3,0.6-0.3l2.5,0.9c1.1,0.4,1.9,1.5,1.9,2.7V21.9z"/>
</svg>
