<?xml version="1.0" encoding="utf-8"?>
<!-- Generator: Adobe Illustrator 18.0.0, SVG Export Plug-In . SVG Version: 6.00 Build 0)  -->
<!DOCTYPE svg PUBLIC "-//W3C//DTD SVG 1.1//EN" "http://www.w3.org/Graphics/SVG/1.1/DTD/svg11.dtd">
<svg version="1.1" id="Layer_1" xmlns="http://www.w3.org/2000/svg" xmlns:xlink="http://www.w3.org/1999/xlink" x="0px" y="0px"
	 viewBox="0 0 25 25" enable-background="new 0 0 25 25" xml:space="preserve">
<g>
	<g>
		<path fill="#FFFFFF" stroke="#FFFFFF" stroke-width="0.15" stroke-miterlimit="10" d="M17.7,2.4H7.3C6.6,2.4,6,3,6,3.7v17.7
			c0,0.7,0.6,1.3,1.3,1.3h10.5c0.7,0,1.3-0.6,1.3-1.3V3.7C19,3,18.4,2.4,17.7,2.4z M6.6,5.6h11.7V19H6.6V5.6z M7.3,3h10.5
			c0.4,0,0.6,0.3,0.6,0.6v1.5H6.6V3.7C6.6,3.3,6.9,3,7.3,3z M17.7,22H7.3c-0.4,0-0.6-0.3-0.6-0.6v-1.9h11.7v1.9
			C18.4,21.7,18.1,22,17.7,22z"/>
		<path fill="#FFFFFF" stroke="#FFFFFF" stroke-width="0.15" stroke-miterlimit="10" d="M12.5,19.7c-0.6,0-1.1,0.5-1.1,1.1
			c0,0.6,0.5,1.1,1.1,1.1s1.1-0.5,1.1-1.1C13.6,20.2,13.1,19.7,12.5,19.7z M12.5,21.4c-0.3,0-0.6-0.3-0.6-0.6c0-0.3,0.3-0.6,0.6-0.6
			c0.3,0,0.6,0.3,0.6,0.6C13.1,21.1,12.8,21.4,12.5,21.4z"/>
	</g>
</g>
</svg>
