<?xml version="1.0" encoding="utf-8"?>
<!-- Generator: Adobe Illustrator 18.0.0, SVG Export Plug-In . SVG Version: 6.00 Build 0)  -->
<!DOCTYPE svg PUBLIC "-//W3C//DTD SVG 1.1//EN" "http://www.w3.org/Graphics/SVG/1.1/DTD/svg11.dtd">
<svg version="1.1" id="Layer_1" xmlns="http://www.w3.org/2000/svg" xmlns:xlink="http://www.w3.org/1999/xlink" x="0px" y="0px"
	 viewBox="0 0 25 25" enable-background="new 0 0 25 25" xml:space="preserve">
<path fill="#FFFFFF" d="M19.4,13.6h-8v-8c0-0.2-0.2-0.4-0.4-0.4c-4.8,0-8.8,3.9-8.8,8.8c0,4.8,3.9,8.8,8.8,8.8
	c4.8,0,8.8-3.9,8.8-8.8C19.8,13.8,19.6,13.6,19.4,13.6z M18.9,14.8c-0.2,2-1.1,3.8-2.6,5.1C14.9,21.3,13,22,11,22c-4.4,0-8-3.6-8-8
	c0-2,0.7-3.9,2.1-5.4c1.3-1.5,3.1-2.4,5.1-2.6l0.4,0v8c0,0.2,0.2,0.4,0.4,0.4h8L18.9,14.8z"/>
<path fill="#FFFFFF" d="M14,2.2c-0.2,0-0.4,0.2-0.4,0.4V11c0,0.2,0.2,0.4,0.4,0.4h8.4c0.2,0,0.4-0.2,0.4-0.4
	C22.8,6.1,18.9,2.2,14,2.2z M14.4,10.6V3l0.4,0c3.8,0.4,6.8,3.4,7.2,7.2l0,0.4H14.4z"/>
</svg>
