<?xml version="1.0" encoding="utf-8"?>
<!-- Generator: Adobe Illustrator 18.0.0, SVG Export Plug-In . SVG Version: 6.00 Build 0)  -->
<!DOCTYPE svg PUBLIC "-//W3C//DTD SVG 1.1//EN" "http://www.w3.org/Graphics/SVG/1.1/DTD/svg11.dtd">
<svg version="1.1" id="Layer_1" xmlns="http://www.w3.org/2000/svg" xmlns:xlink="http://www.w3.org/1999/xlink" x="0px" y="0px"
	 viewBox="0 0 29 29" enable-background="new 0 0 29 29" xml:space="preserve">
<path fill="#FFFFFF" d="M14.5,13.2c1.3,0,2.3-1,2.3-2.3c0-1.3-1-2.3-2.3-2.3s-2.3,1-2.3,2.3C12.2,12.1,13.2,13.2,14.5,13.2
	L14.5,13.2z M14.5,9.2c0.9,0,1.7,0.7,1.7,1.7c0,0.9-0.7,1.7-1.7,1.7c-0.9,0-1.7-0.7-1.7-1.7C12.8,9.9,13.6,9.2,14.5,9.2L14.5,9.2z
	 M14.5,9.2"/>
<path fill="#FFFFFF" d="M14.4,22.8l5.1-7.4c1.9-2.6,1.6-6.8-0.6-9c-1.2-1.2-2.8-1.9-4.5-1.9c-1.7,0-3.3,0.7-4.5,1.9
	c-2.2,2.2-2.5,6.4-0.6,9L14.4,22.8z M10.4,6.8c1.1-1.1,2.5-1.7,4-1.7c1.5,0,3,0.6,4,1.7c2,2,2.3,5.8,0.5,8.1l-4.6,6.6L9.9,15
	C8.1,12.7,8.4,8.9,10.4,6.8L10.4,6.8z M10.4,6.8"/>
<path fill="#FFFFFF" d="M18.5,18.8c-0.2,0-0.3,0.1-0.4,0.3c0,0.2,0.1,0.3,0.3,0.4c3.5,0.4,5.4,1.5,5.4,2.2c0,0.9-3.5,2.2-9.3,2.2
	c-5.8,0-9.3-1.3-9.3-2.2c0-0.6,1.9-1.8,5.4-2.2c0.2,0,0.3-0.2,0.3-0.4c0-0.2-0.2-0.3-0.4-0.3c-3.5,0.4-6,1.6-6,2.8
	c0,1.4,3.4,2.8,10,2.8s10-1.4,10-2.8C24.5,20.4,22,19.2,18.5,18.8L18.5,18.8z M18.5,18.8"/>
</svg>
