<?xml version="1.0" encoding="utf-8"?>
<!-- Generator: Adobe Illustrator 18.0.0, SVG Export Plug-In . SVG Version: 6.00 Build 0)  -->
<!DOCTYPE svg PUBLIC "-//W3C//DTD SVG 1.1//EN" "http://www.w3.org/Graphics/SVG/1.1/DTD/svg11.dtd">
<svg version="1.1" id="Layer_1" xmlns="http://www.w3.org/2000/svg" xmlns:xlink="http://www.w3.org/1999/xlink" x="0px" y="0px"
	 viewBox="0 0 29 29" enable-background="new 0 0 29 29" xml:space="preserve">
<path fill="#FFFFFF" d="M14.7,4.8c-2.7,0-4.9,1-6.8,3.1L7.6,8.2l2.6,2.8l0.3-0.3c1.3-1.3,2.6-2,4-2c1.6,0,2.6,0.8,2.6,2.2
	c0,1.6-1.5,2.4-4.5,2.5l-0.2,0l-0.4,0.4l0.6,4.9h2.9l0.3-2.2l0.1,0c3.5-0.7,5.4-2.8,5.4-5.8C21.4,7.1,18.7,4.8,14.7,4.8z M15.5,15.6
	l-0.3,0.1l-0.3,2.1h-1.4l0-0.1L13,14.2l0.1,0c3.3-0.2,5-1.3,5-3.4c0-1.8-1.4-3-3.5-3c-1.6,0-3,0.6-4.3,1.9l-0.1,0.1L8.8,8.2l0.1-0.1
	c1.6-1.7,3.5-2.5,5.8-2.5c3.6,0,5.8,2,5.8,5C20.5,13.4,18.8,15.1,15.5,15.6z"/>
<path fill="#FFFFFF" d="M12.2,24.2H16v-3.8h-3.8V24.2z M13,21.1h2.3v2.4H13V21.1z"/>
</svg>
