<?xml version="1.0" encoding="utf-8"?>
<!-- Generator: Adobe Illustrator 18.0.0, SVG Export Plug-In . SVG Version: 6.00 Build 0)  -->
<!DOCTYPE svg PUBLIC "-//W3C//DTD SVG 1.1//EN" "http://www.w3.org/Graphics/SVG/1.1/DTD/svg11.dtd">
<svg version="1.1" id="Layer_1" xmlns="http://www.w3.org/2000/svg" xmlns:xlink="http://www.w3.org/1999/xlink" x="0px" y="0px"
	 viewBox="0 0 29 29" enable-background="new 0 0 29 29" xml:space="preserve">
<path fill="#FFFFFF" d="M14.5,21.1c-1.3,0-2.7-0.7-3.5-1.9c-0.1-0.1-0.1-0.4,0.1-0.5c0.1-0.1,0.4-0.1,0.5,0.1c0.7,1,1.9,1.6,3,1.6
	c1.6,0,3.4-1.3,3.7-3.4c0-0.2,0.2-0.3,0.4-0.3c0.2,0,0.3,0.2,0.3,0.4c-0.1,1.1-0.7,2.2-1.6,2.9C16.5,20.7,15.5,21.1,14.5,21.1
	L14.5,21.1z M14.5,21.1"/>
<path fill="#FFFFFF" d="M19.7,17.3h-2.3c-0.1,0-0.2-0.1-0.3-0.2c-0.1-0.1-0.1-0.2,0-0.3l1.2-1.8c0.1-0.1,0.2-0.1,0.3-0.1
	c0.1,0,0.2,0.1,0.3,0.1l1.2,1.8c0.1,0.1,0.1,0.2,0,0.3C19.9,17.2,19.8,17.3,19.7,17.3L19.7,17.3z M18,16.6h1.1l-0.6-0.8L18,16.6z
	 M18,16.6"/>
<path fill="#FFFFFF" d="M10.5,16.1C10.5,16.1,10.5,16.1,10.5,16.1c-0.2,0-0.3-0.2-0.3-0.4c0.1-1.1,0.7-2.2,1.6-2.9
	c0.8-0.7,1.8-1.1,2.8-1.1c1.3,0,2.7,0.7,3.5,1.9c0.1,0.1,0.1,0.4-0.1,0.5c-0.1,0.1-0.4,0.1-0.5-0.1c-0.7-1-1.9-1.6-3-1.6
	c-1.6,0-3.4,1.3-3.7,3.4C10.8,16,10.7,16.1,10.5,16.1L10.5,16.1z M10.5,16.1"/>
<path fill="#FFFFFF" d="M10.5,17.9c-0.1,0-0.2-0.1-0.3-0.1L9,16C9,15.9,9,15.8,9,15.6c0.1-0.1,0.2-0.2,0.3-0.2h2.3
	c0.1,0,0.2,0.1,0.3,0.2c0.1,0.1,0.1,0.2,0,0.3l-1.2,1.8C10.7,17.9,10.6,17.9,10.5,17.9L10.5,17.9z M9.9,16.1l0.6,0.8l0.6-0.8H9.9z
	 M9.9,16.1"/>
<path fill="#FFFFFF" d="M14.5,18.7c-0.7,0-1.3-0.6-1.3-1.3c0-0.2,0.1-0.3,0.3-0.3c0.2,0,0.3,0.1,0.3,0.3c0,0.3,0.3,0.6,0.6,0.6
	c0.3,0,0.6-0.3,0.6-0.6c0-0.3-0.3-0.6-0.6-0.6c-0.7,0-1.3-0.6-1.3-1.3c0-0.7,0.6-1.3,1.3-1.3c0.7,0,1.3,0.6,1.3,1.3
	c0,0.2-0.1,0.3-0.3,0.3c-0.2,0-0.3-0.1-0.3-0.3c0-0.3-0.3-0.6-0.6-0.6c-0.3,0-0.6,0.3-0.6,0.6c0,0.3,0.3,0.6,0.6,0.6
	c0.7,0,1.3,0.6,1.3,1.3S15.2,18.7,14.5,18.7L14.5,18.7z M14.5,18.7"/>
<path fill="#FFFFFF" d="M14.5,14.9c-0.2,0-0.3-0.1-0.3-0.3v-0.5c0-0.2,0.1-0.3,0.3-0.3c0.2,0,0.3,0.1,0.3,0.3v0.5
	C14.8,14.8,14.7,14.9,14.5,14.9L14.5,14.9z M14.5,14.9"/>
<path fill="#FFFFFF" d="M14.5,19.3c-0.2,0-0.3-0.1-0.3-0.3v-0.6c0-0.2,0.1-0.3,0.3-0.3c0.2,0,0.3,0.1,0.3,0.3V19
	C14.8,19.1,14.7,19.3,14.5,19.3L14.5,19.3z M14.5,19.3"/>
<path fill="#FFFFFF" d="M22.3,23.3H6.7c-1.2,0-2.2-1-2.2-2.2V7.9c0-1.2,1-2.2,2.2-2.2h15.6c1.2,0,2.2,1,2.2,2.2v13.2
	C24.5,22.3,23.5,23.3,22.3,23.3L22.3,23.3z M6.7,6.3C5.9,6.3,5.2,7,5.2,7.9v13.2c0,0.9,0.7,1.6,1.6,1.6h15.6c0.9,0,1.6-0.7,1.6-1.6
	V7.9c0-0.9-0.7-1.6-1.6-1.6H6.7z M6.7,6.3"/>
<path fill="#FFFFFF" d="M24.2,11H4.8c-0.2,0-0.3-0.1-0.3-0.3c0-0.2,0.1-0.3,0.3-0.3h19.3c0.2,0,0.3,0.1,0.3,0.3
	C24.5,10.8,24.4,11,24.2,11L24.2,11z M24.2,11"/>
<path fill="#FFFFFF" d="M10.1,9.4c-0.6,0-1-0.5-1-1c0-0.6,0.5-1,1-1c0.6,0,1,0.5,1,1C11.2,8.9,10.7,9.4,10.1,9.4L10.1,9.4z M10.1,8
	C9.9,8,9.8,8.1,9.8,8.3c0,0.2,0.2,0.4,0.4,0.4c0.2,0,0.4-0.2,0.4-0.4C10.5,8.1,10.4,8,10.1,8L10.1,8z M10.1,8"/>
<path fill="#FFFFFF" d="M6.9,9.4c-0.6,0-1-0.5-1-1c0-0.6,0.5-1,1-1c0.6,0,1,0.5,1,1C8,8.9,7.5,9.4,6.9,9.4L6.9,9.4z M6.9,7.9
	c-0.2,0-0.4,0.2-0.4,0.4c0,0.2,0.2,0.4,0.4,0.4c0.2,0,0.4-0.2,0.4-0.4C7.3,8.1,7.1,7.9,6.9,7.9L6.9,7.9z M6.9,7.9"/>
<path fill="#FFFFFF" d="M13.4,9.4c-0.6,0-1-0.5-1-1c0-0.6,0.5-1,1-1c0.6,0,1,0.5,1,1C14.4,8.9,13.9,9.4,13.4,9.4L13.4,9.4z M13.4,8
	C13.1,8,13,8.1,13,8.3c0,0.2,0.2,0.4,0.4,0.4c0.2,0,0.4-0.2,0.4-0.4C13.7,8.1,13.6,8,13.4,8L13.4,8z M13.4,8"/>
</svg>
