<?xml version="1.0" encoding="utf-8"?>
<!-- Generator: Adobe Illustrator 18.0.0, SVG Export Plug-In . SVG Version: 6.00 Build 0)  -->
<!DOCTYPE svg PUBLIC "-//W3C//DTD SVG 1.1//EN" "http://www.w3.org/Graphics/SVG/1.1/DTD/svg11.dtd">
<svg version="1.1" id="Layer_1" xmlns="http://www.w3.org/2000/svg" xmlns:xlink="http://www.w3.org/1999/xlink" x="0px" y="0px"
	 viewBox="0 0 29 29" enable-background="new 0 0 29 29" xml:space="preserve">
<g>
	<path fill="#FFFFFF" d="M22.9,4.5H6.1c-0.9,0-1.6,0.7-1.6,1.6v11.8c0,0.9,0.7,1.6,1.6,1.6h5.8l-0.6,3.2H9.9c-0.3,0-0.7,0.2-0.8,0.5
		c-0.1,0.3-0.1,0.6,0,0.9c0.2,0.3,0.5,0.4,0.8,0.4h9.3c0.3,0,0.6-0.2,0.8-0.4c0.2-0.3,0.2-0.6,0-0.9c-0.2-0.3-0.5-0.5-0.8-0.5h-1.4
		l-0.6-3.2h5.8c0.9,0,1.6-0.7,1.6-1.6V6.1C24.5,5.2,23.8,4.5,22.9,4.5z M17.3,22.7h-1.1c-0.1,0-0.2,0.1-0.2,0.2s0.1,0.2,0.2,0.2h3
		c0.2,0,0.3,0.1,0.4,0.2c0.1,0.2,0,0.4,0,0.4c0,0.1-0.2,0.2-0.4,0.2H9.9c-0.2,0-0.3-0.1-0.4-0.2c0-0.1-0.1-0.2,0-0.4
		c0.1-0.2,0.2-0.2,0.4-0.2h4.3c0.1,0,0.2-0.1,0.2-0.2s-0.1-0.2-0.2-0.2h-2.4l0.6-3.2h4.3L17.3,22.7z M24,17.9c0,0.6-0.5,1.1-1.1,1.1
		H6.1C5.5,19,5,18.5,5,17.9v-1.1H24V17.9z M24,16.3H5V6.1C5,5.5,5.5,5,6.1,5h16.8C23.5,5,24,5.5,24,6.1V16.3z"/>
	<path fill="#FFFFFF" d="M17.5,10.9h-3.5V7.4c0-0.1-0.1-0.2-0.2-0.2c-2.2,0-3.9,1.8-3.9,3.9s1.8,3.9,3.9,3.9s3.9-1.8,3.9-3.9
		C17.8,11,17.7,10.9,17.5,10.9z M17.3,11.5c-0.1,0.9-0.5,1.6-1.1,2.2c-0.6,0.6-1.5,0.9-2.3,0.9c-1.9,0-3.5-1.6-3.5-3.5
		c0-0.9,0.3-1.7,0.9-2.3c0.6-0.6,1.4-1,2.2-1.1l0.1,0v3.5c0,0.1,0.1,0.2,0.2,0.2h3.5L17.3,11.5z"/>
	<path fill="#FFFFFF" d="M15.2,5.8c-0.1,0-0.2,0.1-0.2,0.2v3.7c0,0.1,0.1,0.2,0.2,0.2h3.7c0.1,0,0.2-0.1,0.2-0.2
		C19.1,7.6,17.3,5.8,15.2,5.8z M18.6,9.5h-3.2V6.3l0.1,0c1.6,0.2,2.9,1.5,3.1,3.1L18.6,9.5z"/>
	<path fill="#FFFFFF" d="M13.8,18.1h1.3c0.1,0,0.2-0.1,0.2-0.2c0-0.1-0.1-0.2-0.2-0.2h-1.3c-0.1,0-0.2,0.1-0.2,0.2
		C13.6,18,13.7,18.1,13.8,18.1z"/>
</g>
</svg>
