<?xml version="1.0" encoding="utf-8"?>
<!-- Generator: Adobe Illustrator 18.0.0, SVG Export Plug-In . SVG Version: 6.00 Build 0)  -->
<!DOCTYPE svg PUBLIC "-//W3C//DTD SVG 1.1//EN" "http://www.w3.org/Graphics/SVG/1.1/DTD/svg11.dtd">
<svg version="1.1" id="Layer_1" xmlns="http://www.w3.org/2000/svg" xmlns:xlink="http://www.w3.org/1999/xlink" x="0px" y="0px"
	 viewBox="0 0 28 28" enable-background="new 0 0 28 28" xml:space="preserve">
<g>
	<g>
		<path fill="#FFFFFF" d="M14,3.1c-0.3,0-0.5,0.2-0.5,0.5V5l-2.4,0.8L6.6,6.7c-0.1,0-0.1,0-0.2,0.1l-5,3.2c-0.2,0.1-0.3,0.4-0.1,0.6
			l3.2,5c0.1,0.1,0.2,0.2,0.3,0.2c0.1,0,0.3,0,0.4-0.1l1.1-1v12.5c0,0.3,0.2,0.5,0.5,0.5h14.6c0.3,0,0.5-0.2,0.5-0.5V14.8l1.1,0.9
			c0.1,0.1,0.2,0.1,0.4,0.1c0.1,0,0.2-0.1,0.3-0.2l3.2-4.5c0.1-0.2,0.1-0.5-0.1-0.6l-5-3.6c-0.1,0-0.1-0.1-0.2-0.1l-4.5-0.9L14.5,5
			V3.9c0.9-0.2,1.5-1.1,1.3-2.1c-0.2-0.9-1-1.6-1.9-1.5c-0.9,0.1-1.7,0.9-1.7,1.8c0,0.3,0.2,0.5,0.5,0.5c0.3,0,0.5-0.2,0.5-0.5
			c0-0.5,0.4-0.9,0.9-0.9c0.5,0,0.9,0.4,0.9,0.9C14.9,2.7,14.5,3.1,14,3.1L14,3.1z M14,5.8l2.2,0.7c-0.2,1.1-1.1,2-2.2,2
			c-1.1,0-2.1-0.8-2.2-2L14,5.8z M25.7,10.9L23,14.7l-1.4-1.2c-0.1-0.1-0.3-0.1-0.5-0.1c-0.2,0.1-0.3,0.2-0.3,0.4v12.9H7.2v-13
			c0-0.2-0.1-0.3-0.3-0.4c-0.2-0.1-0.4,0-0.5,0.1L5,14.7l-2.7-4.2l4.5-2.9l4-0.8c0.3,1.5,1.6,2.6,3.1,2.6c1.5,0,2.9-1.1,3.1-2.6
			l4,0.8L25.7,10.9z M25.7,10.9"/>
	</g>
</g>
<g>
	<path fill="#FFFFFF" d="M16.1,16.1c-0.5-0.4-1-0.6-1.5-0.7v2.1c1.7,0.4,2.4,1.1,2.4,2.3v0c0,1.2-0.9,2-2.4,2.1V23h-1v-1.1
		c-1-0.1-1.9-0.5-2.6-1.1l0.7-1c0.6,0.5,1.2,0.8,1.9,1v-2.2c-1.6-0.4-2.4-1-2.4-2.3v0c0-1.2,0.9-2,2.3-2.1v-0.6h1v0.7
		c0.8,0.1,1.5,0.4,2.1,0.8L16.1,16.1z M13.7,17.3v-2c-0.7,0.1-1.1,0.4-1.1,0.9v0C12.6,16.7,12.8,17,13.7,17.3z M14.6,18.8v2
		c0.7-0.1,1.1-0.4,1.1-1v0C15.7,19.4,15.4,19.1,14.6,18.8z"/>
</g>
</svg>
