<?xml version="1.0" encoding="utf-8"?>
<!-- Generator: Adobe Illustrator 18.0.0, SVG Export Plug-In . SVG Version: 6.00 Build 0)  -->
<!DOCTYPE svg PUBLIC "-//W3C//DTD SVG 1.1//EN" "http://www.w3.org/Graphics/SVG/1.1/DTD/svg11.dtd">
<svg version="1.1" id="Layer_1" xmlns="http://www.w3.org/2000/svg" xmlns:xlink="http://www.w3.org/1999/xlink" x="0px" y="0px"
	 viewBox="0 0 29 29" enable-background="new 0 0 29 29" xml:space="preserve">
	<path fill="#FFFFFF" d="M14.5,5.9c-0.2,0-0.4,0.2-0.4,0.4v1.2l-1.9,0.6L8.7,8.8c0,0-0.1,0-0.1,0l-3.9,2.5c-0.2,0.1-0.2,0.3-0.1,0.5
		l2.5,3.9c0.1,0.1,0.1,0.1,0.3,0.2c0.1,0,0.2,0,0.3-0.1l0.8-0.8v9.8c0,0.2,0.2,0.4,0.4,0.4h11.4c0.2,0,0.4-0.2,0.4-0.4v-9.7l0.8,0.7
		c0.1,0.1,0.2,0.1,0.3,0.1c0.1,0,0.2-0.1,0.2-0.1l2.5-3.6c0.1-0.2,0.1-0.4-0.1-0.5l-3.9-2.9c0,0-0.1-0.1-0.1-0.1l-3.6-0.7l-1.9-0.6
		V6.6c0.7-0.2,1.2-0.9,1-1.6c-0.1-0.7-0.8-1.2-1.5-1.2c-0.7,0.1-1.3,0.7-1.3,1.4c0,0.2,0.2,0.4,0.4,0.4c0.2,0,0.4-0.2,0.4-0.4
		c0-0.4,0.3-0.7,0.7-0.7c0.4,0,0.7,0.3,0.7,0.7C15.2,5.6,14.9,5.9,14.5,5.9L14.5,5.9z M14.5,8.1l1.8,0.6c-0.1,0.9-0.9,1.5-1.8,1.5
		c-0.9,0-1.6-0.7-1.8-1.5L14.5,8.1z M23.6,12.1l-2.1,3l-1.1-0.9c-0.1-0.1-0.3-0.1-0.4,0c-0.1,0.1-0.2,0.2-0.2,0.3v10.1H9.1V14.3
		c0-0.1-0.1-0.3-0.2-0.3c-0.1-0.1-0.3,0-0.4,0.1l-1.1,1l-2.1-3.3l3.6-2.3L12,8.9c0.2,1.2,1.2,2.1,2.5,2.1c1.2,0,2.3-0.9,2.5-2.1
		l3.1,0.6L23.6,12.1z M23.6,12.1"/>
</svg>
