<?xml version="1.0" encoding="utf-8"?>
<!-- Generator: Adobe Illustrator 18.0.0, SVG Export Plug-In . SVG Version: 6.00 Build 0)  -->
<!DOCTYPE svg PUBLIC "-//W3C//DTD SVG 1.1//EN" "http://www.w3.org/Graphics/SVG/1.1/DTD/svg11.dtd">
<svg version="1.1" id="Layer_1" xmlns="http://www.w3.org/2000/svg" xmlns:xlink="http://www.w3.org/1999/xlink" x="0px" y="0px"
	 viewBox="0 0 25 25" enable-background="new 0 0 25 25" xml:space="preserve">
<g>
	<path fill="#FFFFFF" d="M20.8,15.1L23.4,6c0-0.1,0-0.3-0.1-0.4c-0.1-0.1-0.2-0.2-0.4-0.2H6.9L6.4,3.2c0-0.2-0.2-0.4-0.4-0.4H2
		C1.8,2.8,1.6,3,1.6,3.3S1.8,3.7,2,3.7h3.6L8,14.6l-0.2,0.1c-0.6,0.3-1.1,0.9-1.1,1.6c0,1,0.8,1.8,1.8,1.8h11.8
		c0.2,0,0.5-0.2,0.5-0.5c0-0.2-0.2-0.5-0.5-0.5H8.5c-0.5,0-0.9-0.4-0.9-0.9c0-0.5,0.4-0.9,0.9-0.9l11.8,0
		C20.6,15.5,20.7,15.3,20.8,15.1z M8.9,14.6L7.1,6.3h15.3L20,14.6H8.9z"/>
</g>
<path fill="#FFFFFF" d="M9.6,20.7c0,0.8,0.7,1.5,1.5,1.5s1.5-0.7,1.5-1.5c0-0.8-0.7-1.5-1.5-1.5S9.6,19.9,9.6,20.7z M11,20.2
	c0.3,0,0.5,0.2,0.5,0.5s-0.2,0.5-0.5,0.5s-0.5-0.2-0.5-0.5S10.8,20.2,11,20.2z"/>
<path fill="#FFFFFF" d="M16.4,20.7c0,0.8,0.7,1.5,1.5,1.5c0.8,0,1.5-0.7,1.5-1.5c0-0.8-0.7-1.5-1.5-1.5
	C17.1,19.3,16.4,19.9,16.4,20.7z M17.9,20.2c0.3,0,0.5,0.2,0.5,0.5s-0.2,0.5-0.5,0.5s-0.5-0.2-0.5-0.5S17.6,20.2,17.9,20.2z"/>
</svg>
