<?xml version="1.0" encoding="utf-8"?>
<!-- Generator: Adobe Illustrator 18.0.0, SVG Export Plug-In . SVG Version: 6.00 Build 0)  -->
<!DOCTYPE svg PUBLIC "-//W3C//DTD SVG 1.1//EN" "http://www.w3.org/Graphics/SVG/1.1/DTD/svg11.dtd">
<svg version="1.1" id="Layer_1" xmlns="http://www.w3.org/2000/svg" xmlns:xlink="http://www.w3.org/1999/xlink" x="0px" y="0px"
	 viewBox="0 0 29 29" enable-background="new 0 0 29 29" xml:space="preserve">
<path fill="#FFFFFF" d="M8.5,24c-0.1,0-0.1,0-0.2-0.1c-0.1-0.1-0.2-0.2-0.1-0.4l1.1-6.4l-4.7-4.6c-0.1-0.1-0.1-0.2-0.1-0.4
	c0-0.1,0.2-0.2,0.3-0.2l6.5-0.9l2.9-5.9C14.2,5,14.4,5,14.5,5c0.1,0,0.3,0.1,0.3,0.2l2.9,5.9l6.5,0.9c0.1,0,0.2,0.1,0.3,0.2
	c0,0.1,0,0.3-0.1,0.4l-4.7,4.6l1.1,6.4c0,0.1,0,0.3-0.1,0.3c-0.1,0.1-0.3,0.1-0.4,0l-5.8-3l-5.8,3C8.7,24,8.6,24,8.5,24L8.5,24z
	 M5.6,12.6l4.3,4.2c0.1,0.1,0.1,0.2,0.1,0.3L9,23l5.3-2.8c0.1-0.1,0.2-0.1,0.3,0L20,23l-1-5.9c0-0.1,0-0.2,0.1-0.3l4.3-4.2l-5.9-0.9
	c-0.1,0-0.2-0.1-0.3-0.2l-2.7-5.4l-2.7,5.4c-0.1,0.1-0.2,0.2-0.3,0.2L5.6,12.6z M5.6,12.6"/>
</svg>
