<?xml version="1.0" encoding="utf-8"?>
<!-- Generator: Adobe Illustrator 18.0.0, SVG Export Plug-In . SVG Version: 6.00 Build 0)  -->
<!DOCTYPE svg PUBLIC "-//W3C//DTD SVG 1.1//EN" "http://www.w3.org/Graphics/SVG/1.1/DTD/svg11.dtd">
<svg version="1.1" id="Layer_1" xmlns="http://www.w3.org/2000/svg" xmlns:xlink="http://www.w3.org/1999/xlink" x="0px" y="0px"
	 viewBox="0 0 29 29" enable-background="new 0 0 29 29" xml:space="preserve">
<path fill="#FFFFFF" d="M15.5,13.2l-0.4-0.1V7.5l0.6,0.1c1,0.2,2,0.7,3.1,1.4l0.9-1.5c-1.3-0.9-2.6-1.3-4-1.5l-0.4-0.1V4.5h-1.2v1.4
	l-0.4,0C10.8,6.2,9,7.8,9,10.1c0,2.4,1.3,3.7,4.9,4.6l0.3,0.1v5.7l-0.5-0.1c-1.4-0.2-2.7-0.8-4.1-1.9l-1,1.5
	c1.5,1.1,3.3,1.8,5.2,2.1l0.4,0v2.4h1.2v-2.4l0.4,0c3-0.3,4.8-1.9,4.8-4.3C20.5,15.4,19.1,14.1,15.5,13.2z M14.2,12.9l-0.6-0.2
	c-1.9-0.6-2.7-1.4-2.7-2.7c0-1.4,1-2.4,2.8-2.5l0.5,0V12.9z M15.7,20.6l-0.5,0.1V15l0.6,0.2c2,0.6,2.8,1.4,2.8,2.7
	C18.5,19.4,17.5,20.4,15.7,20.6z"/>
</svg>
