<?xml version="1.0" encoding="utf-8"?>
<!-- Generator: Adobe Illustrator 18.0.0, SVG Export Plug-In . SVG Version: 6.00 Build 0)  -->
<!DOCTYPE svg PUBLIC "-//W3C//DTD SVG 1.1//EN" "http://www.w3.org/Graphics/SVG/1.1/DTD/svg11.dtd">
<svg version="1.1" xmlns="http://www.w3.org/2000/svg" xmlns:xlink="http://www.w3.org/1999/xlink" x="0px" y="0px"
	 viewBox="0 0 27 25" enable-background="new 0 0 27 25" xml:space="preserve">
<g id="Layer_1">
	<g>
		<path fill="#181B48" d="M21,17.2c-0.1,0-0.2,0-0.3-0.1l-4.5-4.2c-0.2-0.1-0.2-0.4,0-0.6c0.1-0.2,0.4-0.2,0.6,0l4.5,4.2
			c0.2,0.1,0.2,0.4,0,0.6C21.2,17.2,21.1,17.2,21,17.2z"/>
		<path fill="#181B48" d="M6,17.2c-0.1,0-0.2,0-0.3-0.1c-0.1-0.2-0.1-0.4,0-0.6l4.5-4.2c0.2-0.1,0.4-0.1,0.6,0
			c0.1,0.2,0.1,0.4,0,0.6l-4.5,4.2C6.2,17.2,6.1,17.2,6,17.2z"/>
	</g>
	<path fill="#181B48" d="M23.7,21.1H3.3c-1.1,0-2-0.9-2-2V5.8c0-1.1,0.9-2,2-2h20.4c1.1,0,2,0.9,2,2v13.4
		C25.7,20.3,24.8,21.1,23.7,21.1z M3.3,4.6c-0.6,0-1.2,0.5-1.2,1.2v13.4c0,0.6,0.5,1.2,1.2,1.2h20.4c0.6,0,1.2-0.5,1.2-1.2V5.8
		c0-0.6-0.5-1.2-1.2-1.2H3.3z"/>
	<path fill="#181B48" d="M13.5,14.5c-0.5,0-1-0.2-1.4-0.5L2,5.2C1.8,5,1.8,4.8,2,4.6c0.1-0.2,0.4-0.2,0.6,0l10.1,8.8
		c0.5,0.4,1.3,0.4,1.8,0l10.1-8.8c0.2-0.1,0.4-0.1,0.6,0c0.1,0.2,0.1,0.4,0,0.6l-10.1,8.8C14.5,14.3,14,14.5,13.5,14.5z"/>
</g>
<g id="Layer_2">
</g>
<g id="Layer_3">
</g>
</svg>
