<?xml version="1.0" encoding="utf-8"?>
<!-- Generator: Adobe Illustrator 18.0.0, SVG Export Plug-In . SVG Version: 6.00 Build 0)  -->
<!DOCTYPE svg PUBLIC "-//W3C//DTD SVG 1.1//EN" "http://www.w3.org/Graphics/SVG/1.1/DTD/svg11.dtd">
<svg version="1.1" xmlns="http://www.w3.org/2000/svg" xmlns:xlink="http://www.w3.org/1999/xlink" x="0px" y="0px"
	 viewBox="0 0 27 25" enable-background="new 0 0 27 25" xml:space="preserve">
<g id="Layer_1">
	<g>
		<path fill="#181B48" d="M15.2,9.1V6.7c0-1,0.2-1.3,1.2-1.3c1.2,0,2.3,0,2.4,0l0.4,0l0.1-4.2l-0.3,0c0,0-1.2-0.1-2.7-0.1
			c-4.2,0-5.7,2.8-5.7,5.2v2.8H7.7v4.5h2.7v10.4h4.7V13.6h3.9l0.2-4.5H15.2z M18.3,12.8h-3.9v10.4h-3.2l0-10.4H8.5v-3h2.7V6.3
			c0-2.1,1.3-4.4,5-4.4c0.9,0,1.6,0.1,2.1,0.1l0.1,0l-0.1,2.7l-0.1,0c-0.4,0-1.1,0-1.9,0c-1.7,0-2,1-2,2v3.1h4L18.3,12.8z"/>
	</g>
</g>
<g id="Layer_2">
</g>
<g id="Layer_3">
</g>
</svg>
