<?xml version="1.0" encoding="utf-8"?>
<!-- Generator: Adobe Illustrator 18.0.0, SVG Export Plug-In . SVG Version: 6.00 Build 0)  -->
<!DOCTYPE svg PUBLIC "-//W3C//DTD SVG 1.1//EN" "http://www.w3.org/Graphics/SVG/1.1/DTD/svg11.dtd">
<svg version="1.1" xmlns="http://www.w3.org/2000/svg" xmlns:xlink="http://www.w3.org/1999/xlink" x="0px" y="0px"
	 viewBox="0 0 27 25" enable-background="new 0 0 27 25" xml:space="preserve">
<g id="Layer_1">
	<path fill="#181B48" d="M21.3,4.5c-2.2-2.2-5.2-3.3-8.4-3.2C7,1.6,2.3,6.5,2.3,12.5c0,1.8,0.4,3.5,1.2,5l0.1,0.2l-1.2,6l5.8-1.4
		l0.2,0.1c1.5,0.7,3.1,1.1,4.8,1.2c0.1,0,0.1,0,0.2,0c6,0,11-4.8,11.2-10.8C24.8,9.7,23.6,6.7,21.3,4.5z M20.6,19.6
		C20.6,19.6,20.6,19.6,20.6,19.6c-1.9,1.9-4.4,3-7.1,3c-1.6,0-3.1-0.4-4.5-1.1l-0.6-0.3l-4.6,1.1l1-4.7L4.5,17
		c-0.7-1.4-1.1-3-1.1-4.6c0-2.7,1-5.2,3-7.1c1.9-1.9,4.5-3,7.1-3c2.7,0,5.2,1,7.1,3c1.9,1.9,3,4.4,3,7.1
		C23.6,15.1,22.5,17.7,20.6,19.6z"/>
	<path fill="#181B48" d="M18.9,15.6L16.6,15c-0.1,0-0.2,0-0.3,0.1l-0.6,0.6c-0.4,0.4-1,0.5-1.6,0.3c-1.2-0.5-3.6-2.6-4.3-3.8
		c-0.3-0.5-0.2-1.1,0.1-1.6l0.5-0.6c0.1-0.1,0.1-0.2,0-0.3l-1-2.2c0-0.1-0.1-0.1-0.2-0.1c0,0,0,0-0.1,0c0,0-0.1,0-0.2,0.1
		C8.4,8,8,8.7,7.9,9.3c-0.2,1.7,0.8,3.6,3,5.6c3.1,2.9,5.4,2.9,6.5,2.7c0.6-0.1,1.2-0.7,1.7-1.5c0.1-0.1,0-0.2,0-0.2
		C19.1,15.7,19,15.7,18.9,15.6z"/>
</g>
<g id="Layer_2">
</g>
<g id="Layer_3">
</g>
</svg>
